<?xml version="1.0" standalone="no"?>
<svg xmlns:xlink="http://www.w3.org/1999/xlink" width="128" height="128" viewBox="0 0 24 24" id="_24x24_On_Light_Wave" data-name="24x24/On Light/Wave" xmlns="http://www.w3.org/2000/svg">
  
  <path id="Path" d="M6.148,12.862C4.784,11.659,2.9,10.026.534,7.916A1.049,1.049,0,0,1,.475,6.45a1.074,1.074,0,0,1,1.479-.11C4.111,7.795,5.814,9,7.087,9.907c.455.326.757.273.9.1s.08-.413-.307-.888C6.6,7.783,5.12,6.013,3.3,3.767a1.028,1.028,0,0,1,.13-1.447,1.128,1.128,0,0,1,1.516.062Q8.361,5.589,10.3,7.464c.443.43.667.492.861.418s.313-.3.1-.682C10.5,5.846,9.458,4.031,8.2,1.713A1.07,1.07,0,0,1,8.384.244,1.1,1.1,0,0,1,9.878.352l5.8,7.669c.193.255.3.337.471.3s.187-.148.226-.455c.127-1,.382-3.238.382-3.238a1.176,1.176,0,0,1,1.217-.953A1.082,1.082,0,0,1,19,4.753v9.354a6.072,6.072,0,0,1-3.228,5.09,5.944,5.944,0,0,1-6.344-.245L.448,13.484a1.074,1.074,0,0,1-.275-1.458A1.059,1.059,0,0,1,1.61,11.7c1.863.861,3.313,1.534,4.456,2.075.323.153.563.058.64-.126S6.629,13.286,6.148,12.862Z" transform="translate(2 2)" fill="#0077b6" style="fill: rgb(0, 119, 182);"/>
</svg>