<svg version="1.2" xmlns="http://www.w3.org/2000/svg" viewBox="0 0 1244 1628" width="1244" height="1628">
	<style>
		.s0 { fill: #2da6f7 } 
		.s1 { fill: #2f89f4 } 
		.s2 { fill: #ffffff } 
	</style>
	<g id="Objects">
		<g id="&lt;Group&gt;">
			<path id="&lt;Path&gt;" class="s0" d="m1243.21 127.8v986.85c0 70.57-57.2 127.78-127.77 127.78h-194.8l-259.44 365.33c-19.17 26.99-59.24 26.99-78.4 0l-259.44-365.33h-194.77c-70.6 0-127.81-57.21-127.81-127.78v-986.85c0-70.56 57.21-127.8 127.81-127.8h986.82c70.58 0 127.8 57.22 127.8 127.8z"/>
			<path id="&lt;Path&gt;" class="s1" d="m1243.22 127.8v986.85c0 70.57-57.21 127.78-127.78 127.78h-194.8l-259.44 365.33c-9.58 13.5-24.39 20.24-39.2 20.24v-1628h493.41c70.59 0 127.81 57.22 127.81 127.8z"/>
			<path id="&lt;Path&gt;" class="s1" d="m165.72 1139.26c-34.05 0-61.75-27.71-61.75-61.76v-912.55c0-34.05 27.7-61.76 61.75-61.76h912.55c34.06 0 61.76 27.71 61.76 61.76v912.55c0 34.05-27.7 61.76-61.76 61.76z"/>
			<path id="&lt;Path&gt;" class="s2" d="m1071.83 1085.54h-899.66c-8 0-14.49-6.48-14.49-14.48v-899.67c0-8 6.49-14.48 14.49-14.48h899.66c8 0 14.48 6.48 14.48 14.48v899.67c0 8-6.48 14.48-14.48 14.48z"/>
			<g id="&lt;Group&gt;">
				<path id="&lt;Path&gt;" class="s0" d="m424.52 705.38l-198.28 262.24c-15.87 20.99-0.9 51.08 25.42 51.08h396.56c26.31 0 41.29-30.09 25.42-51.08l-198.28-262.24c-12.75-16.87-38.09-16.87-50.84 0z"/>
				<path id="&lt;Path&gt;" class="s0" d="m992.33 1018.7h-299.02q2.42-3.43 4.34-7.27c9.39-18.89 7.33-41.07-5.39-57.9l-109.69-145.07 132.01-174.58c12.75-16.87 38.09-16.87 50.84 0l252.34 333.74c15.86 20.98 0.89 51.08-25.43 51.08z"/>
			</g>
			<path id="&lt;Path&gt;" class="s0" d="m480.2 395.6c0 51.88-42.05 93.93-93.92 93.93-51.87 0-93.93-42.05-93.93-93.93 0-51.87 42.06-93.92 93.93-93.92 51.87 0 93.92 42.05 93.92 93.92z"/>
		</g>
	</g>
</svg>