<?xml version="1.0" encoding="utf-8"?>
<!-- Generator: Adobe Illustrator 27.5.0, SVG Export Plug-In . SVG Version: 6.00 Build 0)  -->
<svg version="1.1" id="Layer_1" xmlns="http://www.w3.org/2000/svg" xmlns:xlink="http://www.w3.org/1999/xlink" x="0px" y="0px"
	 viewBox="0 0 531.681 553.852" style="enable-background:new 0 0 531.681 553.852;" xml:space="preserve">
<g>
	<g>
		<path style="fill:#FBE57E;" d="M474.269,50.664H26.628c-10.302,0-18.653,8.351-18.653,18.653v451.827
			c0,13.476,10.925,24.401,24.401,24.401h465.411c14.315,0,25.919-11.604,25.919-25.919V92.709
			C520.459,90.461,483.101,58.376,474.269,50.664z"/>
		<path style="fill:#FBE57E;" d="M496.109,112.092c2.071-0.567,4.101-1.294,6.066-2.147c5.918-2.568,11.531-6.139,16.115-10.699
			c1.983-1.973,3.819-4.215,5.233-6.672c-3.951-2.901-37.011-31.271-47.749-40.601c1.115,2.068,2.141,4.184,3.192,6.284
			c1.169,2.336,2.413,4.627,3.513,6.998c1.367,2.942,2.622,5.933,3.866,8.928c2.421,5.831,4.434,11.787,6.017,17.902
			c1.54,5.95,2.704,12.015,3.446,18.129C495.918,110.839,496.012,111.466,496.109,112.092z"/>
		<path style="fill:#FBE57E;" d="M474.269,50.664c0,0,22.585,28.255,23.27,58.039c0,0,20.838-8.365,26.167-15.994
			C523.706,92.709,487.497,58.719,474.269,50.664z"/>
	</g>
	<g>
		<g>
			<path style="fill:#628C3D;" d="M49.824,50.36c1.394-11.382,5.731-20.481,12.638-26.155c6.639-5.455,15.339-7.319,24.497-5.25
				c21.328,4.813,22.127,33.467,22.152,34.839l-2.365,112.084c-0.275,10.822-3.712,18.858-9.676,22.606
				c-5.069,3.186-11.672,3.1-19.11-0.247c-16.089-7.246-14.354-29.71-14.335-29.937c0.013-0.15,0.019-0.301,0.018-0.453
				l-0.521-77.191c-0.018-2.71-2.231-4.891-4.94-4.873c-2.71,0.018-4.892,2.23-4.874,4.94l0.519,76.997
				c-0.092,1.384-0.395,7.938,1.455,15.462c2.822,11.479,9.269,19.779,18.646,24.002c10.421,4.694,20.491,4.554,28.361-0.392
				c8.837-5.554,13.903-16.452,14.265-30.686l2.366-112.186c0.001-0.043,0.001-0.086,0.001-0.129
				c-0.002-0.379-0.089-9.402-3.598-19.258c-4.266-11.981-11.747-20.141-21.784-23.846c-1.423-0.525-2.896-0.96-4.421-1.305
				c-12.177-2.751-23.857-0.18-32.889,7.24c-9.14,7.509-14.763,19.27-16.294,33.738H49.824z"/>
			<path style="fill:#EE2A25;" d="M49.824,50.36c1.394-11.382,5.731-20.481,12.638-26.155c6.639-5.455,15.339-7.319,24.497-5.25
				c21.328,4.813,22.127,33.467,22.152,34.839l-2.365,112.084c-0.275,10.822-3.712,18.858-9.676,22.606
				c-5.069,3.186-11.672,3.1-19.11-0.247c-16.089-7.246-14.354-29.71-14.335-29.937c0.013-0.15,0.019-0.301,0.018-0.453
				l-0.521-77.191c-0.018-2.71-2.231-4.891-4.94-4.873c-2.71,0.018-4.892,2.23-4.874,4.94l0.519,76.997
				c-0.092,1.384-0.395,7.938,1.455,15.462c2.822,11.479,9.269,19.779,18.646,24.002c10.421,4.694,20.491,4.554,28.361-0.392
				c8.837-5.554,13.903-16.452,14.265-30.686l2.366-112.186c0.001-0.043,0.001-0.086,0.001-0.129
				c-0.002-0.379-0.089-9.402-3.598-19.258c-4.266-11.981-11.747-20.141-21.784-23.846c-1.423-0.525-2.896-0.96-4.421-1.305
				c-12.177-2.751-23.857-0.18-32.889,7.24c-9.14,7.509-14.763,19.27-16.294,33.738H49.824z"/>
			<path style="fill:#F9B18A;" d="M44.289,50.36c0.731-10.299,4.585-22.957,4.585-22.957c-4.55,6.327-6.346,16.525-7.049,22.957
				H44.289z"/>
			<path style="fill:#F9B18A;" d="M74.771,194.892c-1.294-1.686-0.499-0.189-0.727-0.334c-0.131-0.083-0.296-0.191-0.492-0.321
				c-2.926-1.952-12.635-9.122-15.337-19.936c-3.194-12.781-3.079-90.265-3.079-90.265s-0.193-3.763,1.224-4.031
				c1.417-0.268,3.474,82.764,3.474,82.764s-0.015,18.387,15.525,28.671C88.44,200.097,76.275,196.851,74.771,194.892z"/>
		</g>
		<path style="opacity:0.68;fill:#AC121B;" d="M106.22,181.223c-0.004-0.007-0.008-0.013-0.012-0.02
			c1.529-6.55,1.667-13.516,1.667-13.516s6.46-109.903,0.306-129.384c-6.154-19.481-22.418-21.964-26.219-22.687
			c-3.801-0.723-0.285-2.682-0.285-2.682c12.825-2.748,23.76,10.402,23.76,10.402c10.418,13.714,9.787,34.226,9.787,34.226
			s-3.176,111.189-4.617,120.24c-0.284,1.784-0.877,3.419-1.641,4.899C107.82,183.163,106.797,182.091,106.22,181.223z"/>
	</g>
</g>
</svg>
