<svg version="1.2" xmlns="http://www.w3.org/2000/svg" viewBox="0 0 585 453" width="585" height="453">
	<style>
		.s0 { fill: #5d7a7f } 
		.s1 { opacity: .18;fill: #000000 } 
		.s2 { opacity: .51;fill: #f2f2f2 } 
		.s3 { fill: #153e49 } 
		.s4 { fill: #f7d77f } 
		.s5 { opacity: .61;fill: #ffffff } 
		.s6 { fill: #ba656d } 
	</style>
	<g id="_Artboards_">
	</g>
	<g id="Background">
	</g>
	<g id="object">
		<g id="&lt;Group&gt;">
			<g id="&lt;Group&gt;">
				<g id="&lt;Group&gt;">
					<path id="&lt;Path&gt;" class="s0" d="m454.4 331.53l-21.25 34.57-141.74-88.7 21.25-34.56z"/>
					<path id="&lt;Path&gt;" class="s1" d="m293.53 278.73l83.21 4.21-61.96-38.77c0 0-9.95 20.53-21.25 34.56z"/>
				</g>
				<path id="&lt;Path&gt;" class="s2" d="m252.04 36.03c73.79 46.17 96.5 143.94 50.74 218.38-45.77 74.44-142.68 97.35-216.47 51.18-73.78-46.17-96.49-143.94-50.73-218.38 45.77-74.43 142.68-97.35 216.46-51.18z"/>
				<path id="&lt;Path&gt;" class="s1" d="m228.33 294.96c-28.3 8.24-57.54 10.07-86.71 6.22-27.94-3.69-57.83-12.16-81.2-28.58-9.72-6.82-18.63-14.76-25.95-24.13 20.49 34.4 53.84 61.04 95.4 71.87 63.3 16.5 127.56-8.34 164.71-57.83-19.53 14.97-42.87 25.63-66.25 32.45z"/>
				<path id="&lt;Path&gt;" class="s3" d="m581.7 428.26l-9.16 14.9c-6.05 9.84-18.87 12.87-28.62 6.76l-145.31-90.92c-1.6-1-2.09-3.13-1.1-4.75l27.47-44.68c1-1.62 3.1-2.11 4.71-1.11l145.3 90.92c9.76 6.11 12.76 19.03 6.71 28.88z"/>
				<path id="&lt;Path&gt;" class="s4" d="m455.41 323.04l-31.07 50.54-6.03-3.77 31.08-50.54z"/>
				<path id="&lt;Path&gt;" class="s4" d="m469.67 332.39l-31.07 50.55-6.03-3.77 31.08-50.54z"/>
				<g id="&lt;Group&gt;">
					<path id="&lt;Compound Path&gt;" fill-rule="evenodd" class="s3" d="m312.42 260.44c-48.99 79.68-153.1 104.3-232.08 54.88-78.98-49.43-103.39-154.46-54.4-234.14 48.99-79.68 153.1-104.29 232.08-54.87 78.98 49.42 103.39 154.45 54.4 234.13zm-273.42-171.09c-44.53 72.42-22.35 167.88 49.43 212.8 71.79 44.91 166.41 22.54 210.93-49.88 44.53-72.42 22.35-167.88-49.43-212.79-71.79-44.92-166.41-22.55-210.93 49.87z"/>
				</g>
				<path id="&lt;Path&gt;" class="s5" d="m186.35 34.76c-22.45-5.74-47.09-2.61-68.22 6.7-18.23 8.03-35.96 23.3-41.14 43.34-0.78 3.04 2.87 6.5 5.5 3.78 12.31-12.77 25.34-23.98 41.77-30.96 18.79-7.98 38.67-7.14 58.54-6.08 9.37 0.5 13.28-14.29 3.55-16.78z"/>
			</g>
			<g id="&lt;Group&gt;">
				<path id="&lt;Compound Path&gt;" fill-rule="evenodd" class="s6" d="m168.32 327.4c-85.71 0-155.44-70.34-155.44-156.82 0-86.47 69.73-156.82 155.44-156.82 85.72 0 155.45 70.35 155.45 156.82 0 86.48-69.73 156.82-155.45 156.82zm0-310.66c-84.08 0-152.49 69.02-152.49 153.84 0 84.83 68.41 153.84 152.49 153.84 84.09 0 152.5-69.01 152.5-153.84 0-84.82-68.41-153.84-152.5-153.84z"/>
			</g>
		</g>
	</g>
</svg>