<svg width="387" height="308" viewBox="0 0 387 308" fill="none" xmlns="http://www.w3.org/2000/svg">
<g opacity="0.38">
<path d="M192.872 307.274C299.392 307.274 385.743 299.696 385.743 290.348C385.743 281.001 299.392 273.423 192.872 273.423C86.3516 273.423 0 281.001 0 290.348C0 299.696 86.3516 307.274 192.872 307.274Z" fill="#F0E4C1"/>
<path d="M327.523 282.661C327.523 282.661 298.865 224.483 386.288 199.122C386.288 199.122 392.378 287.284 327.523 282.661Z" fill="#EB725F"/>
<mask id="mask0_40000623_40699" style="mask-type:luminance" maskUnits="userSpaceOnUse" x="323" y="199" width="64" height="84">
<path d="M327.523 282.661C327.523 282.661 298.865 224.483 386.288 199.122C386.288 199.122 392.378 287.284 327.523 282.661Z" fill="white"/>
</mask>
<g mask="url(#mask0_40000623_40699)">
<path d="M398.012 212.664L397.511 211.826C380.228 222.114 364.497 225.725 359.849 226.626C364.178 221.513 368.448 216.827 372.312 212.77C374.049 212.447 385.96 209.974 398.053 200.963L397.469 200.182C387.289 207.767 377.274 210.642 373.511 211.517C381.906 202.788 388.111 197.257 388.297 197.093L387.647 196.363C387.459 196.529 381.12 202.181 372.576 211.084C373.401 200.004 378.84 189.15 378.897 189.038L378.025 188.597C377.965 188.715 372.052 200.502 371.53 212.18C367.656 216.254 363.377 220.954 359.04 226.083C359.351 211.581 365.56 194.59 365.625 194.414L364.708 194.077C364.64 194.259 358.027 212.345 358.047 227.265C353.865 232.265 349.657 237.648 345.724 243.243C344.959 222.353 351.133 200.807 351.197 200.586L350.257 200.316C350.191 200.541 343.715 223.123 344.799 244.569C341.889 248.782 339.147 253.105 336.708 257.466C332.382 235.009 337.958 214.624 338.015 214.418L337.074 214.155C337.014 214.368 331.178 235.662 335.973 258.805C333.58 263.201 331.507 267.624 329.879 272.006C324.347 256.3 323.272 233.805 323.511 232.506L322.548 232.331C322.29 233.737 323.287 257.205 329.359 273.446C327.874 277.694 326.82 281.894 326.332 285.975L327.302 286.09C327.774 282.15 328.782 278.096 330.199 273.993C331.34 274.23 334.632 274.792 340.296 274.792C340.743 274.792 341.207 274.789 341.685 274.782C348.997 274.668 361.338 273.552 378.591 268.889L378.335 267.949C348.914 275.9 333.472 273.632 330.523 273.059C332.159 268.512 334.298 263.909 336.783 259.337C337.571 259.414 339.621 259.58 342.608 259.58C352.013 259.58 370.497 257.912 386.574 246.472L386.006 245.677C365.842 260.027 341.831 258.788 337.296 258.404C339.793 253.897 342.616 249.426 345.627 245.071C348.643 244.765 375.502 241.688 393.394 227.741L392.792 226.974C376.225 239.886 351.82 243.373 346.366 244.009C350.347 238.331 354.62 232.867 358.864 227.799C361.168 227.411 378.635 224.198 398.012 212.664Z" fill="#F9AB43"/>
</g>
<path opacity="0.1" d="M386.288 199.122C381.117 200.623 376.365 202.241 371.976 203.952C373.868 209.615 374.904 215.736 374.904 222.124C374.904 251.151 353.572 274.681 327.256 274.681C326.418 274.681 325.585 274.656 324.757 274.609C326.024 279.609 327.523 282.661 327.523 282.661C392.378 287.284 386.288 199.122 386.288 199.122Z" fill="#BB9833"/>
<path d="M67.5863 276.512C67.5863 276.512 16.8076 288.622 12.3721 215.644C12.3721 215.644 82.706 226.539 67.5863 276.512Z" fill="#F9AB43"/>
<mask id="mask1_40000623_40699" style="mask-type:luminance" maskUnits="userSpaceOnUse" x="12" y="215" width="58" height="63">
<path d="M67.5863 276.512C67.5863 276.512 16.8076 288.622 12.3721 215.644C12.3721 215.645 82.706 226.539 67.5863 276.512Z" fill="white"/>
</mask>
<g mask="url(#mask1_40000623_40699)">
<path d="M25.0859 208.868L24.3389 209.112C29.3588 224.476 29.4085 237.438 29.2936 241.238C26.0434 236.939 23.1195 232.763 20.6164 229.016C20.6697 227.598 20.8378 217.829 15.9005 206.756L15.1838 207.075C19.3382 216.396 19.8234 224.75 19.8436 227.853C14.4744 219.727 11.2288 213.884 11.1324 213.709L10.4441 214.088C10.5415 214.266 13.8578 220.234 19.3391 228.508C10.7813 225.893 3.21782 219.705 3.13972 219.64L2.63892 220.246C2.7207 220.314 10.933 227.039 20.0136 229.523C22.5277 233.281 25.4618 237.467 28.723 241.776C17.3855 238.955 5.13834 231.073 5.01153 230.992L4.58424 231.65C4.71472 231.735 17.7512 240.127 29.4755 242.764C32.6623 246.927 36.1459 251.18 39.8445 255.253C23.2996 252.141 7.46684 243.478 7.30511 243.389L6.92561 244.077C7.09101 244.169 23.6828 253.253 40.7211 256.214C43.5155 259.241 46.4256 262.156 49.4185 264.842C31.011 264.241 15.986 256.251 15.8335 256.17L15.4604 256.861C15.6175 256.945 31.3106 265.3 50.3402 265.655C53.3689 268.31 56.4766 270.719 59.6303 272.773C46.3117 274.316 28.451 271.161 27.4732 270.743L27.1645 271.467C28.2231 271.919 46.8346 275.308 60.6696 273.437C63.7433 275.354 66.8557 276.926 69.9744 278.034L70.2372 277.294C67.226 276.225 64.2193 274.715 61.2476 272.876C61.6363 272.025 62.6609 269.546 63.6634 265.11C63.7424 264.76 63.8224 264.396 63.9014 264.022C65.107 258.274 66.4164 248.41 65.8109 234.069L65.0261 234.102C66.0599 258.559 61.5435 270.249 60.5713 272.458C57.2889 270.368 54.0526 267.875 50.8998 265.117C51.0992 264.514 51.5936 262.938 52.1229 260.598C53.7888 253.231 55.7535 238.458 49.6143 223.834L48.8902 224.137C56.5906 242.48 51.3638 261.065 50.2593 264.549C47.1617 261.792 44.1495 258.787 41.2614 255.656C41.5555 253.239 43.8959 231.656 36.1091 215.164L35.3997 215.5C42.6085 230.769 41.0243 250.504 40.5584 254.888C36.8029 250.761 33.2679 246.444 30.0379 242.219C30.1436 240.345 30.7142 226.094 25.0859 208.868Z" fill="#EB725F"/>
</g>
<path opacity="0.1" d="M12.3721 215.645C12.634 219.962 13.064 223.971 13.631 227.713C18.4157 227.237 23.4072 227.514 28.4253 228.648C51.227 233.805 65.9323 254.694 61.2707 275.305C61.1218 275.961 60.9546 276.61 60.7708 277.249C64.9242 277.145 67.5863 276.513 67.5863 276.513C82.706 226.539 12.3721 215.645 12.3721 215.645Z" fill="#BB9833"/>
<path d="M337.895 244.146C337.895 248.189 334.587 251.497 330.544 251.497H55.1996C51.1564 251.497 47.8484 248.189 47.8484 244.146V78.2255C47.8484 74.1823 51.1564 70.8743 55.1996 70.8743H330.544C334.587 70.8743 337.895 74.1823 337.895 78.2255V244.146Z" fill="#CEA738"/>
<path d="M329.708 79.7322H56.0347V242.637H329.708V79.7322Z" fill="#E8D7A3"/>
<path d="M237.899 251.497H147.844V274.051H237.899V251.497Z" fill="#CEA738"/>
<path d="M281 286.999C264.531 273.702 231.25 264.612 192.872 264.612C154.494 264.612 121.213 273.702 104.743 286.999H281Z" fill="#CEA738"/>
<path d="M104.743 289.296C106.317 289.296 107.892 289.296 109.466 289.296C113.749 289.296 118.033 289.296 122.316 289.296C128.618 289.296 134.921 289.296 141.224 289.296C148.946 289.296 156.669 289.296 164.391 289.296C172.851 289.296 181.311 289.296 189.771 289.296C198.272 289.296 206.774 289.296 215.276 289.296C223.239 289.296 231.203 289.296 239.166 289.296C245.895 289.296 252.624 289.296 259.353 289.296C264.172 289.296 268.992 289.296 273.811 289.296C276.105 289.296 278.408 289.352 280.703 289.296C280.802 289.293 280.901 289.296 280.999 289.296C283.955 289.296 283.961 284.701 280.999 284.701C279.425 284.701 277.851 284.701 276.277 284.701C271.994 284.701 267.71 284.701 263.427 284.701C257.124 284.701 250.822 284.701 244.519 284.701C236.796 284.701 229.074 284.701 221.351 284.701C212.892 284.701 204.432 284.701 195.972 284.701C187.47 284.701 178.969 284.701 170.467 284.701C162.504 284.701 154.54 284.701 146.576 284.701C139.847 284.701 133.119 284.701 126.39 284.701C121.57 284.701 116.751 284.701 111.932 284.701C109.637 284.701 107.335 284.645 105.04 284.701C104.941 284.704 104.842 284.701 104.743 284.701C101.787 284.701 101.782 289.296 104.743 289.296Z" fill="#CEA738"/>
<path d="M314.761 91.0664H70.9827V232.011H314.761V91.0664Z" fill="white"/>
<path d="M314.761 91.0664H70.9827V104.648H314.761V91.0664Z" fill="#FAF6EB"/>
<path d="M82.8329 98.1693C82.8329 99.8858 81.4417 101.277 79.7252 101.277C78.0087 101.277 76.6174 99.8858 76.6174 98.1693C76.6174 96.4527 78.0087 95.0615 79.7252 95.0615C81.4408 95.0615 82.8329 96.4527 82.8329 98.1693Z" fill="#EB725F"/>
<path d="M93.2975 98.1693C93.2975 99.8858 91.9063 101.277 90.1898 101.277C88.4733 101.277 87.082 99.8858 87.082 98.1693C87.082 96.4527 88.4733 95.0615 90.1898 95.0615C91.9063 95.0615 93.2975 96.4527 93.2975 98.1693Z" fill="#F9AB43"/>
<path d="M103.763 98.1693C103.763 99.8858 102.371 101.277 100.655 101.277C98.9383 101.277 97.5471 99.8858 97.5471 98.1693C97.5471 96.4527 98.9383 95.0615 100.655 95.0615C102.371 95.0615 103.763 96.4527 103.763 98.1693Z" fill="#CEA738"/>
<path d="M279.008 164.263C279.008 172.662 271.789 179.535 262.967 179.535H127.338C118.515 179.535 111.297 172.662 111.297 164.263C111.297 155.863 118.516 148.99 127.338 148.99H262.967C271.789 148.99 279.008 155.863 279.008 164.263Z" fill="#FAF6EB"/>
<path d="M144.845 171.462L139.279 166.283C140.119 165.094 140.553 163.674 140.5 162.193C140.435 160.406 139.679 158.751 138.37 157.533C137.06 156.314 135.356 155.679 133.568 155.743C131.781 155.808 130.126 156.564 128.908 157.873C127.69 159.183 127.054 160.888 127.118 162.675C127.183 164.462 127.939 166.117 129.248 167.335C130.558 168.554 132.262 169.189 134.05 169.125C135.529 169.071 136.915 168.537 138.041 167.614L143.606 172.793L144.845 171.462ZM130.487 166.005C129.533 165.117 128.983 163.912 128.936 162.61C128.889 161.308 129.352 160.067 130.24 159.113C131.127 158.159 132.333 157.609 133.634 157.562C134.937 157.515 136.178 157.978 137.132 158.865C138.086 159.753 138.636 160.958 138.683 162.259C138.73 163.562 138.267 164.803 137.379 165.757C136.491 166.711 135.286 167.261 133.985 167.308C132.682 167.356 131.44 166.893 130.487 166.005Z" fill="#CEA738"/>
<path d="M168.98 165.577C169.85 165.577 170.554 164.872 170.554 164.003C170.554 163.133 169.85 162.428 168.98 162.428C168.111 162.428 167.406 163.133 167.406 164.003C167.406 164.872 168.111 165.577 168.98 165.577Z" fill="#F0E4C1"/>
<path d="M187.359 165.577C188.228 165.577 188.933 164.872 188.933 164.003C188.933 163.133 188.228 162.428 187.359 162.428C186.489 162.428 185.784 163.133 185.784 164.003C185.784 164.872 186.489 165.577 187.359 165.577Z" fill="#F0E4C1"/>
<path d="M205.736 165.577C206.606 165.577 207.311 164.872 207.311 164.003C207.311 163.133 206.606 162.428 205.736 162.428C204.867 162.428 204.162 163.133 204.162 164.003C204.162 164.872 204.867 165.577 205.736 165.577Z" fill="#F0E4C1"/>
<path d="M224.115 165.577C224.984 165.577 225.689 164.872 225.689 164.003C225.689 163.133 224.984 162.428 224.115 162.428C223.246 162.428 222.541 163.133 222.541 164.003C222.541 164.872 223.246 165.577 224.115 165.577Z" fill="#F0E4C1"/>
<path d="M369.034 36.0479H247.695V169.545H369.034V36.0479Z" fill="#F5F9FF"/>
<path d="M369.034 36.0479H247.695V51.0968H369.034V36.0479Z" fill="#FAF6EB"/>
<path d="M260.825 43.9192C260.825 45.8213 259.283 47.3632 257.381 47.3632C255.479 47.3632 253.937 45.8213 253.937 43.9192C253.937 42.017 255.479 40.4751 257.381 40.4751C259.283 40.4751 260.825 42.0179 260.825 43.9192Z" fill="#EB725F"/>
<path d="M272.422 43.9192C272.422 45.8213 270.88 47.3632 268.978 47.3632C267.076 47.3632 265.534 45.8213 265.534 43.9192C265.534 42.017 267.076 40.4751 268.978 40.4751C270.88 40.4751 272.422 42.0179 272.422 43.9192Z" fill="#F9AB43"/>
<path d="M284.018 43.9192C284.018 45.8213 282.476 47.3632 280.574 47.3632C278.672 47.3632 277.13 45.8213 277.13 43.9192C277.13 42.017 278.672 40.4751 280.574 40.4751C282.476 40.4751 284.018 42.0179 284.018 43.9192Z" fill="#CEA738"/>
<path d="M333.404 119.734L328.393 124.746L373.309 169.662L378.321 164.651L333.404 119.734Z" fill="#EB725F"/>
<path d="M334.962 116.873L325.532 126.302L338.676 139.446L348.105 130.016L334.962 116.873Z" fill="#CEA738"/>
<g opacity="0.2">
<path d="M330.902 122.239C319.154 133.987 300.037 133.987 288.289 122.239C276.541 110.491 276.541 91.374 288.289 79.6258C300.037 67.8776 319.154 67.8776 330.902 79.6258C342.65 91.374 342.65 110.491 330.902 122.239Z" fill="#F5F9FF"/>
</g>
<path d="M333.763 125.1C320.438 138.425 298.754 138.426 285.429 125.1C272.104 111.774 272.104 90.0914 285.429 76.7663C298.754 63.4413 320.438 63.4404 333.763 76.7663C347.088 90.0914 347.088 111.774 333.763 125.1ZM290.44 81.7771C279.877 92.3399 279.878 109.525 290.44 120.087C301.002 130.649 318.188 130.65 328.75 120.087C339.313 109.524 339.312 92.339 328.75 81.7771C318.188 71.2152 301.003 71.2143 290.44 81.7771Z" fill="#EB725F"/>
<path d="M324.583 90.3588L320.169 85.9453L309.595 96.5192L299.022 85.9453L294.608 90.3588L305.182 100.933L294.608 111.506L299.022 115.92L309.595 105.346L320.169 115.92L324.583 111.506L314.009 100.933L324.583 90.3588Z" fill="#F9AB43"/>
<path d="M116.232 190.284H61.3433V289.444H146.007V218.807L116.232 190.284Z" fill="#EB725F"/>
<path d="M116.232 190.284L146.007 218.807H116.232V190.284Z" fill="#F4AEA6"/>
<path d="M94.6452 228.392C94.6452 231.369 92.9158 233.782 90.7831 233.782C88.6503 233.782 86.9209 231.369 86.9209 228.392C86.9209 225.416 88.6503 223.003 90.7831 223.003C92.9158 223.003 94.6452 225.416 94.6452 228.392Z" fill="white"/>
<path d="M116.459 233.782C118.592 233.782 120.321 231.369 120.321 228.392C120.321 225.416 118.592 223.003 116.459 223.003C114.326 223.003 112.597 225.416 112.597 228.392C112.597 231.369 114.326 233.782 116.459 233.782Z" fill="white"/>
<path d="M92.879 244.571C94.4861 242.811 96.7209 241.427 98.9456 240.625C104.575 238.595 110.017 240.716 114.304 244.571C115.449 245.6 117.15 243.909 116 242.875C111.246 238.602 105.08 236.092 98.7572 238.159C95.984 239.065 93.1684 240.7 91.1827 242.875C90.1452 244.013 91.836 245.714 92.879 244.571Z" fill="white"/>
<path d="M87.3115 23.0876H25.5703C21.8874 23.0876 18.8743 26.1007 18.8743 29.7837V73.0926C18.8743 76.7756 21.8874 79.7887 25.5703 79.7887H47.2638L56.4409 90.9672L65.618 79.7887H87.3115C90.9945 79.7887 94.0076 76.7756 94.0076 73.0926V29.7837C94.0076 26.1007 90.9945 23.0876 87.3115 23.0876Z" fill="#F9AB43"/>
<path d="M56.441 31.1343C45.167 31.1343 35.9954 40.3059 35.9954 51.5799C35.9954 62.854 45.167 72.0255 56.441 72.0255C67.715 72.0255 76.8866 62.853 76.8866 51.5799C76.8866 40.3059 67.715 31.1343 56.441 31.1343ZM56.441 34.9891C60.3215 34.9891 63.8924 36.3325 66.7217 38.5728L43.4348 61.8606C41.1945 59.0313 39.8511 55.4604 39.8511 51.5799C39.8502 42.4322 47.2933 34.9891 56.441 34.9891ZM56.441 68.1698C52.5605 68.1698 48.9896 66.8273 46.1603 64.5861L69.4472 41.2992C71.6884 44.1276 73.0309 47.6994 73.0309 51.5799C73.0318 60.7276 65.5896 68.1698 56.441 68.1698Z" fill="white"/>
<path d="M317.764 197.226L266.556 196.888L265.946 289.396L344.929 289.918L345.365 224.018L317.764 197.226Z" fill="#E8D7A3"/>
<path d="M317.764 197.226L345.365 224.019L317.588 223.835L317.764 197.226Z" fill="#E3EBFC"/>
<path d="M322.494 231.709L317.617 226.768L305.776 238.452L294.089 226.612L289.147 231.49L300.833 243.33L288.992 255.016L293.87 259.958L305.71 248.273L317.397 260.113L322.339 255.235L310.653 243.395L322.494 231.709Z" fill="#EEF4FF"/>
<path d="M59.5752 125.87L28.9297 110.51L1.17969 165.873L48.45 189.566L68.2166 150.127L59.5752 125.87Z" fill="#E8D7A3"/>
<path d="M59.5751 125.87L68.2165 150.127L51.5935 141.794L59.5751 125.87Z" fill="#E3EBFC"/>
<path d="M52.2085 147.975L50.7429 143.564L40.1746 147.076L36.6625 136.506L32.2518 137.972L35.7629 148.54L25.1946 152.051L26.6602 156.463L37.2286 152.952L40.7406 163.52L45.1523 162.055L41.6402 151.486L52.2085 147.975Z" fill="#EEF4FF"/>
<path d="M174.21 23.1016L149.682 31.0832L164.101 75.3937L201.934 63.0831L191.662 31.5178L174.21 23.1016Z" fill="#E8D7A3"/>
<path d="M174.21 23.1016L191.662 31.5178L178.358 35.8468L174.21 23.1016Z" fill="#E3EBFC"/>
<path d="M181.954 38.8304L178.837 37.2444L175.037 44.7123L167.568 40.9108L165.982 44.0277L173.45 47.8292L169.648 55.2972L172.765 56.8832L176.567 49.4153L184.034 53.2168L185.621 50.0989L178.154 46.2984L181.954 38.8304Z" fill="#EEF4FF"/>
<path d="M249.93 18.8495L247.783 18.8422C247.334 16.9437 246.593 15.1629 245.606 13.5419L247.132 12.0266C248.322 10.8449 248.329 8.90329 247.147 7.71331L245.376 5.92971C244.193 4.73973 242.253 4.73238 241.063 5.91501L239.536 7.43029C237.922 6.43328 236.147 5.67885 234.252 5.21756L234.259 3.06916C234.265 1.39124 232.897 0.0138027 231.219 0.00828923L228.706 1.66153e-05C227.028 -0.00549681 225.651 1.36184 225.645 3.03976L225.638 5.18816C223.74 5.6375 221.959 6.37813 220.338 7.36504L218.822 5.83874C217.64 4.64784 215.699 4.64141 214.509 5.82404L212.726 7.59476C211.536 8.7774 211.528 10.7181 212.711 11.9081L214.226 13.4344C213.228 15.0489 212.475 16.8242 212.012 18.7199L209.864 18.7126C208.186 18.7071 206.809 20.0744 206.803 21.7523L206.795 24.2655C206.789 25.9435 208.157 27.3209 209.835 27.3264L211.983 27.3338C212.431 29.2322 213.173 31.0131 214.16 32.634L212.634 34.1493C211.444 35.331 211.436 37.2726 212.619 38.4626L214.39 40.2462C215.571 41.4362 217.513 41.4435 218.704 40.2609L220.229 38.7456C221.844 39.7436 223.619 40.4971 225.515 40.9593L225.507 43.1077C225.502 44.7856 226.869 46.163 228.547 46.1685L231.06 46.1768C232.738 46.1823 234.115 44.815 234.121 43.1371L234.129 40.9887C236.027 40.5403 237.808 39.7987 239.429 38.8118L240.944 40.3381C242.126 41.5281 244.068 41.5354 245.258 40.3528L247.041 38.5821C248.231 37.4004 248.238 35.4587 247.056 34.2687L245.541 32.7434C246.538 31.1288 247.292 29.3535 247.754 27.4578L249.902 27.4652C251.58 27.4707 252.957 26.1033 252.963 24.4254L252.971 21.9122C252.975 20.2334 251.607 18.8559 249.93 18.8495ZM229.852 31.5984C225.152 31.5819 221.355 27.7583 221.371 23.0581C221.387 18.3579 225.211 14.561 229.911 14.5766C234.611 14.5932 238.408 18.4158 238.392 23.1169C238.376 27.8171 234.552 31.614 229.852 31.5984Z" fill="#EB725F"/>
<path d="M229.924 10.9454C223.218 10.9224 217.762 16.3403 217.739 23.0455C217.716 29.7517 223.133 35.2072 229.839 35.2302C236.545 35.2532 242 29.8353 242.024 23.1291C242.047 16.4239 236.63 10.9684 229.924 10.9454ZM229.856 30.6283C225.691 30.6136 222.327 27.2265 222.341 23.0621C222.356 18.8976 225.743 15.5335 229.907 15.5473C234.072 15.562 237.436 18.949 237.422 23.1144C237.407 27.278 234.02 30.643 229.856 30.6283Z" fill="#F9AB43"/>
</g>
<path d="M80.6315 234.112V215.948L126.175 144.197H141.835V169.339H132.567L103.856 214.776V215.628H168.575V234.112H80.6315ZM132.993 253.288V228.572L133.419 220.529V144.197H155.046V253.288H132.993Z" fill="#927728"/>
<path d="M205.056 200.685C195.894 200.649 188.011 198.394 181.406 193.92C174.836 189.446 169.776 182.965 166.225 174.477C162.709 165.99 160.969 155.781 161.004 143.849C161.004 131.953 162.762 121.814 166.278 113.433C169.829 105.053 174.889 98.6785 181.459 94.3106C188.064 89.9072 195.93 87.7055 205.056 87.7055C214.183 87.7055 222.031 89.9072 228.6 94.3106C235.205 98.714 240.283 105.106 243.835 113.487C247.386 121.832 249.144 131.953 249.108 143.849C249.108 155.816 247.332 166.044 243.781 174.531C240.266 183.018 235.223 189.499 228.654 193.973C222.084 198.448 214.218 200.685 205.056 200.685ZM205.056 181.562C211.306 181.562 216.296 178.419 220.024 172.134C223.753 165.848 225.6 156.42 225.564 143.849C225.564 135.575 224.712 128.686 223.007 123.181C221.338 117.677 218.959 113.54 215.869 110.77C212.815 108 209.211 106.615 205.056 106.615C198.842 106.615 193.87 109.723 190.141 115.937C186.413 122.151 184.531 131.455 184.495 143.849C184.495 152.23 185.33 159.225 186.999 164.836C188.703 170.411 191.1 174.602 194.19 177.407C197.279 180.177 200.901 181.562 205.056 181.562Z" fill="#927728"/>
<path d="M222.631 234.112V215.948L268.175 144.197H283.835V169.339H274.567L245.856 214.776V215.628H310.575V234.112H222.631ZM274.993 253.288V228.572L275.419 220.529V144.197H297.046V253.288H274.993Z" fill="#927728"/>
</svg>
