<svg width="40" height="40" viewBox="0 0 40 40" fill="none" xmlns="http://www.w3.org/2000/svg">
<path d="M39.3943 20.0726C39.3943 9.36356 30.7095 0.678711 20.0004 0.678711C9.29129 0.678711 0.606445 9.36356 0.606445 20.0726C0.606445 25.5454 2.87917 30.4848 6.5216 34.012H33.4731C37.1216 30.4908 39.3943 25.5514 39.3943 20.0726Z" fill="#FAE2CA"/>
<path d="M38.7881 34.4726H1.21236C0.963873 34.4726 0.757812 34.2665 0.757812 34.018C0.757812 33.7695 0.963873 33.5635 1.21236 33.5635H38.7881C39.0366 33.5635 39.2427 33.7695 39.2427 34.018C39.2427 34.2665 39.0366 34.4726 38.7881 34.4726Z" fill="#262D49"/>
<path d="M33.3341 36.8974H6.66744C6.41895 36.8974 6.21289 36.6913 6.21289 36.4428C6.21289 36.1943 6.41895 35.9883 6.66744 35.9883H33.3341C33.5826 35.9883 33.7886 36.1943 33.7886 36.4428C33.7886 36.6913 33.5826 36.8974 33.3341 36.8974ZM28.4856 39.3216H24.8493C24.6008 39.3216 24.3947 39.1156 24.3947 38.8671C24.3947 38.6186 24.6008 38.4125 24.8493 38.4125H28.4856C28.7341 38.4125 28.9402 38.6186 28.9402 38.8671C28.9402 39.1156 28.7341 39.3216 28.4856 39.3216ZM22.425 39.3216H11.5159C11.2674 39.3216 11.0614 39.1156 11.0614 38.8671C11.0614 38.6186 11.2674 38.4125 11.5159 38.4125H22.425C22.6735 38.4125 22.8796 38.6186 22.8796 38.8671C22.8796 39.1156 22.6735 39.3216 22.425 39.3216Z" fill="#C2CBE8"/>
<path d="M3.63069 30.9817C3.1072 30.728 2.68447 30.3052 2.43069 29.7817C2.43069 29.7817 2.43069 29.7757 2.42463 29.7757C2.42463 29.7757 2.42463 29.7817 2.41857 29.7817C2.16402 30.309 1.74584 30.7211 1.21857 30.9817C1.21857 30.9817 1.21251 30.9817 1.21251 30.9878C1.21251 30.9878 1.21857 30.9878 1.21857 30.9939C1.74584 31.2484 2.15796 31.6666 2.41857 32.1939C2.41857 32.1939 2.41857 32.1999 2.42463 32.1999C2.42463 32.1999 2.42463 32.1939 2.43069 32.1939C2.68523 31.6666 3.10342 31.2545 3.63069 30.9939C3.63069 30.9939 3.63675 30.9939 3.63675 30.9878C3.63675 30.9817 3.63069 30.9817 3.63069 30.9817ZM4.23069 2.49083C3.44735 2.10751 2.81401 1.47417 2.43069 0.690832C2.43069 0.690832 2.42463 0.684772 2.42463 0.678711C2.42463 0.684772 2.41857 0.684772 2.41857 0.690832C2.03525 1.47417 1.40191 2.10751 0.618567 2.49083C0.612506 2.49689 0.612506 2.49689 0.606445 2.49689C0.612506 2.49689 0.612506 2.50295 0.618567 2.50295C1.40645 2.89083 2.03069 3.51507 2.41857 4.30295C2.41857 4.30901 2.42463 4.31507 2.42463 4.31507C2.42463 4.31507 2.43069 4.30901 2.43069 4.30295C2.81857 3.51507 3.44281 2.89083 4.23069 2.50295C4.23675 2.50295 4.23675 2.49689 4.24281 2.49689C4.23675 2.49689 4.23675 2.49689 4.23069 2.49083ZM36.358 27.3454C35.8345 27.0916 35.4117 26.6689 35.158 26.1454C35.158 26.1454 35.158 26.1393 35.1519 26.1393C35.1519 26.1393 35.1519 26.1454 35.1458 26.1454C34.8913 26.6727 34.4731 27.0848 33.9458 27.3454C33.9458 27.3454 33.9398 27.3454 33.9398 27.3514C33.9398 27.3514 33.9458 27.3514 33.9458 27.3575C34.4731 27.612 34.8852 28.0302 35.1458 28.5575C35.1458 28.5575 35.1458 28.5636 35.1519 28.5636C35.1519 28.5636 35.1519 28.5575 35.158 28.5575C35.4125 28.0302 35.8307 27.6181 36.358 27.3575C36.358 27.3575 36.364 27.3575 36.364 27.3514C36.364 27.3454 36.358 27.3454 36.358 27.3454ZM31.5095 2.49689C31.2489 2.36962 31.0428 2.16356 30.9095 1.89689C30.7822 2.1575 30.5701 2.36962 30.3095 2.49689C30.5701 2.62417 30.7822 2.83629 30.9095 3.09689C31.0428 2.83629 31.2489 2.63023 31.5095 2.49689C31.5155 2.50295 31.5155 2.50295 31.5095 2.49689C31.5155 2.49689 31.5155 2.49689 31.5095 2.49689ZM39.3822 10.3696C38.5989 9.9863 37.9655 9.35296 37.5822 8.56962C37.5822 8.56356 37.5761 8.56356 37.5761 8.5575C37.5761 8.56356 37.5701 8.56356 37.5701 8.56962C37.1868 9.35296 36.5534 9.9863 35.7701 10.3696C35.764 10.3696 35.764 10.3757 35.758 10.3757C35.764 10.3757 35.764 10.3817 35.7701 10.3817C36.558 10.7696 37.1822 11.3939 37.5701 12.1817C37.5701 12.1878 37.5761 12.1878 37.5761 12.1939C37.5761 12.1878 37.5822 12.1878 37.5822 12.1817C37.9701 11.3939 38.5943 10.7696 39.3822 10.3817C39.3883 10.3817 39.3883 10.3757 39.3943 10.3757C39.3883 10.3757 39.3883 10.3757 39.3822 10.3696Z" fill="#E3C85D"/>
<path d="M20.0001 32.1936C26.6945 32.1936 32.1213 26.7667 32.1213 20.0724C32.1213 13.378 26.6945 7.95117 20.0001 7.95117C13.3058 7.95117 7.87891 13.378 7.87891 20.0724C7.87891 26.7667 13.3058 32.1936 20.0001 32.1936Z" fill="#E1E5F3"/>
<path d="M20.0007 29.7758C25.3562 29.7758 29.6977 25.4343 29.6977 20.0788C29.6977 14.7233 25.3562 10.3818 20.0007 10.3818C14.6452 10.3818 10.3037 14.7233 10.3037 20.0788C10.3037 25.4343 14.6452 29.7758 20.0007 29.7758Z" fill="#C2CBE8"/>
<path d="M20.0002 21.2905C20.6696 21.2905 21.2123 20.7478 21.2123 20.0783C21.2123 19.4089 20.6696 18.8662 20.0002 18.8662C19.3308 18.8662 18.7881 19.4089 18.7881 20.0783C18.7881 20.7478 19.3308 21.2905 20.0002 21.2905Z" fill="#E3C85D"/>
<path d="M12.3638 29.4846L11.0547 33.5028L12.1517 34.0179L14.2244 30.7391C13.5638 30.3755 12.9395 29.9512 12.3638 29.4846ZM25.7759 30.7331L27.8486 34.0118L28.9456 33.4967L27.6365 29.4785C27.0607 29.9512 26.4365 30.3755 25.7759 30.7331Z" fill="#C2CBE8"/>
<path d="M20.0008 6.13343C21.005 6.13343 21.819 5.31941 21.819 4.31525C21.819 3.3111 21.005 2.49707 20.0008 2.49707C18.9966 2.49707 18.1826 3.3111 18.1826 4.31525C18.1826 5.31941 18.9966 6.13343 20.0008 6.13343Z" fill="white"/>
<path d="M6.64886 7.32757C6.267 7.70907 5.96407 8.16209 5.7574 8.66073C5.55072 9.15937 5.44434 9.69385 5.44434 10.2336C5.44434 10.7734 5.55072 11.3079 5.7574 11.8065C5.96407 12.3052 6.267 12.7582 6.64886 13.1397L12.461 7.32757C12.0795 6.94571 11.6265 6.64279 11.1278 6.43611C10.6292 6.22943 10.0947 6.12305 9.55492 6.12305C9.01514 6.12305 8.48066 6.22943 7.98202 6.43611C7.48338 6.64279 7.03036 6.94571 6.64886 7.32757ZM33.3398 7.32757C32.9583 6.94571 32.5052 6.64279 32.0066 6.43611C31.508 6.22943 30.9735 6.12305 30.4337 6.12305C29.8939 6.12305 29.3594 6.22943 28.8608 6.43611C28.3622 6.64279 27.9091 6.94571 27.5276 7.32757L33.3398 13.1397C33.7216 12.7582 34.0245 12.3052 34.2312 11.8065C34.4379 11.3079 34.5443 10.7734 34.5443 10.2336C34.5443 9.69385 34.4379 9.15937 34.2312 8.66073C34.0245 8.16209 33.7216 7.70907 33.3398 7.32757Z" fill="#E3C85D"/>
<path d="M10.8363 8.95117L8.2666 11.5209L9.98781 13.2421C10.6787 12.236 11.5151 11.339 12.4727 10.5815L10.8363 8.95117ZM29.1575 8.95723L27.5272 10.5875C28.4787 11.3451 29.3211 12.236 30.0121 13.2481L31.7272 11.533L29.1575 8.95723Z" fill="#C2CBE8"/>
<path d="M30.4305 26.2724C30.3805 26.2394 30.3244 26.2166 30.2655 26.2055C30.2066 26.1943 30.1461 26.1949 30.0875 26.2073C30.0289 26.2197 29.9733 26.2437 29.924 26.2777C29.8746 26.3118 29.8326 26.3553 29.8002 26.4057L29.7154 26.539C28.65 28.1426 27.2041 29.4573 25.5067 30.3658C23.8093 31.2742 21.9133 31.7481 19.9881 31.7451C17.6911 31.7451 15.4608 31.0663 13.5396 29.7936C12.0748 28.8228 10.85 27.5317 9.95778 26.0178C9.36384 25.0118 8.92748 23.9269 8.65475 22.7875C8.62594 22.671 8.55283 22.5704 8.45096 22.507C8.34909 22.4436 8.22651 22.4225 8.1093 22.4481C7.86687 22.5087 7.71536 22.7511 7.7699 22.9936C8.06081 24.2239 8.53354 25.3936 9.17596 26.4784C9.88505 27.6845 10.782 28.739 11.8366 29.636L10.6244 33.3572C10.5517 33.5754 10.6547 33.8118 10.8608 33.9087L11.9578 34.4239C12.058 34.4704 12.1717 34.4788 12.2777 34.4476C12.3836 34.4163 12.4746 34.3476 12.5335 34.2542L14.3881 31.3208C16.13 32.1941 18.0517 32.6488 20.0002 32.6488C21.9488 32.6488 23.8704 32.1941 25.6123 31.3208L27.4669 34.2542C27.5258 34.3476 27.6168 34.4163 27.7228 34.4476C27.8287 34.4788 27.9424 34.4704 28.0426 34.4239L29.1396 33.9087C29.3457 33.8118 29.4487 33.5754 29.376 33.3572L28.1638 29.636C29.0366 28.8905 29.8184 28.0239 30.4729 27.0421L30.5638 26.9027C30.6972 26.6905 30.6366 26.4118 30.4305 26.2724ZM11.982 33.4299L11.6123 33.2542L12.6002 30.2178C12.7457 30.3269 12.8851 30.4421 13.0366 30.5451C13.2184 30.6663 13.4063 30.7754 13.5941 30.8845L11.982 33.4299ZM28.3881 33.2602L28.0184 33.436L26.4123 30.8966C26.7517 30.6966 27.0851 30.4784 27.4063 30.2421L28.3881 33.2602Z" fill="#262D49"/>
<path d="M20.0001 30.2298C25.6001 30.2298 30.1517 25.6783 30.1517 20.0783C30.1517 14.4783 25.6001 9.92676 20.0001 9.92676C14.4001 9.92676 9.84863 14.4783 9.84863 20.0783C9.84863 25.6783 14.4001 30.2298 20.0001 30.2298ZM20.0001 10.8358C25.0971 10.8358 29.2426 14.9813 29.2426 20.0783C29.2426 25.1752 25.0971 29.3207 20.0001 29.3207C14.9032 29.3207 10.7577 25.1752 10.7577 20.0783C10.7577 14.9813 14.9032 10.8358 20.0001 10.8358Z" fill="#262D49"/>
<path d="M16.6494 22.7817C16.4736 22.9574 16.4736 23.2483 16.6494 23.4241C16.7403 23.515 16.8555 23.5574 16.9706 23.5574C17.0858 23.5574 17.2009 23.515 17.2918 23.4241L19.1949 21.521C19.4373 21.6544 19.71 21.7392 20.0009 21.7392C20.9221 21.7392 21.6676 20.9938 21.6676 20.0726C21.6676 19.315 21.1524 18.6786 20.4555 18.4786V15.2241C20.4555 14.9756 20.2494 14.7695 20.0009 14.7695C19.7524 14.7695 19.5464 14.9756 19.5464 15.2241V18.4786C18.8494 18.6786 18.3342 19.315 18.3342 20.0726C18.3342 20.3695 18.4191 20.6362 18.5524 20.8786L16.6494 22.7817ZM20.0009 19.321C20.1004 19.321 20.1989 19.3406 20.2908 19.3787C20.3827 19.4168 20.4663 19.4726 20.5366 19.5429C20.6069 19.6133 20.6627 19.6968 20.7008 19.7887C20.7389 19.8806 20.7585 19.9791 20.7585 20.0786C20.7585 20.1781 20.7389 20.2766 20.7008 20.3685C20.6627 20.4604 20.6069 20.544 20.5366 20.6143C20.4663 20.6847 20.3827 20.7405 20.2908 20.7785C20.1989 20.8166 20.1004 20.8362 20.0009 20.8362C19.8 20.8362 19.6073 20.7564 19.4652 20.6143C19.3232 20.4722 19.2433 20.2795 19.2433 20.0786C19.2433 19.8777 19.3232 19.685 19.4652 19.5429C19.6073 19.4009 19.8 19.321 20.0009 19.321Z" fill="#262D49"/>
<path d="M33.6612 7.00563C31.8794 5.22381 28.9824 5.22381 27.2067 7.00563C27.1215 7.09086 27.0737 7.20639 27.0737 7.32684C27.0737 7.4473 27.1215 7.56283 27.2067 7.64805L28.5097 8.95108L27.4855 9.97533C27.3158 9.84805 27.1461 9.71472 26.9642 9.59957C25.0307 8.312 22.7769 7.58801 20.4551 7.50866V6.53896C21.4915 6.32684 22.2733 5.41169 22.2733 4.31472C22.2733 3.06017 21.2551 2.04199 20.0006 2.04199C18.7461 2.04199 17.7279 3.06017 17.7279 4.31472C17.7279 5.41169 18.5097 6.3329 19.5461 6.53896V7.50866C16.9703 7.60563 14.5279 8.47836 12.5097 9.97533L11.4794 8.94502L12.7764 7.64805C12.8615 7.56283 12.9093 7.4473 12.9093 7.32684C12.9093 7.20639 12.8615 7.09086 12.7764 7.00563C11.0006 5.22381 8.10363 5.22381 6.32182 7.00563C5.46121 7.86624 4.98242 9.01169 4.98242 10.2359C4.98242 11.4602 5.45515 12.5996 6.32182 13.4662C6.41272 13.5571 6.52788 13.5996 6.64303 13.5996C6.75818 13.5996 6.87333 13.5571 6.96424 13.4662L8.26121 12.1693L9.40666 13.3147C8.10969 15.345 7.41879 17.6723 7.41879 20.0723C7.41879 20.4238 7.43091 20.7814 7.46121 21.139C7.48545 21.3874 7.70363 21.5753 7.95212 21.5511C8.2006 21.5268 8.38848 21.3087 8.36424 21.0602C8.14216 18.4369 8.81507 15.8157 10.2733 13.6238C12.443 10.3632 16.0794 8.41775 20.0006 8.41775C22.2976 8.41775 24.5279 9.09654 26.4491 10.3693C28.6188 11.8117 30.2067 13.8784 31.037 16.345C31.599 18.0109 31.7812 19.7814 31.5703 21.5268C31.4248 22.6905 31.1097 23.8178 30.6248 24.8844C30.5218 25.1147 30.6248 25.3814 30.8551 25.4844C30.9158 25.5087 30.9824 25.5268 31.043 25.5268C31.2188 25.5268 31.3824 25.4299 31.4552 25.2602C32.1872 23.6391 32.5672 21.8813 32.5703 20.1026C32.5703 18.7268 32.3461 17.3693 31.9097 16.0602C31.5764 15.0844 31.1339 14.1632 30.5945 13.3147L31.7218 12.1874L33.0127 13.4784C33.1036 13.5693 33.2188 13.6117 33.3339 13.6117C33.4491 13.6117 33.5642 13.5693 33.6551 13.4784C34.5158 12.6177 34.9945 11.4723 34.9945 10.2481C34.9945 9.02381 34.5279 7.86624 33.6612 7.00563ZM6.66727 12.4784C6.16681 11.8382 5.89577 11.0485 5.89757 10.2359C5.89757 9.26017 6.27939 8.33896 6.9703 7.65411C7.30826 7.31337 7.7105 7.0431 8.15368 6.85896C8.59687 6.67482 9.0722 6.58047 9.55212 6.58139C10.3764 6.58139 11.1582 6.85411 11.7945 7.35108L6.66727 12.4784ZM9.93394 12.545L8.90969 11.5208L10.837 9.59351L11.7945 10.5511C11.1097 11.139 10.4855 11.8056 9.93394 12.545ZM20.0006 5.68442C19.2491 5.68442 18.637 5.0723 18.637 4.32078C18.637 3.56927 19.2491 2.95714 20.0006 2.95714C20.7521 2.95714 21.3642 3.56927 21.3642 4.32078C21.3642 5.0723 20.7521 5.68442 20.0006 5.68442ZM30.0733 12.539C29.5279 11.8117 28.9036 11.1511 28.2067 10.5511L29.1642 9.59351L31.0915 11.5208L30.0733 12.539ZM33.3218 12.4784L28.1885 7.35108C28.8287 6.85063 29.6183 6.57958 30.4309 6.58139C31.4067 6.58139 32.3279 6.9632 33.0127 7.65411C33.3535 7.99208 33.6237 8.39431 33.8079 8.8375C33.992 9.28068 34.0864 9.75601 34.0855 10.2359C34.0915 11.0602 33.8188 11.842 33.3218 12.4784Z" fill="#262D49"/>
<path d="M20.0004 13.2607C20.2515 13.2607 20.455 13.0571 20.455 12.8061C20.455 12.5551 20.2515 12.3516 20.0004 12.3516C19.7494 12.3516 19.5459 12.5551 19.5459 12.8061C19.5459 13.0571 19.7494 13.2607 20.0004 13.2607Z" fill="#262D49"/>
<path d="M20.0004 27.7997C20.2515 27.7997 20.455 27.5962 20.455 27.3452C20.455 27.0941 20.2515 26.8906 20.0004 26.8906C19.7494 26.8906 19.5459 27.0941 19.5459 27.3452C19.5459 27.5962 19.7494 27.7997 20.0004 27.7997Z" fill="#262D49"/>
<path d="M16.5944 14.1688C16.8126 14.0415 16.8853 13.7627 16.7641 13.5446C16.7028 13.4404 16.6032 13.3643 16.4865 13.3326C16.3699 13.3009 16.2455 13.3161 16.1399 13.3749C15.9217 13.5021 15.849 13.7809 15.9702 13.9991C16.0974 14.2233 16.3762 14.2961 16.5944 14.1688ZM23.8671 26.7688C24.0853 26.6415 24.1581 26.3627 24.0368 26.1446C23.9156 25.9264 23.6308 25.8537 23.4126 25.9749C23.1944 26.1021 23.1217 26.3809 23.2429 26.5991C23.3641 26.8173 23.649 26.8961 23.8671 26.7688ZM13.4732 16.8355C13.5517 16.8805 13.6419 16.9012 13.7322 16.8949C13.8225 16.8887 13.9089 16.8558 13.9805 16.8005C14.0521 16.7451 14.1057 16.6698 14.1345 16.584C14.1633 16.4982 14.166 16.4058 14.1422 16.3184C14.1185 16.2311 14.0694 16.1527 14.0011 16.0933C13.9328 16.0339 13.8485 15.996 13.7587 15.9846C13.6689 15.9731 13.5777 15.9885 13.4967 16.0288C13.4157 16.0692 13.3485 16.1327 13.3035 16.2112C13.1823 16.4294 13.255 16.7082 13.4732 16.8355ZM26.0732 24.1082C26.1254 24.1399 26.1834 24.1608 26.2439 24.1697C26.3043 24.1787 26.3659 24.1754 26.425 24.1601C26.4842 24.1448 26.5396 24.1179 26.5882 24.0809C26.6368 24.0438 26.6774 23.9974 26.7078 23.9444C26.7381 23.8914 26.7575 23.8329 26.7649 23.7722C26.7723 23.7116 26.7674 23.6501 26.7506 23.5914C26.7339 23.5326 26.7055 23.4779 26.6672 23.4303C26.6289 23.3827 26.5815 23.3432 26.5278 23.3143C26.4227 23.2576 26.2997 23.2443 26.185 23.2771C26.0702 23.3099 25.9729 23.3862 25.9136 23.4897C25.8543 23.5933 25.8378 23.7159 25.8676 23.8314C25.8974 23.947 25.9712 24.0463 26.0732 24.1082Z" fill="#262D49"/>
<path d="M12.728 20.5331C12.979 20.5331 13.1825 20.3296 13.1825 20.0786C13.1825 19.8275 12.979 19.624 12.728 19.624C12.4769 19.624 12.2734 19.8275 12.2734 20.0786C12.2734 20.3296 12.4769 20.5331 12.728 20.5331Z" fill="#262D49"/>
<path d="M27.2729 20.5331C27.5239 20.5331 27.7275 20.3296 27.7275 20.0786C27.7275 19.8275 27.5239 19.624 27.2729 19.624C27.0219 19.624 26.8184 19.8275 26.8184 20.0786C26.8184 20.3296 27.0219 20.5331 27.2729 20.5331Z" fill="#262D49"/>
<path d="M13.9278 24.1084C14.1459 23.9812 14.2187 23.7024 14.0974 23.4842C13.9702 23.266 13.6914 23.1933 13.4732 23.3145C13.255 23.4357 13.1823 23.7206 13.3035 23.9388C13.4368 24.1569 13.7096 24.2297 13.9278 24.1084ZM26.5278 16.8357C26.7459 16.7084 26.8187 16.4297 26.6974 16.2115C26.5702 15.9933 26.2914 15.9206 26.0732 16.0418C25.855 16.163 25.7823 16.4478 25.9035 16.666C26.0308 16.8842 26.3096 16.9569 26.5278 16.8357ZM16.1338 26.7691C16.2123 26.8141 16.3025 26.8347 16.3928 26.8285C16.4831 26.8223 16.5695 26.7894 16.6411 26.7341C16.7127 26.6787 16.7663 26.6034 16.7951 26.5176C16.8239 26.4318 16.8266 26.3393 16.8028 26.252C16.7791 26.1647 16.73 26.0863 16.6617 26.0269C16.5934 25.9675 16.5091 25.9296 16.4193 25.9181C16.3295 25.9067 16.2383 25.9221 16.1573 25.9624C16.0763 26.0028 16.0091 26.0662 15.9641 26.1448C15.8368 26.363 15.9217 26.6418 16.1338 26.7691ZM23.4065 14.1691C23.4851 14.2141 23.5752 14.2347 23.6655 14.2285C23.7558 14.2223 23.8422 14.1894 23.9138 14.1341C23.9854 14.0787 24.039 14.0034 24.0678 13.9176C24.0966 13.8318 24.0993 13.7393 24.0756 13.652C24.0518 13.5647 24.0027 13.4863 23.9344 13.4269C23.8662 13.3675 23.7818 13.3296 23.692 13.3181C23.6022 13.3067 23.5111 13.3221 23.43 13.3624C23.349 13.4028 23.2818 13.4662 23.2368 13.5448C23.1156 13.7691 23.1884 14.0478 23.4065 14.1691Z" fill="#262D49"/>
</svg>
