<svg width="16" height="16" viewBox="0 0 16 16" fill="none" xmlns="http://www.w3.org/2000/svg">
<path d="M14 4.66671V11.3334C14 13.3334 13 14.6667 10.6667 14.6667H5.33333C3 14.6667 2 13.3334 2 11.3334V4.66671C2 2.66671 3 1.33337 5.33333 1.33337H10.6667C13 1.33337 14 2.66671 14 4.66671Z" stroke="currentColor" stroke-width="1.5" stroke-miterlimit="10" stroke-linecap="round" stroke-linejoin="round"/>
<path d="M10.3337 1.33337V6.57336C10.3337 6.8667 9.98697 7.01336 9.77364 6.82003L8.22701 5.39339C8.10034 5.27339 7.90031 5.27339 7.77364 5.39339L6.22701 6.82003C6.01368 7.01336 5.66699 6.8667 5.66699 6.57336V1.33337H10.3337Z" stroke="currentColor" stroke-width="1.5" stroke-miterlimit="10" stroke-linecap="round" stroke-linejoin="round"/>
<path d="M8.83301 9.33337H11.6663" stroke="currentColor" stroke-width="1.5" stroke-miterlimit="10" stroke-linecap="round" stroke-linejoin="round"/>
<path d="M6 12H11.6667" stroke="currentColor" stroke-width="1.5" stroke-miterlimit="10" stroke-linecap="round" stroke-linejoin="round"/>
</svg>
