<svg width="29" height="29" viewBox="0 0 29 29" fill="none" xmlns="http://www.w3.org/2000/svg">
<g clip-path="url(#clip0_3736_15103)">
<path d="M17.9796 18.0235L18.249 8.82092L15.4151 8.90386C15.4371 8.15227 15.1597 7.44021 14.6438 6.92431C14.1279 6.40841 13.4158 6.13094 12.6642 6.15294C11.9126 6.17493 11.1831 6.4946 10.636 7.04161C10.089 7.58862 9.76937 8.31817 9.74737 9.06976L9.47801 18.2723C9.44501 19.3997 9.86122 20.4678 10.6351 21.2417C11.4089 22.0155 12.477 22.4317 13.6044 22.3987C14.7318 22.3657 15.8261 21.8862 16.6466 21.0657C17.4671 20.2452 17.9466 19.1509 17.9796 18.0235Z" fill="white" fill-opacity="0.15"/>
<path d="M18.249 8.82092L17.9796 18.0235C17.9466 19.1509 17.4671 20.2452 16.6466 21.0657C15.8261 21.8862 14.7318 22.3657 13.6044 22.3987C12.477 22.4317 11.4089 22.0155 10.6351 21.2417C9.86122 20.4678 9.44501 19.3997 9.47801 18.2723L9.74737 9.06976C9.76937 8.31817 10.089 7.58862 10.636 7.04161C11.1831 6.4946 11.9126 6.17493 12.6642 6.15294C13.4158 6.13094 14.1279 6.40841 14.6438 6.92431C15.1597 7.44021 15.4371 8.15227 15.4151 8.90386L15.1406 18.1116C15.1296 18.4874 14.9698 18.8522 14.6963 19.1257C14.4228 19.3992 14.058 19.559 13.6822 19.57C13.3064 19.581 12.9504 19.4423 12.6924 19.1843C12.4345 18.9264 12.2957 18.5703 12.3067 18.1946L12.5604 9.69778" stroke="currentColor" stroke-width="2" stroke-linecap="round" stroke-linejoin="round"/>
</g>
<defs>
<clipPath id="clip0_3736_15103">
<rect width="20" height="20" fill="white" transform="translate(0 14.1421) rotate(-45)"/>
</clipPath>
</defs>
</svg>
