<svg width="38" height="38" viewBox="0 0 38 38" fill="none" xmlns="http://www.w3.org/2000/svg">
<path d="M20.875 24V20.25H18.7738C18.5744 19.4076 18.2405 18.6029 17.785 17.8669L19.2719 16.38L16.62 13.7281L15.1331 15.215C14.3971 14.7595 13.5924 14.4256 12.75 14.2262V12.125H9V14.2262C8.15764 14.4256 7.35294 14.7595 6.61688 15.215L5.13 13.7281L2.47813 16.38L3.965 17.8669C3.50946 18.6029 3.17559 19.4076 2.97625 20.25H0.875V24H2.97625C3.17559 24.8424 3.50946 25.6471 3.965 26.3831L2.47813 27.87L5.13 30.5219L6.61625 29.035C7.35259 29.4904 8.15748 29.8243 9 30.0238V32.125H12.75V30.0238C13.5925 29.8243 14.3974 29.4904 15.1337 29.035L16.62 30.5219L19.2719 27.87L17.785 26.3831C18.2405 25.6471 18.5744 24.8424 18.7738 24H20.875ZM10.875 26.5C10.0097 26.5 9.16385 26.2434 8.44438 25.7627C7.72492 25.2819 7.16416 24.5987 6.83303 23.7992C6.50189 22.9998 6.41525 22.1201 6.58406 21.2715C6.75287 20.4228 7.16955 19.6433 7.78141 19.0314C8.39326 18.4196 9.17281 18.0029 10.0215 17.8341C10.8701 17.6653 11.7498 17.7519 12.5492 18.083C13.3487 18.4142 14.0319 18.9749 14.5127 19.6944C14.9934 20.4138 15.25 21.2597 15.25 22.125C15.25 23.2853 14.7891 24.3981 13.9686 25.2186C13.1481 26.0391 12.0353 26.5 10.875 26.5Z" fill="#93999A"/>
<path d="M20.875 24V20.25H18.775C18.5724 19.4095 18.2392 18.606 17.7875 17.8688L19.275 16.3812L16.6188 13.725L15.1312 15.2125C14.394 14.7608 13.5905 14.4276 12.75 14.225V12.125H9V14.225C8.46102 14.3549 7.93728 14.5413 7.4375 14.7812V19.425C8.06203 18.6299 8.94268 18.0756 9.92971 17.8564C10.9167 17.6373 11.9492 17.7667 12.8516 18.2228C13.7539 18.6789 14.4705 19.4334 14.8794 20.3581C15.2883 21.2828 15.3642 22.3206 15.0944 23.295C14.8246 24.2694 14.2256 25.1203 13.3993 25.7029C12.573 26.2856 11.5704 26.564 10.5619 26.491C9.5535 26.4179 8.60151 25.9978 7.86782 25.3021C7.13414 24.6064 6.66405 23.6781 6.5375 22.675C5.18981 21.9074 4.04042 20.835 3.18125 19.5437C3.10019 19.7754 3.03134 20.0111 2.975 20.25H0.875V24H2.975C3.17758 24.8405 3.5108 25.644 3.9625 26.3813L2.475 27.8687L5.13125 30.5187L6.61875 29.0375C7.35596 29.4892 8.15948 29.8224 9 30.025V32.125H12.75V30.025C13.5905 29.8224 14.394 29.4892 15.1312 29.0375L16.6188 30.5187L19.275 27.8687L17.7875 26.3813C18.2392 25.644 18.5724 24.8405 18.775 24H20.875Z" fill="#656B76"/>
<path d="M36.5 18.375V12.125H33.5506C33.3209 11.3232 33.0023 10.5497 32.6006 9.81875L34.6825 7.73688L30.2631 3.3175L28.1812 5.39938C27.4503 4.99782 26.6767 4.67918 25.875 4.44937V1.5H19.625V4.44937C18.8233 4.67918 18.0497 4.99782 17.3187 5.39938L15.2369 3.3175L10.8175 7.73688L12.8994 9.81875C12.4977 10.5497 12.1791 11.3232 11.9494 12.125H9V18.375H11.9494C12.1792 19.1767 12.4978 19.9503 12.8994 20.6812L10.8175 22.7631L15.2369 27.1825L17.3187 25.1006C18.0497 25.5022 18.8233 25.8208 19.625 26.0506V29H25.875V26.0506C26.6767 25.8208 27.4503 25.5022 28.1812 25.1006L30.2631 27.1825L34.6825 22.7631L32.6006 20.6812C33.0022 19.9503 33.3208 19.1767 33.5506 18.375H36.5ZM29.125 17.8312C28.717 18.8418 28.0738 19.7404 27.2487 20.4524C26.4237 21.1644 25.4406 21.6693 24.3813 21.925C23.8478 22.0583 23.2999 22.1255 22.75 22.125C21.847 22.1255 20.9528 21.948 20.1185 21.6027C19.2841 21.2573 18.526 20.751 17.8875 20.1125C17.249 19.474 16.7427 18.7159 16.3973 17.8815C16.052 17.0472 15.8745 16.153 15.875 15.25C15.8755 14.7005 15.9406 14.153 16.0687 13.6187C16.328 12.5591 16.8356 11.5763 17.5496 10.7515C18.2636 9.92668 19.1635 9.28349 20.175 8.875C20.9926 8.54218 21.8673 8.37233 22.75 8.375C23.8758 8.37603 24.9841 8.65324 25.9778 9.18233C26.9715 9.71142 27.8202 10.4762 28.4494 11.4097C29.0787 12.3431 29.4694 13.4167 29.5872 14.5363C29.705 15.6559 29.5463 16.7873 29.125 17.8312Z" fill="#E9F1F2"/>
<path d="M36.5 18.375V15.7688C33.9136 15.4706 31.4374 14.5529 29.2812 13.0938C29.5791 13.9947 29.687 14.9475 29.5983 15.8922C29.5096 16.8369 29.2261 17.753 28.7658 18.5827C28.3054 19.4124 27.6781 20.1378 26.9235 20.713C26.1689 21.2883 25.3033 21.7009 24.3813 21.925C23.8478 22.0583 23.2999 22.1255 22.75 22.125C21.847 22.1255 20.9528 21.948 20.1185 21.6027C19.2841 21.2573 18.526 20.751 17.8875 20.1125C17.249 19.474 16.7427 18.7159 16.3973 17.8815C16.052 17.0472 15.8745 16.153 15.875 15.25C15.8755 14.7005 15.9406 14.153 16.0687 13.6187C16.328 12.5591 16.8356 11.5763 17.5496 10.7515C18.2636 9.92668 19.1635 9.28349 20.175 8.875C21.6844 8.26706 23.36 8.21172 24.9062 8.71875C23.4471 6.56263 22.5294 4.08635 22.2312 1.5H19.625V4.45C18.8227 4.6781 18.0489 4.99682 17.3187 5.4L15.2375 3.31875L10.8187 7.7375L12.9 9.81875C12.4968 10.5489 12.1781 11.3227 11.95 12.125H9V18.375H11.95C12.1781 19.1773 12.4968 19.9511 12.9 20.6812L10.8187 22.7625L15.2375 27.1812L17.3187 25.1C18.0489 25.5032 18.8227 25.8219 19.625 26.05V29H25.875V26.05C26.6773 25.8219 27.4511 25.5032 28.1812 25.1L30.2625 27.1812L34.6812 22.7625L32.6 20.6812C33.0032 19.9511 33.3219 19.1773 33.55 18.375H36.5Z" fill="#D0D8DA"/>
<path d="M29.1246 17.8309C28.7166 18.8414 28.0734 19.74 27.2484 20.4521C26.4233 21.1641 25.4402 21.6689 24.3809 21.9246L16.0684 13.6184L14.2246 11.7746L18.6496 7.34961L20.1746 8.87461L29.1246 17.8309Z" fill="#FCBC04"/>
<path d="M29.1246 17.8309C28.7166 18.8414 28.0734 19.74 27.2484 20.4521C26.4233 21.1641 25.4402 21.6689 24.3809 21.9246L16.0684 13.6184L14.2246 11.7746L18.6496 7.34961L20.7496 9.44961C20.6214 10.2047 20.2584 10.9002 19.7121 11.4371L18.6746 12.4746L24.3809 18.1746C25.6149 17.8785 26.7409 17.2418 27.6309 16.3371L29.1246 17.8309Z" fill="#E59730"/>
<path d="M12.9017 1.60728L12.0173 2.49103L15.5529 6.02665C15.7872 6.26106 15.9189 6.57895 15.9189 6.9104C15.9189 7.24186 15.7872 7.55974 15.5529 7.79415L14.6692 8.6779C14.4347 8.91224 14.1169 9.04389 13.7854 9.04389C13.4539 9.04389 13.1361 8.91224 12.9017 8.6779L9.36603 5.14228L8.48228 6.02665C8.25012 6.2588 8.06596 6.53441 7.94031 6.83773C7.81467 7.14105 7.75 7.46615 7.75 7.79447C7.75 8.12278 7.81467 8.44788 7.94031 8.7512C8.06596 9.05453 8.25012 9.33013 8.48228 9.56228L11.1335 12.2135C11.4818 12.5618 11.8952 12.8381 12.3502 13.0266C12.8052 13.2151 13.2929 13.3121 13.7854 13.3121C14.2779 13.3121 14.7656 13.2151 15.2206 13.0266C15.6756 12.8381 16.0891 12.5618 16.4373 12.2135L19.0885 9.56228C19.4368 9.21405 19.7131 8.80063 19.9016 8.34561C20.0901 7.8906 20.1871 7.40291 20.1871 6.9104C20.1871 6.41789 20.0901 5.93021 19.9016 5.47519C19.7131 5.02018 19.4368 4.60676 19.0885 4.25853L16.4373 1.60728C16.2051 1.37512 15.9295 1.19096 15.6262 1.06531C15.3229 0.939669 14.9978 0.875 14.6695 0.875C14.3412 0.875 14.016 0.939669 13.7127 1.06531C13.4094 1.19096 13.1338 1.37512 12.9017 1.60728Z" fill="#F9E109"/>
<path d="M19.0877 9.56211L16.4377 12.2121C16.0897 12.5613 15.6762 12.8384 15.2209 13.0274C14.7657 13.2164 14.2775 13.3138 13.7846 13.3138C13.2916 13.3138 12.8035 13.2164 12.3482 13.0274C11.8929 12.8384 11.4794 12.5613 11.1314 12.2121L8.48145 9.56211C8.09198 9.17286 7.84218 8.66574 7.77097 8.11973C7.69975 7.57372 7.81111 7.01948 8.0877 6.54336C8.19287 6.7346 8.32553 6.90938 8.48145 7.06211L11.1314 9.71211C11.4794 10.0613 11.8929 10.3384 12.3482 10.5274C12.8035 10.7164 13.2916 10.8138 13.7846 10.8138C14.2775 10.8138 14.7657 10.7164 15.2209 10.5274C15.6762 10.3384 16.0897 10.0613 16.4377 9.71211L19.0877 7.06211C19.4865 6.67044 19.7882 6.19104 19.9689 5.66211C20.2083 6.32867 20.2525 7.04967 20.0964 7.74047C19.9403 8.43127 19.5904 9.06321 19.0877 9.56211Z" fill="#FCBC04"/>
<path d="M32.75 27.125L30.875 22.125H15.875L13.375 27.125L5.61313 28.7881C5.3334 28.8481 5.08269 29.0021 4.90285 29.2246C4.72302 29.4471 4.62495 29.7245 4.625 30.0106V34H37.125V29L32.75 27.125Z" fill="#F8664F"/>
<path d="M37.125 31.5V34H4.625V30.0125C4.62435 29.7261 4.72207 29.4481 4.90183 29.2251C5.08158 29.0021 5.33247 28.8476 5.6125 28.7875L13.375 27.125C13.375 27.125 14.625 31.5 20.875 31.5H25.7563C26.2275 30.6837 26.9889 30.0749 27.8888 29.7946C28.7887 29.5143 29.7611 29.5832 30.6125 29.9875C32.4858 30.9389 34.5494 31.4559 36.65 31.5H37.125Z" fill="#CC5144"/>
<path d="M14 37.125C16.0711 37.125 17.75 35.4461 17.75 33.375C17.75 31.3039 16.0711 29.625 14 29.625C11.9289 29.625 10.25 31.3039 10.25 33.375C10.25 35.4461 11.9289 37.125 14 37.125Z" fill="#464A51"/>
<path d="M14 35.875C15.3807 35.875 16.5 34.7557 16.5 33.375C16.5 31.9943 15.3807 30.875 14 30.875C12.6193 30.875 11.5 31.9943 11.5 33.375C11.5 34.7557 12.6193 35.875 14 35.875Z" fill="#656B76"/>
<path d="M14 34.625C14.6904 34.625 15.25 34.0654 15.25 33.375C15.25 32.6846 14.6904 32.125 14 32.125C13.3096 32.125 12.75 32.6846 12.75 33.375C12.75 34.0654 13.3096 34.625 14 34.625Z" fill="#E9F1F2"/>
<path d="M30.25 37.125C32.3211 37.125 34 35.4461 34 33.375C34 31.3039 32.3211 29.625 30.25 29.625C28.1789 29.625 26.5 31.3039 26.5 33.375C26.5 35.4461 28.1789 37.125 30.25 37.125Z" fill="#464A51"/>
<path d="M30.25 35.875C31.6307 35.875 32.75 34.7557 32.75 33.375C32.75 31.9943 31.6307 30.875 30.25 30.875C28.8693 30.875 27.75 31.9943 27.75 33.375C27.75 34.7557 28.8693 35.875 30.25 35.875Z" fill="#656B76"/>
<path d="M30.25 34.625C30.9404 34.625 31.5 34.0654 31.5 33.375C31.5 32.6846 30.9404 32.125 30.25 32.125C29.5596 32.125 29 32.6846 29 33.375C29 34.0654 29.5596 34.625 30.25 34.625Z" fill="#E9F1F2"/>
<path d="M7.125 28.4619V30.2494C7.12401 30.5806 6.992 30.898 6.75779 31.1322C6.52358 31.3664 6.20622 31.4984 5.875 31.4994H4.625V30.0094C4.62491 29.7234 4.7229 29.446 4.90261 29.2236C5.08232 29.0011 5.33289 28.847 5.6125 28.7869L7.125 28.4619Z" fill="#F9E109"/>
<path d="M15.875 22.125L13.375 27.125H23.375V22.125H15.875ZM30.875 22.125H23.375V27.125H32.75L30.875 22.125Z" fill="#84D2F4"/>
<path d="M15.875 22.125L13.375 27.125H23.375L15.875 22.125ZM23.375 22.125V27.125H32.75L23.375 22.125Z" fill="#57B7EB"/>
<path d="M6.96251 30.8619C6.85398 31.055 6.69609 31.2158 6.505 31.3278C6.31392 31.4398 6.0965 31.499 5.87501 31.4994H4.62501V30.0119C4.62421 29.7925 4.68165 29.5768 4.79145 29.3869C4.90125 29.1969 5.05949 29.0395 5.25001 28.9307V28.9994C5.24834 29.4685 5.4238 29.9209 5.74129 30.2662C6.05879 30.6115 6.49493 30.8243 6.96251 30.8619Z" fill="#FCBC04"/>
<path d="M15.1373 33.8873C15.0549 34.0727 14.9286 34.2352 14.7694 34.3608C14.6101 34.4865 14.4227 34.5715 14.2233 34.6085C14.0238 34.6455 13.8183 34.6335 13.6246 34.5733C13.4309 34.5132 13.2547 34.4068 13.1112 34.2634C12.9678 34.12 12.8614 33.9438 12.8013 33.75C12.7412 33.5563 12.7291 33.3508 12.7661 33.1514C12.8031 32.9519 12.8881 32.7645 13.0138 32.6052C13.1394 32.446 13.302 32.3197 13.4873 32.2373C13.4119 32.3976 13.3735 32.5727 13.3748 32.7498C13.3758 33.081 13.5078 33.3984 13.742 33.6326C13.9762 33.8668 14.2936 33.9988 14.6248 33.9998C14.8019 34.0012 14.9771 33.9627 15.1373 33.8873ZM31.3873 33.8873C31.3049 34.0727 31.1786 34.2352 31.0194 34.3608C30.8601 34.4865 30.6727 34.5715 30.4733 34.6085C30.2738 34.6455 30.0683 34.6335 29.8746 34.5733C29.6809 34.5132 29.5047 34.4068 29.3612 34.2634C29.2178 34.12 29.1114 33.9438 29.0513 33.75C28.9912 33.5563 28.9791 33.3508 29.0161 33.1514C29.0531 32.9519 29.1381 32.7645 29.2638 32.6052C29.3894 32.446 29.552 32.3197 29.7373 32.2373C29.6619 32.3976 29.6235 32.5727 29.6248 32.7498C29.6258 33.081 29.7578 33.3984 29.992 33.6326C30.2262 33.8668 30.5436 33.9988 30.8748 33.9998C31.0519 34.0012 31.2271 33.9627 31.3873 33.8873Z" fill="#D0D8DA"/>
<path d="M19.625 2.125H25.25V4.44937C25.25 4.58495 25.2941 4.71686 25.3756 4.8252C25.4571 4.93355 25.5716 5.01244 25.7019 5.05C26.4586 5.26685 27.1887 5.56746 27.8788 5.94625C27.9974 6.01172 28.134 6.03688 28.2682 6.01794C28.4023 5.999 28.5267 5.93699 28.6225 5.84125L30.2631 4.20125L33.7988 7.73688L32.1588 9.375C32.063 9.47084 32.001 9.5952 31.9821 9.72934C31.9631 9.86348 31.9883 10.0001 32.0538 10.1188C32.4325 10.8088 32.7332 11.5389 32.95 12.2956C32.9876 12.4259 33.0665 12.5404 33.1748 12.6219C33.2831 12.7034 33.415 12.7475 33.5506 12.7475H36.5C36.6658 12.7475 36.8247 12.6817 36.9419 12.5644C37.0592 12.4472 37.125 12.2883 37.125 12.1225C37.125 11.9567 37.0592 11.7978 36.9419 11.6806C36.8247 11.5633 36.6658 11.4975 36.5 11.4975H34.0119C33.8344 10.962 33.6191 10.4399 33.3675 9.935L35.1244 8.17875C35.1825 8.1207 35.2286 8.05177 35.26 7.9759C35.2915 7.90003 35.3077 7.8187 35.3077 7.73656C35.3077 7.65443 35.2915 7.5731 35.26 7.49722C35.2286 7.42135 35.1825 7.35242 35.1244 7.29437L30.705 2.875C30.647 2.81689 30.578 2.77079 30.5021 2.73934C30.4263 2.70788 30.3449 2.6917 30.2628 2.6917C30.1807 2.6917 30.0993 2.70788 30.0235 2.73934C29.9476 2.77079 29.8787 2.81689 29.8206 2.875L28.0625 4.6325C27.5576 4.38092 27.0355 4.16559 26.5 3.98812V1.5C26.5 1.33424 26.4342 1.17527 26.3169 1.05806C26.1997 0.940848 26.0408 0.875 25.875 0.875H19.625C19.4592 0.875 19.3003 0.940848 19.1831 1.05806C19.0658 1.17527 19 1.33424 19 1.5C19 1.66576 19.0658 1.82473 19.1831 1.94194C19.3003 2.05915 19.4592 2.125 19.625 2.125ZM24.8081 18.8169C24.926 18.9307 25.0839 18.9937 25.2478 18.9923C25.4116 18.9909 25.5684 18.9251 25.6843 18.8093C25.8001 18.6934 25.8659 18.5366 25.8673 18.3728C25.8687 18.2089 25.8057 18.051 25.6919 17.9331L19.9731 12.2144C19.8552 12.1005 19.6974 12.0375 19.5335 12.039C19.3696 12.0404 19.2129 12.1061 19.097 12.222C18.9811 12.3379 18.9154 12.4946 18.914 12.6585C18.9125 12.8224 18.9755 12.9802 19.0894 13.0981L24.8081 18.8169ZM15.875 33.375C15.875 33.0042 15.765 32.6416 15.559 32.3333C15.353 32.025 15.0601 31.7846 14.7175 31.6427C14.3749 31.5008 13.9979 31.4637 13.6342 31.536C13.2705 31.6084 12.9364 31.787 12.6742 32.0492C12.412 32.3114 12.2334 32.6455 12.161 33.0092C12.0887 33.3729 12.1258 33.7499 12.2677 34.0925C12.4096 34.4351 12.65 34.728 12.9583 34.934C13.2666 35.14 13.6292 35.25 14 35.25C14.4973 35.25 14.9742 35.0525 15.3258 34.7008C15.6775 34.3492 15.875 33.8723 15.875 33.375ZM13.375 33.375C13.375 33.2514 13.4117 33.1306 13.4803 33.0278C13.549 32.925 13.6466 32.8449 13.7608 32.7976C13.875 32.7503 14.0007 32.7379 14.1219 32.762C14.2432 32.7861 14.3545 32.8456 14.4419 32.9331C14.5294 33.0205 14.5889 33.1318 14.613 33.2531C14.6371 33.3743 14.6247 33.5 14.5774 33.6142C14.5301 33.7284 14.45 33.826 14.3472 33.8947C14.2445 33.9633 14.1236 34 14 34C13.8342 34 13.6753 33.9342 13.5581 33.8169C13.4408 33.6997 13.375 33.5408 13.375 33.375Z" fill="#323232"/>
<path d="M37.3713 28.4253L33.2412 26.6553L32.8125 25.5146L35.125 23.2021C35.1831 23.1441 35.2292 23.0752 35.2607 22.9993C35.2921 22.9234 35.3083 22.8421 35.3083 22.76C35.3083 22.6778 35.2921 22.5965 35.2607 22.5206C35.2292 22.4447 35.1831 22.3758 35.125 22.3178L33.3675 20.5621C33.6191 20.0573 33.8344 19.5351 34.0119 18.9996H36.5C36.6658 18.9996 36.8247 18.9338 36.9419 18.8166C37.0592 18.6994 37.125 18.5404 37.125 18.3746V14.6246C37.125 14.4589 37.0592 14.2999 36.9419 14.1827C36.8247 14.0655 36.6658 13.9996 36.5 13.9996C36.3342 13.9996 36.1753 14.0655 36.0581 14.1827C35.9408 14.2999 35.875 14.4589 35.875 14.6246V17.7496H33.5506C33.415 17.7496 33.2831 17.7937 33.1748 17.8752C33.0665 17.9567 32.9876 18.0712 32.95 18.2015C32.7332 18.9582 32.4325 19.6884 32.0538 20.3784C31.9883 20.497 31.9631 20.6337 31.9821 20.7678C32.001 20.9019 32.063 21.0263 32.1588 21.1221L33.7988 22.7628L32.3319 24.229L31.4606 21.9046C31.4158 21.7856 31.3358 21.683 31.2311 21.6106C31.1265 21.5382 31.0022 21.4995 30.875 21.4996H26.8919C28.3853 20.5085 29.4743 19.0152 29.9617 17.2904C30.4492 15.5655 30.3028 13.7232 29.549 12.0969C28.7953 10.4707 27.4841 9.16821 25.8529 8.42531C24.2217 7.68241 22.3784 7.54826 20.6569 8.04714C20.8574 7.30529 20.8591 6.52369 20.6616 5.78101C20.4641 5.03832 20.0744 4.36076 19.5319 3.81652L16.8787 1.16527C16.2927 0.579232 15.4979 0.25 14.6691 0.25C13.8403 0.25 13.0454 0.579232 12.4594 1.16527L11.5756 2.04902C11.4585 2.16622 11.3926 2.32517 11.3926 2.4909C11.3926 2.65662 11.4585 2.81557 11.5756 2.93277L12.75 4.10715C12.8679 4.22099 13.0258 4.28399 13.1896 4.28257C13.3535 4.28114 13.5103 4.21541 13.6261 4.09953C13.742 3.98365 13.8077 3.82689 13.8092 3.66302C13.8106 3.49915 13.7476 3.34127 13.6337 3.22339L12.9013 2.4909L13.3431 2.04902C13.7004 1.7081 14.1752 1.51789 14.6691 1.51789C15.1629 1.51789 15.6377 1.7081 15.995 2.04902L18.6475 4.70027C19.2326 5.28681 19.5612 6.08147 19.5612 6.90996C19.5612 7.73844 19.2326 8.53311 18.6475 9.11964L15.995 11.7721C15.4085 12.3573 14.6138 12.6859 13.7853 12.6859C12.9568 12.6859 12.1622 12.3573 11.5756 11.7721L8.92437 9.11964C8.75023 8.94553 8.61209 8.73882 8.51784 8.51131C8.4236 8.28381 8.37509 8.03996 8.37509 7.79371C8.37509 7.54745 8.4236 7.30361 8.51784 7.0761C8.61209 6.8486 8.75023 6.64188 8.92437 6.46777L9.36625 6.0259L12.4594 9.11964C12.6335 9.29379 12.8402 9.43193 13.0677 9.52618C13.2952 9.62042 13.5391 9.66893 13.7853 9.66893C14.0316 9.66893 14.2754 9.62042 14.5029 9.52618C14.7304 9.43193 14.9371 9.29379 15.1112 9.11964L15.995 8.23589C16.1691 8.06178 16.3073 7.85507 16.4015 7.62756C16.4958 7.40006 16.5443 7.15621 16.5443 6.90996C16.5443 6.6637 16.4958 6.41986 16.4015 6.19235C16.3073 5.96485 16.1691 5.75813 15.995 5.58402L15.4013 4.9909C15.3436 4.9312 15.2746 4.88359 15.1984 4.85083C15.1221 4.81808 15.0401 4.80083 14.9571 4.80011C14.8741 4.79939 14.7918 4.81521 14.715 4.84663C14.6382 4.87806 14.5684 4.92447 14.5098 4.98315C14.4511 5.04183 14.4047 5.11161 14.3732 5.18842C14.3418 5.26523 14.326 5.34753 14.3267 5.43052C14.3274 5.51351 14.3447 5.59552 14.3774 5.67177C14.4102 5.74803 14.4578 5.81699 14.5175 5.87464L15.1112 6.46777C15.1694 6.52582 15.2155 6.59475 15.2469 6.67062C15.2784 6.74649 15.2946 6.82782 15.2946 6.90996C15.2946 6.99209 15.2784 7.07342 15.2469 7.14929C15.2155 7.22517 15.1694 7.2941 15.1112 7.35215L14.2275 8.23589C14.1695 8.29401 14.1005 8.3401 14.0247 8.37156C13.9488 8.40301 13.8674 8.4192 13.7853 8.4192C13.7032 8.4192 13.6218 8.40301 13.546 8.37156C13.4701 8.3401 13.4012 8.29401 13.3431 8.23589L9.80812 4.70027C9.69092 4.5831 9.53198 4.51728 9.36625 4.51728C9.20052 4.51728 9.04158 4.5831 8.92437 4.70027L8.04063 5.58402C7.45459 6.17007 7.12535 6.96492 7.12535 7.79371C7.12535 8.6225 7.45459 9.41735 8.04063 10.0034L9.53625 11.4996H9C8.83424 11.4996 8.67527 11.5655 8.55806 11.6827C8.44085 11.7999 8.375 11.9589 8.375 12.1246V13.7653C7.80325 13.9317 7.24965 14.1551 6.7225 14.4321L5.57312 13.2828C5.45592 13.1656 5.29698 13.0998 5.13125 13.0998C4.96552 13.0998 4.80658 13.1656 4.68937 13.2828L2.03313 15.9371C1.91596 16.0543 1.85013 16.2133 1.85013 16.379C1.85013 16.5447 1.91596 16.7037 2.03313 16.8209L3.1825 17.9703C2.89969 18.4973 2.67102 19.0515 2.5 19.6246H0.875C0.70924 19.6246 0.550268 19.6905 0.433058 19.8077C0.315848 19.9249 0.25 20.0839 0.25 20.2496V23.9996C0.25 24.1654 0.315848 24.3244 0.433058 24.4416C0.550268 24.5588 0.70924 24.6246 0.875 24.6246H2.5C2.67274 25.1973 2.90309 25.751 3.1875 26.2771L2.03313 27.4265C1.91568 27.5437 1.84961 27.7028 1.84943 27.8687C1.84934 27.9508 1.86544 28.0322 1.8968 28.1081C1.92815 28.184 1.97416 28.2531 2.03219 28.3112C2.09022 28.3694 2.15913 28.4155 2.23499 28.447C2.31086 28.4785 2.39219 28.4948 2.47434 28.4949C2.64025 28.4951 2.79943 28.4293 2.91688 28.3121L4.40438 26.8246C4.50375 26.7254 4.5668 26.5956 4.58335 26.4561C4.59991 26.3166 4.569 26.1756 4.49563 26.0559C4.07794 25.3747 3.77 24.6321 3.58313 23.8553C3.55063 23.7184 3.47292 23.5965 3.36257 23.5093C3.25221 23.4221 3.11566 23.3746 2.975 23.3746H1.5V20.8746H2.975C3.11541 20.8748 3.25176 20.8276 3.36208 20.7407C3.47241 20.6539 3.55027 20.5324 3.58313 20.3959C3.77 19.619 4.07794 18.8764 4.49563 18.1953C4.569 18.0755 4.59991 17.9345 4.58335 17.7951C4.5668 17.6556 4.50375 17.5258 4.40438 17.4265L3.35875 16.3809L5.13125 14.6084L6.17688 15.654C6.27612 15.7534 6.40595 15.8164 6.54542 15.833C6.68489 15.8496 6.82587 15.8186 6.94563 15.7453C7.39725 15.4704 7.87629 15.2433 8.375 15.0678V17.8121C7.62186 18.2456 6.99502 18.8682 6.55657 19.6184C6.11813 20.3686 5.8833 21.2204 5.87534 22.0893C5.86738 22.9582 6.08658 23.8141 6.51121 24.5722C6.93584 25.3304 7.55117 25.9644 8.29625 26.4115C8.39322 26.4706 8.5046 26.5017 8.61812 26.5015C8.7546 26.5014 8.88728 26.4566 8.99591 26.374C9.10453 26.2913 9.18312 26.1754 9.21968 26.0439C9.25623 25.9124 9.24875 25.7726 9.19836 25.6458C9.14797 25.5189 9.05745 25.4121 8.94063 25.3415C8.39467 25.0121 7.94172 24.549 7.62457 23.9959C7.30743 23.4427 7.13656 22.8178 7.12811 22.1803C7.11966 21.5427 7.27392 20.9135 7.57631 20.3522C7.87869 19.7908 8.31922 19.3159 8.85625 18.9721C8.90282 18.9873 8.95112 18.9966 9 18.9996H11.4881C11.6656 19.5351 11.8809 20.0573 12.1325 20.5621L10.375 22.3203C10.3169 22.3783 10.2708 22.4472 10.2393 22.5231C10.2079 22.599 10.1917 22.6803 10.1917 22.7625C10.1917 22.8446 10.2079 22.9259 10.2393 23.0018C10.2708 23.0777 10.3169 23.1466 10.375 23.2046L13.2156 26.0446L12.9494 26.5765L5.4825 28.1771C5.0637 28.2684 4.68857 28.4998 4.41903 28.8331C4.1495 29.1664 4.00168 29.5816 4 30.0103V33.9996C4 34.1654 4.06585 34.3244 4.18306 34.4416C4.30027 34.5588 4.45924 34.6246 4.625 34.6246H9.8125C10.0444 35.4024 10.488 36.1003 11.0939 36.6404C11.6997 37.1805 12.4438 37.5414 13.243 37.6828C14.0422 37.8241 14.865 37.7404 15.6193 37.441C16.3736 37.1415 17.0298 36.6382 17.5145 35.9871C17.9991 35.3361 18.2931 34.5631 18.3636 33.7546C18.4341 32.9461 18.2783 32.1339 17.9136 31.4088C17.5489 30.6838 16.9898 30.0744 16.2986 29.649C15.6075 29.2235 14.8116 28.9987 14 28.9996C13.3479 28.9992 12.7042 29.1462 12.1169 29.4296C11.9774 29.5069 11.8726 29.6345 11.8242 29.7865C11.7757 29.9384 11.7872 30.1031 11.8562 30.2469C11.9252 30.3907 12.0465 30.5026 12.1954 30.5598C12.3442 30.617 12.5093 30.6152 12.6569 30.5546C13.076 30.3534 13.5351 30.2491 14 30.2496C14.6801 30.2476 15.3423 30.4668 15.8869 30.8741C16.4315 31.2815 16.8288 31.8549 17.0189 32.5078C17.209 33.1608 17.1816 33.8578 16.9408 34.4938C16.7 35.1298 16.2588 35.6703 15.684 36.0336C15.1091 36.3969 14.4316 36.5634 13.7538 36.5079C13.0761 36.4525 12.4347 36.1781 11.9265 35.7261C11.4183 35.2742 11.0709 34.6693 10.9367 34.0026C10.8025 33.3359 10.8888 32.6436 11.1825 32.0303C11.2416 31.883 11.2424 31.7187 11.1848 31.5708C11.1272 31.4229 11.0155 31.3025 10.8724 31.2339C10.7292 31.1653 10.5654 31.1538 10.414 31.2017C10.2627 31.2495 10.1352 31.3531 10.0575 31.4915C9.77362 32.0787 9.62579 32.7224 9.625 33.3746H5.25V32.1246H5.875C6.37228 32.1246 6.84919 31.9271 7.20083 31.5755C7.55246 31.2238 7.75 30.7469 7.75 30.2496V28.969L13.4406 27.7496H32.625L36.5 29.4115V29.6246H35.875C35.7092 29.6246 35.5503 29.6905 35.4331 29.8077C35.3158 29.9249 35.25 30.0839 35.25 30.2496C35.25 30.4154 35.3158 30.5744 35.4331 30.6916C35.5503 30.8088 35.7092 30.8746 35.875 30.8746H36.5V33.3746H34.625C34.625 32.2143 34.1641 31.1015 33.3436 30.2811C32.5231 29.4606 31.4103 28.9996 30.25 28.9996C29.0897 28.9996 27.9769 29.4606 27.1564 30.2811C26.3359 31.1015 25.875 32.2143 25.875 33.3746H20.1938C20.028 33.3746 19.869 33.4405 19.7518 33.5577C19.6346 33.6749 19.5688 33.8339 19.5688 33.9996C19.5688 34.1654 19.6346 34.3244 19.7518 34.4416C19.869 34.5588 20.028 34.6246 20.1938 34.6246H26.0625C26.3328 35.526 26.8865 36.3161 27.6414 36.8778C28.3963 37.4396 29.3122 37.7429 30.2531 37.7429C31.1941 37.7429 32.11 37.4396 32.8649 36.8778C33.6198 36.3161 34.1735 35.526 34.4437 34.6246H37.125C37.2908 34.6246 37.4497 34.5588 37.5669 34.4416C37.6842 34.3244 37.75 34.1654 37.75 33.9996V28.9996C37.75 28.8773 37.7141 28.7577 37.6468 28.6557C37.5794 28.5536 37.4837 28.4735 37.3713 28.4253ZM6.5 30.2496C6.5 30.4154 6.43415 30.5744 6.31694 30.6916C6.19973 30.8088 6.04076 30.8746 5.875 30.8746H5.25V30.0103C5.24999 29.8672 5.29907 29.7284 5.38905 29.6172C5.47903 29.5059 5.60445 29.4289 5.74438 29.399L6.5 29.2371V30.2496ZM31.8481 26.4996H14.3862L16.2612 22.7496H22.75V24.6246C22.75 24.7904 22.8158 24.9494 22.9331 25.0666C23.0503 25.1838 23.2092 25.2496 23.375 25.2496C23.5408 25.2496 23.6997 25.1838 23.8169 25.0666C23.9342 24.9494 24 24.7904 24 24.6246V22.7496H30.4419L31.8481 26.4996ZM29 15.2496C28.9986 15.7237 28.9437 16.1961 28.8363 16.6578L21.3469 9.16339C22.2628 8.94921 23.2154 8.94509 24.1332 9.15136C25.0509 9.35762 25.9101 9.76891 26.6464 10.3544C27.3826 10.9399 27.9768 11.6844 28.3844 12.5322C28.792 13.38 29.0025 14.309 29 15.2496ZM19.5312 10.0034C19.679 9.85353 19.8156 9.6931 19.94 9.52339L28.375 17.9615C28.0008 18.7395 27.4684 19.431 26.812 19.9918C26.1556 20.5525 25.3894 20.9703 24.5625 21.2184L16.3988 13.0621C16.5685 12.9377 16.7289 12.8011 16.8787 12.6534L19.5312 10.0034ZM11.7013 22.7628L13.3412 21.1246C13.437 21.0288 13.499 20.9044 13.5179 20.7703C13.5369 20.6362 13.5117 20.4995 13.4462 20.3809C13.0675 19.6909 12.7668 18.9607 12.55 18.204C12.5129 18.0733 12.4342 17.9582 12.3258 17.8762C12.2174 17.7942 12.0853 17.7498 11.9494 17.7496H9.625V12.7496H10.7963C11.3804 13.3006 12.1057 13.6792 12.8918 13.8435C13.6779 14.0077 14.4941 13.9512 15.25 13.6803L23.0537 21.4809C22.9525 21.4859 22.8519 21.4996 22.75 21.4996C21.3902 21.4968 20.0681 21.052 18.9831 20.2323C17.898 19.4127 17.1088 18.2625 16.7344 16.9553C16.6852 16.8008 16.5779 16.6714 16.4352 16.5945C16.2924 16.5176 16.1254 16.4992 15.9693 16.5431C15.8132 16.5871 15.6804 16.69 15.5987 16.8301C15.5171 16.9702 15.4931 17.1366 15.5319 17.294C16.0235 19.0209 17.1195 20.5136 18.62 21.4996H15.875C15.7589 21.4996 15.645 21.5319 15.5462 21.5929C15.4474 21.654 15.3675 21.7414 15.3156 21.8453L13.805 24.8665L11.7013 22.7628ZM30.25 36.4996C29.6319 36.4996 29.0277 36.3164 28.5138 35.973C27.9999 35.6296 27.5994 35.1415 27.3629 34.5705C27.1264 33.9995 27.0645 33.3712 27.185 32.765C27.3056 32.1588 27.6033 31.602 28.0403 31.1649C28.4773 30.7279 29.0342 30.4303 29.6403 30.3097C30.2465 30.1891 30.8749 30.251 31.4459 30.4875C32.0169 30.724 32.505 31.1246 32.8483 31.6385C33.1917 32.1524 33.375 32.7566 33.375 33.3746C33.374 34.2031 33.0444 34.9974 32.4586 35.5833C31.8728 36.1691 31.0785 36.4987 30.25 36.4996Z" fill="#323232"/>
<path d="M30.25 31.5C29.8792 31.5 29.5166 31.61 29.2083 31.816C28.9 32.022 28.6596 32.3149 28.5177 32.6575C28.3758 33.0001 28.3387 33.3771 28.411 33.7408C28.4834 34.1045 28.662 34.4386 28.9242 34.7008C29.1864 34.963 29.5205 35.1416 29.8842 35.214C30.2479 35.2863 30.6249 35.2492 30.9675 35.1073C31.3101 34.9654 31.603 34.725 31.809 34.4167C32.015 34.1084 32.125 33.7458 32.125 33.375C32.125 32.8777 31.9275 32.4008 31.5758 32.0492C31.2242 31.6975 30.7473 31.5 30.25 31.5ZM30.25 34C30.1264 34 30.0056 33.9633 29.9028 33.8947C29.8 33.826 29.7199 33.7284 29.6726 33.6142C29.6253 33.5 29.6129 33.3743 29.637 33.2531C29.6611 33.1318 29.7206 33.0205 29.8081 32.9331C29.8955 32.8456 30.0068 32.7861 30.1281 32.762C30.2493 32.7379 30.375 32.7503 30.4892 32.7976C30.6034 32.8449 30.701 32.925 30.7697 33.0278C30.8383 33.1306 30.875 33.2514 30.875 33.375C30.875 33.5408 30.8092 33.6997 30.6919 33.8169C30.5747 33.9342 30.4158 34 30.25 34ZM22.125 30.25C22.2908 30.25 22.4497 30.1842 22.5669 30.0669C22.6842 29.9497 22.75 29.7908 22.75 29.625C22.75 29.4592 22.6842 29.3003 22.5669 29.1831C22.4497 29.0658 22.2908 29 22.125 29H20.875C20.7092 29 20.5503 29.0658 20.4331 29.1831C20.3158 29.3003 20.25 29.4592 20.25 29.625C20.25 29.7908 20.3158 29.9497 20.4331 30.0669C20.5503 30.1842 20.7092 30.25 20.875 30.25H22.125Z" fill="#323232"/>
</svg>
