<svg width="40" height="40" viewBox="0 0 40 40" fill="none" xmlns="http://www.w3.org/2000/svg">
<path d="M3.91594 31.2387L7.46734 35.327C8.31288 36.0597 9.22084 36.7172 10.1809 37.2919L36.1064 31.2052C38.0266 28.222 39.1409 24.6709 39.1409 20.8595C39.1409 10.2884 30.5713 1.71875 20.0002 1.71875C9.42898 1.71875 0.859375 10.2884 0.859375 20.8595C0.859375 24.6853 1.98242 28.2485 3.91594 31.2387Z" fill="#1C2E7A"/>
<path d="M36.543 2.57332H22.0909C21.9016 2.57332 21.7211 2.53426 21.5566 2.46395L22.6409 12.3301H26.0087C26.5823 12.3301 27.0473 12.7951 27.0473 13.3687V22.3801C27.2548 22.2511 27.4652 22.1521 27.6698 22.0905C28.2755 21.9087 28.7664 22.0785 28.7602 22.6946L28.7606 29.5445H28.9183C28.9913 29.5446 29.0614 29.5736 29.1131 29.6253C29.1647 29.6769 29.1938 29.747 29.1938 29.82V32.1486H30.2449V21.364C30.2449 20.8795 30.6391 20.4854 31.1236 20.4854H35.1042C35.1495 20.4854 35.1935 20.49 35.237 20.4965L37.0937 2.45605C36.9203 2.53329 36.7327 2.57324 36.543 2.57332Z" fill="#4FABF7"/>
<path d="M37.0935 2.45703C36.9202 2.53421 36.7327 2.57413 36.543 2.57422H22.0909C21.9016 2.57422 21.7211 2.53516 21.5566 2.46492L22.6409 12.3311H26.0087C26.5823 12.3311 27.0473 12.7961 27.0473 13.3697V22.3811C27.2548 22.2522 27.4652 22.153 27.6698 22.0916C28.2755 21.9098 28.7664 22.0795 28.7602 22.6956L28.7606 29.5455H28.9183C28.9913 29.5456 29.0614 29.5747 29.1131 29.6263C29.1647 29.678 29.1938 29.748 29.1938 29.8211V32.1496H30.2449V22.2627C28.9129 21.1618 28.8839 19.5055 28.8839 19.5055L28.6262 9.1493C28.5891 7.66469 29.7825 6.44109 31.2677 6.44109H36.6835L37.0935 2.45703Z" fill="#2E8BE6"/>
<path d="M12.8963 28.3829H13.6009V27.2093C13.6009 26.8671 13.805 26.5568 14.121 26.4186L14.6612 26.1825H13.4347C13.3228 26.1824 13.2155 26.1379 13.1364 26.0588C13.0572 25.9796 13.0127 25.8723 13.0125 25.7604V20.6885H11.1162V29.0932C11.5809 28.6535 12.2074 28.3829 12.8963 28.3829Z" fill="#FFB332"/>
<path d="M3.91602 31.2388C4.90116 32.7622 6.0968 34.1386 7.46742 35.3271V20.6885H3.91602V31.2388Z" fill="#73C3F9"/>
<path d="M5.69172 23.5753C5.69172 22.9518 6.19719 22.4463 6.8207 22.4463H7.46742V20.6885H3.91602V31.2387C4.44773 32.0605 5.04135 32.8405 5.69172 33.5719V23.5753ZM7.43844 35.3014C7.4482 35.3099 7.45773 35.3186 7.46742 35.3271V35.2823C7.45789 35.2891 7.44805 35.295 7.43844 35.3014Z" fill="#4FABF7"/>
<path d="M16.1258 7.77946C14.2929 5.95204 11.4029 6.03641 9.65752 7.78016C9.22698 8.20969 9.16846 8.88774 9.50455 9.39469C9.9994 10.1413 10.7088 11.3695 11.0786 12.7433H14.7055C15.0752 11.37 15.7842 10.1421 16.279 9.39555C16.6153 8.88805 16.5569 8.2093 16.1258 7.77946Z" fill="#FCF0BE"/>
<path d="M13.051 7.93448C13.051 7.20667 13.8693 6.84175 14.3766 6.68534C12.7572 6.13089 10.9118 6.52706 9.65752 7.78019C9.22698 8.20972 9.16846 8.88784 9.50455 9.39472C9.9994 10.1413 10.7088 11.3696 11.0786 12.7433H13.5198V12.6138C13.0315 12.4883 13.051 11.8994 13.051 11.8994L13.051 7.93448Z" fill="#FFDD40"/>
<path d="M10.9941 20.9475H13.0127V19.132C13.0128 19.0201 13.0574 18.9128 13.1365 18.8336C13.2157 18.7545 13.323 18.71 13.4349 18.7099H15.4179V13.2421C15.4179 13.0756 15.3518 12.9159 15.234 12.7982C15.1163 12.6804 14.9566 12.6143 14.79 12.6143H10.9941C10.8276 12.6143 10.6679 12.6804 10.5501 12.7982C10.4324 12.9159 10.3662 13.0756 10.3662 13.2421V20.3196C10.3662 20.4861 10.4324 20.6458 10.5501 20.7636C10.6679 20.8813 10.8276 20.9475 10.9941 20.9475Z" fill="#E9EFFF"/>
<path d="M12.9702 20.3196V13.2421C12.9702 13.0756 13.0363 12.9159 13.1541 12.7982C13.2719 12.6804 13.4316 12.6143 13.5981 12.6143H10.9941C10.8276 12.6143 10.6679 12.6804 10.5501 12.7982C10.4324 12.9159 10.3662 13.0756 10.3662 13.2421V20.3196C10.3662 20.4861 10.4324 20.6458 10.5501 20.7636C10.6679 20.8813 10.8276 20.9475 10.9941 20.9475H13.0127V20.5453C12.9847 20.4733 12.9703 20.3968 12.9702 20.3196Z" fill="#BEC8F7"/>
<path d="M8.92561 7.77946C7.09272 5.95204 4.20272 6.03641 2.45733 7.78016C2.02678 8.20969 1.96826 8.88774 2.30436 9.39469C2.7992 10.1413 3.50858 11.3695 3.87842 12.7433H7.5053C7.87498 11.37 8.58397 10.1421 9.07881 9.39555C9.41506 8.88805 9.3567 8.2093 8.92561 7.77946Z" fill="#FCF0BE"/>
<path d="M5.85088 7.93448C5.85088 7.20667 6.66909 6.84175 7.17643 6.68534C5.55705 6.13089 3.71166 6.52706 2.45737 7.78019C2.02674 8.20972 1.9683 8.88784 2.30432 9.39472C2.79916 10.1413 3.50854 11.3696 3.87838 12.7433H6.31955V12.6138C5.83127 12.4883 5.8508 11.8994 5.8508 11.8994L5.85088 7.93448Z" fill="#FFDD40"/>
<path d="M7.58984 12.6143H3.79391C3.62738 12.6143 3.46767 12.6804 3.34992 12.7982C3.23217 12.9159 3.16602 13.0756 3.16602 13.2421V20.3196C3.16602 20.4861 3.23217 20.6458 3.34992 20.7636C3.46767 20.8813 3.62738 20.9475 3.79391 20.9475H7.58984C7.75637 20.9475 7.91608 20.8813 8.03383 20.7636C8.15158 20.6458 8.21773 20.4861 8.21773 20.3196V13.2421C8.21773 13.0756 8.15158 12.9159 8.03383 12.7982C7.91608 12.6804 7.75637 12.6143 7.58984 12.6143Z" fill="#E9EFFF"/>
<path d="M5.69187 20.3196V13.2421C5.69187 13.0756 5.75803 12.9159 5.87578 12.7982C5.99353 12.6804 6.15324 12.6143 6.31977 12.6143H3.79391C3.62738 12.6143 3.46767 12.6804 3.34992 12.7982C3.23217 12.9159 3.16602 13.0756 3.16602 13.2421V20.3196C3.16602 20.4861 3.23217 20.6458 3.34992 20.7636C3.46767 20.8813 3.62738 20.9475 3.79391 20.9475H6.31977C6.15324 20.9475 5.99353 20.8813 5.87578 20.7636C5.75803 20.6458 5.69187 20.4861 5.69187 20.3196Z" fill="#BEC8F7"/>
<path d="M20.8837 18.7092C20.9956 18.7094 21.1029 18.7539 21.182 18.833C21.2611 18.9121 21.3056 19.0194 21.3058 19.1313V25.7597C21.3056 25.8716 21.2611 25.9789 21.182 26.058C21.1029 26.1371 20.9956 26.1817 20.8837 26.1818H19.657L20.1973 26.418C20.5133 26.556 20.7174 26.8664 20.7174 27.2086V28.3821H21.422C22.8514 28.3821 24.0144 29.545 24.0144 30.9745V32.1488H25.0654V29.8202C25.0655 29.7472 25.0945 29.6771 25.1462 29.6255C25.1978 29.5738 25.2679 29.5448 25.3409 29.5447H25.4986V24.8134L25.5017 24.8145L25.4996 24.633C25.4938 24.1221 25.8336 23.4615 26.3862 22.9088C26.622 22.6731 26.8771 22.4797 27.1298 22.3335V13.2866C27.1298 12.713 26.6648 12.248 26.0912 12.248H18.148C17.5744 12.248 17.1094 12.713 17.1094 13.2866V18.7092H20.8837Z" fill="#73C3F9"/>
<path d="M20.8407 13.2866C20.8407 12.713 21.3057 12.248 21.8793 12.248H18.148C17.5744 12.248 17.1094 12.713 17.1094 13.2866V18.7092H20.8407V13.2866Z" fill="#4FABF7"/>
<path d="M36.1064 31.2045V21.3642C36.1064 20.8109 35.6579 20.3623 35.1046 20.3623H31.1239C30.5707 20.3623 30.1221 20.8108 30.1221 21.3642V32.0836H35.5043C35.7131 31.7962 35.9139 31.503 36.1064 31.2045Z" fill="#FFC839"/>
<path d="M32.9581 21.2861C32.9581 20.8704 33.2112 20.514 33.5716 20.3623H31.1239C30.5707 20.3623 30.1221 20.8108 30.1221 21.3642V32.0836H32.958L32.9581 21.2861Z" fill="#FFB332"/>
<path d="M30.1221 37.1064C31.399 36.309 32.5778 35.3644 33.6344 34.292H30.1221V37.1064Z" fill="#FFC839"/>
<path d="M32.958 34.292H30.1221V37.1064C31.1324 36.4748 32.0818 35.7506 32.958 34.9432V34.292Z" fill="#FFB332"/>
<path d="M35.5467 32.0254H30.1221V34.3492H33.5778C34.2945 33.6279 34.9528 32.8508 35.5467 32.0254Z" fill="#FCF0BE"/>
<path d="M30.1221 32.0254H32.958V34.3492H30.1221V32.0254Z" fill="#FFDD40"/>
<path d="M28.8695 22.6963C28.8028 23.1889 28.4819 23.7888 27.9602 24.3106C27.107 25.1638 26.0434 25.4835 25.5845 25.0247C25.4835 24.9237 25.4223 24.7921 25.3942 24.6411L25.375 24.6343V29.5947H28.8838V22.6963H28.8695Z" fill="#FF4155"/>
<path d="M27.4918 29.5425C26.7236 29.3993 26.8082 28.4813 26.8082 28.4813V26.7039C26.8082 25.6716 27.2646 24.9909 27.6031 24.6279C26.8296 25.2357 25.9818 25.4207 25.5855 25.0244C25.4845 24.9234 25.4233 24.7918 25.3952 24.6408L25.376 24.6339V29.5943H27.6299C27.5928 29.5711 27.5479 29.5529 27.4918 29.5425Z" fill="#E80054"/>
<path d="M28.6752 22.1079C28.2164 21.6492 27.1529 21.9689 26.2997 22.8221C25.4465 23.6753 25.1267 24.7389 25.5855 25.1976C26.0443 25.6564 27.1079 25.3367 27.9611 24.4835C28.8143 23.6304 29.134 22.5668 28.6752 22.1079Z" fill="#FF7186"/>
<path d="M24.1377 39.5504C26.2573 39.0831 28.2813 38.2565 30.1221 37.1064V34.292H24.1377V39.5504Z" fill="#FFC839"/>
<path d="M27.1299 34.292H24.1377V39.5504C25.1588 39.3251 26.1596 39.0158 27.1299 38.6257V34.292Z" fill="#FFB332"/>
<path d="M28.9188 29.4219H25.3411C25.2354 29.4219 25.134 29.4639 25.0592 29.5387C24.9844 29.6134 24.9424 29.7149 24.9424 29.8206V32.0839H29.3175V29.8206C29.3175 29.7149 29.2755 29.6134 29.2007 29.5387C29.126 29.4639 29.0245 29.4219 28.9188 29.4219Z" fill="#E9EFFF"/>
<path d="M26.8821 31.5611V29.9454C26.8821 29.8312 26.9172 29.7198 26.9826 29.6263C27.048 29.5327 27.1405 29.4615 27.2477 29.4222H25.3407C25.2349 29.4222 25.1335 29.4642 25.0587 29.539C24.9839 29.6138 24.9419 29.7152 24.9419 29.821V32.0843H27.2477C27.1405 32.045 27.048 31.9737 26.9826 31.8802C26.9172 31.7866 26.8821 31.6753 26.8821 31.5611ZM19.8547 26.2236H14.4632C13.9211 26.2236 13.4775 26.6672 13.4775 27.2093V28.3418H20.8404V27.2093C20.8404 26.6672 20.3968 26.2236 19.8547 26.2236Z" fill="#D3DCFB"/>
<path d="M17.1586 28.2596C16.0189 27.2886 17.1586 26.3058 17.1586 26.3058L17.1707 26.2236H14.4632C13.9211 26.2236 13.4775 26.6672 13.4775 27.2093V28.3418H17.2349C17.2128 28.3114 17.1872 28.2839 17.1586 28.2596Z" fill="#BEC8F7"/>
<path d="M20.8834 18.5859H18.7656V26.3049H20.8834C21.0281 26.3049 21.1668 26.2475 21.269 26.1452C21.3713 26.0429 21.4288 25.9042 21.4288 25.7596V19.1313C21.4288 19.0597 21.4147 18.9888 21.3873 18.9226C21.3599 18.8565 21.3197 18.7963 21.2691 18.7457C21.2184 18.695 21.1583 18.6549 21.0921 18.6275C21.026 18.6 20.9551 18.5859 20.8834 18.5859Z" fill="#FC90CE"/>
<path d="M15.5521 18.5859H13.435C13.2903 18.5859 13.1516 18.6434 13.0494 18.7457C12.9471 18.8479 12.8896 18.9866 12.8896 19.1312V25.7595C12.8896 25.9042 12.9471 26.0429 13.0494 26.1451C13.1516 26.2474 13.2903 26.3048 13.435 26.3048H15.5521V18.5859Z" fill="#FF54B6"/>
<path d="M17.159 33.9361C20.6954 37.4723 24.1374 33.9361 24.1374 33.9361V30.9743C24.1374 29.4807 22.9154 28.2588 21.4218 28.2588H12.8962C11.4026 28.2588 10.1807 29.4808 10.1807 30.9743V33.9361C10.1806 33.9361 13.6227 30.3998 17.159 33.9361Z" fill="#E9EFFF"/>
<path d="M10.1807 30.9744V33.9361C10.1807 33.9361 12.0621 32.0041 14.4718 32.4251V30.4343C14.4718 28.657 16.3388 28.2588 16.3388 28.2588H12.8962C11.4027 28.2589 10.1807 29.4808 10.1807 30.9744Z" fill="#D3DCFB"/>
<path d="M24.1376 33.8539H24.1979L24.1376 33.7718C20.1752 29.8094 17.1592 33.7718 17.1592 33.7718L17.1094 33.8056C20.802 37.4288 24.0711 33.8536 24.1376 33.8539Z" fill="#FF7ACB"/>
<path d="M20.1805 33.7196C20.1805 32.9916 20.6062 32.3632 21.2222 32.0695C18.7871 31.6331 17.1592 33.7717 17.1592 33.7717L17.1094 33.8056C18.6191 35.2869 20.0577 35.5647 21.2359 35.3759C20.6126 35.0849 20.1805 34.4529 20.1805 33.7196Z" fill="#FF54B6"/>
<path d="M17.159 33.7719C13.6228 30.2356 10.1807 33.7719 10.1807 33.7719V37.2912C13.0516 39.0105 16.41 39.9997 19.9999 39.9997C21.4207 39.9997 22.8049 39.8435 24.1374 39.5498V33.7719C24.1374 33.7719 20.6953 37.3082 17.159 33.7719Z" fill="#FC90CE"/>
<path d="M14.4718 32.2612C12.0621 31.8402 10.1807 33.7722 10.1807 33.7722V37.2915C11.5274 38.0983 12.9687 38.7355 14.4718 39.1886V32.2612Z" fill="#FF7ACB"/>
<path d="M24.1377 32.0254H30.1221V34.3492H24.1377V32.0254Z" fill="#FCF0BE"/>
<path d="M27.1299 32.6052C27.1299 32.4862 27.1621 32.3694 27.2232 32.2673C27.2843 32.1652 27.372 32.0816 27.4768 32.0254H24.1377V34.3492H27.1299V32.6052Z" fill="#FFDD40"/>
<path d="M16.6369 36.2855C17.0291 36.2855 17.3471 35.9676 17.3471 35.5754C17.3471 35.1832 17.0291 34.8652 16.6369 34.8652C16.2447 34.8652 15.9268 35.1832 15.9268 35.5754C15.9268 35.9676 16.2447 36.2855 16.6369 36.2855Z" fill="#FFBBE5"/>
<path d="M14.472 38.067C15.0902 38.067 15.5914 37.5658 15.5914 36.9476C15.5914 36.3293 15.0902 35.8281 14.472 35.8281C13.8537 35.8281 13.3525 36.3293 13.3525 36.9476C13.3525 37.5658 13.8537 38.067 14.472 38.067Z" fill="#FFBBE5"/>
<path d="M15.4629 18.5859H18.8543V26.3049H15.4629V18.5859Z" fill="#FF7ACB"/>
<path d="M36.5437 0H22.0916C21.3387 0 20.7227 0.616016 20.7227 1.36898C20.7227 2.12195 21.3387 2.73797 22.0916 2.73797H36.5437C37.2966 2.73797 37.9127 2.12195 37.9127 1.36898C37.9127 0.616016 37.2966 0 36.5437 0Z" fill="#73C3F9"/>
<path d="M28.0664 1.36898C28.0664 0.616016 28.6825 0 29.4354 0H22.0916C21.3387 0 20.7227 0.616016 20.7227 1.36898C20.7227 2.12195 21.3387 2.73805 22.0916 2.73805H29.4354C28.6825 2.73805 28.0664 2.12195 28.0664 1.36898Z" fill="#4FABF7"/>
</svg>
