<svg width="17" height="20" viewBox="0 0 17 20" fill="none" xmlns="http://www.w3.org/2000/svg">
<path d="M5.16667 8.33333H11.8333M5.16667 11.6667H11.8333M5.16667 15H8.5M5.16667 3.33333C5.16667 4.25381 5.91286 5 6.83333 5H10.1667C11.0871 5 11.8333 4.25381 11.8333 3.33333M5.16667 3.33333C5.16667 2.41286 5.91286 1.66667 6.83333 1.66667H10.1667C11.0871 1.66667 11.8333 2.41286 11.8333 3.33333M5.16667 3.33333H4.33333C2.49238 3.33333 1 4.82572 1 6.66667V15C1 16.8409 2.49238 18.3333 4.33333 18.3333H12.6667C14.5076 18.3333 16 16.8409 16 15V6.66667C16 4.82572 14.5076 3.33333 12.6667 3.33333H11.8333" stroke="currentColor" stroke-width="1.5" stroke-linecap="round"/>
</svg>
