<svg width="40" height="40" viewBox="0 0 40 40" fill="none" xmlns="http://www.w3.org/2000/svg">
<g clip-path="url(#clip0_3788_17758)">
<path d="M38.8281 17.4059H1.17188C0.524687 17.4059 0 16.8812 0 16.234V6.19238C0 5.5452 0.524687 5.02051 1.17188 5.02051H38.8281C39.4753 5.02051 40 5.5452 40 6.19238V16.234C40 16.8812 39.4753 17.4059 38.8281 17.4059Z" fill="#CA3F7C"/>
<path d="M40 16.234V6.19238C40 5.5452 39.4753 5.02051 38.8281 5.02051H20V17.4059H38.8281C39.4753 17.4059 40 16.8812 40 16.234Z" fill="#98256B"/>
<path d="M38.8281 40H1.17188C0.524687 40 0 39.4753 0 38.8281V16.2344C0 15.5872 0.524687 15.0625 1.17188 15.0625H38.8281C39.4753 15.0625 40 15.5872 40 16.2344V38.8281C40 39.4753 39.4753 40 38.8281 40Z" fill="#F1F4F7"/>
<path d="M40 38.8281V16.2344C40 15.5872 39.4753 15.0625 38.8281 15.0625H20V40H38.8281C39.4753 40 40 39.4753 40 38.8281Z" fill="#D3E1EB"/>
<path d="M9.95871 10.0416C9.22066 10.0416 8.6202 9.44117 8.6202 8.70312V3.68227C8.6202 2.94422 9.22066 2.34375 9.95871 2.34375C10.6968 2.34375 11.2972 2.94422 11.2972 3.68227V5.02078H13.641V3.68227C13.641 1.65187 11.9891 0 9.95871 0C7.92832 0 6.27637 1.65187 6.27637 3.68227V8.70312C6.27637 10.7335 7.92824 12.3854 9.95863 12.3854C10.6058 12.3854 11.1305 11.8607 11.1305 11.2135C11.1305 10.5663 10.6059 10.0416 9.95871 10.0416ZM20.0004 10.0416C19.2623 10.0416 18.6618 9.44117 18.6618 8.70312V3.68227C18.6618 2.94422 19.2623 2.34375 20.0004 2.34375C20.7384 2.34375 21.3389 2.94422 21.3389 3.68227V5.02078H23.6826V3.68227C23.6826 1.65187 22.0307 0 20.0004 0C17.97 0 16.3181 1.65187 16.3181 3.68227V8.70312C16.3181 10.7335 17.97 12.3854 20.0004 12.3854C20.6475 12.3854 21.1722 11.8607 21.1722 11.2135C21.1722 10.5663 20.6475 10.0416 20.0004 10.0416Z" fill="#FFED90"/>
<path d="M30.0416 10.0416C29.3036 10.0416 28.7031 9.44117 28.7031 8.70312V3.68227C28.7031 2.94422 29.3036 2.34375 30.0416 2.34375C30.7797 2.34375 31.3802 2.94422 31.3802 3.68227V5.02078H33.7239V3.68227C33.724 1.65187 32.072 0 30.0416 0C28.0112 0 26.3594 1.65187 26.3594 3.68227V8.70312C26.3594 10.7335 28.0112 12.3854 30.0416 12.3854C30.6888 12.3854 31.2135 11.8607 31.2135 11.2135C31.2135 10.5663 30.6888 10.0416 30.0416 10.0416ZM20 2.34375C20.738 2.34375 21.3385 2.94422 21.3385 3.68227V5.02078H23.6823V3.68227C23.6823 1.65187 22.0304 0 20 0V2.34375Z" fill="#FFBE00"/>
<path d="M31.2967 28.7031H30.0414C29.3943 28.7031 28.8696 28.1784 28.8696 27.5312C28.8696 26.8841 29.3943 26.3594 30.0414 26.3594H31.2967C31.9439 26.3594 32.4686 26.8841 32.4686 27.5312C32.4686 28.1784 31.9439 28.7031 31.2967 28.7031ZM31.2967 23.0547H30.0414C29.3943 23.0547 28.8696 22.53 28.8696 21.8828C28.8696 21.2356 29.3943 20.7109 30.0414 20.7109H31.2967C31.9439 20.7109 32.4686 21.2356 32.4686 21.8828C32.4686 22.53 31.9439 23.0547 31.2967 23.0547ZM24.1839 28.7031H22.9287C22.2815 28.7031 21.7568 28.1784 21.7568 27.5312C21.7568 26.8841 22.2815 26.3594 22.9287 26.3594H24.1839C24.8311 26.3594 25.3557 26.8841 25.3557 27.5312C25.3557 28.1784 24.8311 28.7031 24.1839 28.7031ZM24.1839 23.0547H22.9287C22.2815 23.0547 21.7568 22.53 21.7568 21.8828C21.7568 21.2356 22.2815 20.7109 22.9287 20.7109H24.1839C24.8311 20.7109 25.3557 21.2356 25.3557 21.8828C25.3557 22.53 24.8311 23.0547 24.1839 23.0547Z" fill="#001824"/>
<path d="M17.0712 28.7031H15.816C15.1688 28.7031 14.6441 28.1784 14.6441 27.5312C14.6441 26.8841 15.1688 26.3594 15.816 26.3594H17.0712C17.7184 26.3594 18.243 26.8841 18.243 27.5312C18.243 28.1784 17.7184 28.7031 17.0712 28.7031ZM17.0712 34.3516H15.816C15.1688 34.3516 14.6441 33.8269 14.6441 33.1797C14.6441 32.5325 15.1688 32.0078 15.816 32.0078H17.0712C17.7184 32.0078 18.243 32.5325 18.243 33.1797C18.243 33.8269 17.7184 34.3516 17.0712 34.3516ZM17.0712 23.0547H15.816C15.1688 23.0547 14.6441 22.53 14.6441 21.8828C14.6441 21.2356 15.1688 20.7109 15.816 20.7109H17.0712C17.7184 20.7109 18.243 21.2356 18.243 21.8828C18.243 22.53 17.7184 23.0547 17.0712 23.0547ZM9.95836 28.7031H8.70312C8.05594 28.7031 7.53125 28.1784 7.53125 27.5312C7.53125 26.8841 8.05594 26.3594 8.70312 26.3594H9.95836C10.6055 26.3594 11.1302 26.8841 11.1302 27.5312C11.1302 28.1784 10.6055 28.7031 9.95836 28.7031ZM9.95836 34.3516H8.70312C8.05594 34.3516 7.53125 33.8269 7.53125 33.1797C7.53125 32.5325 8.05594 32.0078 8.70312 32.0078H9.95836C10.6055 32.0078 11.1302 32.5325 11.1302 33.1797C11.1302 33.8269 10.6055 34.3516 9.95836 34.3516ZM9.95836 23.0547H8.70312C8.05594 23.0547 7.53125 22.53 7.53125 21.8828C7.53125 21.2356 8.05594 20.7109 8.70312 20.7109H9.95836C10.6055 20.7109 11.1302 21.2356 11.1302 21.8828C11.1302 22.53 10.6055 23.0547 9.95836 23.0547Z" fill="#002F48"/>
<path d="M36.0951 22.1064C33.4632 19.4741 29.0902 20.8868 26.5575 23.4192L26.5574 23.4194C24.0427 25.9345 22.6052 30.3182 25.2441 32.9567C27.7899 35.5031 32.1224 34.3028 34.7817 31.6438C37.1578 29.2674 38.8241 24.8349 36.0951 22.1064ZM33.1245 29.9865C30.862 32.2487 28.091 32.4893 26.9014 31.2995C25.6701 30.0684 26.0173 27.2746 28.2148 25.0767C30.4772 22.8145 33.2483 22.5739 34.4378 23.7638C35.6412 24.9669 35.3626 27.7481 33.1245 29.9865Z" fill="#FF5078"/>
</g>
<defs>
<clipPath id="clip0_3788_17758">
<rect width="40" height="40" fill="white"/>
</clipPath>
</defs>
</svg>
