<svg width="20" height="20" viewBox="0 0 20 20" fill="none" xmlns="http://www.w3.org/2000/svg">
<path d="M9.82917 17.5H4.16667C3.72464 17.5 3.30072 17.3244 2.98816 17.0118C2.67559 16.6993 2.5 16.2754 2.5 15.8333V5.83333C2.5 5.39131 2.67559 4.96738 2.98816 4.65482C3.30072 4.34226 3.72464 4.16667 4.16667 4.16667H14.1667C14.6087 4.16667 15.0326 4.34226 15.3452 4.65482C15.6577 4.96738 15.8333 5.39131 15.8333 5.83333V9.16667H2.5M12.5 2.5V5.83333M5.83333 2.5V5.83333M15 13.7467V15.0001L15.8333 15.8334M18.3333 15C18.3333 16.8409 16.8409 18.3333 15 18.3333C13.1591 18.3333 11.6667 16.8409 11.6667 15C11.6667 13.1591 13.1591 11.6667 15 11.6667C16.8409 11.6667 18.3333 13.1591 18.3333 15Z" stroke="currentColor" stroke-width="1.5" stroke-linecap="round" stroke-linejoin="round"/>
</svg>
