<svg width="24" height="24" viewBox="0 0 24 24" fill="none" xmlns="http://www.w3.org/2000/svg">
<path d="M14.7178 19.6627H5.17539C4.53887 19.6627 3.92842 19.4098 3.47833 18.9597C3.02825 18.5096 2.77539 17.8992 2.77539 17.2627V5.90586C2.77539 5.26934 3.02825 4.65889 3.47833 4.2088C3.92842 3.75872 4.53887 3.50586 5.17539 3.50586H16.5226C17.1591 3.50586 17.7696 3.75872 18.2196 4.2088C18.6697 4.65889 18.9226 5.26934 18.9226 5.90586V14.879C18.9226 15.0063 18.872 15.1284 18.782 15.2184C18.692 15.3084 18.5699 15.359 18.4426 15.359C18.3153 15.359 18.1932 15.3084 18.1032 15.2184C18.0132 15.1284 17.9626 15.0063 17.9626 14.879V5.90586C17.9626 5.52395 17.8109 5.15768 17.5408 4.88763C17.2708 4.61757 16.9045 4.46586 16.5226 4.46586H5.17539C4.79348 4.46586 4.42721 4.61757 4.15716 4.88763C3.8871 5.15768 3.73539 5.52395 3.73539 5.90586V17.2627C3.73539 17.6446 3.8871 18.0108 4.15716 18.2809C4.42721 18.5509 4.79348 18.7027 5.17539 18.7027H14.7178C14.8451 18.7027 14.9672 18.7532 15.0572 18.8432C15.1472 18.9333 15.1978 19.0554 15.1978 19.1827C15.1978 19.31 15.1472 19.4321 15.0572 19.5221C14.9672 19.6121 14.8451 19.6627 14.7178 19.6627Z" fill="currentColor"/>
<path d="M18.4426 7.84852H3.25539C3.12809 7.84852 3.006 7.79795 2.91598 7.70793C2.82596 7.61792 2.77539 7.49583 2.77539 7.36852C2.77539 7.24122 2.82596 7.11913 2.91598 7.02911C3.006 6.9391 3.12809 6.88852 3.25539 6.88852H18.4426C18.5699 6.88852 18.692 6.9391 18.782 7.02911C18.872 7.11913 18.9226 7.24122 18.9226 7.36852C18.9226 7.49583 18.872 7.61792 18.782 7.70793C18.692 7.79795 18.5699 7.84852 18.4426 7.84852ZM7.79811 5.51764C7.67081 5.51764 7.54872 5.46707 7.4587 5.37705C7.36868 5.28704 7.31811 5.16495 7.31811 5.03764V2.94484C7.31811 2.81754 7.36868 2.69545 7.4587 2.60543C7.54872 2.51541 7.67081 2.46484 7.79811 2.46484C7.92541 2.46484 8.0475 2.51541 8.13752 2.60543C8.22754 2.69545 8.27811 2.81754 8.27811 2.94484V5.03764C8.27811 5.16495 8.22754 5.28704 8.13752 5.37705C8.0475 5.46707 7.92541 5.51764 7.79811 5.51764ZM13.8989 5.51764C13.7716 5.51764 13.6495 5.46707 13.5595 5.37705C13.4695 5.28704 13.4189 5.16495 13.4189 5.03764V2.94484C13.4189 2.81754 13.4695 2.69545 13.5595 2.60543C13.6495 2.51541 13.7716 2.46484 13.8989 2.46484C14.0262 2.46484 14.1483 2.51541 14.2383 2.60543C14.3283 2.69545 14.3789 2.81754 14.3789 2.94484V5.03764C14.3789 5.16495 14.3283 5.28704 14.2383 5.37705C14.1483 5.46707 14.0262 5.51764 13.8989 5.51764ZM17.594 21.5343C16.876 21.5345 16.1741 21.3218 15.5771 20.923C14.9801 20.5243 14.5147 19.9575 14.2398 19.2942C13.9649 18.631 13.8929 17.9011 14.0329 17.197C14.1728 16.4928 14.5184 15.846 15.026 15.3382C15.5336 14.8305 16.1804 14.4847 16.8845 14.3446C17.5886 14.2044 18.3185 14.2763 18.9818 14.551C19.6451 14.8257 20.2121 15.2909 20.611 15.8878C21.0098 16.4848 21.2228 17.1866 21.2228 17.9045C21.2217 18.8667 20.8391 19.7892 20.1588 20.4697C19.4786 21.1502 18.5561 21.533 17.594 21.5343ZM17.594 15.2357C17.0658 15.2355 16.5495 15.392 16.1104 15.6853C15.6712 15.9785 15.3288 16.3955 15.1266 16.8834C14.9245 17.3712 14.8715 17.9081 14.9745 18.4261C15.0775 18.9441 15.3318 19.4199 15.7052 19.7933C16.0786 20.1667 16.5544 20.421 17.0724 20.524C17.5904 20.627 18.1272 20.574 18.6151 20.3718C19.103 20.1696 19.5199 19.8273 19.8132 19.3881C20.1065 18.9489 20.2629 18.4326 20.2628 17.9045C20.2617 17.197 19.9802 16.5188 19.48 16.0185C18.9797 15.5182 18.3014 15.2367 17.594 15.2357ZM7.00035 10.8927H6.53859C6.41129 10.8927 6.2892 10.8421 6.19918 10.7521C6.10916 10.6621 6.05859 10.54 6.05859 10.4127C6.05859 10.2854 6.10916 10.1633 6.19918 10.0733C6.2892 9.98325 6.41129 9.93268 6.53859 9.93268H7.00035C7.12766 9.93268 7.24975 9.98325 7.33976 10.0733C7.42978 10.1633 7.48035 10.2854 7.48035 10.4127C7.48035 10.54 7.42978 10.6621 7.33976 10.7521C7.24975 10.8421 7.12766 10.8927 7.00035 10.8927ZM15.1584 10.8927H9.18819C9.06089 10.8927 8.9388 10.8421 8.84878 10.7521C8.75876 10.6621 8.70819 10.54 8.70819 10.4127C8.70819 10.2854 8.75876 10.1633 8.84878 10.0733C8.9388 9.98325 9.06089 9.93268 9.18819 9.93268H15.1584C15.2857 9.93268 15.4078 9.98325 15.4978 10.0733C15.5879 10.1633 15.6384 10.2854 15.6384 10.4127C15.6384 10.54 15.5879 10.6621 15.4978 10.7521C15.4078 10.8421 15.2857 10.8927 15.1584 10.8927ZM7.00035 13.7564H6.53859C6.41129 13.7564 6.2892 13.7058 6.19918 13.6158C6.10916 13.5258 6.05859 13.4037 6.05859 13.2764C6.05859 13.1491 6.10916 13.027 6.19918 12.937C6.2892 12.8469 6.41129 12.7964 6.53859 12.7964H7.00035C7.12766 12.7964 7.24975 12.8469 7.33976 12.937C7.42978 13.027 7.48035 13.1491 7.48035 13.2764C7.48035 13.4037 7.42978 13.5258 7.33976 13.6158C7.24975 13.7058 7.12766 13.7564 7.00035 13.7564ZM15.1584 13.7564H9.18819C9.06089 13.7564 8.9388 13.7058 8.84878 13.6158C8.75876 13.5258 8.70819 13.4037 8.70819 13.2764C8.70819 13.1491 8.75876 13.027 8.84878 12.937C8.9388 12.8469 9.06089 12.7964 9.18819 12.7964H15.1584C15.2857 12.7964 15.4078 12.8469 15.4978 12.937C15.5879 13.027 15.6384 13.1491 15.6384 13.2764C15.6384 13.4037 15.5879 13.5258 15.4978 13.6158C15.4078 13.7058 15.2857 13.7564 15.1584 13.7564ZM7.00035 16.62H6.53859C6.41129 16.62 6.2892 16.5695 6.19918 16.4795C6.10916 16.3894 6.05859 16.2673 6.05859 16.14C6.05859 16.0127 6.10916 15.8906 6.19918 15.8006C6.2892 15.7106 6.41129 15.66 6.53859 15.66H7.00035C7.12766 15.66 7.24975 15.7106 7.33976 15.8006C7.42978 15.8906 7.48035 16.0127 7.48035 16.14C7.48035 16.2673 7.42978 16.3894 7.33976 16.4795C7.24975 16.5695 7.12766 16.62 7.00035 16.62ZM12.8535 16.6172H9.18627C9.05897 16.6172 8.93688 16.5666 8.84686 16.4766C8.75684 16.3866 8.70627 16.2645 8.70627 16.1372C8.70627 16.0099 8.75684 15.8878 8.84686 15.7978C8.93688 15.7077 9.05897 15.6572 9.18627 15.6572H12.8535C12.9808 15.6572 13.1029 15.7077 13.1929 15.7978C13.2829 15.8878 13.3335 16.0099 13.3335 16.1372C13.3335 16.2645 13.2829 16.3866 13.1929 16.4766C13.1029 16.5666 12.9808 16.6172 12.8535 16.6172Z" fill="currentColor"/>
<path d="M16.7122 18.73C16.6003 18.73 16.4919 18.6908 16.4058 18.6193C16.3197 18.5478 16.2612 18.4484 16.2406 18.3384C16.22 18.2284 16.2385 18.1146 16.2929 18.0168C16.3473 17.919 16.4341 17.8432 16.5384 17.8026L17.1144 17.578V16.4663C17.1144 16.339 17.165 16.2169 17.255 16.1269C17.345 16.0369 17.4671 15.9863 17.5944 15.9863C17.7217 15.9863 17.8438 16.0369 17.9339 16.1269C18.0239 16.2169 18.0744 16.339 18.0744 16.4663V17.9063C18.0745 18.003 18.0454 18.0974 17.9909 18.1772C17.9365 18.257 17.8592 18.3185 17.7692 18.3537L16.8869 18.6983C16.8311 18.7195 16.7719 18.7303 16.7122 18.73Z" fill="currentColor"/>
</svg>
