<svg width="20" height="20" viewBox="0 0 20 20" fill="none" xmlns="http://www.w3.org/2000/svg">
<path d="M6.99999 14.1667L9.99999 11.1667L13 14.1667L14.1667 13L11.1667 10L14.1667 7L13 5.83333L9.99999 8.83333L6.99999 5.83333L5.83332 7L8.83332 10L5.83332 13L6.99999 14.1667ZM9.99999 18.3333C8.84721 18.3333 7.76388 18.1146 6.74999 17.6771C5.7361 17.2396 4.85416 16.6458 4.10416 15.8958C3.35416 15.1458 2.76041 14.2639 2.32291 13.25C1.88541 12.2361 1.66666 11.1528 1.66666 10C1.66666 8.84722 1.88541 7.76389 2.32291 6.75C2.76041 5.73611 3.35416 4.85417 4.10416 4.10417C4.85416 3.35417 5.7361 2.76042 6.74999 2.32292C7.76388 1.88542 8.84721 1.66667 9.99999 1.66667C11.1528 1.66667 12.2361 1.88542 13.25 2.32292C14.2639 2.76042 15.1458 3.35417 15.8958 4.10417C16.6458 4.85417 17.2396 5.73611 17.6771 6.75C18.1146 7.76389 18.3333 8.84722 18.3333 10C18.3333 11.1528 18.1146 12.2361 17.6771 13.25C17.2396 14.2639 16.6458 15.1458 15.8958 15.8958C15.1458 16.6458 14.2639 17.2396 13.25 17.6771C12.2361 18.1146 11.1528 18.3333 9.99999 18.3333ZM9.99999 16.6667C11.8611 16.6667 13.4375 16.0208 14.7292 14.7292C16.0208 13.4375 16.6667 11.8611 16.6667 10C16.6667 8.13889 16.0208 6.5625 14.7292 5.27083C13.4375 3.97917 11.8611 3.33333 9.99999 3.33333C8.13888 3.33333 6.56249 3.97917 5.27082 5.27083C3.97916 6.5625 3.33332 8.13889 3.33332 10C3.33332 11.8611 3.97916 13.4375 5.27082 14.7292C6.56249 16.0208 8.13888 16.6667 9.99999 16.6667Z" fill="currentColor"/>
</svg>
