<svg width="20" height="20" viewBox="0 0 20 20" fill="none" xmlns="http://www.w3.org/2000/svg">
<g clip-path="url(#clip0_3736_11880)">
<path d="M13.3333 6.66667H8.33332C7.8913 6.66667 7.46737 6.84226 7.15481 7.15482C6.84225 7.46738 6.66666 7.89131 6.66666 8.33333C6.66666 8.77536 6.84225 9.19928 7.15481 9.51185C7.46737 9.82441 7.8913 10 8.33332 10H11.6667C12.1087 10 12.5326 10.1756 12.8452 10.4882C13.1577 10.8007 13.3333 11.2246 13.3333 11.6667C13.3333 12.1087 13.1577 12.5326 12.8452 12.8452C12.5326 13.1577 12.1087 13.3333 11.6667 13.3333H6.66666M9.99999 15V5M18.3333 10C18.3333 14.6024 14.6024 18.3333 9.99999 18.3333C5.39762 18.3333 1.66666 14.6024 1.66666 10C1.66666 5.39763 5.39762 1.66667 9.99999 1.66667C14.6024 1.66667 18.3333 5.39763 18.3333 10Z" stroke="currentColor" stroke-width="2" stroke-linecap="round" stroke-linejoin="round"/>
</g>
<defs>
<clipPath id="clip0_3736_11880">
<rect width="20" height="20" fill="white"/>
</clipPath>
</defs>
</svg>
