<svg width="280" height="272" viewBox="0 0 280 272" fill="none" xmlns="http://www.w3.org/2000/svg">
<path d="M110.959 46.4678C120.374 19.3545 158.876 19.3548 168.291 46.4678L168.509 47.1191L181.287 86.4463H222.64C252.06 86.4467 264.292 124.095 240.49 141.388L207.036 165.693L219.814 205.021C228.906 233.002 196.881 256.27 173.079 238.977L139.625 214.67L106.171 238.977C82.369 256.27 50.3443 233.002 59.4355 205.021L72.2129 165.693L38.7598 141.388C14.9579 124.095 27.1901 86.4467 56.6104 86.4463H97.9629L110.741 47.1191L110.959 46.4678Z" fill="#FFE91E" stroke="#FFFDF0" stroke-width="52.2657"/>
<path d="M122.292 50.4355C127.985 34.0414 151.265 34.0415 156.958 50.4355L157.09 50.8291L172.564 98.4531H222.64C240.429 98.4535 247.825 121.218 233.434 131.674H233.433L192.921 161.106L208.396 208.731C213.85 225.518 194.829 239.499 180.475 229.503L180.137 229.263L139.625 199.829L99.1133 229.263C84.7214 239.719 65.3573 225.65 70.8545 208.731L86.3281 161.106L45.8174 131.674C31.4256 121.218 38.8215 98.4535 56.6104 98.4531H106.686L122.16 50.8291L122.292 50.4355Z" fill="#FFE91E"/>
<path d="M122.292 50.4355C127.985 34.0414 151.265 34.0415 156.958 50.4355L157.09 50.8291L172.564 98.4531H222.64C240.429 98.4535 247.825 121.218 233.434 131.674H233.433L192.921 161.106L208.396 208.731C213.85 225.518 194.829 239.499 180.475 229.503L180.137 229.263L139.625 199.829L99.1133 229.263C84.7214 239.719 65.3573 225.65 70.8545 208.731L86.3281 161.106L45.8174 131.674C31.4256 121.218 38.8215 98.4535 56.6104 98.4531H106.686L122.16 50.8291L122.292 50.4355Z" stroke="#FFFACC" stroke-width="28.2517"/>
<path d="M122.292 50.4355C127.985 34.0414 151.265 34.0415 156.958 50.4355L157.09 50.8291L172.564 98.4531H222.64C240.429 98.4535 247.825 121.218 233.434 131.674H233.433L192.921 161.106L208.396 208.731C213.85 225.518 194.829 239.499 180.475 229.503L180.137 229.263L139.625 199.829L99.1133 229.263C84.7214 239.719 65.3573 225.65 70.8545 208.731L86.3281 161.106L45.8174 131.674C31.4256 121.218 38.8215 98.4535 56.6104 98.4531H106.686L122.16 50.8291L122.292 50.4355Z" stroke="#FFFACC" stroke-width="28.2517"/>
<path d="M122.292 50.4355C127.985 34.0414 151.265 34.0415 156.958 50.4355L157.09 50.8291L172.564 98.4531H222.64C240.429 98.4535 247.825 121.218 233.434 131.674H233.433L192.921 161.106L208.396 208.731C213.85 225.518 194.829 239.499 180.475 229.503L180.137 229.263L139.625 199.829L99.1133 229.263C84.7214 239.719 65.3573 225.65 70.8545 208.731L86.3281 161.106L45.8174 131.674C31.4256 121.218 38.8215 98.4535 56.6104 98.4531H106.686L122.16 50.8291L122.292 50.4355Z" stroke="#FFFACC" stroke-width="28.2517"/>
<path d="M129.549 53.2295C132.671 43.6215 146.101 43.4715 149.545 52.7793L149.701 53.2295L166.919 106.223H222.64C232.902 106.223 237.169 119.355 228.866 125.388L183.787 158.139L201.007 211.132C204.178 220.893 193.006 229.01 184.703 222.978L139.625 190.226L94.5469 222.978C86.2439 229.01 75.0717 220.893 78.2432 211.132L95.4619 158.139L50.3838 125.388C42.0809 119.355 46.3477 106.223 56.6104 106.223H112.331L129.549 53.2295Z" fill="#FFE91E" stroke="#FFF27A" stroke-width="12.7133"/>
<circle cx="113.496" cy="130.371" r="4.23776" fill="#364966"/>
<circle cx="162.933" cy="130.371" r="4.23776" fill="#364966"/>
<path d="M122.68 155.091C127.624 159.564 141.326 165.826 156.582 155.091" stroke="white" stroke-width="4.23776" stroke-linecap="round"/>
</svg>
