<svg width="434" height="355" viewBox="0 0 434 355" fill="none" xmlns="http://www.w3.org/2000/svg">
<g clip-path="url(#clip0_3979_15318)">
<path d="M107.123 323.927L108.006 342.488L108.006 342.489C108.155 345.626 107.048 348.693 104.93 351.017C102.812 353.34 99.8552 354.729 96.7104 354.878L96.3251 354.896L94.8799 324.506L107.123 323.927Z" fill="#2F2E41"/>
<path d="M371.665 292.56C362.803 309.812 351.563 326.496 337.341 341.597C337.025 341.938 336.706 342.27 336.384 342.609L302.688 326.696C302.894 326.354 303.12 325.97 303.363 325.551C317.837 300.846 405.214 150.144 402.453 116.012C402.774 118.827 413.131 211.923 371.665 292.56Z" fill="#E6E6E6"/>
<path d="M343.841 344.667C343.37 344.935 342.886 345.197 342.399 345.45L317.121 333.512C317.475 333.262 317.886 332.966 318.359 332.634C326.104 327.087 349.132 310.445 371.665 292.56C395.88 273.341 419.528 252.689 423.04 242.832C422.327 245.092 400.163 313.803 343.841 344.667Z" fill="#E6E6E6"/>
<path d="M42.0493 354.155C63.5946 354.155 81.0606 336.732 81.0606 315.24C81.0606 293.747 63.5946 276.324 42.0493 276.324C20.504 276.324 3.03809 293.747 3.03809 315.24C3.03809 336.732 20.504 354.155 42.0493 354.155Z" fill="#DA8661"/>
<path d="M57.6759 298.909H26.4227C25.0417 298.911 23.7177 299.459 22.7412 300.433C21.7647 301.407 21.2154 302.728 21.2139 304.105V326.374C21.2154 327.752 21.7647 329.072 22.7412 330.047C23.7177 331.021 25.0417 331.569 26.4227 331.57H57.676C59.057 331.569 60.381 331.021 61.3575 330.047C62.334 329.072 62.8833 327.752 62.8849 326.374V304.105C62.8833 302.728 62.334 301.407 61.3575 300.433C60.381 299.459 59.057 298.911 57.6759 298.909ZM57.6759 301.878C57.8625 301.879 58.0483 301.903 58.2288 301.95L42.053 314.822L25.9717 301.924C26.1201 301.894 26.2712 301.878 26.4227 301.878H57.6759ZM57.6759 328.601H26.4227C25.8309 328.6 25.2635 328.366 24.845 327.948C24.4265 327.531 24.191 326.965 24.1904 326.374V304.305L41.1169 317.881C41.3804 318.093 41.7083 318.208 42.0465 318.209C42.3847 318.209 42.7131 318.095 42.9774 317.885L59.9084 304.412V326.374C59.9077 326.965 59.6723 327.531 59.2538 327.948C58.8353 328.366 58.2678 328.6 57.6759 328.601Z" fill="white"/>
<path d="M192.603 259.056L201.331 259.128C202.215 259.135 203.089 258.95 203.893 258.585C204.697 258.221 205.412 257.686 205.988 257.018C206.563 256.349 206.986 255.564 207.226 254.716C207.466 253.868 207.518 252.978 207.377 252.108C207.227 251.172 206.857 250.284 206.3 249.516C205.742 248.748 205.012 248.121 204.167 247.686C203.322 247.251 202.387 247.02 201.436 247.012C200.486 247.003 199.546 247.217 198.694 247.637L190.462 251.689L162.308 257.952L150.246 245.65L143.317 257.034L159.594 269.578L192.603 259.056Z" fill="#FFB8B8"/>
<path d="M190.966 349.018L180.682 350.991C173.658 328.903 166.047 307.984 166.047 291.806C156.106 302.843 143.778 309.157 129.262 311.14L130.844 286.676L142.71 280.363L160.871 272.002C162.461 271.269 164.177 270.846 165.926 270.754C169.326 270.576 172.672 271.658 175.32 273.793C177.968 275.928 179.73 278.965 180.268 282.319L190.966 349.018Z" fill="#2F2E41"/>
<path d="M141.722 308.18L137.623 311.287C135.86 312.623 133.778 313.477 131.583 313.762C129.388 314.048 127.156 313.755 125.109 312.915C113.369 304.136 105.028 306.726 97.4689 319.976C88.4017 309.768 86.1647 295.024 94.2568 279.771L139.151 280.757L148.248 277.995L141.722 308.18Z" fill="#2F2E41"/>
<path d="M126.77 353.896C124.198 354.685 121.429 354.547 118.949 353.504C116.468 352.462 114.435 350.582 113.204 348.194C109.17 344.649 105.766 339.574 102.813 333.402C100.695 328.875 98.8755 324.214 97.3675 319.449C95.3244 313.155 98.7406 306.278 105.099 304.395C105.288 304.339 105.479 304.286 105.673 304.236C114.161 302.062 122.878 306.946 125.779 315.195L134.216 339.181C134.714 340.597 134.928 342.098 134.845 343.598C134.762 345.097 134.383 346.566 133.731 347.919C133.079 349.272 132.166 350.485 131.045 351.486C129.923 352.488 128.615 353.259 127.194 353.756C127.054 353.805 126.913 353.852 126.77 353.896Z" fill="#2F2E41"/>
<path opacity="0.2" d="M101.376 330.671C101.376 330.671 111.265 341.719 113.242 348.032L101.376 330.671Z" fill="black"/>
<path d="M63.0246 278.531L59.7151 286.588C59.3802 287.404 59.2277 288.282 59.2681 289.162C59.3085 290.042 59.5408 290.903 59.949 291.685C60.3571 292.466 60.9312 293.149 61.6312 293.687C62.3312 294.224 63.1403 294.602 64.002 294.796C64.9295 295.004 65.8929 294.992 66.8148 294.761C67.7368 294.53 68.5914 294.086 69.3101 293.465C70.0287 292.844 70.5912 292.064 70.9524 291.187C71.3135 290.31 71.4632 289.36 71.3893 288.415L70.6762 279.286L75.3067 250.883L91.2372 244.283L83.2167 233.637L65.4947 244.051L63.0246 278.531Z" fill="#FFB8B8"/>
<path d="M142.117 279.771C130.752 298.814 108.096 306.188 88.6908 291.276C92.1043 280.088 103.125 249.166 96.0054 247.982C80.8886 254.306 80.8666 239.459 78.0391 232.028L112.451 219.401L131.042 224.531L134.852 225.88C137.333 226.758 139.484 228.372 141.016 230.506C142.549 232.64 143.39 235.191 143.426 237.815C135.617 249.07 129.836 261.075 142.117 279.771Z" fill="#DA8661"/>
<path d="M146.468 264.383L132.822 253.137L137.371 226.898L155.961 246.627L146.468 264.383Z" fill="#DA8661"/>
<path d="M372.901 84.1279H370.95V30.8405C370.95 22.6611 367.693 14.8167 361.895 9.03297C356.097 3.24926 348.233 0 340.034 0H226.859C218.659 0 210.796 3.24926 204.998 9.03297C199.2 14.8167 195.942 22.6611 195.942 30.8405V323.18C195.942 331.36 199.2 339.204 204.998 344.988C210.796 350.771 218.659 354.021 226.859 354.021H340.033C348.233 354.021 356.097 350.771 361.894 344.988C367.692 339.204 370.95 331.36 370.95 323.18V122.059H372.9L372.901 84.1279Z" fill="#3F3D56"/>
<path d="M341.282 8.02248H326.509C327.188 9.68411 327.448 11.487 327.264 13.2723C327.081 15.0576 326.46 16.7705 325.457 18.2601C324.453 19.7497 323.098 20.9701 321.51 21.814C319.923 22.6579 318.151 23.0993 316.352 23.0993H251.516C249.717 23.0991 247.946 22.6577 246.358 21.8139C244.771 20.97 243.416 19.7496 242.412 18.2603C241.409 16.7709 240.788 15.0583 240.605 13.2732C240.421 11.4882 240.68 9.68546 241.36 8.02394H227.56C221.436 8.02394 215.563 10.4505 211.233 14.7699C206.903 19.0892 204.471 24.9476 204.471 31.056V322.965C204.471 329.074 206.903 334.932 211.233 339.251C215.563 343.571 221.436 345.997 227.56 345.997H341.277C347.401 345.997 353.274 343.571 357.604 339.251C361.934 334.932 364.366 329.074 364.366 322.965V31.0546C364.366 24.9461 361.934 19.0878 357.604 14.7684C353.274 10.4491 347.401 8.02246 341.277 8.02246L341.282 8.02248Z" fill="white"/>
<path d="M284.615 329.685C291.617 329.685 297.294 324.022 297.294 317.037C297.294 310.052 291.617 304.39 284.615 304.39C277.613 304.39 271.937 310.052 271.937 317.037C271.937 324.022 277.613 329.685 284.615 329.685Z" fill="#E6E6E6"/>
<path d="M233.181 200.073C231.982 200.073 231.007 201.184 231.007 202.548C231.007 203.913 231.982 205.023 233.181 205.023H335.655C336.853 205.023 337.828 203.913 337.828 202.548C337.828 201.184 336.853 200.073 335.655 200.073H233.181Z" fill="#E6E6E6"/>
<path d="M233.181 258.446C231.982 258.446 231.007 259.557 231.007 260.921C231.007 262.286 231.982 263.396 233.181 263.396H335.655C336.853 263.396 337.828 262.286 337.828 260.921C337.828 259.557 336.853 258.446 335.655 258.446H233.181Z" fill="#E6E6E6"/>
<path d="M233.181 214.923C231.982 214.923 231.007 216.033 231.007 217.398C231.007 218.762 231.982 219.873 233.181 219.873H277.275C278.474 219.873 279.449 218.762 279.449 217.398C279.449 216.033 278.474 214.923 277.275 214.923H233.181Z" fill="#E6E6E6"/>
<path d="M233.181 229.078C231.982 229.078 231.007 230.189 231.007 231.553C231.007 232.918 231.982 234.028 233.181 234.028H335.655C336.853 234.028 337.828 232.918 337.828 231.553C337.828 230.189 336.853 229.078 335.655 229.078H233.181Z" fill="#E6E6E6"/>
<path d="M233.181 243.928C231.982 243.928 231.007 245.038 231.007 246.403C231.007 247.767 231.982 248.878 233.181 248.878H277.275C278.474 248.878 279.449 247.767 279.449 246.403C279.449 245.038 278.474 243.928 277.275 243.928H233.181Z" fill="#E6E6E6"/>
<path d="M252.526 87.3779H316.316C317.021 87.3788 317.696 87.6584 318.195 88.1554C318.693 88.6525 318.973 89.3264 318.974 90.0293V156.301C318.973 157.004 318.693 157.678 318.195 158.175C317.696 158.672 317.021 158.951 316.316 158.952H252.526C251.821 158.951 251.146 158.672 250.648 158.175C250.149 157.678 249.869 157.004 249.868 156.301V90.0293C249.869 89.3264 250.149 88.6525 250.648 88.1554C251.146 87.6584 251.821 87.3788 252.526 87.3779Z" fill="#DA8661"/>
<path d="M302.724 145.287C302.961 145.287 303.196 145.241 303.415 145.151C303.635 145.061 303.834 144.928 304.002 144.761C304.17 144.594 304.303 144.395 304.394 144.177C304.485 143.958 304.532 143.724 304.532 143.487C304.532 143.251 304.486 143.017 304.395 142.798C304.304 142.579 304.171 142.381 304.003 142.213C303.835 142.046 303.636 141.913 303.417 141.823C303.198 141.733 302.963 141.686 302.726 141.687H266.119C265.882 141.686 265.647 141.732 265.427 141.822C265.208 141.913 265.009 142.045 264.841 142.212C264.673 142.379 264.539 142.578 264.449 142.796C264.358 143.015 264.311 143.249 264.311 143.486C264.31 143.722 264.357 143.957 264.448 144.175C264.539 144.394 264.672 144.593 264.839 144.76C265.007 144.927 265.206 145.06 265.426 145.15C265.645 145.24 265.88 145.287 266.117 145.287H302.724Z" fill="white"/>
<path d="M302.724 134.681C303.203 134.681 303.662 134.492 304 134.154C304.338 133.816 304.529 133.359 304.529 132.881C304.529 132.404 304.338 131.946 304 131.608C303.662 131.271 303.203 131.081 302.724 131.081H266.119C265.64 131.081 265.181 131.27 264.843 131.608C264.504 131.945 264.314 132.403 264.313 132.88C264.313 133.358 264.503 133.816 264.841 134.153C265.18 134.491 265.638 134.681 266.117 134.681H302.724Z" fill="white"/>
<path d="M284.421 101.045C286.667 101.045 288.863 101.709 290.731 102.954C292.599 104.199 294.055 105.969 294.915 108.039C295.774 110.11 295.999 112.388 295.561 114.586C295.123 116.784 294.041 118.803 292.453 120.387C290.864 121.972 288.84 123.051 286.637 123.488C284.434 123.925 282.15 123.701 280.074 122.843C277.999 121.986 276.225 120.534 274.977 118.67C273.729 116.807 273.063 114.616 273.062 112.375C273.066 109.371 274.264 106.491 276.393 104.367C278.522 102.243 281.409 101.048 284.421 101.045Z" fill="white"/>
<path d="M139.497 215.966H105.776C105.083 215.965 104.418 215.69 103.927 215.201C103.437 214.711 103.161 214.048 103.16 213.356V198.857C103.16 193.704 105.212 188.763 108.865 185.119C112.517 181.476 117.471 179.429 122.637 179.429C127.802 179.429 132.756 181.476 136.408 185.119C140.061 188.763 142.113 193.704 142.113 198.857V213.356C142.112 214.048 141.836 214.711 141.346 215.201C140.855 215.69 140.19 215.965 139.497 215.966Z" fill="#2F2E41"/>
<path d="M138.889 207.681C142.671 200.778 140.128 192.123 133.208 188.35C126.289 184.576 117.612 187.113 113.83 194.016C110.047 200.919 112.59 209.574 119.51 213.347C126.43 217.121 135.106 214.584 138.889 207.681Z" fill="#FFB6B6"/>
<path d="M146.72 200.307H126.101L125.89 197.354L124.832 200.307H121.658L121.239 194.454L119.143 200.307H113V200.017C113.005 195.943 114.629 192.036 117.518 189.155C120.406 186.274 124.322 184.653 128.407 184.648H131.314C135.398 184.653 139.314 186.274 142.203 189.155C145.091 192.036 146.716 195.943 146.72 200.017V200.307Z" fill="#2F2E41"/>
<path d="M125.932 218.673C125.777 218.673 125.622 218.659 125.469 218.632L110.371 215.975V191.083H126.991L126.58 191.562C120.855 198.222 125.168 209.022 128.249 214.867C128.476 215.295 128.577 215.778 128.541 216.261C128.504 216.744 128.332 217.207 128.044 217.597C127.802 217.93 127.485 218.201 127.118 218.388C126.751 218.575 126.345 218.673 125.932 218.673Z" fill="#2F2E41"/>
<path d="M176.2 341.568L194.828 341.567H194.829C197.977 341.568 200.996 342.815 203.223 345.036C205.449 347.257 206.7 350.269 206.7 353.409V353.794L176.201 353.795L176.2 341.568Z" fill="#2F2E41"/>
<path d="M433.512 355H0.48764C0.35831 355 0.234277 354.949 0.142826 354.858C0.0513759 354.767 0 354.643 0 354.514C0 354.385 0.0513759 354.261 0.142826 354.17C0.234277 354.079 0.35831 354.027 0.48764 354.027H433.512C433.642 354.027 433.766 354.079 433.857 354.17C433.949 354.261 434 354.385 434 354.514C434 354.643 433.949 354.767 433.857 354.858C433.766 354.949 433.642 355 433.512 355Z" fill="#CACACA"/>
</g>
<defs>
<clipPath id="clip0_3979_15318">
<rect width="434" height="355" fill="white"/>
</clipPath>
</defs>
</svg>
