<svg width="119" height="317" viewBox="0 0 119 317" fill="none" xmlns="http://www.w3.org/2000/svg">
<g clip-path="url(#clip0_34178_577651)">
<path d="M72.5361 11.1949C71.1481 10.412 69.5593 10.3841 67.8222 11.1105C64.8797 12.3409 61.9146 15.9222 59.889 20.6921C59.1349 22.4348 58.5757 24.2554 58.2214 26.1209L55.3627 19.2844C55.2428 18.9977 55.0139 18.7703 54.7263 18.6523C54.4388 18.5344 54.1162 18.5354 53.8294 18.6553C53.5427 18.7753 53.3153 19.0041 53.1973 19.2917C53.0794 19.5792 53.0805 19.9019 53.2004 20.1886L56.0591 27.0251C54.486 25.9662 52.8009 25.0841 51.0343 24.3948C46.2198 22.4852 41.5862 22.0814 38.6436 23.3119C36.8976 24.042 35.8015 25.1926 35.384 26.7305C34.9233 28.4284 35.3277 30.4991 36.6207 33.0598C37.7439 35.2851 39.3622 37.5299 40.6456 39.2372C43.6414 43.222 46.8747 43.6186 49.0606 43.2719C48.883 44.3351 48.9166 45.423 49.1595 46.4733C49.4023 47.5235 49.8497 48.5157 50.476 49.3931C51.1023 50.2705 51.8952 51.016 52.8096 51.5869C53.724 52.1579 54.7419 52.5431 55.8051 52.7207C56.8684 52.8983 57.9563 52.8646 59.0065 52.6218C60.0568 52.379 61.049 51.9316 61.9264 51.3053C62.8038 50.679 63.5493 49.8861 64.1202 48.9717C64.6912 48.0573 65.0764 47.0394 65.254 45.9761C67.0345 47.2293 69.24 47.7237 71.3851 47.3508C73.5303 46.9778 75.4394 45.768 76.6926 43.9874C77.9457 42.2068 78.4401 40.0014 78.0672 37.8562C77.6942 35.7111 76.4844 33.802 74.7038 32.5488C76.4878 31.2461 78.4744 28.6561 77.7418 23.7249C76.9761 18.5473 75.7557 13.0114 72.5361 11.1949ZM59.3985 50.1988C58.0166 50.7535 56.4757 50.7636 55.0867 50.227C53.6976 49.6904 52.5638 48.6469 51.9139 47.3072C51.2639 45.9674 51.1462 44.431 51.5845 43.0079C52.0228 41.5848 52.9845 40.3808 54.2756 39.6389C54.4111 39.564 54.5306 39.4632 54.6271 39.3421C54.7236 39.2211 54.7954 39.0823 54.8382 38.9335C54.8811 38.7848 54.8943 38.629 54.8769 38.4752C54.8596 38.3214 54.8122 38.1724 54.7373 38.0369C54.6624 37.9014 54.5616 37.782 54.4406 37.6855C54.3196 37.589 54.1807 37.5172 54.032 37.4743C53.8832 37.4315 53.7275 37.4183 53.5736 37.4356C53.4198 37.4529 53.2709 37.5004 53.1354 37.5753C51.8729 38.277 50.8197 39.3019 50.0839 40.5449C48.4855 41.2789 45.4995 41.7929 42.5197 37.8311C40.9689 35.7678 36.8486 30.2886 37.6465 27.3468C37.8674 26.5283 38.4901 25.9165 39.5478 25.4742C41.8687 24.5037 46.0381 24.9365 50.1697 26.5748C54.386 28.2434 57.6151 30.7461 58.6007 33.103L62.5437 42.5325C63.1433 43.9662 63.1487 45.5793 62.5588 47.017C61.969 48.4547 60.8322 49.5992 59.3985 50.1988ZM75.4239 24.0697C76.1531 28.9726 73.6983 30.7316 72.0548 31.3575C70.6533 31.0074 69.1838 31.0373 67.7977 31.444C67.6489 31.4873 67.5102 31.5595 67.3894 31.6564C67.2686 31.7533 67.168 31.873 67.0935 32.0088C67.0189 32.1445 66.9718 32.2936 66.9549 32.4476C66.938 32.6015 66.9515 32.7573 66.9948 32.906C67.0381 33.0547 67.1103 33.1934 67.2071 33.3143C67.304 33.4351 67.4238 33.5356 67.5595 33.6102C67.6953 33.6847 67.8444 33.7318 67.9984 33.7488C68.1523 33.7657 68.3081 33.7521 68.4568 33.7088C69.5456 33.3864 70.7044 33.3861 71.7933 33.7079C72.8823 34.0297 73.8548 34.6599 74.5934 35.5223C75.332 36.3848 75.8051 37.4426 75.9556 38.5681C76.1062 39.6936 75.9276 40.8386 75.4416 41.8648C74.9556 42.891 74.1828 43.7546 73.2167 44.3513C72.2506 44.9479 71.1324 45.2521 69.9971 45.2271C68.8619 45.202 67.7582 44.8489 66.8193 44.2103C65.8804 43.5717 65.1464 42.6749 64.7061 41.6283L60.763 32.1988C59.7774 29.8419 60.2656 25.7848 62.0372 21.6123C63.7763 17.519 66.3965 14.247 68.7264 13.2728C69.7841 12.8305 70.6534 12.8184 71.394 13.2327C74.0396 14.7346 75.0461 21.5158 75.4257 24.0689L75.4239 24.0697Z" fill="#454F5B"/>
</g>
<path d="M63.6913 189C41.9151 185.147 10.5175 171.637 21.1287 139.61C36.2162 94.0734 100.181 102.638 69.5 55" stroke="#454F5B" stroke-width="2" stroke-dasharray="8 8"/>
<path d="M74.375 276.094H44.625C42.6525 276.094 40.7607 275.31 39.3659 273.915C37.9711 272.521 37.1875 270.629 37.1875 268.656V261.219C37.1875 259.246 37.9711 257.354 39.3659 255.96C40.7607 254.565 42.6525 253.781 44.625 253.781H74.375C76.3475 253.781 78.2393 254.565 79.6341 255.96C81.0289 257.354 81.8125 259.246 81.8125 261.219V268.656C81.8125 270.629 81.0289 272.521 79.6341 273.915C78.2393 275.31 76.3475 276.094 74.375 276.094ZM44.625 261.219V268.656H74.375V261.219H44.625Z" fill="currentColor"/>
<path d="M104.125 212.875H14.875C12.9025 212.875 11.0107 213.659 9.61589 215.053C8.22109 216.448 7.4375 218.34 7.4375 220.312V235.188C7.4375 237.16 8.22109 239.052 9.61589 240.447C11.0107 241.841 12.9025 242.625 14.875 242.625V302.125C14.875 304.098 15.6586 305.989 17.0534 307.384C18.4482 308.779 20.34 309.562 22.3125 309.562H96.6875C98.66 309.562 100.552 308.779 101.947 307.384C103.341 305.989 104.125 304.098 104.125 302.125V242.625C106.098 242.625 107.989 241.841 109.384 240.447C110.779 239.052 111.562 237.16 111.562 235.188V220.312C111.562 218.34 110.779 216.448 109.384 215.053C107.989 213.659 106.098 212.875 104.125 212.875ZM96.6875 302.125H22.3125V242.625H96.6875V302.125ZM104.125 235.188H14.875V220.312H104.125V235.188Z" fill="#454F5B"/>
<defs>
<clipPath id="clip0_34178_577651">
<rect width="50" height="50" fill="white" transform="translate(27 19.29) rotate(-22.6929)"/>
</clipPath>
</defs>
</svg>
