<svg width="14" height="12" viewBox="0 0 14 12" fill="none" xmlns="http://www.w3.org/2000/svg">
<path d="M9.83751 1.80943C10.0906 1.80943 10.2998 1.99753 10.3329 2.24158L10.3375 2.30943V11.3879C10.3375 11.6641 10.1137 11.8879 9.83751 11.8879C9.58438 11.8879 9.37518 11.6998 9.34207 11.4558L9.33751 11.3879V2.30943C9.33751 2.03329 9.56137 1.80943 9.83751 1.80943Z" fill="currentColor"/>
<path d="M12.2016 8.30447C12.3964 8.10876 12.713 8.10803 12.9087 8.30284C13.0866 8.47994 13.1034 8.75768 12.9586 8.95375L12.9103 9.00994L10.1918 11.7411C10.0141 11.9196 9.73529 11.9358 9.53922 11.7897L9.48306 11.7411L6.76454 9.00994C6.56973 8.81423 6.57046 8.49765 6.76618 8.30284C6.9441 8.12574 7.22191 8.11024 7.41731 8.25593L7.47328 8.30447L9.83713 10.6791L12.2016 8.30447Z" fill="currentColor"/>
<path d="M3.21854 0.000391006C3.47167 0.000391006 3.68087 0.188494 3.71398 0.432544L3.71854 0.500391V9.57891C3.71854 9.85505 3.49469 10.0789 3.21854 10.0789C2.96541 10.0789 2.75622 9.89081 2.72311 9.64676L2.71854 9.57891V0.500391C2.71854 0.224249 2.9424 0.000391006 3.21854 0.000391006Z" fill="currentColor"/>
<path d="M2.86425 0.147285C3.04193 -0.0312169 3.32076 -0.0474444 3.51683 0.098603L3.57299 0.147285L6.29151 2.8784C6.48632 3.07411 6.48558 3.39069 6.28987 3.5855C6.11195 3.7626 5.83414 3.7781 5.63873 3.63241L5.58277 3.58387L3.21847 1.20847L0.854469 3.58387C0.677368 3.76179 0.39963 3.77857 0.203554 3.63378L0.147364 3.5855C-0.030557 3.4084 -0.0473362 3.13066 0.0974474 2.93459L0.14573 2.8784L2.86425 0.147285Z" fill="currentColor"/>
</svg>
