<svg width="17" height="20" viewBox="0 0 17 20" fill="none" xmlns="http://www.w3.org/2000/svg">
<path d="M1 10.66H3.08333C3.14022 10.6581 3.19688 10.6682 3.2496 10.6896C3.30231 10.7111 3.3499 10.7435 3.38923 10.7846C3.42857 10.8258 3.45877 10.8748 3.47786 10.9284C3.49695 10.982 3.50449 11.0391 3.5 11.0958V18.9375C3.50464 18.9942 3.49719 19.0513 3.47814 19.105C3.4591 19.1586 3.42889 19.2076 3.38951 19.2487C3.35013 19.2898 3.30248 19.3221 3.2497 19.3435C3.19692 19.3648 3.14022 19.3747 3.08333 19.3725H1" stroke="currentColor" stroke-width="1.5" stroke-linecap="round" stroke-linejoin="round"/>
<path d="M6.95917 8.82167L5.3575 10.8158C5.25231 10.9469 5.12003 11.0537 4.96973 11.129C4.81943 11.2042 4.65465 11.246 4.48667 11.2517H3.5M3.5 17.11C5.28667 18.4642 6.91667 19.3733 7.96917 19.3733H13.1967C13.83 19.3733 14.2283 19.3283 14.5033 18.5025C14.9233 16.3942 15.2142 14.2625 15.375 12.1192C15.375 11.6842 14.9392 11.2483 14.0683 11.2483H9.125M7.1525 10.1725L5.8625 1.14583C5.85331 1.08135 5.85808 1.01564 5.87648 0.953161C5.89487 0.890677 5.92647 0.832872 5.96913 0.783652C6.01179 0.734433 6.06453 0.694947 6.12377 0.667864C6.183 0.640781 6.24736 0.626732 6.3125 0.626667H12.6075" stroke="currentColor" stroke-width="1.5" stroke-linecap="round" stroke-linejoin="round"/>
<path d="M9.89 11.2517L9.12667 3.61917C9.12045 3.56086 9.12661 3.50189 9.14475 3.44612C9.16289 3.39036 9.19259 3.33905 9.23192 3.29555C9.27125 3.25205 9.31932 3.21734 9.37298 3.1937C9.42665 3.17005 9.4847 3.158 9.54334 3.15833H15.2933C15.3539 3.15761 15.4139 3.1701 15.4691 3.19493C15.5244 3.21976 15.5735 3.25633 15.6132 3.3021C15.6529 3.34788 15.6821 3.40174 15.6988 3.45996C15.7155 3.51817 15.7193 3.57932 15.71 3.63917L14.56 11.3058" stroke="currentColor" stroke-width="1.5" stroke-linecap="round" stroke-linejoin="round"/>
<path d="M12.2708 7.81C12.188 7.81 12.1085 7.77708 12.0499 7.71847C11.9913 7.65987 11.9583 7.58038 11.9583 7.4975C11.9583 7.41462 11.9913 7.33514 12.0499 7.27653C12.1085 7.21793 12.188 7.185 12.2708 7.185M12.2708 7.81C12.3537 7.81 12.4332 7.77708 12.4918 7.71847C12.5504 7.65987 12.5833 7.58038 12.5833 7.4975C12.5833 7.41462 12.5504 7.33514 12.4918 7.27653C12.4332 7.21793 12.3537 7.185 12.2708 7.185" stroke="currentColor" stroke-width="1.5"/>
</svg>
