<svg width="16" height="16" viewBox="0 0 16 16" fill="none" xmlns="http://www.w3.org/2000/svg">
<path d="M10.0002 15.1667H6.00016C2.38016 15.1667 0.833496 13.62 0.833496 10V6C0.833496 2.38 2.38016 0.833333 6.00016 0.833333H7.3335C7.60683 0.833333 7.8335 1.06 7.8335 1.33333C7.8335 1.60667 7.60683 1.83333 7.3335 1.83333H6.00016C2.92683 1.83333 1.8335 2.92667 1.8335 6V10C1.8335 13.0733 2.92683 14.1667 6.00016 14.1667H10.0002C13.0735 14.1667 14.1668 13.0733 14.1668 10V8.66667C14.1668 8.39333 14.3935 8.16667 14.6668 8.16667C14.9402 8.16667 15.1668 8.39333 15.1668 8.66667V10C15.1668 13.62 13.6202 15.1667 10.0002 15.1667Z" fill="currentColor"/>
<path d="M5.66688 11.7933C5.26022 11.7933 4.88688 11.6467 4.61355 11.38C4.28688 11.0533 4.14688 10.58 4.22022 10.08L4.50688 8.07333C4.56022 7.68667 4.81355 7.18667 5.08688 6.91333L10.3402 1.66C11.6669 0.333333 13.0135 0.333333 14.3402 1.66C15.0669 2.38667 15.3935 3.12667 15.3269 3.86667C15.2669 4.46667 14.9469 5.05333 14.3402 5.65333L9.08688 10.9067C8.81355 11.18 8.31355 11.4333 7.92688 11.4867L5.92022 11.7733C5.83355 11.7933 5.74688 11.7933 5.66688 11.7933ZM11.0469 2.36667L5.79355 7.62C5.66688 7.74667 5.52022 8.04 5.49355 8.21333L5.20688 10.22C5.18022 10.4133 5.22022 10.5733 5.32022 10.6733C5.42022 10.7733 5.58022 10.8133 5.77355 10.7867L7.78022 10.5C7.95355 10.4733 8.25355 10.3267 8.37355 10.2L13.6269 4.94667C14.0602 4.51333 14.2869 4.12667 14.3202 3.76667C14.3602 3.33333 14.1335 2.87333 13.6269 2.36C12.5602 1.29333 11.8269 1.59333 11.0469 2.36667Z" fill="currentColor"/>
<path d="M13.2335 6.55333C13.1869 6.55333 13.1402 6.54667 13.1002 6.53333C11.3469 6.04 9.95353 4.64667 9.4602 2.89333C9.38687 2.62667 9.5402 2.35333 9.80687 2.27333C10.0735 2.2 10.3469 2.35333 10.4202 2.62C10.8202 4.04 11.9469 5.16667 13.3669 5.56667C13.6335 5.64 13.7869 5.92 13.7135 6.18667C13.6535 6.41333 13.4535 6.55333 13.2335 6.55333Z" fill="currentColor"/>
</svg>
