<svg width="40" height="40" viewBox="0 0 40 40" fill="none" xmlns="http://www.w3.org/2000/svg">
<path fill-rule="evenodd" clip-rule="evenodd" d="M24.4065 5.44705L26.7668 2.60588C26.9645 2.3683 26.8303 1.99439 26.562 1.8415L24.2088 0.481972C23.9429 0.329082 23.5499 0.399629 23.4441 0.688926L22.1616 4.15103C22.0533 4.44033 22.1004 4.76252 22.3663 4.91541L23.6418 5.65393C23.91 5.80689 24.2112 5.68455 24.4065 5.44705Z" fill="#80D261"/>
<path fill-rule="evenodd" clip-rule="evenodd" d="M37.5901 6.19031L36.9853 4.49219C36.9123 4.28523 36.8841 4.10883 36.9688 3.92305L37.7571 2.20844C37.9243 1.87445 37.8866 1.79687 37.51 1.8039L35.5828 1.84156C35.3639 1.8439 35.3357 1.79219 35.1921 1.65344L33.8696 0.371483C33.6014 0.112733 33.4884 0.143358 33.3849 0.500858L32.8813 2.27187C32.8248 2.46476 32.8271 2.52351 32.6365 2.62937L30.9469 3.56078C30.6198 3.74187 30.6245 3.8289 30.9375 4.03586L32.4789 5.12484C32.6435 5.24242 32.7071 5.4118 32.7471 5.6282L33.0743 7.39922C33.1307 7.77086 33.2178 7.79437 33.5167 7.56859L34.931 6.47961C35.0769 6.36672 35.3381 6.29617 35.5216 6.32203L37.2889 6.55726C37.663 6.60422 37.7243 6.5407 37.5901 6.19031Z" fill="#FECE85"/>
<path fill-rule="evenodd" clip-rule="evenodd" d="M16.366 17.0426C20.0912 12.2352 19.1263 7.49365 18.4322 4.66654C17.6556 1.50553 13.2598 2.25576 14.1587 5.60029C15.027 8.83193 15.34 11.2897 14.4599 15.8361L16.366 17.0426Z" fill="#FE76A8"/>
<path fill-rule="evenodd" clip-rule="evenodd" d="M20.9148 21.1204L30.8572 12.8649C31.1796 12.5427 31.1796 12.0159 30.8572 11.6937L28.2686 9.10883C27.9462 8.78664 27.4191 8.78664 27.0968 9.10883L18.8369 19.0436L20.9148 21.1204Z" fill="#FECE85"/>
<path fill-rule="evenodd" clip-rule="evenodd" d="M34.152 26.4878C37.4489 27.5533 38.4207 23.2045 35.3004 22.2684C32.5329 21.4381 27.8971 20.2481 22.9482 23.6231L24.1978 25.6317C28.6196 25.0367 31.0269 25.4765 34.152 26.4878Z" fill="#FE76A8"/>
<path fill-rule="evenodd" clip-rule="evenodd" d="M16.3662 17.0425C20.0914 12.235 19.1265 7.49347 18.4324 4.66637C17.9946 2.87887 16.3945 2.34027 15.2532 2.81769C15.8226 3.12582 16.305 3.6973 16.5168 4.56051C17.1734 7.23707 18.0746 11.6329 14.999 16.1769L16.3662 17.0425Z" fill="#FE5694"/>
<path fill-rule="evenodd" clip-rule="evenodd" d="M20.9143 21.1202L30.8568 12.8647C31.1792 12.5425 31.1792 12.0156 30.8568 11.6934L30.3955 11.2324L19.8154 20.0195L20.9143 21.1202Z" fill="#FDB440"/>
<path fill-rule="evenodd" clip-rule="evenodd" d="M34.1513 26.4883C37.3588 27.5255 38.3659 23.4377 35.5468 22.3535C35.5138 23.5248 34.5537 24.6067 32.7511 24.2727C29.7107 23.7083 27.3646 23.5648 23.5029 24.5173L24.1971 25.6322C28.6189 25.0371 31.0262 25.477 34.1513 26.4883Z" fill="#FE5694"/>
<path fill-rule="evenodd" clip-rule="evenodd" d="M5.3574 16.457L4.90795 11.6354C4.87029 11.2356 4.39967 11.0121 4.00904 11.118L0.568575 12.04C0.17795 12.1435 -0.120956 12.5716 0.0484971 12.9385L2.07225 17.3367C2.2417 17.7035 2.58053 17.9599 2.97115 17.8564L4.83725 17.3555C5.22795 17.252 5.39506 16.8592 5.3574 16.457Z" fill="#80D261"/>
<path fill-rule="evenodd" clip-rule="evenodd" d="M8.73154 5.61855L10.4047 4.4355C10.7435 4.20972 10.7483 4.11566 10.3929 3.92043L8.55974 2.9091C8.35264 2.79386 8.35498 2.73035 8.29381 2.52105L7.74553 0.599488C7.6349 0.209097 7.51256 0.176129 7.22076 0.458394L5.78529 1.84832C5.62764 2.00121 5.59935 2.05761 5.3617 2.05293L3.26732 2.01293C2.86021 2.00355 2.81787 2.08816 3.00139 2.45277L3.85795 4.31316C3.94975 4.51308 3.91912 4.70597 3.83912 4.93175L3.18256 6.77332C3.03662 7.15199 3.1049 7.22254 3.50967 7.17082L5.42756 6.91449C5.62756 6.88863 5.90998 6.96386 6.06998 7.08621L7.60193 8.26925C7.9267 8.51386 8.02084 8.488 8.08435 8.08582L8.43732 6.16425C8.48209 5.92902 8.55029 5.74558 8.73154 5.61855Z" fill="#FECE85"/>
<path fill-rule="evenodd" clip-rule="evenodd" d="M39.1778 16.3439L39.992 11.5717C40.0603 11.1742 39.6626 10.8379 39.2578 10.8379H35.695C35.2926 10.8379 34.8926 11.1742 34.9608 11.5717L35.7773 16.3439C35.8456 16.7414 36.1068 17.0777 36.5115 17.0777H38.4436C38.8459 17.0777 39.1095 16.7414 39.1778 16.3439Z" fill="#80D261"/>
<path fill-rule="evenodd" clip-rule="evenodd" d="M38.4695 33.6517L39.7827 32.0735C40.0533 31.7677 40.0321 31.676 39.6367 31.5772L37.6012 31.0739C37.3706 31.0174 37.3564 30.9563 37.2435 30.7681L36.2152 29.0511C36.0081 28.703 35.881 28.703 35.6716 29.0511L34.6432 30.7681C34.5303 30.9562 34.5161 31.0174 34.2856 31.0739L32.25 31.5772C31.8547 31.676 31.8359 31.7678 32.1065 32.0735L33.4173 33.6517C33.5585 33.8211 33.5773 34.0162 33.5585 34.2538L33.4031 36.2059C33.3585 36.6104 33.4431 36.6598 33.822 36.5069L35.6105 35.7614C35.7988 35.6838 36.0906 35.6838 36.2764 35.7614L38.0672 36.5069C38.4437 36.6598 38.5285 36.6104 38.4861 36.2059L38.3285 34.2538C38.3095 34.0162 38.3284 33.821 38.4695 33.6517Z" fill="#FECE85"/>
<path fill-rule="evenodd" clip-rule="evenodd" d="M29.52 36.3119L25.8796 33.7342C25.576 33.5178 25.1854 33.4708 24.9218 33.7342L23.6652 34.9901C23.4016 35.2536 23.4487 35.644 23.6652 35.9474L26.2443 39.5859C26.4585 39.8894 26.9362 39.8494 27.1997 39.5859L29.52 37.2669C29.7836 37.0034 29.8236 36.5259 29.52 36.3119ZM24.2018 22.8563C23.5711 21.9626 22.8439 21.0547 22.0603 20.1704C21.7169 19.7828 21.3654 19.4025 21.0061 19.0297C21.001 19.0223 20.9946 19.0159 20.9872 19.0108C20.5958 18.6316 20.1956 18.2615 19.7871 17.9007C18.9352 17.1504 18.0645 16.4542 17.2032 15.8427H17.2009C16.7161 15.497 16.2361 15.1818 15.7654 14.8996C15.4241 14.6937 15.0756 14.4999 14.7206 14.3187C12.2968 13.0909 10.2636 12.9357 9.50816 14.7537C9.49168 14.7914 9.35988 15.1489 9.25871 15.37L8.49152 17.5244L7.20199 21.1464L5.3359 26.389L3.8698 30.5144L2.23426 35.1054C1.83184 36.239 1.95426 37.0834 2.47426 37.5138C2.90488 38.0336 3.74973 38.1559 4.88394 37.7537L9.47746 36.1191L13.605 34.6538L18.8504 32.7887L22.4744 31.4998L24.63 30.7331C24.8511 30.6319 25.2089 30.5003 25.2465 30.4838C27.0185 29.75 26.9173 27.7979 25.7713 25.4553C25.5689 25.039 25.3312 24.6109 25.0677 24.1735C24.8065 23.7408 24.5171 23.3009 24.204 22.8587C24.2018 22.8587 24.2018 22.8563 24.2018 22.8563Z" fill="#80D261"/>
<path fill-rule="evenodd" clip-rule="evenodd" d="M22.0605 20.1707C21.7172 19.7832 21.3657 19.4029 21.0063 19.03C21.0013 19.0226 20.9949 19.0163 20.9875 19.0112C20.596 18.632 20.1959 18.2618 19.7873 17.9011C19.7638 17.8822 19.7427 17.8611 19.7191 17.8422C18.9142 17.1366 18.0906 16.4781 17.2764 15.8948C17.2529 15.8783 17.227 15.8595 17.2034 15.8431H17.2011C16.7347 15.51 16.2559 15.1946 15.7656 14.8976C15.4173 14.6907 15.0691 14.4954 14.7208 14.319C13.723 13.8133 12.7887 13.4911 11.9863 13.4111C12.8688 13.9309 13.7489 14.5471 14.5796 15.1963C14.814 15.3784 15.0454 15.5642 15.2738 15.7537C15.5751 16.0007 15.8645 16.25 16.1445 16.4969C16.2716 16.6075 16.3963 16.7204 16.5234 16.8332V16.8356C16.8017 17.0871 17.0755 17.3435 17.3447 17.6046L17.3659 17.6235C18.5119 18.8112 19.6414 20.1495 20.5616 21.4525C21.1287 22.2475 21.717 23.2046 22.1288 24.049C23.2748 26.3939 23.376 28.3437 21.6041 29.0799C21.597 29.0822 21.5759 29.0893 21.5476 29.1011C21.997 29.9595 22.3195 30.771 22.4748 31.5L24.6303 30.7333C24.8515 30.6321 25.2092 30.5005 25.2469 30.484C27.0188 29.7502 26.9177 27.7981 25.7716 25.4555C25.7647 25.4394 25.7569 25.4237 25.7481 25.4085C25.5528 25.011 25.3198 24.59 25.068 24.1737C25.0469 24.1384 25.0234 24.1032 25.0022 24.0655C25.0022 24.0655 24.9998 24.0632 24.9998 24.0608C24.7484 23.6513 24.4831 23.2505 24.2045 22.8589C24.2021 22.8589 24.2021 22.8566 24.2021 22.8566C23.6209 22.0311 22.9573 21.1961 22.2442 20.3776C22.1835 20.3082 22.1223 20.2392 22.0605 20.1707Z" fill="#4FC122"/>
<path fill-rule="evenodd" clip-rule="evenodd" d="M22.4746 31.4999C21.9711 29.1244 19.6837 25.8622 16.9563 23.0398C14.1324 20.3139 10.8685 18.0278 8.49168 17.5244L7.20215 21.1464C9.30121 22.1061 11.7486 23.9524 13.9347 26.0597C16.0432 28.2447 17.8905 30.6907 18.8507 32.7887L22.4746 31.4999Z" fill="#FECE85"/>
<path fill-rule="evenodd" clip-rule="evenodd" d="M13.6059 34.6536L18.8513 32.7886C18.5242 32.0712 18.0912 31.3139 17.5805 30.54L12.041 32.5086C12.6152 33.226 13.1447 33.9457 13.6059 34.6536Z" fill="#4FC122"/>
<path fill-rule="evenodd" clip-rule="evenodd" d="M22.4748 31.4996C22.3195 30.7704 21.9971 29.959 21.5477 29.1006C21.4277 29.1453 21.1641 29.2464 20.9876 29.3287L17.5801 30.54C18.0907 31.3138 18.5238 32.0711 18.8509 32.7885L22.4748 31.4996Z" fill="#FDB440"/>
<path fill-rule="evenodd" clip-rule="evenodd" d="M13.6055 34.6535C12.6148 33.1365 11.3182 31.5536 9.90387 30.0884C8.43777 28.6748 6.8541 27.3789 5.33621 26.3887L3.87012 30.5141C4.8891 31.2926 5.91035 32.1745 6.87988 33.1106C7.81645 34.0796 8.69895 35.1004 9.47785 36.1188L13.6055 34.6535Z" fill="#FECE85"/>
<path fill-rule="evenodd" clip-rule="evenodd" d="M9.47789 36.119C8.94367 35.4205 8.36008 34.7195 7.74359 34.0352L2.0064 36.0743C1.94523 36.7234 2.11469 37.2173 2.47469 37.5137C2.90531 38.0334 3.75015 38.1558 4.88437 37.7536L9.47789 36.119Z" fill="#4FC122"/>
<path fill-rule="evenodd" clip-rule="evenodd" d="M13.6059 34.6537C13.1447 33.9457 12.6152 33.2261 12.041 32.5087L7.74398 34.0351C8.36055 34.7196 8.94414 35.4204 9.47828 36.1189L13.6059 34.6537ZM8.73242 5.61855L10.4055 4.4355C10.7444 4.20972 10.7491 4.11566 10.3937 3.92043L8.56062 2.9091C8.35352 2.79386 8.35586 2.73035 8.29469 2.52105L7.74641 0.599488C7.63578 0.209097 7.51344 0.176129 7.22164 0.458394L6.58859 1.07222C6.84508 1.9048 6.98633 2.82207 6.98633 3.78402C6.98633 5.05644 6.73922 6.24886 6.30859 7.26964L7.60289 8.26925C7.92766 8.51386 8.0218 8.488 8.08531 8.08582L8.43828 6.16425C8.48297 5.92902 8.55117 5.74558 8.73242 5.61855Z" fill="#FDB440"/>
<path fill-rule="evenodd" clip-rule="evenodd" d="M5.3577 16.4563L4.90824 11.6347C4.87059 11.2349 4.39996 11.0115 4.00934 11.1173L3.21863 11.329C3.30566 11.8393 3.35043 12.3733 3.35043 12.9212C3.35043 14.657 2.89152 16.2422 2.13379 17.4511C2.31496 17.7546 2.62324 17.9474 2.97152 17.8557L4.83762 17.3547C5.22824 17.2513 5.39535 16.8585 5.3577 16.4563ZM26.7674 2.60552C26.965 2.36794 26.8309 1.99404 26.5626 1.84115L24.2094 0.481694C24.0683 0.402788 23.9018 0.382502 23.7458 0.425209C24.0353 1.30013 24.1953 2.27388 24.1953 3.30169C24.1953 4.1531 24.0847 4.96927 23.8823 5.72185C24.0776 5.72419 24.2682 5.61599 24.4071 5.44669L26.7674 2.60552Z" fill="#4FC122"/>
<path fill-rule="evenodd" clip-rule="evenodd" d="M36.9844 4.49176C36.9114 4.2848 36.8832 4.1084 36.9679 3.92262L37.7563 2.20801C37.9234 1.87402 37.8857 1.79645 37.5092 1.80348L35.5819 1.84113C35.3631 1.84348 35.3348 1.79176 35.1913 1.65301L34.4665 0.952148C34.5748 1.5166 34.6312 2.10934 34.6312 2.72082C34.6312 4.65418 34.0594 6.40168 33.1416 7.64824C33.2051 7.76113 33.3111 7.72348 33.5157 7.56824L34.93 6.47926C35.076 6.36637 35.3372 6.29582 35.5207 6.32168L37.2879 6.55691C37.6621 6.60395 37.7232 6.54043 37.5892 6.19004L36.9844 4.49176Z" fill="#FDB440"/>
<path fill-rule="evenodd" clip-rule="evenodd" d="M39.1779 16.3439L39.9921 11.5717C40.0604 11.1742 39.6627 10.8379 39.2579 10.8379H37.7071C37.7354 11.1342 37.7495 11.4377 37.7495 11.7458C37.7495 13.8084 37.1 15.6571 36.074 16.9154C36.1917 17.0166 36.3376 17.0777 36.5118 17.0777H38.4438C38.8461 17.0777 39.1096 16.7414 39.1779 16.3439ZM27.2 39.5861L29.5203 37.267C29.7839 37.0036 29.8239 36.5262 29.5203 36.3121L26.0257 33.8378C26.2305 34.5928 26.3411 35.4089 26.3411 36.2627C26.3411 37.2764 26.1834 38.2384 25.9033 39.1039L26.2446 39.5861C26.4586 39.8895 26.9364 39.8495 27.2 39.5861Z" fill="#4FC122"/>
<path fill-rule="evenodd" clip-rule="evenodd" d="M38.4701 33.6517L39.7832 32.0735C40.0539 31.7677 40.0327 31.676 39.6373 31.5772L37.6018 31.0739C37.3711 31.0174 37.357 30.9563 37.2441 30.7681L36.2157 29.0511C36.0086 28.703 35.8816 28.703 35.6721 29.0511L35.3427 29.6015C35.6675 30.5188 35.8486 31.5513 35.8486 32.645C35.8486 33.8257 35.6368 34.9382 35.2627 35.9071L35.611 35.7613C35.7993 35.6837 36.0911 35.6837 36.2769 35.7613L38.0677 36.5068C38.4442 36.6597 38.5289 36.6104 38.4866 36.2058L38.3289 34.2537C38.3101 34.0162 38.3289 33.821 38.4701 33.6517Z" fill="#FDB440"/>
</svg>
