<svg width="14" height="11" viewBox="0 0 14 11" fill="none" xmlns="http://www.w3.org/2000/svg">
<path fill-rule="evenodd" clip-rule="evenodd" d="M6.66632 3.76071C5.77966 3.76071 5.05899 4.48204 5.05899 5.36871C5.05899 6.25471 5.77966 6.97537 6.66632 6.97537C7.55299 6.97537 8.27432 6.25471 8.27432 5.36871C8.27432 4.48204 7.55299 3.76071 6.66632 3.76071ZM6.66632 7.97537C5.22832 7.97537 4.05899 6.80604 4.05899 5.36871C4.05899 3.93071 5.22832 2.76071 6.66632 2.76071C8.10432 2.76071 9.27432 3.93071 9.27432 5.36871C9.27432 6.80604 8.10432 7.97537 6.66632 7.97537Z" fill="currentColor"/>
<mask id="mask0_3734_14351" style="mask-type:luminance" maskUnits="userSpaceOnUse" x="0" y="0" width="14" height="11">
<path fill-rule="evenodd" clip-rule="evenodd" d="M3.05176e-05 -2.67029e-05H13.3333V10.7366H3.05176e-05V-2.67029e-05Z" fill="white"/>
</mask>
<g mask="url(#mask0_3734_14351)">
<path fill-rule="evenodd" clip-rule="evenodd" d="M1.04653 5.36817C2.28653 8.10751 4.3752 9.73617 6.66653 9.73684C8.95786 9.73617 11.0465 8.10751 12.2865 5.36817C11.0465 2.62951 8.95786 1.00084 6.66653 1.00017C4.37586 1.00084 2.28653 2.62951 1.04653 5.36817ZM6.66786 10.7368H6.6652H6.66453C3.9072 10.7348 1.4312 8.80217 0.0405305 5.56551C-0.0134695 5.43951 -0.0134695 5.29684 0.0405305 5.17084C1.4312 1.93484 3.90786 0.00217384 6.66453 0.000173843C6.66586 -0.000492823 6.66586 -0.000492823 6.66653 0.000173843C6.66786 -0.000492823 6.66786 -0.000492823 6.66853 0.000173843C9.42586 0.00217384 11.9019 1.93484 13.2925 5.17084C13.3472 5.29684 13.3472 5.43951 13.2925 5.56551C11.9025 8.80217 9.42586 10.7348 6.66853 10.7368H6.66786Z" fill="currentColor"/>
</g>
</svg>
