<svg width="26" height="26" viewBox="0 0 26 26" fill="none" xmlns="http://www.w3.org/2000/svg">
<path d="M25.5 18.2375C25.5 22.7875 22.7875 25.5 18.2375 25.5H16.75C16.0625 25.5 15.5 24.9375 15.5 24.25V17.0375C15.5 16.7 15.775 16.4125 16.1125 16.4125L18.3125 16.375C18.4875 16.3625 18.6375 16.2375 18.675 16.0625L19.1125 13.675C19.15 13.45 18.975 13.2375 18.7375 13.2375L16.075 13.275C15.725 13.275 15.45 13 15.4375 12.6625L15.3875 9.6C15.3875 9.4 15.55 9.22501 15.7625 9.22501L18.7625 9.175C18.975 9.175 19.1375 9.01252 19.1375 8.80002L19.0875 5.79999C19.0875 5.58749 18.925 5.425 18.7125 5.425L15.3375 5.47501C13.2625 5.51251 11.6125 7.2125 11.65 9.2875L11.7125 12.725C11.725 13.075 11.45 13.35 11.1 13.3625L9.6 13.3875C9.3875 13.3875 9.22501 13.55 9.22501 13.7625L9.26251 16.1375C9.26251 16.35 9.425 16.5125 9.6375 16.5125L11.1375 16.4875C11.4875 16.4875 11.7625 16.7625 11.775 17.1L11.8875 24.225C11.9 24.925 11.3375 25.5 10.6375 25.5H7.7625C3.2125 25.5 0.5 22.7875 0.5 18.225V7.7625C0.5 3.2125 3.2125 0.5 7.7625 0.5H18.2375C22.7875 0.5 25.5 3.2125 25.5 7.7625V18.2375Z" fill="#DA8661"/>
</svg>
