<svg width="16" height="17" viewBox="0 0 16 17" fill="none" xmlns="http://www.w3.org/2000/svg">
<g clip-path="url(#clip0_3752_3765)">
<path d="M8 0.5C6.41775 0.5 4.87104 0.969192 3.55544 1.84824C2.23985 2.72729 1.21447 3.97672 0.608967 5.43853C0.00346629 6.90034 -0.15496 8.50887 0.153721 10.0607C0.462403 11.6126 1.22433 13.038 2.34315 14.1569C3.46197 15.2757 4.88743 16.0376 6.43928 16.3463C7.99113 16.655 9.59966 16.4965 11.0615 15.891C12.5233 15.2855 13.7727 14.2602 14.6518 12.9446C15.5308 11.629 16 10.0823 16 8.5C15.9977 6.37897 15.1541 4.34547 13.6543 2.84568C12.1545 1.34589 10.121 0.502294 8 0.5V0.5ZM8 15.1667C6.68146 15.1667 5.39253 14.7757 4.2962 14.0431C3.19987 13.3106 2.34539 12.2694 1.84081 11.0512C1.33622 9.83305 1.2042 8.49261 1.46144 7.1994C1.71867 5.90619 2.35361 4.71831 3.28596 3.78596C4.21831 2.85361 5.4062 2.21867 6.6994 1.96143C7.99261 1.7042 9.33305 1.83622 10.5512 2.3408C11.7694 2.84539 12.8106 3.69987 13.5431 4.7962C14.2757 5.89253 14.6667 7.18146 14.6667 8.5C14.6647 10.2675 13.9617 11.9621 12.7119 13.2119C11.4621 14.4617 9.76752 15.1647 8 15.1667ZM11.3333 8.5C11.3333 8.67681 11.2631 8.84638 11.1381 8.97141C11.0131 9.09643 10.8435 9.16667 10.6667 9.16667H8.66667V11.1667C8.66667 11.3435 8.59643 11.513 8.47141 11.6381C8.34638 11.7631 8.17682 11.8333 8 11.8333C7.82319 11.8333 7.65362 11.7631 7.5286 11.6381C7.40358 11.513 7.33334 11.3435 7.33334 11.1667V9.16667H5.33334C5.15653 9.16667 4.98696 9.09643 4.86193 8.97141C4.73691 8.84638 4.66667 8.67681 4.66667 8.5C4.66667 8.32319 4.73691 8.15362 4.86193 8.0286C4.98696 7.90357 5.15653 7.83333 5.33334 7.83333H7.33334V5.83333C7.33334 5.65652 7.40358 5.48695 7.5286 5.36193C7.65362 5.23691 7.82319 5.16667 8 5.16667C8.17682 5.16667 8.34638 5.23691 8.47141 5.36193C8.59643 5.48695 8.66667 5.65652 8.66667 5.83333V7.83333H10.6667C10.8435 7.83333 11.0131 7.90357 11.1381 8.0286C11.2631 8.15362 11.3333 8.32319 11.3333 8.5Z" fill="currentColor"/>
</g>
<defs>
<clipPath id="clip0_3752_3765">
<rect width="16" height="16" fill="white" transform="translate(0 0.5)"/>
</clipPath>
</defs>
</svg>
