<svg width="40" height="32" viewBox="0 0 40 32" fill="none" xmlns="http://www.w3.org/2000/svg">
<path d="M30.3499 0.663095C27.4983 0.667079 24.9574 1.99091 23.3013 4.05513C23.0336 4.38872 22.5249 4.38872 22.2572 4.05513C20.6013 1.99091 18.0605 0.667079 15.2089 0.663095C10.2321 0.656064 6.15369 4.71802 6.14455 9.69513C6.12721 19.0808 18.7727 28.2852 22.0244 30.4968C22.247 30.6483 22.5101 30.7293 22.7794 30.7293C23.0487 30.7293 23.3118 30.6483 23.5344 30.4968C26.786 28.2852 39.4313 19.0808 39.4142 9.69513C39.4048 4.71825 35.3267 0.656064 30.3499 0.663095Z" fill="#FF592A"/>
<path d="M15.8624 0.68875C16.0912 0.9475 16.4718 0.983203 16.7425 0.795781C16.451 0.745611 16.1574 0.70989 15.8624 0.68875ZM31.0161 0.6875C32.2511 2.23141 32.9933 4.18484 32.9974 6.30422C33.0144 15.4903 20.9032 24.5016 17.339 26.9542C19.3343 28.6156 21.0781 29.8531 22.0247 30.497C22.2474 30.6485 22.5104 30.7296 22.7797 30.7296C23.049 30.7296 23.3121 30.6485 23.5347 30.497C26.7864 28.2855 39.4316 19.0814 39.4146 9.6957C39.4057 4.94258 35.6857 1.02437 31.0161 0.6875Z" fill="#F63511"/>
<path d="M17.0968 16.1301C16.9712 16.1301 16.8491 16.0897 16.7482 16.015C16.6474 15.9402 16.5733 15.8351 16.5368 15.715L14.7582 9.87275H9.43105C9.35336 9.87401 9.27619 9.85981 9.20405 9.83096C9.13191 9.8021 9.06622 9.75918 9.01084 9.70469C8.95545 9.6502 8.91146 9.58523 8.88143 9.51356C8.8514 9.4419 8.83594 9.36498 8.83594 9.28728C8.83594 9.20958 8.8514 9.13265 8.88143 9.06099C8.91146 8.98933 8.95545 8.92436 9.01084 8.86986C9.06622 8.81537 9.13191 8.77245 9.20405 8.7436C9.27619 8.71475 9.35336 8.70054 9.43105 8.70181H15.1918C15.4496 8.70181 15.6771 8.87025 15.7521 9.11681L17.0967 13.5342L19.0609 7.08282C19.0974 6.96279 19.1716 6.85767 19.2724 6.78298C19.3733 6.70829 19.4954 6.66797 19.6209 6.66797C19.7464 6.66797 19.8685 6.70829 19.9694 6.78298C20.0702 6.85767 20.1443 6.96279 20.1809 7.08282L21.0307 9.87486H26.1797C26.335 9.87486 26.4839 9.93654 26.5937 10.0463C26.7035 10.1562 26.7652 10.3051 26.7652 10.4604C26.7652 10.6156 26.7035 10.7646 26.5937 10.8744C26.4839 10.9842 26.335 11.0459 26.1797 11.0459H20.5971C20.4716 11.0459 20.3494 11.0056 20.2486 10.9309C20.1478 10.8562 20.0736 10.7511 20.0371 10.6311L19.6208 9.26361L17.6567 15.715C17.6202 15.8351 17.5461 15.9403 17.4453 16.0151C17.3444 16.0898 17.2223 16.1301 17.0968 16.1301Z" fill="#FFC5B2"/>
<path d="M5.10059 19.333H21.6314V22.9561H5.10059V19.333Z" fill="#848489"/>
<path d="M18.2653 19.333V20.2385C18.2653 20.9102 17.7205 21.455 17.0489 21.455H5.10059V22.9561H21.6314V19.333H18.2653Z" fill="#545353"/>
<path d="M22.528 26.6948H21.2539C20.8224 26.6948 20.4727 26.3451 20.4727 25.9135V16.4336C20.4727 16.002 20.8224 15.6523 21.2539 15.6523H22.528C22.9596 15.6523 23.3093 16.002 23.3093 16.4336V25.9134C23.3093 26.345 22.9596 26.6947 22.528 26.6947V26.6948ZM25.3646 25.2947H24.0905C23.659 25.2947 23.3093 24.9449 23.3093 24.5134V17.8334C23.3093 17.4019 23.659 17.0522 24.0905 17.0522H25.3646C25.7961 17.0522 26.1459 17.4019 26.1459 17.8334V24.5134C26.1459 24.9449 25.7961 25.2947 25.3646 25.2947ZM4.20316 15.6523H5.47723C5.90879 15.6523 6.25848 16.002 6.25848 16.4336V25.9134C6.25848 26.345 5.90879 26.6947 5.47723 26.6947H4.20316C3.7716 26.6947 3.42191 26.345 3.42191 25.9134V16.4336C3.42191 16.002 3.7716 15.6523 4.20316 15.6523ZM1.36621 17.0522H2.64066C3.07191 17.0522 3.42191 17.4019 3.42191 17.8334V24.5134C3.42191 24.9449 3.07191 25.2947 2.64066 25.2947H1.36621C0.934961 25.2947 0.584961 24.9449 0.584961 24.5134V17.8334C0.584961 17.4019 0.934961 17.0522 1.36621 17.0522Z" fill="#848489"/>
<path d="M22.5058 15.6524H21.2989C21.7432 15.6524 22.103 16.0125 22.103 16.4566V25.8905C22.103 26.3348 21.7432 26.6948 21.2989 26.6948H22.5059C22.9499 26.6948 23.31 26.3348 23.31 25.8905V16.4565C23.31 16.0124 22.9498 15.6523 22.5058 15.6523V15.6524ZM25.3425 17.0523H24.1354C24.5798 17.0523 24.94 17.4123 24.94 17.8567V24.4906C24.94 24.9346 24.5798 25.2948 24.1355 25.2948H25.3425C25.7864 25.2948 26.1466 24.9346 26.1466 24.4906V17.8567C26.1466 17.4123 25.7864 17.0523 25.3425 17.0523ZM5.45473 15.6524H4.24777C4.69215 15.6524 5.05223 16.0125 5.05223 16.4566V25.8905C5.05223 26.3348 4.69207 26.6948 4.24777 26.6948H5.4548C5.8991 26.6948 6.25918 26.3348 6.25918 25.8905V16.4565C6.25918 16.0124 5.89902 15.6523 5.45473 15.6523V15.6524ZM2.61816 17.0523H1.41113C1.85551 17.0523 2.21559 17.4123 2.21559 17.8567V24.4906C2.21559 24.9346 1.85551 25.2948 1.41121 25.2948H2.61816C3.06215 25.2948 3.4223 24.9346 3.4223 24.4906V17.8567C3.42262 17.4123 3.06246 17.0523 2.61816 17.0523Z" fill="#545353"/>
<path d="M17.0968 16.1301C16.9712 16.1301 16.8491 16.0897 16.7482 16.015C16.6474 15.9402 16.5733 15.8351 16.5368 15.715L14.7582 9.87275H9.43105C9.35336 9.87401 9.27619 9.85981 9.20405 9.83096C9.13191 9.8021 9.06622 9.75918 9.01084 9.70469C8.95545 9.6502 8.91146 9.58523 8.88143 9.51356C8.8514 9.4419 8.83594 9.36498 8.83594 9.28728C8.83594 9.20958 8.8514 9.13265 8.88143 9.06099C8.91146 8.98933 8.95545 8.92436 9.01084 8.86986C9.06622 8.81537 9.13191 8.77245 9.20405 8.7436C9.27619 8.71475 9.35336 8.70054 9.43105 8.70181H15.1918C15.4496 8.70181 15.6771 8.87025 15.7521 9.11681L17.0967 13.5342L19.0609 7.08282C19.0974 6.96279 19.1716 6.85767 19.2724 6.78298C19.3733 6.70829 19.4954 6.66797 19.6209 6.66797C19.7464 6.66797 19.8685 6.70829 19.9694 6.78298C20.0702 6.85767 20.1443 6.96279 20.1809 7.08282L21.0307 9.87486H26.1797C26.335 9.87486 26.4839 9.93654 26.5937 10.0463C26.7035 10.1562 26.7652 10.3051 26.7652 10.4604C26.7652 10.6156 26.7035 10.7646 26.5937 10.8744C26.4839 10.9842 26.335 11.0459 26.1797 11.0459H20.5971C20.4716 11.0459 20.3494 11.0056 20.2486 10.9309C20.1478 10.8562 20.0736 10.7511 20.0371 10.6311L19.6208 9.26361L17.6567 15.715C17.6202 15.8351 17.5461 15.9403 17.4453 16.0151C17.3444 16.0898 17.2223 16.1301 17.0968 16.1301Z" fill="black"/>
<path d="M38.7649 5.00609C38.7272 4.93909 38.6766 4.88017 38.6161 4.83272C38.5556 4.78527 38.4863 4.75021 38.4122 4.72954C38.3381 4.70888 38.2607 4.70302 38.1844 4.71229C38.108 4.72157 38.0342 4.7458 37.9673 4.78359C37.9003 4.82136 37.8414 4.87195 37.794 4.93247C37.7466 4.99299 37.7116 5.06226 37.691 5.13632C37.6703 5.21038 37.6645 5.28777 37.6738 5.36409C37.6831 5.4404 37.7073 5.51414 37.7451 5.58109C38.4525 6.8375 38.8258 8.25443 38.8291 9.69633C38.8363 13.5334 36.6314 17.8018 32.2763 22.383C28.7305 26.113 24.7516 28.9615 23.2055 30.0128C23.0802 30.0988 22.9318 30.1449 22.7798 30.1449C22.6279 30.1449 22.4794 30.0988 22.3541 30.0128C20.9836 29.0808 17.652 26.7023 14.4254 23.5416H19.8877V25.914C19.8877 26.6671 20.5005 27.28 21.2537 27.28H22.529C23.2825 27.28 23.8952 26.6672 23.8952 25.914V25.8645C23.9591 25.8738 24.0241 25.8802 24.0902 25.8802H25.3656C26.1187 25.8802 26.7316 25.2673 26.7316 24.5141V17.8327C26.7316 17.0795 26.1187 16.4666 25.3656 16.4666H24.0902C24.0241 16.4666 23.959 16.473 23.8952 16.4826V16.4328C23.8952 15.6797 23.2825 15.0668 22.529 15.0668H21.2537C20.5005 15.0668 19.8877 15.6796 19.8877 16.4328V18.7476H18.042C17.9651 18.7476 17.889 18.7627 17.818 18.7921C17.747 18.8216 17.6824 18.8647 17.628 18.9191C17.5737 18.9734 17.5306 19.038 17.5011 19.109C17.4717 19.18 17.4566 19.2562 17.4566 19.333C17.4566 19.4099 17.4717 19.4861 17.5011 19.5571C17.5306 19.6281 17.5737 19.6927 17.628 19.747C17.6824 19.8014 17.747 19.8445 17.818 19.8739C17.889 19.9034 17.9651 19.9185 18.042 19.9185H19.8877V22.3709H6.84414V19.9185H15.394C15.4717 19.9198 15.5488 19.9056 15.621 19.8767C15.6931 19.8479 15.7588 19.805 15.8142 19.7505C15.8696 19.696 15.9136 19.631 15.9436 19.5593C15.9736 19.4877 15.9891 19.4107 15.9891 19.333C15.9891 19.2553 15.9736 19.1784 15.9436 19.1068C15.9136 19.0351 15.8696 18.9701 15.8142 18.9156C15.7588 18.8611 15.6931 18.8182 15.621 18.7894C15.5488 18.7605 15.4717 18.7463 15.394 18.7476H10.2362C7.90492 15.5227 6.72547 12.4787 6.7307 9.69664C6.73922 5.03602 10.5359 1.24906 15.1966 1.24906H15.2084C17.7834 1.25242 20.1865 2.40906 21.8012 4.42203C21.9184 4.56889 22.0674 4.68738 22.2368 4.76864C22.4063 4.8499 22.5919 4.89184 22.7798 4.89133C23.1625 4.89133 23.5193 4.72016 23.7585 4.42203C25.3732 2.40906 27.7762 1.25273 30.3512 1.24906H30.3631C32.5272 1.24906 34.5895 2.07305 36.1725 3.57023C36.2282 3.62401 36.2939 3.66621 36.366 3.6944C36.4381 3.72259 36.5151 3.73621 36.5924 3.73447C36.6698 3.73272 36.7461 3.71565 36.8168 3.68424C36.8875 3.65283 36.9513 3.6077 37.0045 3.55147C37.0577 3.49524 37.0992 3.42902 37.1266 3.35665C37.1541 3.28427 37.1669 3.20718 37.1643 3.12983C37.1617 3.05247 37.1439 2.97639 37.1117 2.90599C37.0795 2.8356 37.0337 2.77227 36.977 2.71969C35.1758 1.01562 32.8277 0.078125 30.3631 0.078125H30.3495C27.4182 0.0820312 24.6829 1.39828 22.8452 3.68961C22.8372 3.69927 22.8273 3.70706 22.816 3.7124C22.8047 3.71775 22.7923 3.72052 22.7798 3.72052C22.7673 3.72052 22.755 3.71775 22.7437 3.7124C22.7324 3.70706 22.7225 3.69927 22.7145 3.68961C20.8768 1.39859 18.1415 0.0824219 15.2102 0.078125H15.1966C9.89164 0.078125 5.56945 4.38937 5.55969 9.69453C5.55453 12.5256 6.64609 15.567 8.80617 18.7476H6.84414V16.4325C6.84414 15.6794 6.23141 15.0666 5.4782 15.0666H4.20258C3.44945 15.0666 2.83664 15.6793 2.83664 16.4325V16.4823C2.7721 16.4724 2.70693 16.4672 2.64164 16.4666H1.36594C0.612812 16.4666 0 17.0795 0 17.8327V24.5139C0 25.267 0.612812 25.8798 1.36594 25.8798H2.64164C2.70781 25.8798 2.77289 25.8734 2.83664 25.8642V25.914C2.83664 26.6671 3.44937 27.28 4.20258 27.28H5.4782C6.23133 27.28 6.84414 26.6672 6.84414 25.914V23.5416H12.7734C16.3117 27.1835 20.1795 29.9499 21.6955 30.9812C22.0248 31.2052 22.4023 31.3171 22.7795 31.3171C23.157 31.3171 23.5345 31.2052 23.8638 30.9812C25.4412 29.9085 29.501 27.0016 33.1248 23.1898C37.6944 18.3829 40.0076 13.8421 40 9.69422C39.9961 8.05159 39.5708 6.43744 38.7649 5.00609ZM24.0902 17.6377H25.3659C25.4176 17.6377 25.4672 17.6583 25.5037 17.6949C25.5403 17.7314 25.5609 17.781 25.5609 17.8327V24.5139C25.5609 24.6216 25.4734 24.7092 25.3659 24.7092H24.0902C24.0385 24.7091 23.9889 24.6885 23.9524 24.6519C23.9158 24.6153 23.8953 24.5656 23.8952 24.5139V17.8327C23.8953 17.781 23.9159 17.7314 23.9524 17.6949C23.989 17.6583 24.0385 17.6377 24.0902 17.6377ZM21.0587 16.4325C21.0587 16.3808 21.0793 16.3312 21.1158 16.2947C21.1524 16.2581 21.202 16.2375 21.2537 16.2375H22.529C22.6367 16.2375 22.7243 16.325 22.7243 16.4325V25.914C22.7242 25.9657 22.7036 26.0153 22.667 26.0519C22.6303 26.0884 22.5807 26.109 22.529 26.109H21.2537C21.202 26.1089 21.1524 26.0884 21.1158 26.0518C21.0793 26.0153 21.0587 25.9657 21.0587 25.914V16.4325ZM5.6732 25.914C5.6732 26.0218 5.5857 26.1093 5.4782 26.1093H4.20258C4.15084 26.1092 4.10125 26.0886 4.0647 26.052C4.02814 26.0153 4.0076 25.9657 4.00758 25.914V21.2848C4.00758 21.1295 3.94589 20.9806 3.8361 20.8708C3.7263 20.761 3.57739 20.6993 3.42211 20.6993C3.26683 20.6993 3.11792 20.761 3.00812 20.8708C2.89832 20.9806 2.83664 21.1295 2.83664 21.2848V24.5138C2.83664 24.6216 2.74898 24.7091 2.64133 24.7091H1.36594C1.3142 24.709 1.26461 24.6884 1.22806 24.6518C1.1915 24.6152 1.17096 24.5656 1.17094 24.5138V17.8326C1.17104 17.7809 1.19162 17.7314 1.22817 17.6948C1.26472 17.6583 1.31426 17.6377 1.36594 17.6377H2.64156C2.69327 17.6377 2.74284 17.6583 2.77941 17.6948C2.81598 17.7314 2.83656 17.781 2.83664 17.8327V18.552C2.83664 18.6288 2.85179 18.705 2.88122 18.776C2.91066 18.847 2.9538 18.9116 3.00818 18.9659C3.06257 19.0203 3.12713 19.0634 3.19818 19.0928C3.26923 19.1222 3.34538 19.1373 3.42227 19.1373C3.49913 19.1373 3.57525 19.1221 3.64627 19.0927C3.71729 19.0633 3.78181 19.0202 3.83617 18.9659C3.89052 18.9115 3.93363 18.847 3.96304 18.776C3.99246 18.7049 4.00759 18.6288 4.00758 18.552V16.4324C4.0077 16.3807 4.02833 16.3311 4.06494 16.2946C4.10156 16.2581 4.15116 16.2375 4.20289 16.2375H5.47813C5.52982 16.2376 5.57937 16.2582 5.61592 16.2947C5.65247 16.3313 5.67304 16.3808 5.67312 16.4325L5.6732 25.914Z" fill="black"/>
</svg>
