<svg width="20" height="20" viewBox="0 0 20 20" fill="none" xmlns="http://www.w3.org/2000/svg">
<rect x="0.5" y="0.5" width="19" height="19" rx="9.5" stroke="currentColor"/>
<path d="M16 13.8889C16 14.1836 15.8851 14.4662 15.6805 14.6746C15.4759 14.8829 15.1984 15 14.9091 15H5.09091C4.80158 15 4.52411 14.8829 4.31952 14.6746C4.11493 14.4662 4 14.1836 4 13.8889V7.77778C4 7.48309 4.11493 7.20048 4.31952 6.9921C4.52411 6.78373 4.80158 6.66667 5.09091 6.66667H7.27273L8.36364 5H11.6364L12.7273 6.66667H14.9091C15.1984 6.66667 15.4759 6.78373 15.6805 6.9921C15.8851 7.20048 16 7.48309 16 7.77778V13.8889Z" stroke="currentColor" stroke-linecap="round" stroke-linejoin="round"/>
<path d="M10.3034 12.5253C11.4192 12.5253 12.3236 11.6208 12.3236 10.505C12.3236 9.38932 11.4192 8.48485 10.3034 8.48485C9.18771 8.48485 8.28323 9.38932 8.28323 10.505C8.28323 11.6208 9.18771 12.5253 10.3034 12.5253Z" stroke="currentColor" stroke-width="1.5" stroke-linecap="round" stroke-linejoin="round"/>
</svg>
