<svg width="25" height="25" viewBox="0 0 25 25" fill="none" xmlns="http://www.w3.org/2000/svg">
<g clip-path="url(#clip0_3980_364)">
<path d="M9.01946 1.71116C6.68513 2.52096 4.67201 4.05799 3.27579 6.09647C1.87957 8.13496 1.17385 10.5675 1.26229 13.0367C1.35072 15.5059 2.22865 17.8817 3.76712 19.8151C5.30559 21.7484 7.42351 23.1375 9.80978 23.7782C11.7444 24.2774 13.7713 24.2994 15.7162 23.8421C17.4782 23.4464 19.1071 22.5998 20.4436 21.3854C21.8346 20.0828 22.8442 18.4257 23.364 16.5923C23.9287 14.5985 24.0293 12.5018 23.6578 10.4632H12.794V14.9697H19.0856C18.9599 15.6884 18.6904 16.3744 18.2934 16.9866C17.8963 17.5988 17.3799 18.1246 16.7749 18.5325C16.0067 19.0409 15.1406 19.3829 14.2323 19.5364C13.3214 19.7058 12.3871 19.7058 11.4762 19.5364C10.5529 19.3457 9.67953 18.9647 8.91177 18.4175C7.67818 17.5443 6.75192 16.3038 6.26518 14.8729C5.77034 13.4153 5.77034 11.835 6.26518 10.3774C6.61165 9.35564 7.18443 8.42535 7.94074 7.65595C8.80625 6.7593 9.90202 6.11837 11.1078 5.80348C12.3136 5.48859 13.5828 5.51191 14.7762 5.87087C15.7086 6.15693 16.5611 6.65696 17.2659 7.33106C17.9753 6.6253 18.6835 5.91772 19.3904 5.20831C19.7555 4.82684 20.1534 4.46362 20.513 4.07302C19.437 3.07191 18.1742 2.29287 16.7968 1.78052C14.2884 0.869712 11.5437 0.845235 9.01946 1.71116Z" fill="white"/>
<path d="M9.02126 1.71107C11.5453 0.844557 14.29 0.86839 16.7986 1.77861C18.1763 2.29444 19.4385 3.07723 20.5129 4.08205C20.1479 4.47265 19.7628 4.8377 19.3904 5.21735C18.6822 5.92432 17.9746 6.62886 17.2677 7.33097C16.5629 6.65687 15.7104 6.15684 14.778 5.87078C13.585 5.51056 12.3158 5.48589 11.1097 5.79949C9.90362 6.1131 8.80718 6.75285 7.94072 7.64856C7.18441 8.41796 6.61163 9.34825 6.26516 10.37L2.48145 7.44049C3.83578 4.75477 6.18074 2.7004 9.02126 1.71107Z" fill="#E33629"/>
<path d="M1.47632 10.3426C1.67954 9.33461 2.01719 8.35851 2.4802 7.44043L6.26391 10.3772C5.76907 11.8349 5.76907 13.4151 6.26391 14.8728C5.00329 15.8462 3.74205 16.8246 2.4802 17.8078C1.32145 15.5012 0.968056 12.8732 1.47632 10.3426Z" fill="#F8BD00"/>
<path d="M12.7948 10.4619H23.6586C24.03 12.5006 23.9294 14.5973 23.3647 16.5911C22.8449 18.4245 21.8353 20.0815 20.4443 21.3841C19.2232 20.4313 17.9967 19.4859 16.7756 18.5331C17.381 18.1248 17.8977 17.5984 18.2948 16.9855C18.6918 16.3727 18.9611 15.686 19.0863 14.9666H12.7948C12.7929 13.4662 12.7948 11.9641 12.7948 10.4619Z" fill="#587DBD"/>
<path d="M2.48145 17.808C3.74329 16.8346 5.00453 15.8562 6.26516 14.873C6.75287 16.3044 7.68045 17.545 8.9154 18.4177C9.68555 18.9622 10.5608 19.3402 11.4853 19.5274C12.3962 19.6968 13.3305 19.6968 14.2414 19.5274C15.1497 19.3739 16.0158 19.0319 16.784 18.5235C18.0051 19.4763 19.2316 20.4218 20.4527 21.3745C19.1164 22.5896 17.4875 23.4368 15.7253 23.8331C13.7804 24.2904 11.7535 24.2684 9.81889 23.7692C8.2888 23.3607 6.85959 22.6405 5.62085 21.6538C4.30983 20.6127 3.23898 19.3009 2.48145 17.808Z" fill="#319F43"/>
</g>
<defs>
<clipPath id="clip0_3980_364">
<rect width="23.363" height="23.363" fill="white" transform="translate(0.882812 0.942383)"/>
</clipPath>
</defs>
</svg>
