<svg width="24" height="24" viewBox="0 0 24 24" fill="none" xmlns="http://www.w3.org/2000/svg">
<path d="M23.9976 12.2878C23.9976 11.4773 23.9176 10.6407 23.7843 9.85645H12.2344V14.4838H18.8495C18.5828 15.974 17.7026 17.2811 16.3955 18.1177L20.3433 21.1242C22.6639 19.0066 23.9976 15.9217 23.9976 12.2878Z" fill="#4280EF"/>
<path d="M12.2332 24.0002C15.5408 24.0002 18.3149 22.9283 20.3422 21.0983L16.3944 18.1179C15.3008 18.8499 13.887 19.2682 12.2332 19.2682C9.03236 19.2682 6.33827 17.1506 5.35133 14.3271L1.29688 17.3859C3.37745 21.4381 7.59196 24.0002 12.2332 24.0002Z" fill="#34A353"/>
<path d="M5.35482 14.3014C4.84801 12.8112 4.84801 11.1903 5.35482 9.70014L1.30036 6.61523C-0.433454 10.0139 -0.433454 14.0138 1.30036 17.3863L5.35482 14.3014Z" fill="#F6B704"/>
<path d="M12.2332 4.75853C13.9671 4.73239 15.6742 5.38597 16.9279 6.56242L20.4222 3.11151C18.2082 1.07233 15.2741 -0.025687 12.2332 0.000456276C7.59196 0.000456276 3.37745 2.5625 1.29688 6.61471L5.35133 9.69962C6.33827 6.85 9.03236 4.75853 12.2332 4.75853Z" fill="#E54335"/>
</svg>
