<svg width="25" height="18" viewBox="0 0 25 18" fill="none" xmlns="http://www.w3.org/2000/svg">
<path d="M4.21512 1.30104C4.84496 0.540984 5.49903 0.116245 6.17732 0.0268251C6.90407 -0.0625925 7.50969 0.0715353 7.99418 0.429208C8.52713 0.742175 8.81783 1.23398 8.86628 1.90462C8.96318 2.53055 8.67248 3.22355 7.99418 3.98361C7.36434 4.69896 6.85562 5.41431 6.46802 6.12966C6.12888 6.8003 5.88663 7.47094 5.74128 8.14158C7.29167 8.27571 8.52713 8.78986 9.44767 9.68405C10.3682 10.5335 10.8285 11.6736 10.8285 13.1043C10.8285 14.535 10.344 15.7198 9.375 16.6587C8.40601 17.5529 7.09787 18 5.45058 18C3.75484 18 2.42248 17.4635 1.45349 16.3905C0.484496 15.3174 0 13.8197 0 11.8972C0 10.2876 0.266473 8.61103 0.799419 6.86736C1.38081 5.07899 2.51938 3.22355 4.21512 1.30104ZM18.3866 1.30104C19.0165 0.540984 19.6705 0.116245 20.3488 0.0268251C21.0756 -0.0625925 21.6812 0.0715353 22.1657 0.429208C22.6986 0.742175 22.9893 1.23398 23.0378 1.90462C23.1347 2.53055 22.844 3.22355 22.1657 3.98361C21.5358 4.69896 21.0271 5.41431 20.6395 6.12966C20.3004 6.8003 20.0581 7.47094 19.9128 8.14158C21.4632 8.27571 22.6986 8.78986 23.6192 9.68405C24.5397 10.5335 25 11.6736 25 13.1043C25 14.535 24.5155 15.7198 23.5465 16.6587C22.5775 17.5529 21.2694 18 19.6221 18C17.9264 18 16.594 17.4635 15.625 16.3905C14.656 15.3174 14.1715 13.8197 14.1715 11.8972C14.1715 10.2876 14.438 8.61103 14.9709 6.86736C15.5523 5.07899 16.6909 3.22355 18.3866 1.30104Z" fill="#135CE7" fill-opacity="0.2"/>
</svg>
