<svg width="374" height="564" viewBox="0 0 374 564" fill="none" xmlns="http://www.w3.org/2000/svg">
<g clip-path="url(#clip0_3892_14099)">
<path d="M295.607 453.692C295.321 454.015 295.036 454.346 294.759 454.678C290.898 459.16 287.41 463.95 284.33 469C284.081 469.387 283.842 469.783 283.621 470.171C276.329 482.372 271.365 495.822 268.981 509.837C268.447 513.007 268.045 516.196 267.775 519.403C267.581 521.873 267.464 524.346 267.424 526.822C267.277 537.218 268.198 548.784 261.501 556.728C259.71 558.819 257.525 560.535 255.07 561.779C253.221 562.736 251.267 563.475 249.247 563.982H228.361C227.311 563.825 226.261 563.659 225.211 563.493C225.183 563.493 225.155 563.484 225.128 563.484L224.916 563.558L223.654 563.982L223.598 564V563.982C223.6 563.944 223.597 563.907 223.589 563.871C223.591 563.803 223.588 563.736 223.58 563.668V563.659C223.571 563.475 223.561 563.3 223.561 563.115L223.534 562.627C223.534 562.627 223.525 562.618 223.534 562.618C223.525 562.341 223.506 562.065 223.497 561.779C222.53 537.725 224.888 512.869 236.238 491.69C240.131 484.434 245.143 477.837 251.09 472.143C251.124 472.107 251.161 472.073 251.2 472.041C263.002 460.779 278.259 453.416 294.363 453.664C294.778 453.664 295.192 453.674 295.607 453.692Z" fill="#F0F0F0"/>
<path d="M295.654 454.212C277.415 463.576 262.588 478.45 253.281 496.722C251.207 500.62 249.761 504.821 248.995 509.169C248.386 513.43 248.928 517.775 250.566 521.755C252.018 525.496 253.937 529.155 254.455 533.184C254.689 535.251 254.484 537.343 253.853 539.325C253.223 541.307 252.18 543.133 250.795 544.683C247.443 548.636 242.87 551.148 238.314 553.45C233.255 556.005 227.959 558.58 224.447 563.199C224.021 563.759 223.178 563.066 223.603 562.507C229.714 554.469 240.477 552.716 247.807 546.18C251.227 543.131 253.749 539.032 253.465 534.31C253.216 530.181 251.241 526.407 249.738 522.631C248.083 518.773 247.399 514.567 247.744 510.383C248.286 506.009 249.568 501.76 251.535 497.817C255.823 488.869 261.49 480.65 268.329 473.463C276.089 465.217 285.203 458.36 295.275 453.188C295.898 452.869 296.273 453.895 295.654 454.212Z" fill="white"/>
<path d="M255.931 490.662C253.078 488.684 251.022 485.756 250.128 482.4C249.234 479.045 249.562 475.481 251.053 472.345C251.357 471.712 252.355 472.154 252.051 472.789C250.657 475.706 250.352 479.026 251.191 482.149C252.029 485.271 253.956 487.991 256.623 489.818C257.203 490.215 256.507 491.058 255.931 490.662Z" fill="white"/>
<path d="M249.58 519.955C256.573 518.752 262.856 514.957 267.176 509.326C267.603 508.768 268.447 509.461 268.02 510.019C263.513 515.87 256.967 519.806 249.687 521.042C248.993 521.159 248.89 520.072 249.58 519.955Z" fill="white"/>
<path d="M276.662 466.547C277.606 467.543 278.783 468.288 280.087 468.716C281.39 469.144 282.779 469.242 284.13 469C284.822 468.874 284.925 469.962 284.237 470.087C282.744 470.347 281.21 470.237 279.769 469.767C278.327 469.298 277.023 468.482 275.97 467.391C275.862 467.297 275.794 467.165 275.78 467.022C275.766 466.88 275.807 466.737 275.894 466.623C275.986 466.512 276.119 466.441 276.263 466.427C276.406 466.413 276.55 466.456 276.662 466.547Z" fill="white"/>
<path d="M346.472 520.38C346.048 520.472 345.624 520.564 345.191 520.666H345.182C339.408 521.921 333.745 523.641 328.249 525.808C327.825 525.974 327.401 526.14 326.977 526.315H326.968C313.864 531.652 301.858 539.363 291.553 549.061C291.517 549.098 291.48 549.125 291.443 549.162C291.421 549.189 291.396 549.214 291.369 549.236L291.323 549.282C287.234 553.157 283.443 557.334 279.982 561.779C279.982 561.788 279.973 561.797 279.963 561.807C279.411 562.525 278.849 563.244 278.296 563.982H223.654L223.598 564V563.982H223.368C223.368 563.972 223.377 563.963 223.387 563.954C223.387 563.945 223.396 563.945 223.396 563.936C223.46 563.843 223.525 563.751 223.58 563.668V563.659C223.594 563.631 223.613 563.606 223.635 563.585C223.691 563.493 223.755 563.419 223.801 563.337C224.17 562.82 224.529 562.295 224.897 561.779C225.496 560.922 226.104 560.065 226.722 559.217L226.722 559.213L226.724 559.21L226.727 559.208L226.731 559.208V559.198C226.74 559.189 226.74 559.18 226.749 559.171L226.768 559.152C234.368 548.628 242.918 538.637 252.711 530.269C253.006 530.011 253.301 529.753 253.614 529.513C258.049 525.76 262.785 522.379 267.775 519.403C270.502 517.79 273.312 516.31 276.205 514.961C283.666 511.521 291.622 509.276 299.781 508.307H299.799C299.817 508.307 299.836 508.298 299.863 508.298C299.891 508.298 299.909 508.288 299.928 508.288C316.152 506.408 332.781 509.717 345.504 519.615C345.836 519.873 346.149 520.122 346.472 520.38Z" fill="#F0F0F0"/>
<path d="M223.368 563.982H223.599V564L223.654 563.982H238.275C233.917 563.235 229.569 562.654 225.211 563.493C225.11 563.512 225.017 563.53 224.916 563.558C224.474 563.641 224.032 563.751 223.589 563.871C223.562 563.88 223.525 563.889 223.497 563.899C223.457 563.909 223.42 563.928 223.387 563.954C223.363 563.957 223.341 563.967 223.322 563.982H223.368Z" fill="white"/>
<path d="M346.205 520.832C345.864 520.776 345.532 520.712 345.191 520.666H345.182C338.074 519.506 330.859 519.142 323.67 519.578C323.31 519.597 322.942 519.624 322.573 519.643C312.595 520.339 302.784 522.574 293.488 526.269C293.479 526.269 293.479 526.269 293.479 526.278C293.377 526.315 293.276 526.352 293.184 526.389C291.019 527.265 288.881 528.223 286.79 529.255C282.788 531.119 279.104 533.601 275.873 536.61C273.286 539.164 271.327 542.284 270.151 545.724C270.032 546.075 269.912 546.416 269.801 546.766C269.718 547.042 269.636 547.328 269.553 547.605C268.466 551.466 267.793 555.54 265.785 559.069C265.225 560.054 264.544 560.964 263.758 561.779C262.945 562.625 262.029 563.365 261.031 563.982H258.709C259.98 563.432 261.158 562.689 262.201 561.779C263.012 561.079 263.722 560.269 264.31 559.374C266.595 555.927 267.295 551.724 268.364 547.807C268.539 547.171 268.723 546.554 268.926 545.936C269.99 542.557 271.772 539.447 274.15 536.822C277.214 533.657 280.794 531.036 284.736 529.071C287.223 527.762 289.778 526.576 292.401 525.514C292.742 525.366 293.083 525.237 293.424 525.108C309.983 518.661 327.965 516.765 345.504 519.615C345.845 519.661 346.177 519.726 346.518 519.781C347.209 519.901 346.896 520.951 346.205 520.832Z" fill="white"/>
<path d="M292.553 526.009C291.466 522.711 291.587 519.134 292.893 515.917C294.198 512.7 296.605 510.052 299.682 508.446C300.306 508.123 300.837 509.077 300.212 509.401C297.344 510.891 295.102 513.358 293.893 516.356C292.683 519.355 292.584 522.687 293.614 525.751C293.838 526.418 292.775 526.671 292.553 526.009Z" fill="white"/>
<path d="M269.851 545.572C276.159 548.823 283.46 549.577 290.298 547.683C290.975 547.495 291.232 548.556 290.555 548.744C283.435 550.702 275.839 549.902 269.283 546.504C268.658 546.18 269.23 545.249 269.851 545.572Z" fill="white"/>
<path d="M323.62 519.24C323.774 520.603 324.265 521.907 325.048 523.034C325.831 524.161 326.882 525.076 328.106 525.696C328.734 526.012 328.162 526.942 327.537 526.628C326.189 525.937 325.03 524.925 324.162 523.682C323.294 522.439 322.743 521.002 322.559 519.497C322.529 519.357 322.555 519.21 322.629 519.088C322.704 518.965 322.822 518.876 322.961 518.838C323.101 518.804 323.249 518.828 323.373 518.903C323.496 518.978 323.585 519.099 323.62 519.24Z" fill="white"/>
<path d="M292.115 153.255C292.363 122.74 293.604 91.9309 295.837 60.8265C295.873 60.209 295.92 59.6008 295.966 58.9833C297.145 42.7905 298.588 26.5394 300.296 10.2299V10.1378C300.294 7.44954 299.226 4.87191 297.326 2.97106C295.425 1.07021 292.849 0.00160416 290.161 0H18.3788C15.7006 0.0052639 13.1329 1.06872 11.2348 2.95882C9.33675 4.84893 8.26199 7.41261 8.24453 10.0917C5.88601 32.5514 4.03725 54.9005 2.6983 77.1391C2.64302 77.8671 2.60618 78.586 2.56933 79.3141C1.906 90.3089 1.37779 101.276 0.9847 112.216C0.957061 112.861 0.929416 113.506 0.920203 114.151C-1.59511 181.272 0.853013 248.487 8.24453 315.247C8.2639 317.925 9.33957 320.486 11.2375 322.375C13.1354 324.263 15.702 325.325 18.3788 325.33H290.161C292.849 325.328 295.425 324.259 297.326 322.359C299.226 320.458 300.294 317.88 300.296 315.192V315.091C298.96 303.229 297.787 291.291 296.776 279.277C296.629 277.516 296.485 275.756 296.343 273.996C295.643 265.342 295.032 256.654 294.51 247.933C294.399 246.172 294.298 244.412 294.206 242.652C293.22 225.196 292.575 207.606 292.271 189.88C292.234 188.12 292.207 186.369 292.179 184.599C292.069 175.945 292.035 167.258 292.078 158.536C292.078 156.776 292.087 155.015 292.115 153.255Z" fill="#F0F0F0"/>
<path d="M374 69.121C373.998 66.4328 372.93 63.8552 371.03 61.9543C369.13 60.0535 366.553 58.9849 363.866 58.9833H92.083C89.4048 58.9885 86.8371 60.052 84.939 61.9421C83.041 63.8322 81.9662 66.3959 81.9487 69.0749C72.7726 156.601 71.2525 242.578 77.3975 325.33C78.1438 335.569 79.0159 345.756 80.014 355.89C80.5484 361.319 81.1165 366.732 81.7184 372.129C81.7921 372.83 81.8658 373.53 81.9487 374.23C81.9681 376.908 83.0438 379.47 84.9417 381.358C86.8396 383.246 89.4062 384.308 92.083 384.313H363.866C366.553 384.311 369.13 383.243 371.03 381.342C372.93 379.441 373.998 376.863 374 374.175V374.074C363.009 276.595 363.009 174.028 374 69.2132V69.121Z" fill="white"/>
<path d="M374 69.121C373.998 66.4328 372.93 63.8552 371.03 61.9543C369.13 60.0535 366.553 58.9849 363.866 58.9833H92.083C89.4048 58.9885 86.8371 60.052 84.939 61.9421C83.041 63.8322 81.9662 66.3959 81.9487 69.0749C72.7726 156.601 71.2525 242.578 77.3975 325.33C78.1438 335.569 79.0159 345.756 80.014 355.89C80.5484 361.319 81.1165 366.732 81.7184 372.129C81.7921 372.83 81.8658 373.53 81.9487 374.23C81.9681 376.908 83.0438 379.47 84.9417 381.358C86.8396 383.246 89.4062 384.308 92.083 384.313H363.866C366.553 384.311 369.13 383.243 371.03 381.342C372.93 379.441 373.998 376.863 374 374.175V374.074C363.009 276.595 363.009 174.028 374 69.2132V69.121ZM372.157 374.23C372.141 376.42 371.26 378.515 369.707 380.058C368.154 381.601 366.055 382.468 363.866 382.47H92.083C89.8849 382.466 87.7778 381.591 86.2235 380.037C84.6693 378.482 83.7946 376.374 83.7913 374.175V374.074C83.7268 373.484 83.6623 372.885 83.5978 372.295C82.9621 366.655 82.3694 360.999 81.8197 355.328C80.8524 345.384 79.9956 335.384 79.2493 325.33C73.1043 242.624 74.6152 156.702 83.7913 69.2132V69.121C83.7946 66.9222 84.6693 64.8144 86.2235 63.2596C87.7778 61.7048 89.8849 60.8298 92.083 60.8265H363.866C366.057 60.8272 368.158 61.695 369.712 63.2404C371.265 64.7858 372.144 66.8833 372.157 69.0749C361.166 173.973 361.166 276.65 372.157 374.23Z" fill="#E4E4E4"/>
<path d="M110.816 153.255C110.117 153.257 109.447 153.536 108.954 154.032C108.46 154.527 108.183 155.198 108.183 155.897C108.183 156.596 108.46 157.267 108.954 157.763C109.447 158.258 110.117 158.537 110.816 158.539H331.68C332.379 158.537 333.049 158.258 333.543 157.763C334.037 157.267 334.314 156.596 334.314 155.897C334.314 155.198 334.037 154.527 333.543 154.032C333.049 153.536 332.379 153.257 331.68 153.255H110.816Z" fill="#E6E6E6"/>
<path d="M110.817 169.107C110.117 169.108 109.447 169.387 108.952 169.882C108.458 170.378 108.181 171.049 108.181 171.749C108.181 172.448 108.458 173.12 108.952 173.615C109.447 174.11 110.117 174.389 110.817 174.39H260.753C261.452 174.389 262.123 174.11 262.617 173.615C263.111 173.12 263.389 172.448 263.389 171.749C263.389 171.049 263.111 170.378 262.617 169.882C262.123 169.387 261.452 169.108 260.753 169.107H110.817Z" fill="#E6E6E6"/>
<path d="M110.817 184.6C110.117 184.601 109.447 184.88 108.952 185.375C108.458 185.87 108.181 186.542 108.181 187.241C108.181 187.941 108.458 188.612 108.952 189.108C109.447 189.603 110.117 189.882 110.817 189.883H331.68C332.38 189.882 333.05 189.603 333.544 189.108C334.038 188.612 334.316 187.941 334.316 187.241C334.316 186.542 334.038 185.87 333.544 185.375C333.05 184.88 332.38 184.601 331.68 184.6H110.817Z" fill="#E6E6E6"/>
<path d="M110.816 200.451C110.117 200.453 109.447 200.732 108.954 201.227C108.46 201.723 108.183 202.393 108.183 203.093C108.183 203.792 108.46 204.463 108.954 204.958C109.447 205.454 110.117 205.733 110.816 205.734H260.753C261.452 205.733 262.122 205.454 262.615 204.958C263.109 204.463 263.386 203.792 263.386 203.093C263.386 202.393 263.109 201.723 262.615 201.227C262.122 200.732 261.452 200.453 260.753 200.451H110.816Z" fill="#E6E6E6"/>
<path d="M110.816 242.652C110.117 242.654 109.447 242.933 108.954 243.428C108.46 243.923 108.183 244.594 108.183 245.294C108.183 245.993 108.46 246.664 108.954 247.159C109.447 247.654 110.117 247.933 110.816 247.935H331.68C332.379 247.933 333.049 247.654 333.543 247.159C334.037 246.664 334.314 245.993 334.314 245.294C334.314 244.594 334.037 243.923 333.543 243.428C333.049 242.933 332.379 242.654 331.68 242.652H110.816Z" fill="#E6E6E6"/>
<path d="M110.817 258.503C110.117 258.505 109.447 258.784 108.952 259.279C108.458 259.774 108.181 260.445 108.181 261.145C108.181 261.845 108.458 262.516 108.952 263.011C109.447 263.507 110.117 263.785 110.817 263.787H260.753C261.452 263.785 262.123 263.507 262.617 263.011C263.111 262.516 263.389 261.845 263.389 261.145C263.389 260.445 263.111 259.774 262.617 259.279C262.123 258.784 261.452 258.505 260.753 258.503H110.817Z" fill="#E6E6E6"/>
<path d="M110.817 273.996C110.117 273.998 109.447 274.276 108.952 274.772C108.458 275.267 108.181 275.938 108.181 276.638C108.181 277.338 108.458 278.009 108.952 278.504C109.447 278.999 110.117 279.278 110.817 279.28H331.68C332.38 279.278 333.05 278.999 333.544 278.504C334.038 278.009 334.316 277.338 334.316 276.638C334.316 275.938 334.038 275.267 333.544 274.772C333.05 274.276 332.38 273.998 331.68 273.996H110.817Z" fill="#E6E6E6"/>
<path d="M110.816 289.848C110.117 289.85 109.447 290.129 108.954 290.624C108.46 291.119 108.183 291.79 108.183 292.489C108.183 293.189 108.46 293.86 108.954 294.355C109.447 294.85 110.117 295.129 110.816 295.131H260.753C261.452 295.129 262.122 294.85 262.615 294.355C263.109 293.86 263.386 293.189 263.386 292.489C263.386 291.79 263.109 291.119 262.615 290.624C262.122 290.129 261.452 289.85 260.753 289.848H110.816Z" fill="#E6E6E6"/>
<path d="M154.518 120.455H112.333C111.787 120.454 111.263 120.237 110.877 119.85C110.49 119.464 110.273 118.94 110.272 118.393V111.632C110.273 111.086 110.49 110.562 110.877 110.175C111.263 109.789 111.787 109.571 112.333 109.571H154.518C155.064 109.571 155.588 109.789 155.974 110.175C156.361 110.562 156.578 111.086 156.578 111.632V118.393C156.578 118.94 156.361 119.464 155.974 119.85C155.588 120.237 155.064 120.454 154.518 120.455Z" fill="#DA8661"/>
<path d="M301.066 337.934L288.145 342.206C285.991 342.918 283.838 343.63 281.684 344.341C279.689 344.998 277.531 345.78 275.396 345.497C273.921 345.302 272.238 344.452 271.779 342.934C271.344 341.497 272.266 339.993 273.383 339.143C276.466 336.797 280.365 339.185 282.55 341.615C285.222 344.588 286.735 348.425 289.241 351.536C291.472 354.326 294.301 356.579 297.519 358.13C303.913 361.151 311.714 360.83 317.418 356.428C324.229 351.173 324.923 342.064 324.96 334.116C324.947 333.758 324.796 333.418 324.538 333.169C324.28 332.92 323.936 332.781 323.578 332.781C323.219 332.781 322.875 332.92 322.617 333.169C322.359 333.418 322.208 333.758 322.196 334.116C322.163 341.319 321.753 350.148 315.188 354.655C308.899 358.972 300.634 357.827 294.845 353.227C291.618 350.664 289.633 347.321 287.515 343.86C285.447 340.482 282.88 337.206 278.988 335.892C277.319 335.285 275.492 335.274 273.816 335.859C272.14 336.445 270.717 337.592 269.788 339.105C269.364 339.82 269.097 340.616 269.004 341.442C268.912 342.268 268.996 343.104 269.252 343.894C269.508 344.685 269.929 345.412 270.487 346.027C271.046 346.642 271.729 347.131 272.491 347.461C277.004 349.612 282.166 347.091 286.511 345.655L301.801 340.6C303.482 340.044 302.762 337.373 301.066 337.934Z" fill="#DA8661"/>
<path d="M262.776 541.149L253.715 544.135L237.889 510.598L251.261 506.191L262.776 541.149Z" fill="#9F616A"/>
<path d="M269.239 548.766L268.622 546.895L267 541.964L265.895 538.61L262.873 539.605L262.246 539.559L253.945 538.997L252.84 538.923L251.2 538.812L249.505 538.693L244.769 545.577H244.76C242.99 546.154 241.352 547.076 239.941 548.291C238.531 549.506 237.375 550.99 236.542 552.655C236.441 552.858 236.349 553.06 236.256 553.263C236.028 553.759 235.834 554.27 235.676 554.793C234.959 557.052 234.826 559.455 235.289 561.779C235.408 562.355 235.559 562.924 235.741 563.484L235.768 563.576L235.879 563.917L236.542 563.696L242.365 561.779L262.762 555.06L266.807 553.724L268.05 553.309H268.06L270.473 552.517L269.239 548.766Z" fill="#2F2E41"/>
<path d="M176.893 549.034L167.354 549.033L162.815 512.226L176.895 512.226L176.893 549.034Z" fill="#9F616A"/>
<path d="M161.627 387.679L157.398 394.997C157.398 394.997 152.751 396.266 154.27 411.419C155.342 422.118 155.69 470.024 158.39 501.146C159.513 514.099 161.044 524.145 163.205 527.391L164.535 528.583L178.416 529.909L178.766 529.787L183.863 493.774C184.778 487.309 184.641 480.739 183.457 474.318L182.536 464.18L195.317 412.849C195.317 412.849 208.332 445.748 216.624 477.083C218.62 484.626 226.202 489.423 229.076 495.895C230.039 498.064 230.985 500.165 231.909 502.182C237.988 515.459 241.036 525.125 243.342 525.928H245.184L256.24 522.242L258.415 516.772L241.499 466.945L228.832 386.493C204.697 373.511 182.056 372.067 161.627 387.679Z" fill="#2F2E41"/>
<path d="M230.766 279.277C229.932 277.441 228.953 275.675 227.836 273.996C225.283 270.016 221.736 266.773 217.545 264.586L213.915 263.784L207.411 262.347L203.984 258.503L198.364 252.209H179.017L176.428 258.503L174.254 263.784L173.323 266.033L156.758 274.318C156.749 274.318 156.749 274.318 156.74 274.328C156.961 275.986 157.179 277.636 157.394 279.277C157.864 282.843 158.306 286.367 158.72 289.848C158.932 291.617 159.135 293.377 159.328 295.128C159.946 300.621 160.477 306.019 160.922 311.321C161.318 316.058 161.635 320.728 161.871 325.33C162.447 335.781 162.49 346.255 162 356.711C161.871 359.171 164.313 361.973 164.119 364.378C163.797 368.305 160.766 371.788 160.231 375.539C159.9 377.843 160.047 380.295 159.467 382.47C159.305 383.106 159.064 383.719 158.748 384.295C158.748 384.304 158.739 384.304 158.739 384.313C152.105 396.165 157.311 390.506 156.694 393.17L156.988 393.243C157.127 393.28 157.55 393.391 158.232 393.548C162.129 394.478 178.197 379.392 188.985 379.392C195.462 379.392 212.607 390.045 218.347 390.82C222.889 391.428 226.942 391.981 229.356 389.852C230.057 389.231 230.592 388.445 230.913 387.566L230.941 387.483L230.932 387.4L230.701 384.313L230.563 382.47L228.592 356.019C227.491 354.654 226.795 353.007 226.583 351.265C226.371 349.523 226.652 347.757 227.394 346.167L227.799 345.31L226.307 325.33L226.03 321.597L225.929 320.335V320.325L225.21 310.676L226.942 305.404V305.395L230.314 295.128L232.046 289.848L233.134 286.53L233.207 286.309C232.627 283.89 231.809 281.534 230.766 279.277Z" fill="#DA8661"/>
<path d="M247.573 374.58L229 326.563L220.374 309.029L236.962 299.862L250.322 323.408L259.277 372.605C260.687 373.568 261.776 374.93 262.406 376.517C263.036 378.104 263.177 379.843 262.811 381.511C262.446 383.179 261.59 384.699 260.354 385.877C259.118 387.054 257.558 387.835 255.875 388.119C254.192 388.403 252.462 388.177 250.909 387.471C249.355 386.764 248.048 385.609 247.155 384.153C246.263 382.698 245.826 381.009 245.9 379.303C245.975 377.597 246.558 375.952 247.573 374.58Z" fill="#9F616A"/>
<path d="M247.948 308.427L243.194 305.349L237.731 295.128L234.911 289.848L233.133 286.53L232.378 285.11L223.838 279.277L218.07 275.332L213.372 279.277L211.133 281.157L213.326 289.848L214.652 295.128L217.545 306.584L226.03 321.597L228.14 325.33L229.347 327.477L229.356 327.495L229.522 327.781L250.961 326.887L251.633 326.86L251.67 325.33L251.688 324.777C251.698 324.5 251.698 324.224 251.698 323.947C251.695 318.55 250.409 313.23 247.948 308.427Z" fill="#DA8661"/>
<path d="M85.6847 355.484L123.68 320.753L136.885 306.351L151.442 318.489L134.352 339.485L91.7698 365.678C91.3843 367.341 90.5105 368.851 89.2606 370.014C88.0107 371.177 86.4418 371.939 84.7555 372.203C83.0692 372.467 81.3425 372.221 79.7972 371.496C78.2519 370.771 76.9587 369.6 76.0836 368.134C75.2085 366.668 74.7915 364.974 74.8862 363.269C74.981 361.564 75.5831 359.927 76.6153 358.567C77.6474 357.207 79.0624 356.187 80.6785 355.637C82.2947 355.088 84.0381 355.035 85.6847 355.484Z" fill="#9F616A"/>
<path d="M164.119 295.128L164.046 289.848L163.908 279.277L163.852 275.175L163.696 275.065C162.838 274.502 161.865 274.137 160.849 273.996C159.955 273.848 159.043 273.848 158.149 273.996C157.678 274.069 157.213 274.177 156.758 274.318C156.749 274.318 156.749 274.318 156.74 274.328C154.009 275.308 151.597 277.016 149.766 279.267L149.756 279.277C146.994 282.564 144.545 286.103 142.441 289.848C141.4 291.617 140.405 293.405 139.475 295.128C135.955 301.681 133.422 307.358 133.376 307.46L122.854 321.127L123.002 321.376L125.314 325.33L133.79 339.827L135.135 342.131L138.572 340.297C142.578 338.159 145.736 334.72 147.527 330.546L148.752 325.864L149.204 325.33L160.923 311.321L164.276 307.303L164.119 295.128Z" fill="#DA8661"/>
<path d="M204.274 234.173C205.843 224.501 199.277 215.388 189.608 213.818C179.94 212.249 170.83 218.817 169.261 228.489C167.692 238.161 174.258 247.274 183.927 248.844C193.595 250.413 202.705 243.845 204.274 234.173Z" fill="#9F616A"/>
<path d="M169.622 219.7C168.834 216.941 167.258 214.575 168.046 214.575C168.834 214.575 169.228 212.604 169.228 212.604C169.228 212.604 170.017 212.209 170.411 212.604C170.805 212.998 171.199 209.844 171.199 209.844C171.199 209.844 171.593 208.661 171.987 209.45C172.381 210.238 172.381 209.844 172.775 208.661C173.169 207.478 175.14 206.69 175.14 206.69C175.14 206.69 182.629 207.084 183.811 205.507C184.993 203.93 198.394 205.113 201.152 207.084C203.911 209.055 214.781 212.58 208.332 223.639C212.017 230.09 206.515 241.597 205.094 242.962C202.846 245.121 201.29 245.899 190.653 248.016C188.571 248.43 183.457 231.012 183.457 231.012C183.457 231.012 170.411 222.46 169.622 219.7Z" fill="#2F2E41"/>
<path d="M177.469 547.595L176.898 547.365L166.634 543.181L165.059 542.545L158.407 547.595H158.398C154.64 547.6 151.037 549.096 148.38 551.755C145.724 554.414 144.23 558.019 144.229 561.779V562.24H180.647V547.595H177.469Z" fill="#2F2E41"/>
<path d="M284.515 562.876C284.515 563.02 284.487 563.164 284.433 563.297C284.378 563.431 284.297 563.553 284.195 563.656C284.094 563.758 283.973 563.84 283.839 563.896C283.706 563.952 283.563 563.981 283.418 563.982H96.1185C95.8265 563.982 95.5465 563.866 95.34 563.659C95.1336 563.452 95.0176 563.172 95.0176 562.88C95.0176 562.588 95.1336 562.308 95.34 562.101C95.5465 561.895 95.8265 561.779 96.1185 561.779H283.418C283.709 561.78 283.987 561.895 284.193 562.101C284.398 562.306 284.514 562.585 284.515 562.876Z" fill="#CCCCCC"/>
<path d="M91.1435 0C89.694 25.7748 80.2228 50.4508 64.056 70.5728C47.8892 90.6949 25.8364 105.255 0.985396 112.216C0.957757 112.861 0.930111 113.506 0.920898 114.151C26.2867 107.171 48.8199 92.3963 65.3392 71.9142C81.8585 51.432 91.5293 26.2768 92.9861 0H91.1435Z" fill="white"/>
<path d="M62.9245 0C58.6431 16.2727 51.0957 31.5035 40.7419 44.765C30.3881 58.0266 17.4446 69.0415 2.69928 77.1391C2.644 77.8671 2.60716 78.586 2.57031 79.3141C17.8519 71.0995 31.271 59.8136 41.9853 46.1647C52.6996 32.5158 60.4777 16.7987 64.8316 0H62.9245Z" fill="white"/>
</g>
<defs>
<clipPath id="clip0_3892_14099">
<rect width="374" height="564" fill="white"/>
</clipPath>
</defs>
</svg>
