<svg width="40" height="40" viewBox="0 0 40 40" fill="none" xmlns="http://www.w3.org/2000/svg">
<path d="M15.3252 31.9258H23.3461V37.1444H15.3252V31.9258Z" fill="#5D689E"/>
<path d="M22.1494 31.9258H23.3454V37.1444H22.1494V31.9258Z" fill="#495586"/>
<path fill-rule="evenodd" clip-rule="evenodd" d="M13.307 36.3955H25.3628C26.5825 36.3955 27.5771 37.3904 27.5771 38.6098V39.1471H11.0928V38.6098C11.0928 37.3902 12.0874 36.3955 13.307 36.3955Z" fill="#7986BF"/>
<path fill-rule="evenodd" clip-rule="evenodd" d="M13.307 36.3955H23.957C25.1766 36.3955 26.1713 37.3904 26.1713 38.6098V39.1471H11.0928V38.6098C11.0928 37.3902 12.0874 36.3955 13.307 36.3955Z" fill="#909CD1"/>
<path d="M36.1997 7.41504H2.46992C1.72175 7.41504 1.11523 8.02155 1.11523 8.76973V31.4362C1.11523 32.1844 1.72175 32.7909 2.46992 32.7909H36.1997C36.9479 32.7909 37.5544 32.1844 37.5544 31.4362V8.76973C37.5544 8.02155 36.9479 7.41504 36.1997 7.41504Z" fill="#B6DBFF"/>
<path d="M3.43066 9.72949H35.2408V29.2142H3.43066V9.72949Z" fill="#F3F3FF"/>
<path d="M12.7367 23.8333C12.8543 23.1067 12.3608 22.4224 11.6342 22.3047C10.9077 22.187 10.2233 22.6806 10.1056 23.4071C9.98797 24.1337 10.4816 24.818 11.2081 24.9357C11.9346 25.0534 12.619 24.5598 12.7367 23.8333Z" fill="#2A93FC"/>
<path fill-rule="evenodd" clip-rule="evenodd" d="M13.8359 19.0446C13.8359 18.3086 14.4326 17.7119 15.1686 17.7119C15.9046 17.7119 16.5012 18.3086 16.5012 19.0446C16.5012 19.7807 15.9046 20.3773 15.1686 20.3773C14.4326 20.3773 13.8359 19.7807 13.8359 19.0446Z" fill="#F23353"/>
<path d="M28.1825 24.5664C28.7029 24.0459 28.7029 23.2021 28.1825 22.6817C27.662 22.1613 26.8182 22.1613 26.2978 22.6817C25.7774 23.2021 25.7774 24.0459 26.2978 24.5664C26.8182 25.0868 27.662 25.0868 28.1825 24.5664Z" fill="#FDC72E"/>
<path fill-rule="evenodd" clip-rule="evenodd" d="M24.8343 19.0446C24.8343 18.3086 24.2376 17.7119 23.5016 17.7119C22.7656 17.7119 22.1689 18.3086 22.1689 19.0446C22.1689 19.7807 22.7656 20.3773 23.5016 20.3773C24.2376 20.3773 24.8343 19.7807 24.8343 19.0446Z" fill="#2DD62D"/>
<path fill-rule="evenodd" clip-rule="evenodd" d="M10.0928 23.624C10.0928 23.0203 10.4942 22.5106 11.0446 22.3467C11.595 22.5106 11.9964 23.0203 11.9964 23.624C11.9964 24.2277 11.595 24.7375 11.0446 24.9014C10.4942 24.7375 10.0928 24.2277 10.0928 23.624Z" fill="#4EB1FC"/>
<path fill-rule="evenodd" clip-rule="evenodd" d="M13.8359 19.0449C13.8359 18.4413 14.2373 17.9314 14.7877 17.7676C15.3381 17.9315 15.7395 18.4413 15.7395 19.0449C15.7395 19.6485 15.3381 20.1584 14.7877 20.3223C14.2373 20.1584 13.8359 19.6486 13.8359 19.0449Z" fill="#FF5471"/>
<path fill-rule="evenodd" clip-rule="evenodd" d="M26.8639 22.3467C26.3135 22.5106 25.9121 23.0203 25.9121 23.624C25.9121 24.2277 26.3135 24.7375 26.8639 24.9014C27.4143 24.7375 27.8157 24.2277 27.8157 23.624C27.8157 23.0203 27.4143 22.5106 26.8639 22.3467Z" fill="#FCDB35"/>
<path fill-rule="evenodd" clip-rule="evenodd" d="M23.1207 17.7676C22.5704 17.9315 22.1689 18.4413 22.1689 19.0449C22.1689 19.6485 22.5704 20.1584 23.1207 20.3223C23.6712 20.1584 24.0726 19.6486 24.0726 19.0449C24.0726 18.4413 23.6712 17.9314 23.1207 17.7676Z" fill="#43F043"/>
<path d="M31.0518 11.5625H33.4068V13.9176H31.0518V11.5625Z" fill="#4EB1FC"/>
<path d="M31.7734 1.91895H34.5962V4.74176H31.7734V1.91895Z" fill="#FCDB35"/>
<path d="M35.2402 6.08398H38.8854V9.72914H35.2402V6.08398Z" fill="#FF5471"/>
<path d="M32.7471 11.5625H33.4068V13.9176H32.7471V11.5625Z" fill="#2A93FC"/>
<path d="M38.0352 6.08398H38.8857V9.72914H38.0352V6.08398Z" fill="#F23353"/>
<path d="M33.9365 1.91895H34.5962V4.74176H33.9365V1.91895Z" fill="#FDC72E"/>
<path fill-rule="evenodd" clip-rule="evenodd" d="M22.7246 2.99328L23.8704 2.22484L25.6824 4.0368L24.9139 5.18266L25.6768 7.02414L27.0303 7.29102V9.85352L25.6768 10.1203L24.9139 11.9619L25.6824 13.1077L23.8704 14.9196L22.7246 14.1512L20.8831 14.9141L20.6162 16.2676H18.0537L17.7868 14.9141L15.9454 14.1512L14.7996 14.9196L12.9875 13.1077L13.756 11.9619L12.9931 10.1203L11.6396 9.85352V7.29102L12.9931 7.02414L13.756 5.18266L12.9875 4.0368L14.7996 2.22484L15.9454 2.99328L17.7868 2.23031L18.0537 0.876953H20.6162L20.8831 2.23031L22.7246 2.99328Z" fill="#F9AC00"/>
<path fill-rule="evenodd" clip-rule="evenodd" d="M22.7246 2.99328L23.3754 2.5568L24.8555 4.0368L24.0871 5.18266L24.85 7.02414L26.2035 7.29102V9.85352L24.85 10.1204L24.0871 11.9619L24.8555 13.1077L23.3755 14.5877L22.7246 14.1512L22.7245 14.1512L22.0546 13.702L20.1388 14.4957L19.7894 16.2676H18.0537L17.7868 14.9141L15.9454 14.1512L15.9454 14.1512L15.26 13.8673L14.3545 14.4745L12.9876 13.1077L13.756 11.9619L12.9931 10.1204L11.6396 9.85352V7.29102L12.9931 7.02414L13.756 5.18266L12.9876 4.0368L14.3545 2.67L15.26 3.27719L15.9454 2.99328L17.7868 2.23031L18.0537 0.876953H19.7894L20.1388 2.64883L22.0546 3.44258L22.7246 2.99328Z" fill="#FCDB35"/>
<path d="M20.141 12.2138C22.1549 11.3804 23.1119 9.07224 22.2786 7.05832C21.4452 5.04439 19.137 4.08737 17.1231 4.92074C15.1092 5.75411 14.1521 8.0623 14.9855 10.0762C15.8189 12.0901 18.1271 13.0472 20.141 12.2138Z" fill="#F9AC00"/>
<path d="M23.2269 9.20319C23.5754 7.05168 22.1137 5.02506 19.9622 4.67659C17.8107 4.32812 15.7841 5.78977 15.4356 7.94127C15.0872 10.0928 16.5488 12.1194 18.7003 12.4679C20.8518 12.8163 22.8785 11.3547 23.2269 9.20319Z" fill="#F3F3FF"/>
<path fill-rule="evenodd" clip-rule="evenodd" d="M38.3387 9.17648H35.7874V6.62492H38.3387V9.17648ZM37.0087 31.4296V10.2704H35.7875V29.2079C35.7875 29.2797 35.7734 29.3509 35.7459 29.4173C35.7184 29.4836 35.6781 29.544 35.6273 29.5947C35.5765 29.6455 35.5161 29.6858 35.4497 29.7132C35.3833 29.7407 35.3122 29.7548 35.2403 29.7547H3.43023C3.35841 29.7547 3.28728 29.7406 3.22091 29.7132C3.15454 29.6857 3.09424 29.6455 3.04345 29.5947C2.99267 29.5439 2.95239 29.4836 2.92493 29.4172C2.89748 29.3508 2.88338 29.2797 2.88344 29.2079V9.72367C2.88337 9.65183 2.89746 9.58067 2.92491 9.51428C2.95235 9.44788 2.99262 9.38755 3.04341 9.33673C3.09419 9.28591 3.15449 9.2456 3.22087 9.2181C3.28724 9.19061 3.35839 9.17646 3.43023 9.17648H11.0817V7.95563H2.47C2.02492 7.95563 1.66227 8.31789 1.66227 8.76336V31.4296C1.66227 31.8751 2.02492 32.2373 2.47 32.2373H36.2005C36.646 32.2373 37.0087 31.8751 37.0087 31.4296ZM22.8054 35.8384H15.8657V33.3312H22.8054V35.8384ZM27.0437 38.5938H11.6273C11.6319 37.6764 12.3794 36.932 13.2982 36.932H25.3724C26.2912 36.932 27.0391 37.6764 27.0436 38.5938H27.0437ZM12.1756 7.73195L13.2842 7.51391C13.3726 7.49633 13.4553 7.45728 13.525 7.40021C13.5948 7.34314 13.6494 7.2698 13.6841 7.18664L14.3646 5.54594C14.399 5.46265 14.4124 5.37215 14.4034 5.28247C14.3944 5.1928 14.3633 5.10674 14.313 5.03195L13.6834 4.0932L14.8624 2.91414L15.8012 3.54375C15.876 3.59409 15.9622 3.62508 16.052 3.63395C16.1417 3.64283 16.2323 3.62931 16.3155 3.59461L17.9559 2.91414C18.0392 2.87992 18.1128 2.82554 18.17 2.75588C18.2272 2.68622 18.2662 2.60345 18.2835 2.515L18.5023 1.40602H20.1686L20.3873 2.515C20.4048 2.60332 20.4439 2.68596 20.5009 2.75559C20.558 2.82522 20.6314 2.87968 20.7146 2.91414L22.3553 3.59461C22.4385 3.62932 22.529 3.64284 22.6187 3.63396C22.7084 3.62509 22.7945 3.59409 22.8693 3.54375L23.8084 2.91414L24.9875 4.0932L24.3575 5.03195C24.3072 5.10676 24.2763 5.19286 24.2674 5.28255C24.2585 5.37224 24.272 5.46273 24.3066 5.54594L24.9875 7.18664C25.0219 7.26988 25.0763 7.34333 25.1459 7.40043C25.2156 7.45753 25.2983 7.49652 25.3866 7.51391L26.4948 7.73195V9.39937L25.3866 9.6182C25.2982 9.6353 25.2153 9.67418 25.1456 9.73132C25.076 9.78846 25.0216 9.86206 24.9875 9.94547L24.3066 11.5862C24.272 11.6694 24.2586 11.7599 24.2674 11.8496C24.2763 11.9392 24.3073 12.0253 24.3575 12.1002L24.9875 13.0393L23.8084 14.218L22.8693 13.5876C22.7944 13.5376 22.7083 13.5068 22.6187 13.4979C22.529 13.4891 22.4386 13.5024 22.3553 13.5367L20.7146 14.2172C20.6316 14.2519 20.5583 14.3064 20.5012 14.376C20.4442 14.4456 20.4051 14.5281 20.3873 14.6163L20.1686 15.7249H18.5023L18.2835 14.6163C18.266 14.528 18.2269 14.4453 18.1698 14.3756C18.1126 14.306 18.0391 14.2516 17.9559 14.2172L16.3155 13.5367C16.2322 13.5024 16.1417 13.489 16.052 13.4979C15.9623 13.5068 15.8762 13.5376 15.8012 13.5876L14.8624 14.218L13.6834 13.0393L14.313 12.1002C14.3633 12.0254 14.3943 11.9393 14.4033 11.8496C14.4123 11.76 14.399 11.6695 14.3646 11.5862L13.6841 9.94547C13.6497 9.86216 13.5951 9.78868 13.5253 9.73158C13.4555 9.67448 13.3727 9.63553 13.2842 9.6182L12.1756 9.39937V7.73195ZM34.6935 9.17648H27.5888V7.95563H34.6935V9.17648ZM12.2114 23.6181C12.2114 24.0508 11.8593 24.4033 11.4255 24.4033C10.9916 24.4033 10.6396 24.0508 10.6396 23.6181C10.6396 23.1855 10.9921 22.8323 11.4255 22.8323C11.8588 22.8323 12.2114 23.1844 12.2114 23.6181ZM15.1686 19.8242C14.7359 19.8242 14.3827 19.471 14.3827 19.0383C14.3827 18.6055 14.7359 18.2524 15.1686 18.2524C15.6013 18.2524 15.9545 18.6045 15.9545 19.0383C15.9545 19.472 15.602 19.8242 15.1686 19.8242ZM22.7161 19.0383C22.7161 18.6045 23.0686 18.2524 23.502 18.2524C23.9355 18.2524 24.2879 18.6045 24.2879 19.0383C24.2879 19.472 23.9358 19.8242 23.502 19.8242C23.0683 19.8242 22.7161 19.471 22.7161 19.0383ZM26.4591 23.618C26.4591 23.1843 26.8123 22.8322 27.245 22.8322C27.6777 22.8322 28.0309 23.1843 28.0309 23.618C28.0309 24.0518 27.6787 24.4032 27.245 24.4032C26.8113 24.4032 26.4591 24.0507 26.4591 23.618ZM25.4466 24.1648C25.6819 24.9353 26.3989 25.4968 27.245 25.4968C28.2817 25.4968 29.1248 24.6541 29.1248 23.618C29.1248 22.582 28.2817 21.7382 27.245 21.7382C26.3988 21.7382 25.6819 22.3 25.4466 23.0709H22.7755C22.6305 23.0709 22.4914 23.1286 22.3889 23.2312C22.2863 23.3338 22.2287 23.4729 22.2287 23.618V28.6609H21.0287V22.2842L22.6178 20.6959C22.8896 20.842 23.1934 20.9184 23.502 20.918C24.5384 20.918 25.3819 20.0741 25.3819 19.0382C25.3819 18.0023 24.5384 17.1584 23.502 17.1584C22.4657 17.1584 21.6226 18.0015 21.6226 19.0382C21.6226 19.3576 21.7031 19.6584 21.8444 19.9224L20.0959 21.6712C20.045 21.7219 20.0045 21.7821 19.9769 21.8485C19.9492 21.9148 19.9349 21.986 19.9348 22.0579V28.6609H18.7358V22.0579C18.7358 21.9133 18.6778 21.7743 18.5757 21.6712L16.8262 19.9224C16.9722 19.6506 17.0486 19.3468 17.0484 19.0382C17.0484 18.0016 16.2052 17.1584 15.1685 17.1584C14.1318 17.1584 13.2887 18.0015 13.2887 19.0382C13.2887 20.0749 14.1326 20.918 15.1685 20.918C15.4878 20.918 15.7895 20.8375 16.0527 20.6959L17.6418 22.2842V28.6609H16.442V23.618C16.442 23.4729 16.3843 23.3338 16.2817 23.2312C16.1791 23.1286 16.04 23.0709 15.8949 23.0709H13.224C12.989 22.3 12.2716 21.7382 11.4255 21.7382C10.3888 21.7382 9.54602 22.5813 9.54602 23.618C9.54602 24.6548 10.3888 25.4968 11.4255 25.4968C12.2716 25.4968 12.989 24.9353 13.224 24.1648H15.3482V28.661H3.97703V10.2704H11.2816C11.3514 10.3281 11.4343 10.3675 11.523 10.3852L12.7857 10.6345L13.2421 11.7337L12.5248 12.8031C12.4543 12.9084 12.4225 13.0348 12.4348 13.1609C12.4471 13.287 12.5027 13.4049 12.5922 13.4945L14.4069 15.3096C14.4966 15.399 14.6146 15.4545 14.7406 15.4667C14.8666 15.4789 14.993 15.4471 15.0983 15.3766L16.167 14.6593L17.2673 15.1157L17.5154 16.3784C17.5401 16.5026 17.6072 16.6143 17.7051 16.6947C17.803 16.775 17.9257 16.819 18.0523 16.819H20.6187C20.7453 16.819 20.868 16.775 20.9658 16.6947C21.0637 16.6143 21.1306 16.5025 21.1553 16.3784L21.4038 15.1157L22.5037 14.6593L23.5724 15.3766C23.6776 15.4471 23.804 15.479 23.9301 15.4667C24.0562 15.4545 24.1741 15.399 24.2638 15.3096L26.0788 13.4945C26.1682 13.4048 26.2237 13.2869 26.2359 13.1608C26.2481 13.0348 26.2163 12.9084 26.1459 12.8031L25.4289 11.7337L25.8849 10.6345L27.1476 10.3852C27.2365 10.3674 27.3196 10.3279 27.3897 10.2704H34.6935V28.6611H23.3223V24.1649H25.4466V24.1648ZM38.8858 5.53133H35.2402C35.1684 5.53129 35.0973 5.5454 35.0309 5.57287C34.9646 5.60033 34.9043 5.64061 34.8535 5.69139C34.8027 5.74217 34.7624 5.80247 34.735 5.86883C34.7075 5.93519 34.6934 6.00631 34.6934 6.07812V6.86172H27.3896C27.3196 6.80398 27.2364 6.76428 27.1475 6.74609L25.8848 6.49758L25.4288 5.39766L26.1458 4.3282C26.2162 4.22311 26.2481 4.09683 26.2358 3.9709C26.2236 3.84496 26.1681 3.72716 26.0787 3.63758L24.2638 1.8225C24.1741 1.73297 24.0562 1.67734 23.9301 1.66511C23.804 1.65288 23.6775 1.68482 23.5723 1.75547L22.5037 2.47211L21.4037 2.01648L21.1552 0.753828C21.1306 0.629568 21.0637 0.517685 20.9658 0.43722C20.868 0.356756 20.7453 0.312682 20.6186 0.3125H18.0523C17.9255 0.312669 17.8028 0.356731 17.7049 0.437192C17.607 0.517653 17.54 0.629542 17.5153 0.753828L17.2672 2.01648L16.1669 2.47211L15.0982 1.75547C14.993 1.68484 14.8666 1.65291 14.7405 1.66513C14.6144 1.67736 14.4964 1.73298 14.4068 1.8225L12.5921 3.63758C12.5026 3.72708 12.447 3.84486 12.4347 3.97081C12.4224 4.09677 12.4542 4.22309 12.5247 4.3282L13.242 5.39766L12.7856 6.49758L11.523 6.74609C11.4342 6.76411 11.3512 6.80383 11.2816 6.86172H2.47C1.42164 6.86172 0.568359 7.715 0.568359 8.76336V31.4296C0.568359 32.4784 1.42164 33.3312 2.47 33.3312H14.7716V35.8384H13.2981C11.7738 35.8384 10.5334 37.0781 10.5334 38.6024V39.1405C10.5333 39.2124 10.5474 39.2835 10.5749 39.3499C10.6023 39.4162 10.6426 39.4765 10.6934 39.5273C10.7442 39.5781 10.8045 39.6183 10.8708 39.6458C10.9372 39.6732 11.0083 39.6873 11.0802 39.6873H27.5903C27.6621 39.6873 27.7333 39.6732 27.7996 39.6458C27.866 39.6183 27.9263 39.5781 27.9771 39.5273C28.0279 39.4765 28.0682 39.4162 28.0956 39.3499C28.1231 39.2835 28.1372 39.2124 28.1371 39.1405V38.6024C28.1371 37.0781 26.8967 35.8384 25.3723 35.8384H23.8988V33.3312H36.2005C37.2488 33.3312 38.1021 32.4784 38.1021 31.4296V10.2704H38.8857C39.1873 10.2704 39.4325 10.0248 39.4325 9.72359V6.07805C39.4325 5.93303 39.3749 5.79395 39.2723 5.6914C39.1698 5.58886 39.0307 5.53125 38.8857 5.53125L38.8858 5.53133ZM32.3211 2.4593H34.0499V4.18852H32.3211V2.4593ZM31.7739 5.28203C31.7021 5.28209 31.631 5.26799 31.5646 5.24053C31.4982 5.21308 31.4379 5.1728 31.3871 5.12202C31.3363 5.07123 31.2961 5.01093 31.2686 4.94456C31.2411 4.87819 31.227 4.80706 31.2271 4.73523V1.9125C31.2271 1.84069 31.2412 1.76958 31.2687 1.70324C31.2962 1.63689 31.3365 1.57661 31.3872 1.52583C31.438 1.47506 31.4983 1.43478 31.5646 1.4073C31.631 1.37983 31.7021 1.36569 31.7739 1.3657H34.5966C34.6684 1.36569 34.7396 1.37983 34.8059 1.4073C34.8722 1.43478 34.9325 1.47506 34.9833 1.52583C35.0341 1.57661 35.0744 1.63689 35.1018 1.70324C35.1293 1.76958 35.1434 1.84069 35.1434 1.9125V4.73523C35.1435 4.80706 35.1294 4.8782 35.102 4.94457C35.0745 5.01094 35.0342 5.07125 34.9834 5.12204C34.9327 5.17283 34.8723 5.2131 34.806 5.24056C34.7396 5.26801 34.6685 5.2821 34.5966 5.28203H31.7739ZM31.5988 12.1039H32.8599V13.365H31.5988V12.1039ZM31.0521 14.4586C30.9803 14.4587 30.9092 14.4446 30.8428 14.4171C30.7764 14.3897 30.7161 14.3494 30.6653 14.2986C30.6145 14.2478 30.5743 14.1875 30.5468 14.1212C30.5194 14.0548 30.5053 13.9837 30.5053 13.9119V11.5572C30.5052 11.4853 30.5193 11.4142 30.5468 11.3478C30.5742 11.2814 30.6145 11.2211 30.6653 11.1703C30.7161 11.1195 30.7764 11.0792 30.8428 11.0517C30.9091 11.0242 30.9803 11.01 31.0521 11.0101H33.4068C33.4786 11.0101 33.5498 11.0242 33.6161 11.0517C33.6825 11.0792 33.7428 11.1195 33.7936 11.1703C33.8444 11.2211 33.8846 11.2814 33.9121 11.3478C33.9396 11.4142 33.9537 11.4853 33.9536 11.5572V13.9119C33.9537 13.9837 33.9396 14.0548 33.9121 14.1212C33.8846 14.1875 33.8444 14.2478 33.7936 14.2986C33.7428 14.3494 33.6825 14.3897 33.6161 14.4171C33.5497 14.4446 33.4786 14.4587 33.4068 14.4586H31.0521ZM19.3356 5.16117C21.2132 5.16117 22.7405 6.68812 22.7405 8.5657C22.7405 10.4433 21.2132 11.971 19.3356 11.971C17.458 11.971 15.9304 10.4437 15.9304 8.5657C15.9304 6.68773 17.4577 5.16117 19.3356 5.16117ZM19.3356 13.0649C16.8545 13.0649 14.8364 11.0469 14.8364 8.5657C14.8364 6.08453 16.8545 4.06727 19.3356 4.06727C21.8168 4.06727 23.8341 6.08531 23.8341 8.5657C23.8341 11.0461 21.8161 13.0649 19.3356 13.0649Z" fill="black"/>
</svg>
