<svg width="25" height="25" viewBox="0 0 25 25" fill="none" xmlns="http://www.w3.org/2000/svg">
<path d="M22.3958 11L12.8984 3.32207C12.6411 3.11407 12.3155 3 11.9792 3C11.6428 3 11.3172 3.11407 11.0599 3.32207L1.5625 11" stroke="currentColor" stroke-width="1.5" stroke-linecap="round" stroke-linejoin="round"/>
<path d="M20.8333 10V16.5C20.8333 18.8456 20.8333 20.0184 20.1876 20.8263C20.0214 21.0343 19.8274 21.2205 19.6107 21.3801C18.7692 22 17.5475 22 15.1042 22V17.5C15.1042 16.0858 15.1042 15.3787 14.6466 14.9393C14.1889 14.5 13.4523 14.5 11.9792 14.5C10.506 14.5 9.76946 14.5 9.31181 14.9393C8.85417 15.3787 8.85417 16.0858 8.85417 17.5V22C6.41085 22 5.18921 22 4.34763 21.3801C4.13096 21.2205 3.93702 21.0343 3.77077 20.8263C3.125 20.0184 3.125 18.8456 3.125 16.5V10" stroke="currentColor" stroke-width="1.5" stroke-linecap="round" stroke-linejoin="round"/>
</svg>
