<svg width="40" height="40" viewBox="0 0 40 40" fill="none" xmlns="http://www.w3.org/2000/svg">
<path d="M39.0063 32.2438C39.1238 32.3584 39.217 32.4955 39.2803 32.6469C39.3437 32.7983 39.3759 32.9609 39.375 33.125C39.374 33.4562 39.242 33.7736 39.0078 34.0078C38.7736 34.242 38.4562 34.374 38.125 34.375H1.87502C1.71089 34.3759 1.54827 34.3437 1.39686 34.2803C1.24545 34.217 1.10836 34.1238 0.993767 34.0063C0.876266 33.8917 0.783056 33.7546 0.719701 33.6032C0.656346 33.4518 0.624144 33.2891 0.625017 33.125C0.626007 32.7938 0.75802 32.4764 0.992227 32.2422C1.22643 32.008 1.5438 31.876 1.87502 31.875H38.125C38.2891 31.8741 38.4518 31.9063 38.6032 31.9697C38.7546 32.0331 38.8917 32.1263 39.0063 32.2438Z" fill="#966857"/>
<path d="M1.875 33.125H38.125C38.3434 33.1254 38.5579 33.1834 38.7467 33.2931C38.9356 33.4028 39.0921 33.5604 39.2006 33.75C39.31 33.5605 39.3678 33.3456 39.3681 33.1267C39.3684 32.9079 39.3113 32.6928 39.2024 32.503C39.0935 32.3132 38.9366 32.1553 38.7476 32.045C38.5585 31.9348 38.3438 31.8762 38.125 31.875H1.875C1.54378 31.876 1.22642 32.008 0.992209 32.2422C0.758003 32.4764 0.625989 32.7938 0.625 33.125C0.625982 33.3452 0.686213 33.5611 0.799375 33.75C0.908498 33.561 1.06521 33.4038 1.25392 33.2942C1.44262 33.1845 1.65675 33.1262 1.875 33.125Z" fill="#966857"/>
<path d="M35 13.275L20 5L5 13.275L1.875 15V11.875L6.875 9.11875L11.875 6.35625L20 1.875L38.125 11.875V15L35 13.275Z" fill="#FF936B"/>
<path d="M20 3.125L5 11.4L1.875 13.125V15L5 13.275L20 5L35 13.275L38.125 15V13.125L35 11.4L20 3.125Z" fill="#FF7045"/>
<path d="M35 13.275V31.875H16.25V15.625H7.5V31.875H5V13.275L20 5L35 13.275ZM32.5 21.875V16.875C32.499 16.5438 32.367 16.2264 32.1328 15.9922C31.8986 15.758 31.5812 15.626 31.25 15.625H20C19.6688 15.626 19.3514 15.758 19.1172 15.9922C18.883 16.2264 18.751 16.5438 18.75 16.875V21.875C18.751 22.2062 18.883 22.5236 19.1172 22.7578C19.3514 22.992 19.6688 23.124 20 23.125H31.25C31.5812 23.124 31.8986 22.992 32.1328 22.7578C32.367 22.5236 32.499 22.2062 32.5 21.875Z" fill="#F7F7F7"/>
<path d="M20 5L5 13.275V15.775L20 7.5L35 15.775V13.275L20 5Z" fill="#CFCFCF"/>
<path d="M32.5 19.375V21.875C32.499 22.2062 32.367 22.5236 32.1328 22.7578C31.8986 22.992 31.5812 23.124 31.25 23.125H26.875V19.375H32.5Z" fill="#A3D4FF"/>
<path d="M32.5 16.875V19.375H26.875V15.625H31.25C31.5812 15.626 31.8986 15.758 32.1328 15.9922C32.367 16.2264 32.499 16.5438 32.5 16.875Z" fill="#65B1FC"/>
<path d="M26.875 19.375V23.125H24.375V15.625H26.875V19.375Z" fill="#B2876D"/>
<path d="M26.875 19.375V23.125H25.625V15.625H26.875V19.375Z" fill="#966857"/>
<path d="M24.375 19.375V23.125H20C19.6688 23.124 19.3514 22.992 19.1172 22.7578C18.883 22.5236 18.751 22.2062 18.75 21.875V19.375H24.375Z" fill="#65B1FC"/>
<path d="M24.375 15.625V19.375H18.75V16.875C18.751 16.5438 18.883 16.2264 19.1172 15.9922C19.3514 15.758 19.6688 15.626 20 15.625H24.375Z" fill="#A3D4FF"/>
<path d="M7.5 15.625H16.25V31.875H7.5V15.625Z" fill="#F2D1A5"/>
<path d="M7.5 15.625V17.5H11.875C12.538 17.5 13.1739 17.7634 13.6428 18.2322C14.1116 18.7011 14.375 19.337 14.375 20V31.875H16.25V15.625H7.5Z" fill="#F2BB88"/>
<path d="M12.5 0.625V3.125H6.25V0.625H12.5Z" fill="#FF936B"/>
<path d="M12.5 1.875V3.125H6.25V1.875H12.5Z" fill="#FF7045"/>
<path d="M11.875 3.125V6.35625L6.875 9.11875V3.125H11.875Z" fill="#B2876D"/>
<path d="M6.875 3.125H11.875V5H6.875V3.125Z" fill="#966857"/>
<path d="M15 39.375H36.875C37.538 39.375 38.1739 39.1116 38.6428 38.6428C39.1116 38.1739 39.375 37.538 39.375 36.875V29.375C39.375 28.712 39.1116 28.0761 38.6428 27.6072C38.1739 27.1384 37.538 26.875 36.875 26.875H15L10.625 33.125L15 39.375Z" fill="#FF936B"/>
<path d="M36.875 26.875H35C35.663 26.875 36.2989 27.1384 36.7678 27.6072C37.2366 28.0761 37.5 28.712 37.5 29.375V36.875C37.5 37.538 37.2366 38.1739 36.7678 38.6428C36.2989 39.1116 35.663 39.375 35 39.375H36.875C37.538 39.375 38.1739 39.1116 38.6428 38.6428C39.1116 38.1739 39.375 37.538 39.375 36.875V29.375C39.375 28.712 39.1116 28.0761 38.6428 27.6072C38.1739 27.1384 37.538 26.875 36.875 26.875Z" fill="#FF7045"/>
<path d="M21.875 31.875C21.875 31.3777 21.6775 30.9008 21.3258 30.5492C20.9742 30.1975 20.4973 30 20 30H17.5C17.3342 30 17.1753 30.0659 17.0581 30.1831C16.9408 30.3003 16.875 30.4592 16.875 30.625V36.25H18.125V33.75H19.5769L20.6694 36.4825L21.8306 36.0175L20.84 33.5419C21.15 33.3872 21.411 33.1495 21.5938 32.8551C21.7765 32.5608 21.8739 32.2215 21.875 31.875ZM18.125 32.5V31.25H20C20.1658 31.25 20.3247 31.3159 20.4419 31.4331C20.5592 31.5503 20.625 31.7092 20.625 31.875C20.625 32.0408 20.5592 32.1997 20.4419 32.3169C20.3247 32.4342 20.1658 32.5 20 32.5H18.125ZM22.5 31.25V35C22.5 35.3315 22.6317 35.6495 22.8661 35.8839C23.1005 36.1183 23.4185 36.25 23.75 36.25H26.875V35H23.75V33.75H26.25V32.5H23.75V31.25H26.875V30H23.75C23.4185 30 23.1005 30.1317 22.8661 30.3661C22.6317 30.6005 22.5 30.9185 22.5 31.25ZM31.25 33.4456L29.28 30.2938C29.2081 30.1787 29.1006 30.0901 28.9739 30.0415C28.8472 29.9929 28.7082 29.9868 28.5777 30.0242C28.4472 30.0616 28.3325 30.1405 28.2508 30.2489C28.1692 30.3573 28.125 30.4893 28.125 30.625V36.25H29.375V32.8044L31.345 35.9563C31.4169 36.0713 31.5244 36.1599 31.6511 36.2085C31.7778 36.2571 31.9168 36.2632 32.0473 36.2258C32.1778 36.1884 32.2925 36.1095 32.3742 36.0011C32.4558 35.8927 32.5 35.7607 32.5 35.625V30H31.25V33.4456ZM37.5 30H33.75V31.25H35V36.25H36.25V31.25H37.5V30Z" fill="#F2F6FC"/>
<path d="M8.125 16.25H15.625V25H16.875V15.625C16.875 15.4592 16.8092 15.3003 16.6919 15.1831C16.5747 15.0658 16.4158 15 16.25 15H7.5C7.33424 15 7.17527 15.0658 7.05806 15.1831C6.94085 15.3003 6.875 15.4592 6.875 15.625V31.25H5.625V13.645L20 5.71375L34.375 13.645V25H35.625V14.3344L37.8231 15.5469C37.9183 15.5993 38.0254 15.6261 38.1341 15.6245C38.2427 15.623 38.349 15.5931 38.4426 15.5379C38.5362 15.4827 38.6137 15.404 38.6676 15.3097C38.7215 15.2154 38.7499 15.1086 38.75 15V11.875C38.7499 11.7633 38.7199 11.6536 38.6631 11.5575C38.6063 11.4613 38.5247 11.3821 38.4269 11.3281L20.3019 1.32812C20.2095 1.27679 20.1056 1.24985 20 1.24985C19.8944 1.24985 19.7905 1.27679 19.6981 1.32812L12.5 5.29938V3.75C12.6658 3.75 12.8247 3.68415 12.9419 3.56694C13.0592 3.44973 13.125 3.29076 13.125 3.125V0.625C13.125 0.45924 13.0592 0.300269 12.9419 0.183058C12.8247 0.065848 12.6658 0 12.5 0L6.25 0C6.08424 0 5.92527 0.065848 5.80806 0.183058C5.69085 0.300269 5.625 0.45924 5.625 0.625V3.125C5.625 3.29076 5.69085 3.44973 5.80806 3.56694C5.92527 3.68415 6.08424 3.75 6.25 3.75V8.75L1.57313 11.3281C1.47531 11.3821 1.39374 11.4613 1.33691 11.5575C1.28008 11.6536 1.25007 11.7633 1.25 11.875V15C1.25007 15.1086 1.27845 15.2154 1.33236 15.3097C1.38627 15.404 1.46383 15.4827 1.5574 15.5379C1.65097 15.5931 1.75731 15.623 1.86595 15.6245C1.97458 15.6261 2.08174 15.5993 2.17688 15.5469L4.375 14.3344V31.25H1.875C1.37772 31.25 0.900805 31.4475 0.549175 31.7992C0.197544 32.1508 0 32.6277 0 33.125C0 33.6223 0.197544 34.0992 0.549175 34.4508C0.900805 34.8025 1.37772 35 1.875 35H9.375V33.75H1.875C1.70924 33.75 1.55027 33.6842 1.43306 33.5669C1.31585 33.4497 1.25 33.2908 1.25 33.125C1.25 32.9592 1.31585 32.8003 1.43306 32.6831C1.55027 32.5658 1.70924 32.5 1.875 32.5H9.375V31.25H8.125V16.25ZM6.875 1.25H11.875V2.5H6.875V1.25ZM7.5 3.75H11.25V5.98875L7.5 8.05812V3.75ZM2.5 12.2437L20 2.58875L37.5 12.2437V13.9412L20.3019 4.45312C20.2094 4.40213 20.1056 4.37539 20 4.37539C19.8944 4.37539 19.7906 4.40213 19.6981 4.45312L2.5 13.9412V12.2437Z" fill="black"/>
<path d="M19.9997 15C19.5024 15 19.0255 15.1975 18.6738 15.5492C18.3222 15.9008 18.1247 16.3777 18.1247 16.875V21.875C18.1247 22.3723 18.3222 22.8492 18.6738 23.2008C19.0255 23.5525 19.5024 23.75 19.9997 23.75H31.2497C31.7469 23.75 32.2238 23.5525 32.5755 23.2008C32.9271 22.8492 33.1247 22.3723 33.1247 21.875V16.875C33.1247 16.3777 32.9271 15.9008 32.5755 15.5492C32.2238 15.1975 31.7469 15 31.2497 15H19.9997ZM26.2497 22.5H24.9997V16.25H26.2497V22.5ZM19.9997 16.25H23.7497V18.75H19.3747V16.875C19.3747 16.7092 19.4405 16.5503 19.5577 16.4331C19.6749 16.3158 19.8339 16.25 19.9997 16.25ZM19.3747 21.875V20H23.7497V22.5H19.9997C19.8339 22.5 19.6749 22.4342 19.5577 22.3169C19.4405 22.1997 19.3747 22.0408 19.3747 21.875ZM31.2497 22.5H27.4997V20H31.8747V21.875C31.8747 22.0408 31.8088 22.1997 31.6916 22.3169C31.5744 22.4342 31.4154 22.5 31.2497 22.5ZM31.8747 16.875V18.75H27.4997V16.25H31.2497C31.4154 16.25 31.5744 16.3158 31.6916 16.4331C31.8088 16.5503 31.8747 16.7092 31.8747 16.875ZM36.8747 26.25H14.9997C14.8992 26.2501 14.8002 26.2743 14.7111 26.3208C14.622 26.3673 14.5454 26.4345 14.4878 26.5169L10.1128 32.7669C10.0394 32.8719 10 32.9969 10 33.125C10 33.2531 10.0394 33.3781 10.1128 33.4831L14.4878 39.7331C14.5454 39.8155 14.622 39.8827 14.7111 39.9292C14.8002 39.9757 14.8992 39.9999 14.9997 40H36.8747C37.7031 39.999 38.4974 39.6694 39.0833 39.0836C39.6691 38.4978 39.9987 37.7035 39.9997 36.875V29.375C39.9987 28.5465 39.6691 27.7522 39.0833 27.1664C38.4974 26.5806 37.7031 26.251 36.8747 26.25ZM38.7497 36.875C38.7497 37.3723 38.5521 37.8492 38.2005 38.2008C37.8488 38.5525 37.3719 38.75 36.8747 38.75H15.3253L11.3878 33.125L15.3253 27.5H36.8747C37.3719 27.5 37.8488 27.6975 38.2005 28.0492C38.5521 28.4008 38.7497 28.8777 38.7497 29.375V36.875Z" fill="black"/>
<path d="M21.875 31.875C21.875 31.3777 21.6775 30.9008 21.3258 30.5492C20.9742 30.1975 20.4973 30 20 30H17.5C17.3342 30 17.1753 30.0659 17.0581 30.1831C16.9408 30.3003 16.875 30.4592 16.875 30.625V36.25H18.125V33.75H19.5769L20.6694 36.4825L21.8306 36.0175L20.84 33.5419C21.15 33.3872 21.411 33.1495 21.5938 32.8551C21.7765 32.5608 21.8739 32.2215 21.875 31.875ZM18.125 32.5V31.25H20C20.1658 31.25 20.3247 31.3159 20.4419 31.4331C20.5592 31.5503 20.625 31.7092 20.625 31.875C20.625 32.0408 20.5592 32.1997 20.4419 32.3169C20.3247 32.4342 20.1658 32.5 20 32.5H18.125ZM22.5 31.25V35C22.5 35.3315 22.6317 35.6495 22.8661 35.8839C23.1005 36.1183 23.4185 36.25 23.75 36.25H26.875V35H23.75V33.75H26.25V32.5H23.75V31.25H26.875V30H23.75C23.4185 30 23.1005 30.1317 22.8661 30.3661C22.6317 30.6005 22.5 30.9185 22.5 31.25ZM31.25 33.4456L29.28 30.2938C29.2081 30.1787 29.1006 30.0901 28.9739 30.0415C28.8472 29.9929 28.7082 29.9868 28.5777 30.0242C28.4472 30.0616 28.3325 30.1405 28.2508 30.2489C28.1692 30.3573 28.125 30.4893 28.125 30.625V36.25H29.375V32.8044L31.345 35.9563C31.4169 36.0713 31.5244 36.1599 31.6511 36.2085C31.7778 36.2571 31.9168 36.2632 32.0473 36.2258C32.1778 36.1884 32.2925 36.1095 32.3742 36.0011C32.4558 35.8927 32.5 35.7607 32.5 35.625V30H31.25V33.4456ZM33.75 31.25H35V36.25H36.25V31.25H37.5V30H33.75V31.25Z" fill="black"/>
</svg>
