<svg width="26" height="26" viewBox="0 0 26 26" fill="none" xmlns="http://www.w3.org/2000/svg">
<path d="M13.0713 25.8125C15.8095 25.8125 17.9604 25.8126 19.6396 25.5869C21.3605 25.3556 22.7261 24.8716 23.7988 23.7988C24.8716 22.7261 25.3556 21.3605 25.5869 19.6396C25.8126 17.9604 25.8125 15.8095 25.8125 13.0713V12.9287C25.8125 10.1905 25.8126 8.03957 25.5869 6.36035C25.3556 4.63953 24.8716 3.27392 23.7988 2.20117C22.7261 1.12842 21.3605 0.644445 19.6396 0.413086C17.9604 0.187361 15.8095 0.187483 13.0713 0.1875H12.9287C10.1905 0.187483 8.03957 0.187361 6.36035 0.413086C4.63953 0.644445 3.27392 1.12842 2.20117 2.20117C1.12842 3.27392 0.644445 4.63953 0.413086 6.36035C0.187359 8.03957 0.187484 10.1905 0.1875 12.9287L0.1875 13.0713C0.187484 15.8095 0.187359 17.9604 0.413086 19.6396C0.644445 21.3605 1.12843 22.7261 2.20117 23.7988C3.27392 24.8716 4.63953 25.3556 6.36035 25.5869C8.03957 25.8126 10.1905 25.8125 12.9287 25.8125H13.0713ZM6.75098 8.3125C5.88812 8.31239 5.18848 7.61288 5.18848 6.75C5.18848 5.88712 5.88812 5.1876 6.75098 5.1875H6.7627C7.62542 5.18776 8.3252 5.88722 8.3252 6.75C8.3252 7.61278 7.62542 8.31224 6.7627 8.3125H6.75098ZM19.2529 20.5C18.5626 20.5 18.0029 19.9404 18.0029 19.25V14.25C18.0029 12.8695 16.8834 11.7503 15.5029 11.75C14.1222 11.75 13.0029 12.8693 13.0029 14.25L13.0029 19.25C13.0029 19.9402 12.4431 20.4997 11.7529 20.5C11.0626 20.5 10.5029 19.9404 10.5029 19.25L10.5029 10.5C10.5029 9.80964 11.0626 9.25 11.7529 9.25C12.2594 9.25019 12.6954 9.5521 12.8916 9.98535C13.6515 9.51927 14.5462 9.25 15.5029 9.25C18.2641 9.25026 20.5029 11.4887 20.5029 14.25V19.25C20.5029 19.9402 19.9431 20.4997 19.2529 20.5ZM6.75293 20.5C6.06257 20.5 5.50293 19.9404 5.50293 19.25L5.50293 11.125C5.50293 10.4346 6.06257 9.875 6.75293 9.875C7.44306 9.87526 8.00293 10.4348 8.00293 11.125L8.00293 19.25C8.00293 19.9402 7.44306 20.4997 6.75293 20.5Z" fill="#DA8661"/>
</svg>
