<svg width="40" height="27" viewBox="0 0 40 27" fill="none" xmlns="http://www.w3.org/2000/svg">
<path fill-rule="evenodd" clip-rule="evenodd" d="M24.4275 0.834961C24.9162 0.834961 25.3148 1.23363 25.3148 1.72223V22.1218H4.66172C3.68859 22.1218 2.89453 21.3279 2.89453 20.3546V1.72223C2.89453 1.23363 3.29312 0.834961 3.7818 0.834961H24.4275Z" fill="#323E66"/>
<path fill-rule="evenodd" clip-rule="evenodd" d="M25.3148 22.1213H4.66172C3.68836 22.1213 2.89453 21.3274 2.89453 20.3541V17.3633H25.3148V22.1214V22.1213Z" fill="#E37500"/>
<path fill-rule="evenodd" clip-rule="evenodd" d="M37.9495 22.1213H25.3145V7.56348H32.953C33.5113 7.56348 33.992 7.77473 34.3695 8.18613L37.4436 11.5361C37.782 11.9049 37.9496 12.3354 37.9496 12.8359V22.1214L37.9495 22.1213Z" fill="#F9AC00"/>
<path fill-rule="evenodd" clip-rule="evenodd" d="M36.6801 22.1213H25.3145V7.56348H31.6835C32.2418 7.56348 32.7224 7.77473 33.0999 8.18613L36.1741 11.5361C36.5124 11.9049 36.6801 12.3354 36.6801 12.8359V22.1214V22.1213Z" fill="#FDC72E"/>
<path fill-rule="evenodd" clip-rule="evenodd" d="M29.0117 13.1339V9.06348H35.1742L37.4434 11.5364C37.7818 11.9051 37.9495 12.3357 37.9495 12.8361V13.1339H29.0117Z" fill="#E9E9FF"/>
<path fill-rule="evenodd" clip-rule="evenodd" d="M29.0117 13.1339V9.06348H33.9047L36.174 11.5364C36.5123 11.9051 36.68 12.3357 36.68 12.8361V13.1339H29.0118H29.0117Z" fill="#F0F0FF"/>
<path fill-rule="evenodd" clip-rule="evenodd" d="M37.9498 20.4197H2.89453V22.1221H38.0792C38.7715 22.1221 39.3362 21.5575 39.3362 20.8651V18.5732H37.9498V20.4197Z" fill="#7986BF"/>
<path fill-rule="evenodd" clip-rule="evenodd" d="M30.3103 15.8379C30.4139 15.8379 30.5133 15.879 30.5865 15.9523C30.6598 16.0256 30.7009 16.1249 30.7009 16.2285C30.7009 16.3321 30.6598 16.4315 30.5865 16.5047C30.5133 16.578 30.4139 16.6191 30.3103 16.6191H28.6309C28.5273 16.6191 28.4279 16.578 28.3546 16.5047C28.2814 16.4315 28.2402 16.3321 28.2402 16.2285C28.2402 16.1249 28.2814 16.0256 28.3546 15.9523C28.4279 15.879 28.5273 15.8379 28.6309 15.8379H30.3103Z" fill="#E37500"/>
<path d="M2.89453 18.9994H4.70461V20.4196H2.89453V18.9994ZM36.2027 15.7451H37.9498V17.7692H36.2027V15.7451Z" fill="#323E66"/>
<path d="M33.2906 24.2739C34.479 23.0855 34.479 21.1586 33.2906 19.9702C32.1021 18.7818 30.1753 18.7818 28.9868 19.9702C27.7984 21.1586 27.7984 23.0855 28.9868 24.2739C30.1753 25.4624 32.1021 25.4624 33.2906 24.2739Z" fill="#323E66"/>
<path fill-rule="evenodd" clip-rule="evenodd" d="M31.1447 23.6166C31.9683 23.6166 32.64 22.9449 32.64 22.1213C32.64 21.2977 31.9683 20.626 31.1447 20.626C30.3211 20.626 29.6494 21.2977 29.6494 22.1213C29.6494 22.9449 30.3211 23.6166 31.1447 23.6166Z" fill="#FDC72E"/>
<path d="M10.1342 25.0828C11.7718 24.7047 12.7929 23.0706 12.4148 21.433C12.0367 19.7953 10.4026 18.7743 8.76501 19.1523C7.12737 19.5304 6.1063 21.1645 6.48438 22.8021C6.86246 24.4398 8.49652 25.4608 10.1342 25.0828Z" fill="#323E66"/>
<path fill-rule="evenodd" clip-rule="evenodd" d="M9.44355 23.6166C10.2671 23.6166 10.9389 22.9449 10.9389 22.1213C10.9389 21.2977 10.2671 20.626 9.44355 20.626C8.61996 20.626 7.94824 21.2977 7.94824 22.1213C7.94824 22.9449 8.61996 23.6166 9.44355 23.6166Z" fill="#FDC72E"/>
<path d="M12.0723 11.4082H18.028V17.3639H12.0723V11.4082Z" fill="#E6B17C"/>
<path fill-rule="evenodd" clip-rule="evenodd" d="M14.1797 11.4082H15.9209V13.3456L15.0503 12.9087L14.1797 13.3456V11.4082Z" fill="#FDC72E"/>
<path d="M12.0723 5.45215H18.028V11.4079H12.0723V5.45215Z" fill="#BA8047"/>
<path fill-rule="evenodd" clip-rule="evenodd" d="M14.1797 5.45215H15.9209V7.38957L15.0503 6.95262L14.1797 7.38957V5.45215Z" fill="#2DD62D"/>
<path d="M18.0283 11.4082H23.984V17.3639H18.0283V11.4082Z" fill="#DEA368"/>
<path fill-rule="evenodd" clip-rule="evenodd" d="M20.1348 11.4082H21.8761V13.3456L21.0055 12.9087L20.1348 13.3456V11.4082Z" fill="#FB545C"/>
<path d="M18.0283 3.57129H23.984V11.4079H18.0283V3.57129Z" fill="#FDD7AD"/>
<path fill-rule="evenodd" clip-rule="evenodd" d="M20.1348 3.57129H21.8761V5.50871L21.0055 5.07176L20.1348 5.50871V3.57129Z" fill="#5CAEFF"/>
<path d="M6.11621 11.4082H12.0719V17.3639H6.11621V11.4082Z" fill="#FDD7AD"/>
<path fill-rule="evenodd" clip-rule="evenodd" d="M8.22363 11.4082H9.96488V13.3456L9.09426 12.9087L8.22363 13.3456V11.4082Z" fill="#5CAEFF"/>
<path fill-rule="evenodd" clip-rule="evenodd" d="M25.3145 7.56434H32.5891L31.3987 6.37387C31.2352 6.21043 31.0362 6.12793 30.805 6.12793H25.3145V7.56434Z" fill="#E37500"/>
<path fill-rule="evenodd" clip-rule="evenodd" d="M1.86344 9.70336C1.75984 9.70336 1.66048 9.6622 1.58722 9.58895C1.51397 9.51569 1.47281 9.41633 1.47281 9.31273C1.47281 9.20913 1.51397 9.10978 1.58722 9.03652C1.66048 8.96326 1.75984 8.92211 1.86344 8.92211H6.3257C6.4293 8.92211 6.52866 8.96326 6.60192 9.03652C6.67517 9.10978 6.71633 9.20913 6.71633 9.31273C6.71633 9.41633 6.67517 9.51569 6.60192 9.58895C6.52866 9.6622 6.4293 9.70336 6.3257 9.70336H1.86344ZM2.56078 5.18531C2.45718 5.18531 2.35782 5.14416 2.28457 5.0709C2.21131 4.99764 2.17016 4.89829 2.17016 4.79469C2.17016 4.69109 2.21131 4.59173 2.28457 4.51847C2.35782 4.44522 2.45718 4.40406 2.56078 4.40406H5.15445C5.25805 4.40406 5.35741 4.44522 5.43067 4.51847C5.50392 4.59173 5.54508 4.69109 5.54508 4.79469C5.54508 4.89829 5.50392 4.99764 5.43067 5.0709C5.35741 5.14416 5.25805 5.18531 5.15445 5.18531H2.56078ZM1.05469 3.40039C0.951087 3.40039 0.85173 3.35924 0.778474 3.28598C0.705218 3.21272 0.664063 3.11337 0.664062 3.00977C0.664063 2.90617 0.705218 2.80681 0.778474 2.73355C0.85173 2.6603 0.951087 2.61914 1.05469 2.61914H4.40141C4.50501 2.61914 4.60436 2.6603 4.67762 2.73355C4.75088 2.80681 4.79203 2.90617 4.79203 3.00977C4.79203 3.11337 4.75088 3.21272 4.67762 3.28598C4.60436 3.35924 4.50501 3.40039 4.40141 3.40039H1.05469ZM1.41617 7.61164C1.31257 7.61164 1.21321 7.57049 1.13996 7.49723C1.0667 7.42397 1.02555 7.32462 1.02555 7.22101C1.02555 7.11741 1.0667 7.01806 1.13996 6.9448C1.21321 6.87155 1.31257 6.83039 1.41617 6.83039H4.62461C4.72821 6.83039 4.82757 6.87155 4.90082 6.9448C4.97408 7.01806 5.01523 7.11741 5.01523 7.22101C5.01523 7.32462 4.97408 7.42397 4.90082 7.49723C4.82757 7.57049 4.72821 7.61164 4.62461 7.61164H1.41617Z" fill="#FDC72E"/>
<path d="M6.11621 11.4082H6.76949V17.3639H6.11621V11.4082Z" fill="#F2C496"/>
<path d="M12.0723 11.4082H12.7255V17.3639H12.0723V11.4082Z" fill="#DEA368"/>
<path d="M18.0283 11.4082H18.6816V17.3639H18.0283V11.4082Z" fill="#D19458"/>
<path d="M18.0283 3.57129H18.6816V11.4079H18.0283V3.57129Z" fill="#F2C496"/>
<path d="M12.0723 5.45215H12.7255V11.4079H12.0723V5.45215Z" fill="#AB733A"/>
</svg>
