<svg width="40" height="40" viewBox="0 0 40 40" fill="none" xmlns="http://www.w3.org/2000/svg">
<path d="M20 40C31.0457 40 40 31.0457 40 20C40 8.9543 31.0457 0 20 0C8.9543 0 0 8.9543 0 20C0 31.0457 8.9543 40 20 40Z" fill="#E04F5F"/>
<path fill-rule="evenodd" clip-rule="evenodd" d="M21.0606 12.7813C23.3754 10.2778 27.1705 10.2693 29.4932 12.7813C31.8123 15.2895 31.8124 19.3932 29.4933 21.9013C26.5326 25.1035 23.5722 28.3054 20.6115 31.5075C20.448 31.6843 20.2406 31.775 19.9997 31.775C19.7587 31.775 19.5514 31.6843 19.3879 31.5075L10.5058 21.9015C8.18686 19.3934 8.18686 15.2895 10.5058 12.7816C12.825 10.2734 16.6195 10.2734 18.9385 12.7814L19.9995 13.9289L21.0606 12.7813Z" fill="white"/>
</svg>
