<svg width="20" height="20" viewBox="0 0 20 20" fill="none" xmlns="http://www.w3.org/2000/svg">
<path d="M16.25 8.52273C16.25 13.6932 10 18.125 10 18.125C10 18.125 3.75 13.6932 3.75 8.52273C3.75 6.75964 4.40848 5.06876 5.58058 3.82207C6.75268 2.57538 8.3424 1.875 10 1.875C11.6576 1.875 13.2473 2.57538 14.4194 3.82207C15.5915 5.06876 16.25 6.75964 16.25 8.52273Z" stroke="currentColor" stroke-linecap="round" stroke-linejoin="round"/>
<path d="M10 10.7386C11.1506 10.7386 12.0833 9.74654 12.0833 8.52273C12.0833 7.29891 11.1506 6.30682 10 6.30682C8.84941 6.30682 7.91667 7.29891 7.91667 8.52273C7.91667 9.74654 8.84941 10.7386 10 10.7386Z" stroke="currentColor" stroke-linecap="round" stroke-linejoin="round"/>
</svg>
