<svg width="14" height="18" viewBox="0 0 14 18" fill="none" xmlns="http://www.w3.org/2000/svg">
<path fill-rule="evenodd" clip-rule="evenodd" d="M6.38467 17.4453C6.38467 17.4453 0.333008 12.3487 0.333008 7.33366C0.333008 5.56555 1.03539 3.86986 2.28563 2.61961C3.53587 1.36937 5.23156 0.666992 6.99967 0.666992C8.76778 0.666992 10.4635 1.36937 11.7137 2.61961C12.964 3.86986 13.6663 5.56555 13.6663 7.33366C13.6663 12.3487 7.61467 17.4453 7.61467 17.4453C7.27801 17.7553 6.72384 17.752 6.38467 17.4453ZM6.99967 10.2503C7.3827 10.2503 7.76197 10.1749 8.11583 10.0283C8.4697 9.88173 8.79123 9.66689 9.06207 9.39605C9.33291 9.12522 9.54775 8.80369 9.69432 8.44982C9.8409 8.09595 9.91634 7.71668 9.91634 7.33366C9.91634 6.95064 9.8409 6.57137 9.69432 6.2175C9.54775 5.86363 9.33291 5.5421 9.06207 5.27126C8.79123 5.00043 8.4697 4.78559 8.11583 4.63901C7.76197 4.49243 7.3827 4.41699 6.99967 4.41699C6.22613 4.41699 5.48426 4.72428 4.93728 5.27126C4.3903 5.81825 4.08301 6.56011 4.08301 7.33366C4.08301 8.10721 4.3903 8.84907 4.93728 9.39605C5.48426 9.94304 6.22613 10.2503 6.99967 10.2503Z" fill="black"/>
</svg>
