<svg width="24" height="24" viewBox="0 0 24 24" fill="currentColor" xmlns="http://www.w3.org/2000/svg">
<g clip-path="url(#clip0_34178_577639)">
<path d="M20.25 8.82C19.83 8.82 19.5 8.49 19.5 8.07V2.25C19.5 1.83 19.17 1.5 18.75 1.5H5.25C4.83 1.5 4.5 1.83 4.5 2.25V5.25C4.5 5.67 4.17 6 3.75 6C3.33 6 3 5.67 3 5.25V2.25C3 1.005 4.005 0 5.25 0H18.75C19.995 0 21 1.005 21 2.25V8.07C21 8.49 20.67 8.82 20.25 8.82Z" fill="currentColor"/>
<path d="M21.75 24H2.25C1.005 24 0 22.995 0 21.75V6.75C0 5.505 1.005 4.5 2.25 4.5H9.375C9.615 4.5 9.84 4.605 9.975 4.8L12 7.5H21.75C22.995 7.5 24 8.505 24 9.75V21.75C24 22.995 22.995 24 21.75 24ZM2.25 6C1.83 6 1.5 6.33 1.5 6.75V21.75C1.5 22.17 1.83 22.5 2.25 22.5H21.75C22.17 22.5 22.5 22.17 22.5 21.75V9.75C22.5 9.33 22.17 9 21.75 9H11.625C11.5082 9.00245 11.3925 8.97641 11.2879 8.92415C11.1834 8.87188 11.0932 8.79495 11.025 8.7L9 6H2.25Z" fill="currentColor"/>
<path d="M8.25 19.5H5.25C4.83 19.5 4.5 19.17 4.5 18.75C4.5 18.33 4.83 18 5.25 18H8.25C8.67 18 9 18.33 9 18.75C9 19.17 8.67 19.5 8.25 19.5Z" fill="currentColor"/>
</g>
<defs>
<clipPath id="clip0_34178_577639">
<rect width="24" height="24" fill="currentColor"/>
</clipPath>
</defs>
</svg>
