<svg width="20" height="20" viewBox="0 0 20 20" fill="none" xmlns="http://www.w3.org/2000/svg">
<path fill-rule="evenodd" clip-rule="evenodd" d="M0.833344 5.83333C0.833344 3.07191 3.07192 0.833333 5.83334 0.833333H14.1667C16.9281 0.833333 19.1667 3.07191 19.1667 5.83333V14.1667C19.1667 16.9281 16.9281 19.1667 14.1667 19.1667H5.83334C3.07192 19.1667 0.833344 16.9281 0.833344 14.1667V5.83333ZM5.83334 2.5C3.99239 2.5 2.50001 3.99238 2.50001 5.83333V14.1667C2.50001 16.0076 3.99239 17.5 5.83334 17.5H14.1667C16.0076 17.5 17.5 16.0076 17.5 14.1667V5.83333C17.5 3.99238 16.0076 2.5 14.1667 2.5H5.83334Z" fill="currentColor"/>
<path fill-rule="evenodd" clip-rule="evenodd" d="M9.16666 15V5H10.8333V15H9.16666Z" fill="currentColor"/>
<path fill-rule="evenodd" clip-rule="evenodd" d="M15 10.8333H5V9.16667H15V10.8333Z" fill="currentColor"/>
</svg>
