<svg width="20" height="20" viewBox="0 0 20 20" fill="none" xmlns="http://www.w3.org/2000/svg">
<path d="M7.49999 10H12.5M9.99999 7.5V12.5M3.33333 5V4.16667C3.33333 3.94565 3.42113 3.73369 3.57741 3.57741C3.73369 3.42113 3.94565 3.33333 4.16666 3.33333H4.99999M9.16666 3.33333H10.8333M15 3.33333H15.8333C16.0543 3.33333 16.2663 3.42113 16.4226 3.57741C16.5789 3.73369 16.6667 3.94565 16.6667 4.16667V5M16.6667 9.16667V10.8333M16.6667 15V15.8333C16.6667 16.0543 16.5789 16.2663 16.4226 16.4226C16.2663 16.5789 16.0543 16.6667 15.8333 16.6667H15M10.8333 16.6667H9.16666M4.99999 16.6667H4.16666C3.94565 16.6667 3.73369 16.5789 3.57741 16.4226C3.42113 16.2663 3.33333 16.0543 3.33333 15.8333V15M3.33333 10.8333V9.16667" stroke="currentColor" stroke-linecap="round" stroke-linejoin="round"/>
</svg>
