<svg width="24" height="24" viewBox="0 0 24 24" fill="none" xmlns="http://www.w3.org/2000/svg">
<g clip-path="url(#clip0_3788_22937)">
<path d="M19.3593 19.6875V23.2969L17.4843 22.5938L15.6093 23.2969L13.7343 22.5938L11.8593 23.2969L9.98435 22.5938L8.10935 23.2969L6.23436 22.5938L4.35937 23.2969V2.48437M2.57812 0.703125H17.5311C18.538 0.703125 19.3593 1.52442 19.3593 2.53138V9.14064" stroke="currentColor" stroke-miterlimit="22.9256" stroke-linecap="round" stroke-linejoin="round"/>
<path d="M7.17185 6.3282H12.8437M15.6562 6.3282H16.5468M7.17185 9.14073H12.8437M7.17185 11.9532H12.8437M7.17185 14.7657H12.375M7.17185 3.51566H12.8437M15.6562 3.51566H16.5468M7.17185 17.5781H12.8437M2.53124 0.703125C3.53671 0.703125 4.35936 1.52578 4.35936 2.53124V8.0156H0.703125V2.53124C0.703125 1.52578 1.52578 0.703125 2.53124 0.703125Z" stroke="currentColor" stroke-miterlimit="22.9256" stroke-linecap="round" stroke-linejoin="round"/>
<path d="M21.7254 18.209C23.8214 16.113 23.8214 12.7147 21.7253 10.6187C19.6292 8.52271 16.2309 8.52277 14.135 10.6188C12.039 12.7149 12.039 16.1132 14.1351 18.2092C16.2311 20.3052 19.6295 20.3051 21.7254 18.209Z" stroke="currentColor" stroke-miterlimit="22.9256" stroke-linecap="round" stroke-linejoin="round"/>
<path d="M18.7272 12.2285H17.8749C17.3142 12.2285 16.8574 12.6843 16.8574 13.2495C16.8574 13.6445 17.0666 13.983 17.4199 14.1596L18.5072 14.7033" stroke="currentColor" stroke-miterlimit="22.9256" stroke-linecap="round" stroke-linejoin="round"/>
<path d="M17.1328 16.6H17.9851C18.5459 16.6 19.0026 16.1441 19.0026 15.5789C19.0026 15.184 18.7935 14.8455 18.4402 14.6689L17.3528 14.1252M17.9302 12.228V11.623M17.9302 17.2049V16.6" stroke="currentColor" stroke-miterlimit="22.9256" stroke-linecap="round" stroke-linejoin="round"/>
</g>
<defs>
<clipPath id="clip0_3788_22937">
<rect width="24" height="24" fill="white"/>
</clipPath>
</defs>
</svg>
