<svg width="30" height="40" viewBox="0 0 30 40" fill="none" xmlns="http://www.w3.org/2000/svg">
<path d="M26.0699 6.70943C25.1375 2.6939 20.8331 2.22806 20.8331 2.22806C20.8331 2.22806 18.1095 -0.500282 14.4487 0.570264C10.8641 1.6178 8.53886 6.92212 5.97559 8.23074C6.67235 8.49897 7.40483 8.52833 8.18493 8.23074C7.6556 8.7791 7.34769 9.51396 7.17628 10.3639L24.4955 13.8549C24.4955 13.8549 27.0016 10.7242 26.0699 6.70943Z" fill="#604533"/>
<path d="M24.4962 13.8545C24.5922 13.8735 24.6827 13.8981 24.7763 13.9354C25.7365 14.3211 26.1675 15.5845 25.7389 16.7582C25.3675 17.7748 24.4724 18.4009 23.6161 18.2978H23.6153C22.9438 16.873 23.0545 15.2637 24.4962 13.8545Z" fill="#F7B6AD"/>
<path d="M20.513 5.08594C20.3575 7.03339 19.8099 8.61263 18.6791 9.70381C17.3588 13.5035 19.3373 16.844 22.774 19.9815C22.8763 19.8403 22.9676 19.7022 23.0477 19.5681C23.2525 19.2268 23.443 18.7967 23.6152 18.2975C24.0223 17.1191 24.3302 15.5549 24.496 13.8543C23.8723 10.2458 21.0662 8.49835 20.513 5.08594Z" fill="#FEC4B9"/>
<path d="M24.0474 26.8831C23.372 26.4133 22.5785 26.0808 21.8103 25.8459C21.1311 29.31 22.6858 31.8278 27.0162 33.1699C27.756 33.9298 28.5296 33.6645 29.0374 32.8255C28.2407 30.9836 25.8417 28.1306 24.0474 26.8831ZM18.1836 29.2718C18.0299 25.9288 15.8115 25.5258 12.9943 25.9753C11.2421 26.83 9.11529 28.3536 7.34401 30.8804C5.97008 33.5404 6.46924 35.5069 8.6439 36.9053C10.1922 36.2109 11.3223 35.3761 11.3223 35.3761V39.6829H24.9814V38.0116L18.1836 29.2718Z" fill="#F69552"/>
<path d="M29.303 33.7431C29.2816 33.4852 29.188 33.1733 29.0372 32.825C28.4333 32.7702 27.6468 32.9162 27.0159 33.1694C26.7969 32.429 26.4525 31.5695 25.9089 30.7624C24.5257 28.7078 22.8155 27.1627 21.81 25.8454C21.391 25.2962 21.095 24.7875 20.995 24.2971C20.9156 23.9051 20.8966 23.4908 20.9141 23.071C22.4343 19.6953 22.9493 17.2273 20.357 17.5651L11.9624 19.0999H11.9616C10.016 20.222 10.28 21.6364 11.7767 23.2139C11.822 23.3107 11.8759 23.4043 11.9402 23.4932C11.9402 23.4932 11.6664 24.5844 12.2179 25.3795C12.3322 25.5438 12.6139 25.7494 12.9941 25.9747C13.963 26.5485 15.5685 27.2461 16.6446 27.6913C16.9949 27.8363 17.3121 28.0512 17.5766 28.3228C17.8412 28.5945 18.0476 28.9172 18.1833 29.2713C18.9967 31.3846 20.776 35.808 21.7894 36.7953C22.5615 37.5476 23.8178 37.9229 24.9812 38.011C25.8414 38.0769 26.6501 37.9848 27.1746 37.7714C28.4087 37.2698 29.434 35.32 29.303 33.7431Z" fill="#FEC4B9"/>
<path d="M12.6756 9.70441C12.6756 9.70441 9.64255 9.23144 8.06808 9.84885C7.76334 9.96868 7.46416 10.1464 7.17688 10.3639C5.97777 11.2702 4.99373 12.8629 4.76042 13.7731C4.47076 14.9024 4.95088 20.0591 4.68106 21.4741C4.41203 22.889 1.3607 28.2862 0.832966 30.8352C0.306026 33.3842 1.10596 37.3791 4.31363 37.7814C5.77224 37.9648 7.35385 37.4838 8.64422 36.9053C9.07593 34.346 8.57676 32.3795 7.34433 30.8804C7.9038 27.7148 8.61327 23.5279 8.55296 22.9612C8.54026 22.843 8.51804 22.7335 8.48788 22.6303L11.6916 17.9633L11.7011 17.9625L13.5256 14.0175C13.921 12.5689 13.5638 11.1324 12.6756 9.70441Z" fill="#FEC4B9"/>
<path d="M20.0397 11.0038H19.1985L18.6787 9.70392C18.5896 9.48108 18.4358 9.29007 18.237 9.15554C18.0383 9.02101 17.8038 8.94915 17.5638 8.94922H13.7903C13.299 8.94922 12.8578 9.2484 12.6753 9.70392L12.1555 11.0038H10.1763C8.66609 11.0038 7.44238 12.2283 7.44238 13.7377V13.8639C7.78283 13.6123 8.20026 13.3608 8.63911 13.2282C9.71521 12.9021 11.8928 12.9037 12.6094 13.0346C13.326 13.1663 13.5252 14.0171 13.5252 14.0171L19.0454 14.4575C18.8092 15.6909 19.2099 16.8357 20.3572 17.5652C20.3572 17.5652 21.3761 18.1794 21.3976 19.3666C21.4142 20.2753 20.9714 21.7029 20.9143 23.0711C21.9951 22.706 22.7736 21.6839 22.7736 20.48V13.7377C22.7736 12.2283 21.5499 11.0038 20.0397 11.0038ZM11.9626 19.1H11.9618C11.9618 19.1 11.2167 20.2308 11.6825 21.3276C11.6825 21.3276 11.3825 22.3695 11.7769 23.2139H10.1763C9.56364 23.215 8.96857 23.0092 8.48753 22.6298C8.2812 21.9283 7.72728 21.5545 7.65586 21.0101C7.57332 20.3872 7.78124 19.7301 8.4923 19.1611C9.20335 18.5921 11.6912 17.9628 11.6912 17.9628L11.7008 17.962C12.2389 18.2578 12.3286 18.6395 11.9626 19.1Z" fill="#524956"/>
<path d="M20.3573 17.5655C20.3573 18.7638 19.8716 19.8478 19.0868 20.6327C18.3019 21.4175 17.2179 21.9032 16.0204 21.9032C14.822 21.9032 13.738 21.4175 12.9531 20.6327C12.5222 20.2017 12.1818 19.6804 11.9628 19.1002C11.8238 18.7347 11.7356 18.3518 11.7009 17.9622C11.689 17.8313 11.6826 17.6996 11.6826 17.5655C11.6826 17.1115 11.7525 16.6735 11.8826 16.2616C12.081 15.6315 12.4199 15.0625 12.8611 14.5935C12.892 14.5609 12.9222 14.53 12.9531 14.499C13.1293 14.3229 13.3206 14.1618 13.5253 14.0173C14.2316 13.5206 15.0911 13.2285 16.0204 13.2285C17.1964 13.2285 18.2638 13.6975 19.0455 14.4578C19.855 15.2458 20.3573 16.3473 20.3573 17.5655Z" fill="#5D5560"/>
<path d="M16.02 20.3837C17.5768 20.3837 18.8388 19.1217 18.8388 17.5649C18.8388 16.0081 17.5768 14.7461 16.02 14.7461C14.4632 14.7461 13.2012 16.0081 13.2012 17.5649C13.2012 19.1217 14.4632 20.3837 16.02 20.3837Z" fill="#655F68"/>
<path d="M29.0377 32.8253C28.4338 32.7705 27.6474 32.9165 27.0165 33.1697C26.7974 32.4293 26.453 31.5698 25.9094 30.7628C24.5262 28.7082 22.816 27.1631 21.8105 25.8457C22.5787 26.0806 23.3723 26.4131 24.0477 26.8829C25.842 28.1304 28.241 30.9834 29.0377 32.8253Z" fill="#DD864A"/>
<path d="M29.3031 33.7431C29.4341 35.32 28.4088 37.2698 27.1747 37.7713C26.6502 37.9848 25.8415 38.0769 24.9813 38.011C24.59 37.9808 24.1893 37.9189 23.7988 37.8205C27.9405 38.0396 27.3858 35.1247 27.3858 35.1247C27.3858 35.1247 27.343 34.2804 27.016 33.1693C27.6469 32.9162 28.4334 32.7702 29.0373 32.8249C29.1881 33.1733 29.2817 33.4852 29.3031 33.7431Z" fill="#F7B6AD"/>
<path d="M24.9812 38.0107V39.682C20.3546 39.4987 20.5379 34.8911 20.5426 34.7927C21.0021 35.7101 21.441 36.4553 21.7894 36.7949C22.302 37.2941 23.0282 37.6274 23.7987 37.8203C24.1892 37.9187 24.5899 37.9806 24.9812 38.0107ZM8.5008 29.417C8.59047 30.582 8.44366 31.5168 8.20082 32.2501C7.97624 31.7549 7.68896 31.2994 7.34375 30.8796C7.71594 30.3487 8.10321 29.8622 8.5008 29.417Z" fill="#DD864A"/>
<path d="M7.34374 30.8799C7.68894 31.2997 7.97622 31.7552 8.20081 32.2504C7.67387 33.8423 6.693 34.4875 6.693 34.4875C6.693 34.4875 6.98821 32.8892 7.34374 30.8799ZM8.79361 35.3819C8.7825 35.8644 8.7333 36.3723 8.64363 36.9048C7.35326 37.4833 5.77164 37.9642 4.31304 37.7809C3.3901 37.665 2.66714 37.2524 2.11719 36.6619H2.11798C4.53762 37.6587 7.01837 36.5858 8.79361 35.3819Z" fill="#F7B6AD"/>
<path d="M11.3219 33.2188V35.3757C11.3219 35.3757 10.1918 36.2106 8.64355 36.9049C8.73323 36.3725 8.78243 35.8646 8.79354 35.3821C10.3172 34.3488 11.3219 33.2188 11.3219 33.2188Z" fill="#DD864A"/>
<path d="M16.02 20.7021C17.7493 20.7021 19.1561 19.2952 19.1561 17.5659C19.1561 15.8366 17.7493 14.4297 16.02 14.4297C14.2907 14.4297 12.8838 15.8366 12.8838 17.5659C12.8838 19.2952 14.2907 20.7021 16.02 20.7021ZM16.02 15.0646C17.3992 15.0646 18.5213 16.1868 18.5213 17.566C18.5213 18.9452 17.3992 20.0673 16.02 20.0673C14.6408 20.0673 13.5187 18.9452 13.5187 17.566C13.5187 16.1867 14.6408 15.0646 16.02 15.0646Z" fill="#3A322B"/>
<path d="M29.6196 33.717C29.4736 31.9559 26.3599 28.1045 24.2284 26.6221C23.6239 26.2018 22.8756 25.8502 22.0054 25.5748C21.646 25.0927 21.3903 24.6458 21.3066 24.2342C21.2455 23.9338 21.2231 23.6165 21.2263 23.2917C21.7794 23.0586 22.2513 22.6674 22.583 22.1672C22.9148 21.6671 23.0915 21.0801 23.0911 20.4799V20.0809C23.1713 19.9672 23.2475 19.8509 23.3196 19.732C23.5031 19.4262 23.6758 19.0533 23.8354 18.6242C24.7599 18.6055 25.658 17.9042 26.0366 16.8674C26.5064 15.5807 26.0433 14.186 25.0042 13.6899C25.6424 12.7331 27.1606 10.0033 26.3792 6.63697C25.9765 4.90204 24.8939 3.53398 23.2484 2.68079C22.2262 2.15084 21.2924 1.97458 20.9781 1.92705C20.4838 1.46923 17.8501 -0.755508 14.3597 0.264883C12.2052 0.894672 10.495 2.98394 8.98606 4.8272C7.89385 6.16145 6.86227 7.42167 5.83156 7.94797C5.77696 7.97588 5.73161 8.01899 5.701 8.07211C5.67038 8.12524 5.6558 8.18609 5.65902 8.24732C5.66225 8.30855 5.68313 8.36753 5.71916 8.41714C5.75518 8.46676 5.80481 8.50488 5.86203 8.52689C6.37604 8.72449 6.89575 8.79592 7.41547 8.7414C7.1851 9.14994 7.01186 9.62902 6.89028 10.1846C5.68538 11.1386 4.70332 12.715 4.45215 13.694C4.29486 14.3072 4.34438 15.8917 4.39668 17.5692C4.44548 19.1317 4.49587 20.7475 4.36906 21.4143C4.25962 21.9897 3.60024 23.393 2.90204 24.8785C1.92974 26.9473 0.827609 29.2924 0.521841 30.7704C0.181076 32.4175 0.357093 34.8062 1.51858 36.4297C2.19773 37.3791 3.15035 37.9554 4.27335 38.0963C4.5027 38.125 4.73387 38.1384 4.96647 38.1384C7.40214 38.1382 9.94439 36.668 11.0043 35.9774V39.6824C11.0043 39.7666 11.0377 39.8473 11.0973 39.9069C11.1568 39.9664 11.2375 39.9998 11.3217 39.9998H24.9811C25.0653 39.9998 25.146 39.9664 25.2055 39.9069C25.2651 39.8473 25.2985 39.7666 25.2985 39.6824V38.3459C25.3689 38.3479 25.4391 38.3496 25.5084 38.3496C26.2121 38.3496 26.849 38.2469 27.2947 38.0655C28.6544 37.5125 29.7625 35.4399 29.6196 33.717ZM23.866 27.1434C25.5539 28.3172 27.6303 30.7779 28.5342 32.5041C28.1141 32.5291 27.6548 32.6177 27.2215 32.7585C26.9942 32.0716 26.6611 31.3106 26.1729 30.5854C25.3118 29.3065 24.3326 28.2296 23.4687 27.2795C23.2515 27.0417 23.0359 26.8024 22.8219 26.5617C23.2097 26.7363 23.5596 26.9303 23.866 27.1434ZM22.4564 20.4799C22.4564 20.8993 22.3472 21.3116 22.1395 21.676C21.9317 22.0404 21.6327 22.3444 21.2717 22.558C21.3245 22.0566 21.4149 21.553 21.5004 21.0789C21.6152 20.4423 21.7237 19.841 21.7151 19.3612C21.6958 18.2974 20.995 17.6435 20.6705 17.3974C20.6282 16.1943 20.1343 15.0749 19.2668 14.2302C18.3929 13.3794 17.2398 12.9109 16.02 12.9109C15.1843 12.9109 14.3827 13.1306 13.6797 13.541C13.5186 13.2245 13.2115 12.8223 12.6666 12.7227C11.9292 12.5877 9.68266 12.5801 8.54728 12.9245C8.29 13.0026 8.04129 13.1167 7.80965 13.2473C8.03701 12.1494 9.01161 11.3215 10.176 11.3215H12.1558C12.2193 11.3215 12.2813 11.3025 12.3338 11.2669C12.3863 11.2313 12.427 11.1808 12.4505 11.1218L12.97 9.8221C13.035 9.65781 13.1481 9.51693 13.2944 9.41785C13.4407 9.31877 13.6135 9.26609 13.7902 9.26667H17.564C17.9274 9.26667 18.2493 9.48467 18.3842 9.8221L18.9036 11.1218C18.9272 11.1808 18.9678 11.2313 19.0204 11.2669C19.0729 11.3025 19.1349 11.3215 19.1984 11.3215H20.0397C21.3722 11.3215 22.4562 12.4055 22.4562 13.738V20.4799H22.4564ZM8.86345 23.2357C9.26944 23.4299 9.71377 23.5312 10.176 23.5312H11.5862C11.5915 23.5402 11.598 23.5487 11.6035 23.5576C11.5431 23.9071 11.4497 24.8286 11.9571 25.5604C12.034 25.6713 12.1709 25.7984 12.3662 25.9409C11.0675 26.6405 9.41689 27.7964 7.88297 29.6497C8.33254 27.0634 8.79591 24.2416 8.86345 23.2357ZM11.3542 21.3599C11.3456 21.3798 11.3391 21.4006 11.3347 21.4219C11.2761 21.7088 11.1933 22.2989 11.3345 22.8963H10.1759C9.65894 22.8963 9.1708 22.7354 8.75655 22.4334C8.63688 22.0913 8.45118 21.8237 8.2923 21.5952C8.13367 21.367 7.99669 21.17 7.97027 20.969C7.89258 20.3785 8.13494 19.8536 8.69068 19.4091C9.10843 19.075 10.3815 18.6493 11.4338 18.36C11.4747 18.6003 11.5347 18.8369 11.6131 19.0676C11.4169 19.4274 10.9903 20.3845 11.3542 21.3599ZM12.0002 17.5655C12.0002 17.1533 12.0624 16.7509 12.1813 16.3681L12.1817 16.367C12.3725 15.7532 12.7101 15.1905 13.1777 14.723C13.9369 13.9638 14.9464 13.5457 16.02 13.5457C17.0734 13.5457 18.0692 13.9503 18.8239 14.685C19.6079 15.4484 20.0397 16.4714 20.0397 17.5654C20.0397 18.6391 19.6216 19.6486 18.8624 20.4078C18.1032 21.167 17.0936 21.5851 16.02 21.5851C14.9464 21.5851 13.9368 21.167 13.1777 20.4078C12.4184 19.6487 12.0002 18.6392 12.0002 17.5655ZM23.0912 18.7754V13.738C23.0912 12.0555 21.7224 10.6866 20.0399 10.6866H19.4135L19.0512 9.78012C19.8075 8.98781 20.3223 7.95369 20.6079 6.64673C21.0131 7.71347 21.6084 8.63561 22.1899 9.53633C23.0141 10.8132 23.8655 12.1337 24.1752 13.8692C23.9771 15.8633 23.584 17.6249 23.0912 18.7754ZM25.4404 16.6495C25.1851 17.3489 24.6398 17.8501 24.0566 17.9656C24.3678 16.9415 24.6136 15.6826 24.7698 14.2837C25.4903 14.6579 25.7922 15.6858 25.4404 16.6495ZM8.44991 8.05558C8.41014 7.99536 8.35103 7.95049 8.28232 7.92839C8.21362 7.90629 8.13943 7.90827 8.072 7.93401C7.63093 8.10217 7.19914 8.15962 6.76608 8.10637C7.67799 7.42738 8.55704 6.35358 9.47744 5.22923C10.9988 3.37066 12.5721 1.44867 14.5379 0.874039C17.9682 -0.128179 20.5833 2.42629 20.6089 2.45192C20.66 2.50304 20.7271 2.53523 20.799 2.54318C20.8093 2.5443 21.8472 2.66468 22.9752 3.25416C24.4607 4.03052 25.3979 5.21693 25.7608 6.78037C26.4152 9.59926 25.2867 11.9937 24.6453 13.0613C24.2399 11.5433 23.471 10.3502 22.7233 9.192C21.8833 7.89076 21.0898 6.66157 20.826 5.03496C20.8003 4.8764 20.6597 4.76316 20.4999 4.76863C20.4223 4.77178 20.3486 4.80323 20.2927 4.85702C20.2368 4.91082 20.2025 4.98324 20.1963 5.06059C20.0521 6.86608 19.5721 8.21874 18.7346 9.18239C18.4519 8.83869 18.0278 8.63188 17.5641 8.63188H13.7903C13.2522 8.63188 12.7675 8.91051 12.4952 9.35849C11.7443 9.25993 9.34841 9.00566 7.95162 9.55332C7.86488 9.58728 7.77862 9.62664 7.69267 9.66902C7.86861 9.17097 8.10692 8.76878 8.41348 8.45103C8.46362 8.39908 8.49455 8.33159 8.50117 8.2597C8.50779 8.18781 8.48971 8.11581 8.44991 8.05558ZM4.35255 37.4665C3.39636 37.3465 2.61667 36.8734 2.03505 36.0605C0.985136 34.5931 0.830863 32.4108 1.14361 30.8991C1.43423 29.4946 2.51929 27.1857 3.47667 25.1485C4.22344 23.5595 4.86846 22.1873 4.99282 21.5329C5.13265 20.7974 5.08344 19.2197 5.03123 17.5494C4.98258 15.99 4.93219 14.3775 5.0671 13.8518C5.35263 12.7388 6.78679 10.6917 8.18319 10.1442C9.33357 9.6933 11.3715 9.86567 12.2288 9.9659L11.9408 10.6866H10.176C8.50411 10.6866 7.14272 12.0382 7.12542 13.7059C6.68958 14.0444 6.40294 14.3556 6.38111 14.3796C6.33962 14.425 6.31223 14.4816 6.30229 14.5423C6.29235 14.603 6.30028 14.6653 6.32513 14.7216C6.34997 14.7779 6.39066 14.8258 6.44222 14.8594C6.49378 14.893 6.554 14.9108 6.61554 14.9108C6.65963 14.9109 6.70324 14.9017 6.7436 14.8839C6.78395 14.8662 6.82015 14.8402 6.84988 14.8076C6.85877 14.7979 7.75449 13.8284 8.73155 13.532C9.76361 13.2189 11.8843 13.2248 12.5523 13.347C12.8791 13.4068 13.0612 13.703 13.1489 13.9027C13.0016 14.0181 12.8613 14.1421 12.7287 14.2741C12.7222 14.2806 12.7162 14.2874 12.7098 14.294C12.0961 14.3797 9.15731 14.8056 8.17842 15.2334C7.07725 15.7147 6.29453 16.6642 6.26176 16.7044C6.2238 16.7509 6.19982 16.8072 6.19259 16.8668C6.18536 16.9264 6.19518 16.9868 6.22092 17.041C6.24665 17.0953 6.28725 17.1411 6.33798 17.1732C6.38871 17.2052 6.44751 17.2223 6.50753 17.2223C6.55459 17.2223 6.60107 17.2119 6.6436 17.1918C6.68614 17.1717 6.72366 17.1424 6.75346 17.1059C6.76061 17.0973 7.47539 16.2336 8.43269 15.815C9.12874 15.5108 11.0351 15.1888 12.1205 15.0225C11.9206 15.327 11.7575 15.6542 11.6348 15.9971C10.9843 16.1682 8.68148 16.7922 7.92503 17.247C7.03304 17.7831 6.55324 18.5546 6.53324 18.5872C6.50369 18.6352 6.4875 18.6903 6.48633 18.7468C6.48516 18.8032 6.49905 18.8589 6.52658 18.9082C6.55411 18.9574 6.59428 18.9985 6.64295 19.027C6.69162 19.0556 6.74703 19.0707 6.80346 19.0707C6.8578 19.0707 6.91124 19.0568 6.95867 19.0303C7.00609 19.0038 7.04591 18.9655 7.07431 18.9192C7.07844 18.9125 7.49158 18.2483 8.25207 17.7911C8.79512 17.4646 10.4408 16.9784 11.4451 16.7049C11.3922 16.9887 11.3654 17.2766 11.3652 17.5653C11.3652 17.6168 11.3673 17.668 11.369 17.7193C10.562 17.9371 8.90281 18.4261 8.29405 18.913C7.37079 19.6516 7.26604 20.4836 7.34072 21.0516C7.3873 21.4053 7.58228 21.6859 7.77084 21.9571C7.97709 22.2539 8.19041 22.5607 8.23644 22.9941C8.30508 23.6403 7.16438 30.1869 6.38088 34.4296C6.36559 34.5124 6.38381 34.5978 6.43154 34.6672C6.47927 34.7365 6.55259 34.7841 6.63538 34.7994C6.71817 34.8147 6.80364 34.7965 6.87299 34.7487C6.94235 34.701 6.9899 34.6277 7.00519 34.5449C7.06645 34.2131 7.27255 33.0931 7.52657 31.6698C8.39428 33.0273 8.6664 34.6757 8.35754 36.6803C7.13724 37.2109 5.68181 37.6328 4.35255 37.4665ZM24.6637 39.365H11.6393V33.2185C11.6393 33.1343 11.6059 33.0536 11.5464 32.994C11.4868 32.9345 11.4061 32.9011 11.3219 32.9011C11.2377 32.9011 11.157 32.9345 11.0974 32.994C11.0379 33.0536 11.0045 33.1343 11.0045 33.2185V35.211C10.7211 35.4071 9.99208 35.8899 9.04105 36.3623C9.29516 34.1817 8.85884 32.3376 7.74053 30.8705C9.50276 28.434 11.5303 27.0672 12.9849 26.3341C13.7607 26.7787 14.9428 27.3304 16.5235 27.9848C17.1474 28.243 17.6446 28.7535 17.8876 29.3852C18.8187 31.8055 20.535 36.0163 21.5679 37.0228C22.3409 37.7759 23.5248 38.1716 24.6637 38.3008V39.365ZM27.0556 37.4774C25.9147 37.9416 23.2345 37.7602 22.0111 36.568C21.3199 35.8945 20.0329 33.1934 18.4802 29.1571C18.175 28.3637 17.5503 27.7226 16.7663 27.398C13.9095 26.2154 12.6783 25.4865 12.4788 25.1986C12.2571 24.8789 12.1952 24.4913 12.1906 24.1743C13.1806 24.9442 14.9522 25.6787 15.1901 25.7756C15.2675 25.8048 15.3533 25.8026 15.4291 25.7695C15.5049 25.7363 15.5648 25.6749 15.596 25.5983C15.6273 25.5216 15.6273 25.4359 15.5962 25.3592C15.5651 25.2825 15.5053 25.221 15.4296 25.1877C14.6907 24.8866 12.67 23.962 12.1975 23.3072C11.9359 22.9447 11.8801 22.4842 11.8916 22.107C12.9206 23.0774 15.0079 23.9812 15.2908 24.101C15.3684 24.1338 15.4557 24.1345 15.5338 24.103C15.6118 24.0714 15.6741 24.0101 15.707 23.9327C15.7399 23.8552 15.7406 23.7678 15.709 23.6897C15.6775 23.6117 15.6162 23.5494 15.5387 23.5165C14.3216 23.0003 12.2778 21.9159 11.975 21.2035C11.7695 20.7198 11.8433 20.2226 11.9644 19.851C12.1725 20.2193 12.4297 20.5577 12.7288 20.8568C13.608 21.736 14.7768 22.2201 16.0201 22.2201C17.2633 22.2201 18.4323 21.736 19.3114 20.8568C20.0322 20.136 20.4869 19.2202 20.6275 18.2285C20.8473 18.4874 21.0712 18.8724 21.0803 19.3727C21.0879 19.7899 20.9847 20.3611 20.8756 20.966C20.6813 22.0426 20.4612 23.2628 20.6845 24.3606C20.8943 25.3921 21.8231 26.4134 22.9989 27.7064C23.8482 28.6405 24.8109 29.6992 25.6462 30.9398C26.9355 32.8549 27.0681 35.1181 27.0693 35.1408C27.0736 35.2249 27.1111 35.3038 27.1736 35.3602C27.2046 35.3881 27.2407 35.4097 27.28 35.4237C27.3193 35.4376 27.3609 35.4437 27.4026 35.4416C27.4442 35.4395 27.485 35.4292 27.5227 35.4113C27.5603 35.3934 27.5941 35.3682 27.622 35.3373C27.6499 35.3063 27.6715 35.2702 27.6855 35.2309C27.6994 35.1916 27.7055 35.15 27.7034 35.1083C27.7007 35.0546 27.6595 34.3392 27.4025 33.3671C27.8782 33.2112 28.3972 33.1251 28.823 33.132C28.915 33.3728 28.972 33.5881 28.987 33.7694C29.1053 35.1962 28.1486 37.0329 27.0556 37.4774Z" fill="#3A322B"/>
</svg>
