<svg width="38" height="38" viewBox="0 0 38 38" fill="none" xmlns="http://www.w3.org/2000/svg">
<path d="M37.8238 19.0003C37.8238 25.8826 34.3826 29.7062 34.0591 30.265C32.2944 32.6179 30.2944 34.4121 27.0297 36.0003C26.3532 36.3238 25.4415 36.6768 24.765 36.9121C24.4121 37.0297 23.5591 37.265 23.0885 37.3532C23.0591 37.3826 22.5297 37.4709 22.5003 37.4709C22.5003 37.4709 20.9415 37.7944 19.0003 37.7944C16.9709 37.7944 14.9709 37.4709 13.265 36.9121C12.9709 36.765 11.0003 36.3238 8.32382 34.4709L8.2944 34.4415C6.14735 32.9709 5.11793 31.6179 4.79441 31.2944C3.0297 29.265 2.05911 27.1473 2.05911 27.1473C0.764993 24.5003 0.176758 21.765 0.176758 19.0003C0.176758 8.58852 8.61794 0.176758 19.0003 0.176758C29.3826 0.176758 37.8238 8.58852 37.8238 19.0003Z" fill="#886C60"/>
<path d="M10.0293 18.2061C9.70577 19.7061 9.70577 21.2355 10.0293 22.7649H4.5293C4.85283 21.2649 4.85283 19.7355 4.5293 18.2061H10.0293Z" fill="#F1B97C"/>
<path d="M10.2941 21.3234L10.0588 26.1175L9.82347 31.6469H5.05877C4.97053 31.5292 4.85288 31.4116 4.76465 31.3234L4.73524 31.2939L4.26465 21.2939L4.70582 21.441L7.26465 22.2351L9.82347 21.441L10.2941 21.3234Z" fill="#FCFCFC"/>
<path d="M8.41217 31.6769L7.67687 23.1475H6.91217L6.14746 31.6769H8.41217Z" fill="#E34D30"/>
<path d="M11.4709 15.6765C11.4709 16.7354 11.1768 17.5883 10.7944 17.5883H10.7356C10.1768 19.5295 8.85323 20.8824 7.32382 20.8824C5.7944 20.8824 4.47088 19.5001 3.91205 17.5883H3.85323C3.47088 17.5883 3.17676 16.7354 3.17676 15.6765C3.17676 14.6177 3.47088 13.7648 3.85323 13.7648C4.35323 11.7059 5.73558 10.2354 7.32382 10.2354C8.91205 10.2354 10.3826 11.0883 10.8826 13.1471L10.7944 13.7648C11.1473 13.7648 11.4709 14.6177 11.4709 15.6765Z" fill="#F8CFA3"/>
<path d="M7.29452 22.2646L6.14746 23.2646L7.29452 24.4999L8.41217 23.2646L7.29452 22.2646Z" fill="#D54232"/>
<path d="M18.2652 31.6772L17.8828 27.6772C17.3828 23.8242 17.0593 23.9419 17.0593 23.9419L10.2946 21.3242L9.38281 31.6772H18.2652Z" fill="#5E86C3"/>
<path d="M11.0587 31.677L12.6469 28.1182L10.5881 26.0594L12.6469 24.5006L10.3234 21.3535C9.82336 23.8241 9.47042 28.5594 9.29395 31.7065H11.0587V31.677Z" fill="#6FB1E1"/>
<path d="M16.3529 31.6768L16.5 27.9121L16 31.6768H16.3529Z" fill="#4C5AA5"/>
<path d="M10.2939 21.3243L9.79395 20.5596L7.29395 22.2655L9.6763 24.5007L10.2939 21.3243Z" fill="#D1D1D3"/>
<path d="M5.17636 31.6469H5.05871C4.97047 31.5292 4.85283 31.4116 4.76459 31.3234L4.73518 31.2939C3.794 30.2057 2.97047 28.9998 2.294 27.7057C1.47047 26.1469 0.882238 24.4998 0.529297 22.7351L4.26459 21.2939L5.0293 29.8234L5.17636 31.6469Z" fill="#5E86C3"/>
<path d="M5.29435 31.6469H5.05905C4.97082 31.5292 4.85317 31.4116 4.76494 31.3234L4.73552 31.2939C3.79435 30.2057 2.97082 28.9998 2.29435 27.7057L4.00023 25.9998L1.94141 24.441L4.26494 21.2939L4.32376 21.5292C4.6767 23.441 4.94141 26.4998 5.14729 29.2057C5.20611 30.1175 5.26494 30.9116 5.29435 31.6469Z" fill="#6FB1E1"/>
<path d="M4.26465 21.3243L4.76465 20.5596L7.29406 22.2655L4.91171 24.5007L4.26465 21.3243Z" fill="#D1D1D3"/>
<path d="M3.50063 14.8536C3.50063 14.5301 3.85357 14.1477 4.00063 13.9125L4.61828 12.4125C4.61828 12.4125 4.88298 11.7654 5.70651 12.0595C5.70651 12.0595 6.14769 12.3536 7.29475 12.1183C7.29475 12.1183 9.4124 11.9419 9.9124 12.2948C9.9124 12.2948 10.9418 12.6183 11.0006 14.883H11.3536C11.4418 14.6183 11.6183 13.8536 11.4712 13.236C11.4712 13.236 12.0595 10.5595 10.5006 9.94187C10.5006 9.94187 10.5889 9.73598 10.6771 9.73598C10.6771 9.73598 10.1771 9.61834 9.76534 9.79481C9.76534 9.79481 9.58887 8.94186 8.4124 9.0301C8.4124 9.0301 6.4124 8.44187 6.03004 9.11834C6.03004 9.11834 5.11828 9.0301 5.14769 9.41245C5.14769 9.41245 3.38298 9.70657 3.11828 12.2654C3.11828 12.2654 3.00063 13.7654 3.23593 14.883H3.50063V14.8536ZM34.8242 24.0889H29.0889C27.5889 20.5007 26.5006 16.4713 27.4418 12.883H36.4712C37.4124 16.5007 36.3242 20.5301 34.8242 24.0889Z" fill="#343843"/>
<path d="M31.9412 19.7354C34.5402 19.7354 36.6471 17.2729 36.6471 14.2354C36.6471 11.1978 34.5402 8.73535 31.9412 8.73535C29.3422 8.73535 27.2354 11.1978 27.2354 14.2354C27.2354 17.2729 29.3422 19.7354 31.9412 19.7354Z" fill="#343843"/>
<path d="M37.5001 22.4414C36.2353 28.0591 34.5589 29.3238 34.0589 30.2943C33.7059 30.7649 33.2648 31.2943 32.8824 31.7355H22.2354L22.7648 26.3532L22.8236 25.7061L22.853 25.5002C22.8824 25.2355 22.9412 24.9708 23.0295 24.7355C23.1177 24.5002 23.0295 24.7355 23.0295 24.7061C23.0295 24.6473 23.0589 24.6179 23.0883 24.5591V24.5296C23.1177 24.4708 23.1471 24.412 23.1471 24.3826C23.1471 24.3532 23.1765 24.3532 23.1765 24.3238C23.7354 23.2061 24.8824 22.4414 26.2059 22.4414H37.5001Z" fill="#5E86C3"/>
<path d="M35.0888 22.2943L33.3535 29.9414H30.5888L28.8535 22.2943C29.3829 22.0885 29.4123 21.5885 29.4123 21.5885L29.53 19.4414C30.5006 19.7649 33.4418 19.7649 34.4123 19.4414L34.53 21.5885C34.53 21.5591 34.5594 22.0591 35.0888 22.2943Z" fill="#F1B97C"/>
<path d="M31.9709 10.5889C29.8826 10.5889 28.1768 12.2947 28.1768 14.383V17.0595C28.1768 19.1477 29.8826 20.8536 31.9709 20.8536C34.0591 20.8536 35.765 19.1477 35.765 17.0595V14.383C35.765 12.2947 34.0591 10.5889 31.9709 10.5889Z" fill="#F8CFA3"/>
<path d="M35.2948 26.5L34.0595 30.2647C33.7065 30.7353 33.2653 31.2647 32.883 31.7059H30.1771L28.5889 26.5C28.9124 26.6176 29.2359 26.7059 29.5889 26.7647C29.6771 26.7941 29.7653 26.7941 29.8536 26.8235L30.383 26.9118C30.883 26.9706 31.4124 27.0294 31.9418 27.0294C32.4712 27.0294 33.0006 27 33.5006 26.9118L34.03 26.8235C34.5006 26.7353 34.9124 26.6471 35.2948 26.5Z" fill="#F1582E"/>
<path d="M36.8825 24.8824C36.7942 25.1471 36.706 25.4118 36.6178 25.6176H35.1178L36.0884 26.9118C35.1178 29 34.2354 30 34.0589 30.2941C33.706 30.7647 33.2648 31.2941 32.8825 31.7353H32.3531L32.7942 29.9412L32.9119 29.5L33.5295 26.9412L34.206 24.1471L34.6178 22.4706L34.706 22.0588L35.5589 22.2353L36.6766 22.4706V22.5L36.8825 24.8824ZM27.3531 27.5588L30.1178 31.7059H31.5589L29.206 22L27.2648 22.4118L26.9707 25.6176H28.8236L27.3531 27.5588Z" fill="#6FB1E1"/>
<path d="M36.1765 15.2653C34.0001 14.5006 33.2354 12.1477 33.2354 12.1477C30.3824 15.0889 27.7354 14.6477 27.7354 14.6477L28.1765 13.0006C28.3824 12.2359 28.7942 11.5595 29.3824 11.0595C30.0883 10.4418 31.0001 10.0889 31.9412 10.0889H32.0001C32.7942 10.0889 33.5589 10.3242 34.2059 10.7653L34.3236 10.8536C34.8824 11.2359 35.3236 11.7359 35.6177 12.3536L35.7648 12.6183C36.0295 13.1477 36.1765 13.7359 36.1765 14.3536V15.2653Z" fill="#343843"/>
<path d="M22.7646 20.0293C22.3235 22.0881 22.3235 24.1764 22.7646 26.2352H15.2646C15.7058 24.1764 15.7058 22.0881 15.2646 20.0293H22.7646Z" fill="#F1B97C"/>
<path d="M23.1181 24.2646V24.4999L22.7946 31.7058L22.5299 37.4999C21.5299 37.7058 20.2652 37.8235 19.0299 37.8235C17.8534 37.8235 16.6769 37.7058 15.5593 37.4999L15.2652 31.647L14.8828 24.2646L15.5005 24.4411L17.471 25.0588L19.0005 25.5294L22.471 24.4411L23.1181 24.2646Z" fill="#FCFCFC"/>
<path d="M20.4705 37.7646C19.9705 37.7941 19.4999 37.8235 18.9999 37.8235C18.4999 37.8235 17.9999 37.7941 17.5293 37.7646L18.0587 31.647L18.1764 30.4705L18.4116 27.9117L18.4999 26.7646H19.5587L19.6469 27.9117L20.4705 37.7646Z" fill="#E34D30"/>
<path d="M24.6769 16.5592C24.6769 18.0004 24.2652 19.1475 23.7652 19.1475H23.6769C22.9122 21.7945 21.1181 23.6475 19.0299 23.6475C16.9416 23.6475 15.1181 21.7945 14.3828 19.1475H14.2946C13.7946 19.1475 13.3828 17.971 13.3828 16.5592C13.3828 15.118 13.7946 13.971 14.2946 13.971C15.0005 11.1769 16.8534 9.14746 19.0299 9.14746C21.2063 9.14746 23.1769 10.3239 23.8828 13.118L23.7652 13.971C24.2652 13.971 24.6769 15.1475 24.6769 16.5592Z" fill="#F8CFA3"/>
<path d="M19.0001 25.5596L17.4707 26.9419L19.0001 28.589L20.5295 26.9419L19.0001 25.5596Z" fill="#D54232"/>
<path d="M33.2354 31.3235C31.3825 33.4705 29.5589 34.7941 27.0589 36.0294C26.3825 36.3529 25.4707 36.7058 24.7942 36.9411C24.4413 37.0588 23.5884 37.2941 23.1178 37.3823C23.0884 37.4117 22.5589 37.4999 22.5295 37.4999L21.9707 37.5882L22.5001 31.7058L23.1472 24.5294L23.1766 24.2646L23.2648 24.2941L28.4119 26.2646L29.706 26.7646L30.0001 26.8823L30.5589 27.0882L32.4413 27.8235C32.4413 27.8235 32.6472 27.7352 33.0001 29.4705L33.0884 29.9117C33.0589 30.3235 33.1472 30.7646 33.2354 31.3235Z" fill="#4C525E"/>
<path d="M24.4705 31.7058L26.2646 33.4999L24.7646 36.9117C23.7646 37.2352 22.7646 37.4705 21.7646 37.6176C21.9705 34.1764 22.3235 29.6176 22.7646 26.3235C22.8529 25.7352 22.9411 25.1764 23.0294 24.6764C23.0588 24.5294 23.0882 24.4117 23.1176 24.2646L23.1764 24.3529L26.2941 28.5588L23.4705 30.7058L24.4705 31.7058Z" fill="#646C79"/>
<path d="M23.1176 24.2648L22.4118 23.2354L19 25.5589L22.2353 28.5883L23.1176 24.2648Z" fill="#D1D1D3"/>
<path d="M16.0881 37.5883C12.0881 37.0001 8.08806 34.9412 5.08806 31.6471C4.99983 31.5295 4.88218 31.4118 4.79395 31.3236C4.88218 30.7354 4.97042 30.2354 5.05865 29.8236C5.08806 29.5883 5.14689 29.4118 5.1763 29.2354C5.49983 27.7354 5.70571 27.7942 5.70571 27.7942L6.55865 27.4706L8.02924 26.9118L9.70571 26.2648L9.91159 26.1765L10.1175 26.0883L10.8234 25.8236L14.941 24.2354L15.5881 31.6177L16.0881 37.5883Z" fill="#4C525E"/>
<path d="M16.2646 37.6176C15.2646 37.4705 14.2941 37.2352 13.2646 36.9117L11.7646 33.4999L13.6176 31.647L14.5882 30.6764L12.2941 28.9411L11.7646 28.5588L12.3235 27.7941L14.8823 24.2646C15.2646 26.0882 15.5588 28.8529 15.7941 31.647C15.9999 33.7352 16.147 35.8235 16.2646 37.6176Z" fill="#646C79"/>
<path d="M14.8828 24.2648L15.5887 23.2354L19.0005 25.5589L15.7652 28.5883L14.8828 24.2648Z" fill="#D1D1D3"/>
<path d="M13.8236 15.4419C13.8236 15.0007 14.2942 14.4713 14.5295 14.1772L15.3824 12.1184C15.3824 12.1184 15.7648 11.2066 16.853 11.6184C16.853 11.6184 17.4707 12.0301 19.0295 11.7066C19.0295 11.7066 21.9413 11.4713 22.6177 11.9125C22.6177 11.9125 24.0295 12.3537 24.0883 15.4419H24.5883C24.706 15.089 24.9707 14.0301 24.7354 13.1772C24.7354 13.1772 25.5295 9.50072 23.3824 8.67719C23.3824 8.67719 23.5295 8.38307 23.6471 8.38307C23.6471 8.38307 22.9413 8.2066 22.3824 8.47131C22.3824 8.47131 22.1177 7.29484 20.5295 7.44189C20.5295 7.44189 17.7942 6.61836 17.2648 7.55954C17.2648 7.55954 16.0295 7.41248 16.0295 7.94189C16.0295 7.94189 13.6177 8.35366 13.2648 11.8537C13.2648 11.8537 13.1177 13.8831 13.4413 15.4419H13.8236Z" fill="#343843"/>
<path d="M24.0302 14.9999C22.9125 14.8529 21.9713 14.8823 21.9713 14.8823C21.4125 14.8823 20.9713 14.9411 20.6478 14.9999C20.3831 15.0588 20.1184 15.147 19.8537 15.2646C19.5302 15.4117 19.2949 15.4117 19.2949 15.4117H18.6478C18.6478 15.4117 18.4125 15.4117 18.089 15.2646C17.8243 15.147 17.589 15.0588 17.2949 14.9999C16.9713 14.9411 16.5302 14.8823 15.9713 14.8823C15.9713 14.8823 15.0302 14.8529 13.9125 14.9999C13.7949 15.0293 13.6772 15.0293 13.5596 15.0588V15.6764C13.5596 15.6764 13.8831 15.7058 13.9419 16.1176C13.9419 16.1176 14.1184 17.7058 14.7066 18.1176C14.7066 18.1176 15.3537 18.7646 16.736 18.4411C16.736 18.4411 17.736 18.3235 18.2655 17.147C18.2655 17.147 18.4125 16.8235 18.5007 16.4999C18.5007 16.4999 18.5596 15.9411 18.9419 15.9999C19.3243 15.9411 19.3831 16.4999 19.3831 16.4999C19.4713 16.8235 19.6184 17.147 19.6184 17.147C20.1478 18.3235 21.1478 18.4411 21.1478 18.4411C22.5596 18.7646 23.1772 18.1176 23.1772 18.1176C23.7655 17.7058 23.9419 16.1176 23.9419 16.1176C24.0007 15.7058 24.3243 15.6764 24.3243 15.6764V15.0588C24.2949 15.0293 24.1478 15.0293 24.0302 14.9999ZM18.0596 16.8529C17.9419 17.3823 17.5302 17.794 17.5302 17.794C17.1184 18.2352 15.9419 18.2646 15.9419 18.2646C15.1772 18.2646 14.8243 17.8529 14.736 17.6764C14.7066 17.6176 14.6772 17.5882 14.6478 17.5293C14.3537 17.1176 14.3537 16.2058 14.3537 16.2058C14.2949 15.647 14.9125 15.3529 14.9125 15.3529C15.736 15.0588 17.2949 15.2646 17.2949 15.2646C18.1184 15.4117 18.1478 15.9411 18.1478 15.9411C18.1478 15.9411 18.2066 16.3235 18.0596 16.8529ZM23.3537 17.5293C23.3243 17.5882 23.2949 17.6176 23.2655 17.6764C23.1478 17.8529 22.8243 18.2646 22.0596 18.2646C22.0596 18.2646 20.8831 18.2352 20.4713 17.794C20.4713 17.794 20.0596 17.4117 19.9419 16.8529C19.8243 16.3235 19.8831 15.9411 19.8831 15.9411C19.8831 15.9411 19.9125 15.4117 20.736 15.2646C20.736 15.2646 22.2949 15.0588 23.1184 15.3529C23.1184 15.3529 23.736 15.647 23.6772 16.2058C23.6478 16.1764 23.6478 17.1176 23.3537 17.5293Z" fill="#343843"/>
<path d="M14.0589 15.4706C14.2376 15.4706 14.3824 15.418 14.3824 15.353C14.3824 15.288 14.2376 15.2354 14.0589 15.2354C13.8802 15.2354 13.7354 15.288 13.7354 15.353C13.7354 15.418 13.8802 15.4706 14.0589 15.4706Z" fill="#FCFCFC"/>
<path d="M23.9417 15.4706C24.1204 15.4706 24.2652 15.418 24.2652 15.353C24.2652 15.288 24.1204 15.2354 23.9417 15.2354C23.763 15.2354 23.6182 15.288 23.6182 15.353C23.6182 15.418 23.763 15.4706 23.9417 15.4706Z" fill="#FCFCFC"/>
</svg>
