<svg width="20" height="20" viewBox="0 0 20 20" fill="none" xmlns="http://www.w3.org/2000/svg">
<path d="M3.92499 15.1583C4.00832 15.1917 4.08332 15.2083 4.16666 15.2083H12.725C13.0667 15.2083 13.35 14.925 13.35 14.5833C13.35 14.2417 13.0667 13.9583 12.725 13.9583H5.67499L16.275 3.35833C16.5167 3.11666 16.5167 2.71666 16.275 2.475C16.0333 2.23333 15.6333 2.23333 15.3917 2.475L4.79166 13.075V6.025C4.79166 5.68333 4.50832 5.4 4.16666 5.4C3.82499 5.4 3.54166 5.68333 3.54166 6.025V14.5833C3.54166 14.6667 3.55832 14.7417 3.59166 14.825C3.64999 14.975 3.77499 15.1 3.92499 15.1583Z" fill="currentColor"/>
<path d="M17.0833 17.7083H2.91666C2.57499 17.7083 2.29166 17.9917 2.29166 18.3333C2.29166 18.675 2.57499 18.9583 2.91666 18.9583H17.0833C17.425 18.9583 17.7083 18.675 17.7083 18.3333C17.7083 17.9917 17.425 17.7083 17.0833 17.7083Z" fill="currentColor"/>
</svg>
