<svg width="20" height="19" viewBox="0 0 20 19" fill="none" xmlns="http://www.w3.org/2000/svg">
<path fill-rule="evenodd" clip-rule="evenodd" d="M0.833344 4C0.833344 2.61929 1.95263 1.5 3.33334 1.5H16.6667C18.0474 1.5 19.1667 2.61929 19.1667 4V5.66667C19.1667 6.1269 18.7936 6.5 18.3333 6.5H1.66668C1.20644 6.5 0.833344 6.1269 0.833344 5.66667V4ZM3.33334 3.16667C2.87311 3.16667 2.50001 3.53976 2.50001 4V4.83333H17.5V4C17.5 3.53976 17.1269 3.16667 16.6667 3.16667H3.33334Z" fill="currentColor"/>
<path fill-rule="evenodd" clip-rule="evenodd" d="M0.833344 5.66667C0.833344 5.20643 1.20644 4.83333 1.66668 4.83333H18.3333C18.7936 4.83333 19.1667 5.20643 19.1667 5.66667V15.6667C19.1667 17.0474 18.0474 18.1667 16.6667 18.1667H3.33334C1.95263 18.1667 0.833344 17.0474 0.833344 15.6667V5.66667ZM2.50001 6.5V15.6667C2.50001 16.1269 2.87311 16.5 3.33334 16.5H16.6667C17.1269 16.5 17.5 16.1269 17.5 15.6667V6.5H2.50001Z" fill="currentColor"/>
<path fill-rule="evenodd" clip-rule="evenodd" d="M9.16666 3.16667V0.666667H10.8333V3.16667H9.16666Z" fill="currentColor"/>
<path fill-rule="evenodd" clip-rule="evenodd" d="M13.3333 3.16667V0.666667H15V3.16667H13.3333Z" fill="currentColor"/>
<path fill-rule="evenodd" clip-rule="evenodd" d="M5 3.16667V0.666667H6.66667V3.16667H5Z" fill="currentColor"/>
<path fill-rule="evenodd" clip-rule="evenodd" d="M8.9226 8.75592L6.4226 11.2559C6.09716 11.5814 5.56953 11.5814 5.24409 11.2559L3.57742 9.58926L4.75593 8.41074L5.83335 9.48816L7.74409 7.57741L8.9226 8.75592Z" fill="currentColor"/>
<path fill-rule="evenodd" clip-rule="evenodd" d="M16.4226 8.75592L13.9226 11.2559C13.5972 11.5814 13.0695 11.5814 12.7441 11.2559L11.0774 9.58926L12.2559 8.41074L13.3333 9.48816L15.2441 7.57741L16.4226 8.75592Z" fill="currentColor"/>
<path fill-rule="evenodd" clip-rule="evenodd" d="M16.4226 12.9226L13.9226 15.4226C13.5972 15.748 13.0695 15.748 12.7441 15.4226L11.0774 13.7559L12.2559 12.5774L13.3333 13.6548L15.2441 11.7441L16.4226 12.9226Z" fill="currentColor"/>
<path fill-rule="evenodd" clip-rule="evenodd" d="M8.33332 14.8333H4.16666V13.1667H8.33332V14.8333Z" fill="currentColor"/>
</svg>
