<svg width="18" height="17" viewBox="0 0 18 17" fill="none" xmlns="http://www.w3.org/2000/svg">
<path d="M1.58684 2.12591C2.55356 1.15902 3.85017 0.593487 5.2165 0.542791C6.58283 0.492094 7.91779 0.959986 8.95351 1.85258C9.9883 0.961473 11.3215 0.494107 12.6862 0.54405C14.0509 0.593993 15.3463 1.15756 16.3132 2.12192C17.2801 3.08628 17.8471 4.38027 17.9006 5.74482C17.9541 7.10938 17.4902 8.44379 16.6018 9.48091L10.131 15.9726C9.83371 16.27 9.43499 16.444 9.01477 16.4598C8.59456 16.4755 8.18391 16.3319 7.86517 16.0576L7.77351 15.9734L1.30351 9.48091C0.41558 8.44469 -0.0485114 7.1115 0.00401814 5.7479C0.0565477 4.38429 0.621827 3.09076 1.58684 2.12591ZM2.76517 3.30425C2.08371 3.9859 1.69088 4.90378 1.66823 5.86739C1.64557 6.83099 1.99483 7.76632 2.64351 8.47925L2.76517 8.60758L8.95267 14.7951L13.3718 10.3742L10.426 7.42925L9.54267 8.31258C9.0739 8.78157 8.43803 9.04514 7.77493 9.04529C7.11183 9.04545 6.47583 8.78218 6.00684 8.31341C5.53785 7.84464 5.27428 7.20877 5.27413 6.54567C5.27397 5.88257 5.53723 5.24657 6.00601 4.77758L7.75767 3.02508C7.06063 2.46857 6.18805 2.17873 5.29657 2.20759C4.40509 2.23646 3.55308 2.58214 2.89351 3.18258L2.76517 3.30425ZM9.83684 5.66092C9.99311 5.50469 10.205 5.41693 10.426 5.41693C10.647 5.41693 10.8589 5.50469 11.0152 5.66092L14.5502 9.19591L15.1402 8.60758C15.8331 7.91519 16.2275 6.97918 16.2392 5.99972C16.2509 5.02025 15.8789 4.0751 15.2027 3.36638C14.5265 2.65766 13.5999 2.24164 12.621 2.20729C11.642 2.17295 10.6885 2.523 9.96434 3.18258L9.83684 3.30425L7.18517 5.95591C7.04073 6.10026 6.95432 6.29262 6.94233 6.49647C6.93035 6.70032 6.99364 6.90148 7.12017 7.06175L7.18517 7.13425C7.32952 7.27869 7.52187 7.3651 7.72573 7.37709C7.92958 7.38907 8.13073 7.32578 8.29101 7.19925L8.36351 7.13425L9.83684 5.66092Z" fill="currentColor"/>
</svg>
