<svg width="13" height="14" viewBox="0 0 13 14" fill="none" xmlns="http://www.w3.org/2000/svg">
<mask id="mask0_3734_14327" style="mask-type:luminance" maskUnits="userSpaceOnUse" x="0" y="0" width="13" height="14">
<path fill-rule="evenodd" clip-rule="evenodd" d="M8.01086e-05 0.0930061H12.8566V13.907H8.01086e-05V0.0930061Z" fill="white"/>
</mask>
<g mask="url(#mask0_3734_14327)">
<path fill-rule="evenodd" clip-rule="evenodd" d="M3.46821 10.3863C3.62088 10.3863 3.77355 10.4057 3.92288 10.4457C4.37355 10.567 4.76488 10.8683 4.99688 11.273C5.14755 11.527 5.23088 11.8237 5.23355 12.1263C5.23355 12.5597 5.58155 12.907 6.00955 12.907H6.84488C7.27088 12.907 7.61888 12.5617 7.62088 12.1357C7.61821 11.665 7.80221 11.2177 8.13888 10.881C8.47088 10.549 8.93488 10.3497 9.39888 10.363C9.70288 10.3703 9.99555 10.4523 10.2535 10.599C10.6249 10.8117 11.0989 10.685 11.3135 10.3183L11.7562 9.58034C11.8549 9.41034 11.8835 9.19701 11.8309 9.00034C11.7789 8.80367 11.6482 8.63301 11.4722 8.53234C11.0602 8.29501 10.7662 7.91234 10.6442 7.45367C10.5235 7.00367 10.5895 6.51234 10.8249 6.10767C10.9782 5.84101 11.2029 5.61634 11.4722 5.46167C11.8335 5.25034 11.9602 4.77767 11.7502 4.40967C11.7415 4.39501 11.7335 4.37967 11.7269 4.36367L11.3362 3.68634C11.1235 3.31634 10.6502 3.18901 10.2789 3.40034C9.87755 3.63767 9.40021 3.70567 8.94155 3.58501C8.48355 3.46634 8.09955 3.17634 7.86021 2.76701C7.70688 2.51101 7.62355 2.21301 7.62088 1.90967C7.62688 1.68167 7.54688 1.47701 7.40155 1.32701C7.25688 1.17767 7.05355 1.09301 6.84488 1.09301H6.00955C5.80288 1.09301 5.60955 1.17367 5.46355 1.31901C5.31821 1.46501 5.23888 1.65901 5.24021 1.86567C5.22621 2.84034 4.42955 3.62501 3.46488 3.62501C3.15555 3.62167 2.85755 3.53834 2.59888 3.38367C2.23555 3.17701 1.76088 3.30434 1.54821 3.67434L1.09688 4.41634C0.890213 4.77501 1.01688 5.24901 1.38488 5.46301C1.93088 5.77901 2.27155 6.36834 2.27155 7.00034C2.27155 7.63234 1.93088 8.22101 1.38355 8.53767C1.01755 8.74967 0.89088 9.22101 1.10288 9.58767L1.52355 10.313C1.62755 10.5003 1.79755 10.6357 1.99421 10.691C2.19021 10.7457 2.40621 10.7223 2.58621 10.6223C2.85088 10.467 3.15888 10.3863 3.46821 10.3863ZM6.84488 13.907H6.00955C5.03021 13.907 4.23355 13.111 4.23355 12.1317C4.23221 12.011 4.19755 11.8857 4.13288 11.777C4.02821 11.5943 3.85888 11.4637 3.66355 11.4117C3.46955 11.3597 3.25688 11.3883 3.08221 11.4897C2.66355 11.723 2.17088 11.7797 1.72021 11.653C1.27021 11.5257 0.881546 11.2163 0.653547 10.8063L0.23688 10.0883C-0.250453 9.24301 0.0395465 8.15967 0.883546 7.67167C1.12288 7.53367 1.27155 7.27634 1.27155 7.00034C1.27155 6.72434 1.12288 6.46634 0.883546 6.32834C0.0388799 5.83767 -0.250453 4.75167 0.236213 3.90634L0.688213 3.16434C1.16888 2.32834 2.25555 2.03367 3.10288 2.52034C3.21821 2.58901 3.34355 2.62367 3.47088 2.62501C3.88621 2.62501 4.23355 2.28234 4.24021 1.86101C4.23755 1.39634 4.42088 0.950339 4.75488 0.613673C5.09021 0.277673 5.53555 0.0930061 6.00955 0.0930061H6.84488C7.32221 0.0930061 7.78621 0.289006 8.11888 0.629673C8.45088 0.972339 8.63421 1.44234 8.62021 1.91901C8.62155 2.02634 8.65688 2.15034 8.72088 2.25901C8.82688 2.43901 8.99421 2.56567 9.19288 2.61767C9.39155 2.66701 9.59955 2.64034 9.77621 2.53567C10.6295 2.04834 11.7155 2.34034 12.2029 3.18701L12.6182 3.90634C12.6289 3.92567 12.6382 3.94434 12.6462 3.96367C13.0875 4.79767 12.7929 5.84767 11.9729 6.32701C11.8535 6.39567 11.7569 6.49167 11.6902 6.60767C11.5869 6.78701 11.5582 7.00034 11.6102 7.19634C11.6635 7.39634 11.7909 7.56234 11.9702 7.66501C12.3749 7.89767 12.6769 8.28967 12.7975 8.74234C12.9182 9.19434 12.8522 9.68501 12.6169 10.0897L12.1742 10.827C11.6869 11.6643 10.6009 11.9543 9.75621 11.4663C9.64355 11.4017 9.51355 11.3663 9.38421 11.363H9.38021C9.18755 11.363 8.98955 11.445 8.84555 11.5883C8.69955 11.7343 8.61955 11.929 8.62088 12.1357C8.61621 13.115 7.81955 13.907 6.84488 13.907Z" fill="currentColor"/>
</g>
<path fill-rule="evenodd" clip-rule="evenodd" d="M6.43015 5.74241C5.73681 5.74241 5.17281 6.30707 5.17281 7.00041C5.17281 7.69374 5.73681 8.25707 6.43015 8.25707C7.12348 8.25707 7.68748 7.69374 7.68748 7.00041C7.68748 6.30707 7.12348 5.74241 6.43015 5.74241ZM6.43015 9.25707C5.18548 9.25707 4.17281 8.24507 4.17281 7.00041C4.17281 5.75574 5.18548 4.74241 6.43015 4.74241C7.67481 4.74241 8.68748 5.75574 8.68748 7.00041C8.68748 8.24507 7.67481 9.25707 6.43015 9.25707Z" fill="currentColor"/>
</svg>
