<svg width="15" height="17" viewBox="0 0 15 17" fill="currentColor" xmlns="http://www.w3.org/2000/svg">
<path d="M12.5 16.6667C11.8056 16.6667 11.2153 16.4236 10.7292 15.9375C10.2431 15.4514 10 14.8611 10 14.1667C10 14.0833 10.0208 13.8889 10.0625 13.5833L4.20833 10.1667C3.98611 10.375 3.72917 10.5383 3.4375 10.6567C3.14583 10.775 2.83333 10.8339 2.5 10.8333C1.80556 10.8333 1.21528 10.5903 0.729167 10.1042C0.243056 9.61806 0 9.02778 0 8.33333C0 7.63889 0.243056 7.04861 0.729167 6.5625C1.21528 6.07639 1.80556 5.83333 2.5 5.83333C2.83333 5.83333 3.14583 5.8925 3.4375 6.01083C3.72917 6.12917 3.98611 6.29222 4.20833 6.5L10.0625 3.08333C10.0347 2.98611 10.0175 2.8925 10.0108 2.8025C10.0042 2.7125 10.0006 2.61167 10 2.5C10 1.80556 10.2431 1.21528 10.7292 0.729167C11.2153 0.243056 11.8056 0 12.5 0C13.1944 0 13.7847 0.243056 14.2708 0.729167C14.7569 1.21528 15 1.80556 15 2.5C15 3.19444 14.7569 3.78472 14.2708 4.27083C13.7847 4.75694 13.1944 5 12.5 5C12.1667 5 11.8542 4.94083 11.5625 4.8225C11.2708 4.70417 11.0139 4.54111 10.7917 4.33333L4.9375 7.75C4.96528 7.84722 4.98278 7.94111 4.99 8.03167C4.99722 8.12222 5.00056 8.22278 5 8.33333C4.99944 8.44389 4.99611 8.54472 4.99 8.63583C4.98389 8.72694 4.96639 8.82055 4.9375 8.91667L10.7917 12.3333C11.0139 12.125 11.2708 11.9619 11.5625 11.8442C11.8542 11.7264 12.1667 11.6672 12.5 11.6667C13.1944 11.6667 13.7847 11.9097 14.2708 12.3958C14.7569 12.8819 15 13.4722 15 14.1667C15 14.8611 14.7569 15.4514 14.2708 15.9375C13.7847 16.4236 13.1944 16.6667 12.5 16.6667ZM12.5 15C12.7361 15 12.9342 14.9203 13.0942 14.7608C13.2542 14.6014 13.3339 14.4033 13.3333 14.1667C13.3328 13.93 13.2528 13.7322 13.0933 13.5733C12.9339 13.4144 12.7361 13.3344 12.5 13.3333C12.2639 13.3322 12.0661 13.4122 11.9067 13.5733C11.7472 13.7344 11.6672 13.9322 11.6667 14.1667C11.6661 14.4011 11.7461 14.5992 11.9067 14.7608C12.0672 14.9225 12.265 15.0022 12.5 15ZM2.5 9.16667C2.73611 9.16667 2.93417 9.08667 3.09417 8.92667C3.25417 8.76667 3.33389 8.56889 3.33333 8.33333C3.33278 8.09778 3.25278 7.9 3.09333 7.74C2.93389 7.58 2.73611 7.5 2.5 7.5C2.26389 7.5 2.06611 7.58 1.90667 7.74C1.74722 7.9 1.66722 8.09778 1.66667 8.33333C1.66611 8.56889 1.74611 8.76694 1.90667 8.9275C2.06722 9.08806 2.265 9.16778 2.5 9.16667ZM12.5 3.33333C12.7361 3.33333 12.9342 3.25333 13.0942 3.09333C13.2542 2.93333 13.3339 2.73556 13.3333 2.5C13.3328 2.26444 13.2528 2.06667 13.0933 1.90667C12.9339 1.74667 12.7361 1.66667 12.5 1.66667C12.2639 1.66667 12.0661 1.74667 11.9067 1.90667C11.7472 2.06667 11.6672 2.26444 11.6667 2.5C11.6661 2.73556 11.7461 2.93361 11.9067 3.09417C12.0672 3.25472 12.265 3.33444 12.5 3.33333Z" fill="currentColor"/>
</svg>
