<svg width="26" height="26" viewBox="0 0 26 26" fill="none" xmlns="http://www.w3.org/2000/svg">
<path fill-rule="evenodd" clip-rule="evenodd" d="M13 0.5C6.1 0.5 0.5 6.1 0.5 13C0.5 19.9 6.1 25.5 13 25.5C19.9 25.5 25.5 19.9 25.5 13C25.5 6.1 19.9 0.5 13 0.5ZM19.6375 17.1375C19.275 17.3375 18.975 17.425 18.725 17.4875C18.5125 17.5375 18.3375 17.5875 18.1875 17.6875C18.025 17.7875 18.0125 17.95 17.9875 18.1C17.9625 18.2375 17.95 18.35 17.85 18.425C17.7375 18.5 17.525 18.5125 17.2375 18.525C16.8625 18.55 16.3875 18.5625 15.8125 18.7375C15.5375 18.8375 15.2875 18.9875 15.0375 19.1375C14.5375 19.45 13.975 19.7875 12.9875 19.7875C12.0125 19.7875 11.45 19.45 10.95 19.1375C10.7 18.975 10.45 18.825 10.1625 18.725C9.60001 18.55 9.1125 18.525 8.7375 18.5125C8.45 18.5 8.25001 18.4875 8.12501 18.4125C8.02501 18.35 8.01249 18.225 7.98749 18.0875C7.96249 17.9375 7.94998 17.775 7.78748 17.675C7.63748 17.575 7.44999 17.525 7.24999 17.4625C6.99999 17.4 6.70002 17.325 6.33752 17.125C5.91252 16.8875 6.16252 16.75 6.30002 16.675C8.71252 15.5125 9.08751 13.7125 9.10001 13.575C9.10001 13.5625 9.10001 13.5625 9.10001 13.55C9.12501 13.4 9.13749 13.275 8.96249 13.1125C8.84999 13 8.46249 12.75 8.14999 12.55C8.01249 12.45 7.88751 12.375 7.81251 12.3375C7.46251 12.0875 7.31251 11.85 7.42501 11.5375C7.50001 11.325 7.70002 11.25 7.90002 11.25C7.96252 11.25 8.03751 11.2625 8.08751 11.275C8.31251 11.325 8.5375 11.4125 8.7375 11.4875C8.875 11.55 8.98748 11.5875 9.07498 11.6125C9.09998 11.625 9.13752 11.625 9.15002 11.625C9.27502 11.625 9.31251 11.5625 9.30001 11.4375C9.30001 11.4 9.3 11.3625 9.2875 11.325C9.2625 10.8875 9.22499 10.125 9.27499 9.42502C9.37499 8.37502 9.7125 7.83751 10.1125 7.38751C10.3125 7.16251 11.225 6.2 12.9625 6.2C14.7125 6.2 15.6125 7.1625 15.8125 7.375C16.2125 7.8375 16.55 8.36252 16.65 9.42502C16.7125 10.1625 16.6625 10.95 16.625 11.3875V11.425C16.6125 11.5625 16.65 11.6125 16.775 11.6125C16.8 11.6125 16.825 11.6125 16.85 11.6C16.9375 11.575 17.05 11.5375 17.1875 11.4875C17.375 11.4125 17.6 11.325 17.8375 11.275C17.9 11.25 17.9625 11.25 18.025 11.25C18.2375 11.25 18.425 11.3375 18.5 11.55C18.6125 11.85 18.4625 12.0875 18.1125 12.3375C18.05 12.3875 17.925 12.475 17.775 12.55C17.475 12.75 17.075 13 16.9625 13.1125C16.7875 13.275 16.8 13.4 16.825 13.55C16.825 13.5625 16.825 13.575 16.825 13.575C16.85 13.7125 17.225 15.5125 19.625 16.675C19.8125 16.75 20.0625 16.9 19.6375 17.1375Z" fill="currentColor"/>
</svg>
