<svg width="40" height="40" viewBox="0 0 40 40" fill="none" xmlns="http://www.w3.org/2000/svg">
<path d="M20 40C31.0457 40 40 31.0457 40 20C40 8.95431 31.0457 0 20 0C8.95431 0 0 8.95431 0 20C0 31.0457 8.95431 40 20 40Z" fill="url(#paint0_radial_3788_16041)"/>
<path d="M15.884 6.21094L14.8272 12.7783C14.4619 15.0485 14.2783 17.3442 14.2783 19.6436V22.6424H17.484V6.21094H15.884Z" fill="url(#paint1_linear_3788_16041)"/>
<path d="M19.8978 13.0024H15.5986V2.37582C15.5986 1.56045 16.3717 0.991427 17.106 1.26625C18.7804 1.89292 19.8978 3.55166 19.8978 5.41088V13.0024Z" fill="url(#paint2_linear_3788_16041)"/>
<path d="M20.1863 28.4346L19.8256 20.3282C19.652 17.779 19.6862 15.22 19.9279 12.6764L20.0839 11.0345C20.2459 9.32907 18.9028 7.85464 17.1888 7.85841C16.2445 7.86052 15.4815 8.63095 15.4815 9.57519V12.6819C15.4815 15.2072 15.0474 17.7138 14.1982 20.0921L13.3904 22.3543C12.1879 25.722 11.5732 29.2715 11.5732 32.8475V38.2397H13.0804C13.7444 38.2397 14.3688 37.9237 14.7619 37.3886C14.992 37.0755 15.3021 36.8259 15.6653 36.688C16.1613 36.4998 16.6195 36.2241 17.018 35.874C18.0691 34.9501 18.8995 33.802 19.4478 32.5145C19.9962 31.2269 20.2485 29.8327 20.1863 28.4346Z" fill="url(#paint3_linear_3788_16041)"/>
<path d="M12.308 26.1152C11.8193 28.3259 11.5726 30.5832 11.5723 32.8472V38.2395H13.0794C13.7434 38.2395 14.3678 37.9234 14.761 37.3883C14.991 37.0752 15.3011 36.8257 15.6643 36.6877C16.1603 36.4995 16.6185 36.2238 17.0171 35.8737C17.927 35.0739 18.6729 34.1047 19.213 33.0202L12.308 26.1152Z" fill="url(#paint4_linear_3788_16041)"/>
<path d="M12.3084 26.1152C12.3084 26.1152 10.3933 29.5985 5.97026 32.5086C4.02069 33.7914 2.65026 35.7866 2.1363 38.063C1.91222 39.0558 2.66704 40 3.68469 40H9.83081C10.8034 40 11.7612 39.7621 12.6206 39.3069C13.4801 38.8517 14.2152 38.1932 14.7617 37.3887C13.4067 37.3887 12.3084 36.2903 12.3084 34.9354V26.1152Z" fill="url(#paint5_linear_3788_16041)"/>
<path d="M24.1156 6.21094L25.1725 12.7783C25.5378 15.0485 25.7214 17.3442 25.7214 19.6436V22.6424H22.5156V6.21094H24.1156Z" fill="url(#paint6_linear_3788_16041)"/>
<path d="M20.1025 13.0024H24.4017V2.37582C24.4017 1.56045 23.6287 0.991427 22.8943 1.26625C21.2199 1.89292 20.1025 3.55166 20.1025 5.41088V13.0024Z" fill="url(#paint7_linear_3788_16041)"/>
<path d="M19.8139 28.4346L20.1747 20.3282C20.3483 17.779 20.3141 15.22 20.0724 12.6764L19.9164 11.0345C19.7543 9.32907 21.0975 7.85464 22.8115 7.85841C23.7557 7.86052 24.5188 8.63095 24.5188 9.57519V12.6819C24.5188 15.2072 24.9529 17.7138 25.8021 20.0921L26.6099 22.3543C27.8124 25.722 28.427 29.2715 28.427 32.8475V38.2397H26.9199C26.5925 38.2397 26.2697 38.1627 25.9776 38.0148C25.6854 37.867 25.4322 37.6524 25.2383 37.3886C25.0083 37.0755 24.6982 36.8259 24.335 36.688C23.839 36.4998 23.3808 36.2241 22.9822 35.874C21.9311 34.9501 21.1008 33.802 20.5524 32.5145C20.0041 31.2269 19.7517 29.8327 19.8139 28.4346Z" fill="url(#paint8_linear_3788_16041)"/>
<path d="M28.4271 32.8474V38.2398H26.9196C26.5922 38.2399 26.2694 38.1629 25.9773 38.015C25.6853 37.8671 25.4322 37.6525 25.2385 37.3885C25.0083 37.0755 24.6982 36.8259 24.3345 36.6884C23.8388 36.4998 23.3807 36.2241 22.9821 35.8742C21.9311 34.9502 21.1008 33.8022 20.5525 32.5146C20.0042 31.2271 19.7518 29.833 19.8139 28.435L20.1747 20.3288C20.3483 17.7796 20.3141 15.2205 20.0723 12.6769L19.9163 11.0348C19.8866 10.7267 19.907 10.4158 19.9768 10.1143L24.6184 14.7549C24.7892 16.5762 25.1869 18.369 25.8022 20.0917L26.6096 22.354C27.812 25.7219 28.4268 29.2713 28.4271 32.8474Z" fill="url(#paint9_linear_3788_16041)"/>
<path d="M27.6916 26.1152C27.6916 26.1152 29.6067 29.5985 34.0297 32.5086C35.9793 33.7914 37.3497 35.7866 37.8637 38.063C38.0878 39.0558 37.3329 40 36.3153 40H30.1692C29.1966 40 28.2388 39.7621 27.3794 39.3069C26.5199 38.8517 25.7848 38.1932 25.2383 37.3887C26.5933 37.3887 27.6916 36.2903 27.6916 34.9354V26.1152Z" fill="url(#paint10_linear_3788_16041)"/>
<path d="M19.7287 18.1253C19.6896 16.3067 19.7558 14.4874 19.9272 12.6765L19.9997 11.9126L20.0723 12.6765C20.2605 14.663 20.3221 16.6594 20.2569 18.6537L27.6808 26.0776C27.4012 24.8177 27.0452 23.5739 26.6098 22.3544L25.802 20.0922C25.3403 18.7982 25.0007 17.4639 24.7875 16.1067L18.0358 9.37012L14.8268 12.7787C14.8061 12.9071 14.787 13.0358 14.7676 13.1644L19.7287 18.1253Z" fill="url(#paint11_linear_3788_16041)"/>
<path d="M17.9441 10.1744C16.4697 11.1397 15.2158 12.4056 14.2646 13.8893C14.0509 14.2227 13.5563 14.2227 13.3427 13.8893C12.3916 12.4056 11.1377 11.1397 9.6632 10.1745C9.33622 9.96055 9.33622 9.47279 9.6632 9.25883C11.1377 8.29354 12.3916 7.02762 13.3427 5.544C13.5564 5.21059 14.051 5.21059 14.2647 5.544C15.2158 7.02764 16.4697 8.29356 17.9442 9.25883C18.2711 9.47271 18.2711 9.96047 17.9441 10.1744Z" fill="url(#paint12_linear_3788_16041)"/>
<path d="M13.016 16.2C12.2788 16.6826 11.6518 17.3156 11.1763 18.0575C11.0695 18.2242 10.8222 18.2242 10.7153 18.0575C10.2397 17.3157 9.61278 16.6827 8.87558 16.2C8.71205 16.0931 8.71205 15.8491 8.87558 15.7422C9.61283 15.2596 10.2398 14.6267 10.7153 13.8848C10.8221 13.7181 11.0694 13.7181 11.1763 13.8848C11.6519 14.6266 12.2788 15.2596 13.016 15.7422C13.1795 15.8491 13.1795 16.0931 13.016 16.2Z" fill="url(#paint13_linear_3788_16041)"/>
<path d="M34.8959 24.6356C34.1587 25.1182 33.5317 25.7512 33.0562 26.493C32.9493 26.6597 32.702 26.6597 32.5951 26.493C32.1196 25.7512 31.4927 25.1182 30.7555 24.6356C30.5919 24.5286 30.5919 24.2847 30.7555 24.1778C31.4927 23.6952 32.1196 23.0622 32.5951 22.3204C32.702 22.1536 32.9493 22.1536 33.0562 22.3204C33.5318 23.0622 34.1587 23.6951 34.8959 24.1778C35.0595 24.2848 35.0595 24.5286 34.8959 24.6356Z" fill="url(#paint14_linear_3788_16041)"/>
<path d="M7.66348 26.8465C6.92622 27.3291 6.29926 27.9621 5.82371 28.7039C5.71689 28.8707 5.4696 28.8707 5.36269 28.7039C4.88713 27.9621 4.26021 27.3292 3.52301 26.8465C3.35948 26.7395 3.35956 26.4956 3.52301 26.3887C4.26027 25.9061 4.8872 25.2732 5.36269 24.5313C5.46952 24.3646 5.71681 24.3646 5.82371 24.5313C6.29931 25.2731 6.92625 25.9061 7.66348 26.3887C7.82693 26.4956 7.82693 26.7395 7.66348 26.8465Z" fill="url(#paint15_linear_3788_16041)"/>
<path d="M31.6791 17.6825C30.9419 18.1651 30.3149 18.798 29.8394 19.5399C29.7325 19.7066 29.4853 19.7066 29.3783 19.5399C28.9028 18.7981 28.2759 18.1651 27.5387 17.6825C27.3751 17.5755 27.3751 17.3316 27.5387 17.2247C28.2759 16.7421 28.9028 16.1091 29.3783 15.3672C29.4852 15.2005 29.7325 15.2005 29.8394 15.3672C30.315 16.109 30.9419 16.742 31.6791 17.2247C31.8427 17.3316 31.8427 17.5755 31.6791 17.6825Z" fill="url(#paint16_linear_3788_16041)"/>
<defs>
<radialGradient id="paint0_radial_3788_16041" cx="0" cy="0" r="1" gradientUnits="userSpaceOnUse" gradientTransform="translate(20 20) scale(20)">
<stop stop-color="#FFE548"/>
<stop offset="0.109" stop-color="#FFE650" stop-opacity="0.891"/>
<stop offset="0.275" stop-color="#FFE965" stop-opacity="0.725"/>
<stop offset="0.478" stop-color="#FFEE88" stop-opacity="0.522"/>
<stop offset="0.71" stop-color="#FFF5B8" stop-opacity="0.29"/>
<stop offset="0.963" stop-color="#FFFEF5" stop-opacity="0.037"/>
<stop offset="1" stop-color="white" stop-opacity="0"/>
</radialGradient>
<linearGradient id="paint1_linear_3788_16041" x1="15.8812" y1="7.89502" x2="15.8812" y2="28.2441" gradientUnits="userSpaceOnUse">
<stop stop-color="#FCCECE"/>
<stop offset="1" stop-color="#FBA5C2"/>
</linearGradient>
<linearGradient id="paint2_linear_3788_16041" x1="16.1242" y1="6.80641" x2="19.5859" y2="9.63425" gradientUnits="userSpaceOnUse">
<stop stop-color="#FCCECE"/>
<stop offset="1" stop-color="#FBA5C2"/>
</linearGradient>
<linearGradient id="paint3_linear_3788_16041" x1="13.8689" y1="22.8211" x2="20.0121" y2="24.7226" gradientUnits="userSpaceOnUse">
<stop stop-color="#FCCECE"/>
<stop offset="1" stop-color="#FBA5C2"/>
</linearGradient>
<linearGradient id="paint4_linear_3788_16041" x1="15.3062" y1="33.5205" x2="5.40874" y2="29.5712" gradientUnits="userSpaceOnUse">
<stop stop-color="#FCCECE" stop-opacity="0"/>
<stop offset="1" stop-color="#BB4966"/>
</linearGradient>
<linearGradient id="paint5_linear_3788_16041" x1="7.40336" y1="32.8386" x2="12.8641" y2="43.0774" gradientUnits="userSpaceOnUse">
<stop stop-color="#A34A9E"/>
<stop offset="1" stop-color="#343168"/>
</linearGradient>
<linearGradient id="paint6_linear_3788_16041" x1="24.1184" y1="7.89502" x2="24.1184" y2="28.2441" gradientUnits="userSpaceOnUse">
<stop stop-color="#FCCECE"/>
<stop offset="1" stop-color="#FBA5C2"/>
</linearGradient>
<linearGradient id="paint7_linear_3788_16041" x1="20.7984" y1="5.74437" x2="24.5039" y2="10.1324" gradientUnits="userSpaceOnUse">
<stop stop-color="#FCCECE"/>
<stop offset="1" stop-color="#FBA5C2"/>
</linearGradient>
<linearGradient id="paint8_linear_3788_16041" x1="22.7397" y1="21.7308" x2="32.6859" y2="28.0692" gradientUnits="userSpaceOnUse">
<stop stop-color="#FCCECE"/>
<stop offset="1" stop-color="#FBA5C2"/>
</linearGradient>
<linearGradient id="paint9_linear_3788_16041" x1="20.3399" y1="23.2453" x2="10.2698" y2="20.0619" gradientUnits="userSpaceOnUse">
<stop stop-color="#FCCECE" stop-opacity="0"/>
<stop offset="1" stop-color="#BB4966"/>
</linearGradient>
<linearGradient id="paint10_linear_3788_16041" x1="29.2264" y1="31.4759" x2="33.081" y2="41.6297" gradientUnits="userSpaceOnUse">
<stop stop-color="#A34A9E"/>
<stop offset="1" stop-color="#343168"/>
</linearGradient>
<linearGradient id="paint11_linear_3788_16041" x1="20.3533" y1="15.9477" x2="12.2706" y2="10.2172" gradientUnits="userSpaceOnUse">
<stop stop-color="#FCCECE" stop-opacity="0"/>
<stop offset="1" stop-color="#BB4966"/>
</linearGradient>
<linearGradient id="paint12_linear_3788_16041" x1="9.46964" y1="4.26965" x2="15.8431" y2="12.2796" gradientUnits="userSpaceOnUse">
<stop stop-color="#FFE548"/>
<stop offset="0.176" stop-color="#FFDE50"/>
<stop offset="0.445" stop-color="#FFCA65"/>
<stop offset="0.771" stop-color="#FFAA87"/>
<stop offset="1" stop-color="#FF90A4"/>
</linearGradient>
<linearGradient id="paint13_linear_3788_16041" x1="8.77871" y1="13.2476" x2="11.9655" y2="17.2526" gradientUnits="userSpaceOnUse">
<stop stop-color="#FFE548"/>
<stop offset="0.176" stop-color="#FFDE50"/>
<stop offset="0.445" stop-color="#FFCA65"/>
<stop offset="0.771" stop-color="#FFAA87"/>
<stop offset="1" stop-color="#FF90A4"/>
</linearGradient>
<linearGradient id="paint14_linear_3788_16041" x1="30.6587" y1="21.6832" x2="33.8454" y2="25.6882" gradientUnits="userSpaceOnUse">
<stop stop-color="#FFE548"/>
<stop offset="0.176" stop-color="#FFDE50"/>
<stop offset="0.445" stop-color="#FFCA65"/>
<stop offset="0.771" stop-color="#FFAA87"/>
<stop offset="1" stop-color="#FF90A4"/>
</linearGradient>
<linearGradient id="paint15_linear_3788_16041" x1="3.42615" y1="23.8941" x2="6.61289" y2="27.8991" gradientUnits="userSpaceOnUse">
<stop stop-color="#FFE548"/>
<stop offset="0.176" stop-color="#FFDE50"/>
<stop offset="0.445" stop-color="#FFCA65"/>
<stop offset="0.771" stop-color="#FFAA87"/>
<stop offset="1" stop-color="#FF90A4"/>
</linearGradient>
<linearGradient id="paint16_linear_3788_16041" x1="27.4419" y1="14.7301" x2="30.6286" y2="18.735" gradientUnits="userSpaceOnUse">
<stop stop-color="#FFE548"/>
<stop offset="0.176" stop-color="#FFDE50"/>
<stop offset="0.445" stop-color="#FFCA65"/>
<stop offset="0.771" stop-color="#FFAA87"/>
<stop offset="1" stop-color="#FF90A4"/>
</linearGradient>
</defs>
</svg>
