<svg width="20" height="20" viewBox="0 0 20 20" fill="none" xmlns="http://www.w3.org/2000/svg">
<path fill-rule="evenodd" clip-rule="evenodd" d="M13.4475 12.9649C13.3841 12.7978 13.3188 12.6258 13.2957 12.5631L13.2725 12.5H15.8333C17.3913 12.5 18.3333 11.4021 18.3333 10C18.3333 5.04703 17.2959 1.66667 15 1.66667C15 1.66667 9.18595 1.66686 9.16577 1.66643C8.61737 1.6566 7.9212 1.73371 7.21927 1.98485C6.91254 2.0946 6.63035 2.23114 6.37745 2.39475C6.07736 1.9552 5.57238 1.66667 5 1.66667H3.33333C2.41286 1.66667 1.66666 2.41286 1.66666 3.33334V10.8333C1.66666 11.7538 2.41286 12.5 3.33333 12.5H5C5.1653 12.5 5.32497 12.4759 5.47572 12.4311C6.05647 13.2767 7.5255 14.9554 8.70584 16.3042C9.34582 17.0355 9.90093 17.6698 10.1836 18.0218L10.4337 18.3333H10.8397C11.3457 18.3334 11.7852 18.295 12.2902 18.1479C13.4099 17.8219 14.1667 17.06 14.1667 15.8333C14.1667 15.3999 14.0899 14.9378 13.9485 14.4249C13.855 14.0855 13.7393 13.7429 13.5809 13.3176C13.5582 13.2568 13.5036 13.1128 13.4475 12.9649ZM6.66666 10.8333V5C6.66666 4.24815 7.0433 3.81794 7.78073 3.5541C8.25885 3.38303 8.77114 3.32629 9.138 3.33284L13.7782 3.33332L15 3.33334C15.8459 3.33334 16.6667 6.00772 16.6667 10C16.6667 10.5334 16.4093 10.8333 15.8333 10.8333H12.5C11.5045 10.8333 11.2963 11.603 11.5039 12.4364C11.5527 12.6324 11.6241 12.8482 11.7325 13.1412C11.7585 13.2116 11.8288 13.397 11.8944 13.5699L11.8947 13.5705L11.8957 13.5732C11.949 13.7137 11.999 13.8454 12.0191 13.8995C12.162 14.283 12.2635 14.5837 12.3418 14.8678C12.4466 15.2481 12.5 15.5695 12.5 15.8333C12.5 16.2091 12.3018 16.4087 11.8243 16.5477C11.6236 16.6061 11.4262 16.6383 11.2166 16.6541C10.7783 16.13 10.1505 15.4139 9.50442 14.6767L9.50402 14.6763L9.50389 14.6761C8.25161 13.2474 6.93037 11.74 6.78476 11.4C6.70369 11.2107 6.66666 11.0335 6.66666 10.8333ZM3.33333 10.8333V3.33334H5V10.8333H3.33333Z" fill="currentColor"/>
</svg>
