<svg width="20" height="20" viewBox="0 0 20 20" fill="none" xmlns="http://www.w3.org/2000/svg">
<path fill-rule="evenodd" clip-rule="evenodd" d="M18.3333 9.99926C18.3333 8.59719 17.3913 7.49926 15.8333 7.49926H13.2725L13.2957 7.43615C13.3188 7.37363 13.3838 7.20214 13.4471 7.03536L13.4475 7.03434C13.5036 6.88648 13.5582 6.7425 13.5809 6.68168C13.7393 6.25639 13.855 5.91372 13.9485 5.57436C14.0899 5.06145 14.1667 4.59935 14.1667 4.16592C14.1667 2.93925 13.4099 2.17736 12.2902 1.85133C11.7852 1.70428 11.3457 1.66585 10.8333 1.66592H10.4337L10.1836 1.97749C9.90094 2.32946 9.34583 2.96378 8.70584 3.69509L8.70584 3.6951L8.70583 3.69511C7.52521 5.0442 6.05575 6.72335 5.4753 7.56876C5.32468 7.52402 5.16514 7.5 5 7.5H3.33333C2.41286 7.5 1.66667 8.24619 1.66667 9.16667V16.6667C1.66667 17.5871 2.41286 18.3333 3.33333 18.3333H5C5.57261 18.3333 6.07776 18.0446 6.3778 17.6047C6.63061 17.7682 6.91268 17.9047 7.21927 18.0144C7.9212 18.2656 8.61737 18.3427 9.19534 18.3321L15 18.3326C17.296 18.3326 18.3333 14.9522 18.3333 9.99926ZM7.78073 16.4452C7.04331 16.1813 6.66667 15.7511 6.66667 14.9993V9.16667V9.16592C6.66667 8.96576 6.70369 8.78851 6.78476 8.59924C6.93038 8.25926 8.25161 6.75187 9.5039 5.32315L9.50391 5.32313C10.1502 4.58577 10.7782 3.86936 11.2166 3.3452C11.4262 3.36092 11.6236 3.39311 11.8243 3.45154C12.3018 3.59059 12.5 3.79011 12.5 4.16592C12.5 4.42974 12.4466 4.75119 12.3418 5.13143C12.2635 5.41557 12.162 5.71623 12.0191 6.09981C11.9988 6.15424 11.9482 6.28759 11.8944 6.42939L11.8941 6.43023L11.8937 6.43121C11.8284 6.60355 11.7584 6.78793 11.7325 6.85805C11.6241 7.15107 11.5527 7.36681 11.5039 7.56285C11.2963 8.39622 11.5045 9.16592 12.5 9.16592H15.8333C16.4094 9.16592 16.6667 9.46583 16.6667 9.99926C16.6667 13.9915 15.8459 16.6659 15 16.6659H9.16667L9.13589 16.6664C8.77115 16.673 8.25885 16.6162 7.78073 16.4452ZM3.33333 16.6667V9.16667H5V16.6667H3.33333Z" fill="currentColor"/>
</svg>
