<svg width="17" height="20" viewBox="0 0 17 20" fill="currentColor" xmlns="http://www.w3.org/2000/svg">
<path d="M14.25 6.75L13.41 15.148C13.283 16.421 13.22 17.057 12.93 17.538C12.6757 17.9614 12.3016 18.3 11.855 18.511C11.348 18.75 10.71 18.75 9.43 18.75H7.07C5.791 18.75 5.152 18.75 4.645 18.51C4.19805 18.2991 3.82361 17.9606 3.569 17.537C3.281 17.057 3.217 16.421 3.089 15.148L2.25 6.75M9.75 13.25V8.25M6.75 13.25V8.25M0.75 4.25H5.365M5.365 4.25L5.751 1.578C5.863 1.092 6.267 0.75 6.731 0.75H9.769C10.233 0.75 10.636 1.092 10.749 1.578L11.135 4.25M5.365 4.25H11.135M11.135 4.25H15.75" stroke="#919EAB" stroke-width="1.5" stroke-linecap="round" stroke-linejoin="round"/>
</svg>
