<svg width="26" height="26" viewBox="0 0 26 26" fill="none" xmlns="http://www.w3.org/2000/svg">
<path d="M13.0713 25.8125C15.8095 25.8125 17.9604 25.8126 19.6396 25.5869C21.3605 25.3556 22.7261 24.8716 23.7988 23.7988C24.8716 22.7261 25.3556 21.3605 25.5869 19.6396C25.8126 17.9604 25.8125 15.8095 25.8125 13.0713V12.9287C25.8125 10.1905 25.8126 8.03958 25.5869 6.36035C25.3556 4.63953 24.8716 3.27392 23.7988 2.20117C22.7261 1.12842 21.3605 0.644444 19.6396 0.413086C17.9604 0.187359 15.8095 0.187483 13.0713 0.1875H12.9287C10.1905 0.187483 8.03957 0.187359 6.36035 0.413086C4.63953 0.644444 3.27392 1.12842 2.20117 2.20117C1.12842 3.27392 0.644445 4.63953 0.413086 6.36035C0.187359 8.03957 0.187484 10.1905 0.1875 12.9287L0.1875 13.0713C0.187484 15.8095 0.187359 17.9604 0.413086 19.6396C0.644445 21.3605 1.12842 22.7261 2.20117 23.7988C3.27392 24.8716 4.63953 25.3556 6.36035 25.5869C8.03958 25.8126 10.1905 25.8125 12.9287 25.8125H13.0713ZM9.45801 19.875C7.8645 19.875 6.35582 19.5087 5.01074 18.8555C4.78916 18.7479 4.85426 18.433 5.09863 18.3926C6.42872 18.1724 8.17676 17.677 8.17676 16.8418C6.33001 14.9766 5.18848 11.974 5.18848 9.13281C5.18848 8.31907 5.28195 7.52698 5.45898 6.76758C5.50872 6.55537 5.79839 6.5136 5.92676 6.69238C7.40471 8.75076 9.77457 10.4219 12.4463 10.4219C12.6244 10.4219 12.8013 10.4157 12.9766 10.4043C12.9092 10.1349 12.873 9.85294 12.873 9.5625C12.873 7.66402 14.4028 6.125 16.2891 6.125C17.1551 6.12511 17.9459 6.44962 18.5479 6.98438L20.6689 6.66602C20.9828 6.61906 21.2229 6.9268 21.085 7.19922L19.6973 9.93848C19.5005 15.4595 14.9916 19.8749 9.45801 19.875Z" fill="#DA8661"/>
</svg>
