<svg width="373" height="313" viewBox="0 0 373 313" fill="none" xmlns="http://www.w3.org/2000/svg">
<g clip-path="url(#clip0_3644_19318)">
<path d="M253.698 20.297H119.303C116.608 20.297 114.023 19.2278 112.117 17.3246C110.212 15.4214 109.141 12.8401 109.141 10.1485C109.141 7.45696 110.212 4.87564 112.117 2.97243C114.023 1.06921 116.608 0 119.303 0H253.698C256.393 0 258.977 1.06921 260.883 2.97243C262.789 4.87564 263.859 7.45696 263.859 10.1485C263.859 12.8401 262.789 15.4214 260.883 17.3246C258.977 19.2278 256.393 20.297 253.698 20.297Z" fill="#DA8661"/>
<path d="M371.421 36.5252H1.5789C1.15698 36.5159 0.755467 36.342 0.460358 36.0407C0.16525 35.7394 0 35.3346 0 34.9131C0 34.4917 0.16525 34.0869 0.460358 33.7856C0.755467 33.4843 1.15698 33.3104 1.5789 33.3011H371.421C371.843 33.3104 372.244 33.4843 372.54 33.7856C372.835 34.0869 373 34.4917 373 34.9131C373 35.3346 372.835 35.7394 372.54 36.0407C372.244 36.342 371.843 36.5159 371.421 36.5252Z" fill="#E6E6E6"/>
<path d="M20.0487 15.9038C23.1106 15.9038 25.5927 13.3696 25.5927 10.2435C25.5927 7.11739 23.1106 4.58319 20.0487 4.58319C16.9868 4.58319 14.5046 7.11739 14.5046 10.2435C14.5046 13.3696 16.9868 15.9038 20.0487 15.9038Z" fill="#3F3D56"/>
<path d="M39.2008 15.9038C42.2627 15.9038 44.7448 13.3696 44.7448 10.2435C44.7448 7.11739 42.2627 4.58319 39.2008 4.58319C36.1389 4.58319 33.6567 7.11739 33.6567 10.2435C33.6567 13.3696 36.1389 15.9038 39.2008 15.9038Z" fill="#3F3D56"/>
<path d="M58.3529 15.9038C61.4148 15.9038 63.8969 13.3696 63.8969 10.2435C63.8969 7.11739 61.4148 4.58319 58.3529 4.58319C55.291 4.58319 52.8088 7.11739 52.8088 10.2435C52.8088 13.3696 55.291 15.9038 58.3529 15.9038Z" fill="#3F3D56"/>
<path d="M80.1914 14.7172C80.1041 14.7173 80.0176 14.7 79.9371 14.6661C79.8566 14.6323 79.7837 14.5827 79.7228 14.5203L75.9819 10.7012C75.8621 10.5789 75.7949 10.4145 75.7949 10.2434C75.7949 10.0722 75.8621 9.90786 75.9819 9.78556L79.7228 5.96676C79.8447 5.84452 80.0101 5.77533 80.1829 5.77423C80.3557 5.77313 80.522 5.84021 80.6455 5.96089C80.769 6.08157 80.8399 6.24609 80.8426 6.41865C80.8453 6.59121 80.7797 6.75787 80.66 6.88237L77.3677 10.2434L80.66 13.6047C80.7503 13.6968 80.8113 13.8135 80.8354 13.9401C80.8595 14.0667 80.8457 14.1976 80.7956 14.3164C80.7456 14.4352 80.6616 14.5366 80.5541 14.6079C80.4466 14.6792 80.3204 14.7172 80.1914 14.7172Z" fill="#3F3D56"/>
<path d="M86.4773 14.7172C86.3483 14.7172 86.2221 14.6792 86.1146 14.6079C86.0071 14.5366 85.9231 14.4352 85.8731 14.3164C85.823 14.1976 85.8092 14.0667 85.8333 13.9401C85.8575 13.8135 85.9184 13.6968 86.0087 13.6047L89.3007 10.2434L86.0087 6.88237C85.889 6.75787 85.8234 6.59121 85.8261 6.41865C85.8288 6.24609 85.8997 6.08157 86.0232 5.96089C86.1467 5.84021 86.313 5.77313 86.4858 5.77423C86.6586 5.77533 86.824 5.84452 86.946 5.96676L90.6864 9.78556C90.8063 9.90786 90.8735 10.0722 90.8735 10.2434C90.8735 10.4145 90.8063 10.5789 90.6864 10.7012L86.946 14.5203C86.885 14.5827 86.8121 14.6323 86.7316 14.6661C86.6511 14.7 86.5646 14.7173 86.4773 14.7172Z" fill="#E6E6E6"/>
<path d="M332.911 5.23795C332.53 5.23842 332.165 5.38983 331.895 5.65899C331.626 5.92815 331.474 6.29306 331.474 6.6737V13.6233C331.474 14.004 331.626 14.3689 331.895 14.638C332.165 14.9072 332.53 15.0586 332.911 15.0591H339.87C340.251 15.0586 340.616 14.9072 340.886 14.638C341.155 14.3689 341.307 14.004 341.307 13.6233V6.6737C341.307 6.29306 341.155 5.92815 340.886 5.65899C340.616 5.38983 340.251 5.23842 339.87 5.23795H332.911Z" fill="#E6E6E6"/>
<path d="M315.866 5.23795C315.485 5.23842 315.119 5.38983 314.85 5.65899C314.58 5.92815 314.429 6.29306 314.428 6.6737V13.6233C314.429 14.004 314.58 14.3689 314.85 14.638C315.119 14.9072 315.485 15.0586 315.866 15.0591H322.824C323.206 15.0586 323.571 14.9072 323.84 14.638C324.11 14.3689 324.262 14.004 324.262 13.6233V6.6737C324.262 6.29306 324.11 5.92815 323.84 5.65899C323.571 5.38983 323.206 5.23842 322.824 5.23795H315.866Z" fill="#E6E6E6"/>
<path d="M348.973 5.56532C348.592 5.56579 348.226 5.71721 347.957 5.98637C347.687 6.25552 347.536 6.62043 347.535 7.00108V13.9507C347.536 14.3313 347.687 14.6963 347.957 14.9654C348.226 15.2346 348.592 15.386 348.973 15.3865H355.932C356.313 15.386 356.678 15.2346 356.948 14.9654C357.217 14.6963 357.369 14.3313 357.369 13.9507V7.00108C357.369 6.62043 357.217 6.25552 356.948 5.98637C356.678 5.71721 356.313 5.56579 355.932 5.56532H348.973Z" fill="#E6E6E6"/>
<path d="M269.432 152.555H103.568C99.5708 152.551 95.7381 150.963 92.9113 148.139C90.0845 145.316 88.4945 141.488 88.49 137.496V75.9501C88.4945 71.9576 90.0846 68.1299 92.9114 65.3068C95.7382 62.4836 99.5708 60.8956 103.568 60.8911H269.432C273.429 60.8956 277.262 62.4836 280.089 65.3068C282.915 68.1299 284.506 71.9576 284.51 75.9501V137.496C284.506 141.488 282.916 145.316 280.089 148.139C277.262 150.963 273.429 152.551 269.432 152.555Z" fill="#F2F2F2"/>
<path d="M178.926 11.7093H123.326C122.861 11.7093 122.416 11.525 122.087 11.197C121.759 10.869 121.574 10.4242 121.574 9.96033C121.574 9.49649 121.759 9.05165 122.087 8.72366C122.416 8.39567 122.861 8.21141 123.326 8.21141H178.926C179.39 8.21141 179.835 8.39567 180.164 8.72366C180.492 9.05165 180.677 9.49649 180.677 9.96033C180.677 10.4242 180.492 10.869 180.164 11.197C179.835 11.525 179.39 11.7093 178.926 11.7093Z" fill="white"/>
<path d="M120.485 313L120.057 312.841C112.884 310.139 106.387 305.91 101.017 300.447C95.6467 294.985 91.5319 288.42 88.9586 281.208C87.5474 277.152 86.6533 272.934 86.2973 268.655L86.2623 268.246L86.6661 268.318C91.487 269.182 96.5479 269.66 98.8028 269.847L86.1523 261.487L86.1752 261.052C86.2715 259.057 86.9637 257.137 88.1627 255.538C89.3616 253.94 91.0124 252.737 92.9023 252.084C94.8102 251.38 96.8853 251.263 98.8604 251.748C100.835 252.232 102.62 253.297 103.984 254.803C105.242 256.167 106.571 257.539 107.857 258.866C112.275 263.427 116.844 268.143 119.733 273.71C121.879 277.945 123.05 282.606 123.161 287.351C123.272 292.096 122.32 296.807 120.375 301.137L120.485 313Z" fill="#F2F2F2"/>
<path d="M320.28 311.857L64.7816 312.058C64.6789 312.058 64.5772 312.038 64.4822 311.999C64.3872 311.96 64.3009 311.903 64.2282 311.831C64.1555 311.758 64.0978 311.672 64.0584 311.577C64.019 311.483 63.9988 311.381 63.9988 311.278C63.9988 311.176 64.019 311.074 64.0584 310.98C64.0978 310.885 64.1555 310.799 64.2282 310.726C64.3009 310.654 64.3872 310.597 64.4822 310.558C64.5772 310.519 64.6789 310.499 64.7816 310.499L320.28 310.298C320.383 310.297 320.485 310.317 320.58 310.356C320.674 310.395 320.761 310.453 320.834 310.525C320.906 310.598 320.964 310.684 321.003 310.778C321.043 310.873 321.063 310.975 321.063 311.077C321.063 311.18 321.043 311.281 321.003 311.376C320.964 311.471 320.906 311.557 320.834 311.629C320.761 311.702 320.674 311.759 320.58 311.798C320.485 311.837 320.383 311.857 320.28 311.857Z" fill="#CACACA"/>
<path d="M265.776 120.569L263.126 79.576C263.009 77.8396 262.213 76.2189 260.909 75.0637C259.606 73.9085 257.9 73.3113 256.16 73.4011C255.26 73.4476 254.378 73.6767 253.57 74.0745C252.761 74.4722 252.042 75.0303 251.456 75.7147C250.87 76.3991 250.43 77.1954 250.163 78.0552C249.895 78.915 249.806 79.8201 249.9 80.7155L253.959 123.213L255.336 149.14C254.266 149.66 253.382 150.496 252.805 151.534C252.227 152.573 251.984 153.764 252.108 154.946C252.232 156.127 252.717 157.242 253.498 158.139C254.278 159.036 255.316 159.671 256.47 159.958C257.625 160.245 258.84 160.17 259.95 159.743C261.06 159.317 262.012 158.559 262.676 157.574C263.341 156.588 263.685 155.422 263.662 154.234C263.64 153.046 263.252 151.894 262.551 150.934L265.776 120.569Z" fill="#A0616A"/>
<path d="M267.438 87.6861C267.727 87.3704 267.905 86.9685 267.944 86.5421C267.983 86.1157 267.88 85.6884 267.652 85.3257C267.38 84.873 267.255 84.3466 267.296 83.8198C267.306 83.7181 267.321 83.617 267.344 83.5173C267.494 82.92 267.497 82.2954 267.353 81.6966C267.209 81.0978 266.923 80.5425 266.518 80.0779C265.164 78.5679 264.453 76.234 264.106 74.1431C263.727 71.8551 263.465 69.5122 262.548 67.3815C261.226 64.3079 258.233 61.6339 254.333 63.1053C252.684 63.7569 251.311 64.9562 250.444 66.5011C248.588 69.7072 248.703 73.4989 248.849 77.1252L248.089 75.7175C248.317 79.6755 247.741 83.6386 246.398 87.3692C247.272 87.167 247.937 88.3253 247.683 89.1845C247.429 90.0437 246.663 90.6298 246.011 91.2446C245.188 92.0195 244.427 93.1539 245.264 94.2627C245.472 94.5223 245.732 94.7362 246.026 94.8909C246.321 95.0456 246.644 95.1378 246.976 95.1617C253.239 95.7469 259.555 95.0323 265.528 93.0627C266.854 92.6245 268.272 92.0313 268.926 90.7985C269.58 89.5656 268.833 87.6165 267.438 87.6861Z" fill="#DA8661"/>
<path d="M221.072 296.759H213.836L210.393 268.884H221.073L221.072 296.759Z" fill="#A0616A"/>
<path d="M224.892 309.28H219.702L218.776 304.387L216.404 309.28H202.64C201.981 309.28 201.338 309.069 200.807 308.679C200.275 308.288 199.883 307.739 199.687 307.11C199.49 306.48 199.5 305.805 199.715 305.182C199.931 304.56 200.339 304.022 200.882 303.647L211.873 296.066V291.12L223.434 291.809L224.892 309.28Z" fill="#2F2E41"/>
<path d="M259.976 290.394L253.236 293.025L239.868 268.315L249.815 264.432L259.976 290.394Z" fill="#A0616A"/>
<path d="M268.097 300.667L263.264 302.554L260.618 298.334L260.192 303.753L247.373 308.758C246.758 308.997 246.083 309.035 245.446 308.864C244.809 308.694 244.243 308.325 243.831 307.81C243.418 307.296 243.182 306.663 243.155 306.005C243.128 305.346 243.313 304.697 243.682 304.151L251.156 293.094L249.353 288.486L260.371 284.925L268.097 300.667Z" fill="#2F2E41"/>
<path d="M255.426 116.544H221.665C221.665 116.544 208.952 207.223 208.915 207.388C208.879 207.553 216.09 210.172 212.812 213.446L209.535 216.72C206.912 219.339 211.481 228.288 211.481 228.288L206.257 281.539H227.834L238.38 171.543L224.113 224.277L242.701 281.539L256.081 273.682L258.703 266.48L253.494 261.277C253.494 261.277 252.148 253.458 252.148 248.838C252.148 244.219 256.081 248.147 252.148 244.219C250.446 242.519 245.655 221.664 245.655 221.664L261.326 171.543L265.06 149.169C266.02 143.401 265.156 137.479 262.588 132.225C260.512 127.973 257.896 122.404 255.426 116.544Z" fill="#2F2E41"/>
<path d="M257.392 60.891L255.149 54.1688C254.65 52.6731 253.714 51.3605 252.463 50.3994C251.211 49.4383 249.701 48.8726 248.125 48.7749L246.132 48.6512C244.358 48.5413 242.599 49.03 241.137 50.039C239.676 51.0479 238.596 52.5184 238.072 54.2142C237.613 55.7145 236.715 57.0436 235.495 58.0315C234.274 59.0193 232.787 59.6209 231.222 59.7591C225.395 60.2549 216.746 62.0147 216.746 68.0932C216.746 77.2596 226.58 101.485 224.613 103.449C222.646 105.414 218.057 113.508 220.68 115.889C221.363 116.51 220.812 119.495 220.593 121.632C220.197 125.504 247.559 116.944 255.426 119.163C263.293 121.382 259.359 104.759 260.67 103.449C261.901 101.951 262.998 100.348 263.949 98.6582C264.413 97.8806 264.741 97.0289 264.916 96.1403L267.174 84.7268C267.211 84.5368 267.241 84.3507 267.265 84.1585C267.563 81.7155 269.31 65.2786 262.637 62.8553C255.426 60.2363 257.392 60.891 257.392 60.891Z" fill="#DA8661"/>
<path d="M182.169 44.3984L212.069 72.6065C213.34 73.7978 215.028 74.4425 216.77 74.4016C218.512 74.3606 220.168 73.6372 221.381 72.3875C222.009 71.741 222.498 70.9737 222.818 70.1322C223.139 69.2908 223.285 68.393 223.247 67.4935C223.209 66.5939 222.988 65.7116 222.597 64.9001C222.207 64.0887 221.655 63.3652 220.975 62.7738L189.016 34.4235L170.324 16.3793C170.753 15.271 170.83 14.0578 170.544 12.9045C170.258 11.7511 169.624 10.7136 168.727 9.93285C167.83 9.15209 166.715 8.66594 165.532 8.54045C164.349 8.41497 163.156 8.65624 162.115 9.23147C161.074 9.80671 160.236 10.688 159.714 11.7557C159.192 12.8233 159.012 14.0256 159.198 15.199C159.384 16.3725 159.927 17.4604 160.754 18.3147C161.58 19.1691 162.65 19.7486 163.818 19.9746L182.169 44.3984Z" fill="#A0616A"/>
<path d="M203.381 69.6024C203.384 70.0306 203.528 70.4458 203.791 70.7843C204.053 71.1228 204.42 71.3659 204.834 71.4763C205.343 71.6221 205.793 71.9229 206.122 72.3366C206.184 72.4174 206.242 72.5021 206.293 72.5903C206.591 73.1295 207.015 73.5889 207.529 73.9295C208.042 74.27 208.631 74.4817 209.244 74.5465C211.265 74.7309 213.378 75.9556 215.058 77.2503C216.896 78.6671 218.686 80.2047 220.81 81.1407C223.875 82.491 227.89 82.4126 229.741 78.6822C230.504 77.0834 230.691 75.2708 230.272 73.55C229.444 69.9404 226.773 67.2431 224.194 64.687L225.71 65.2007C222.844 62.458 220.561 59.1654 219 55.5204C218.498 56.2629 217.222 55.8673 216.821 55.0656C216.421 54.2638 216.582 53.3136 216.64 52.4197C216.714 51.2929 216.498 49.9442 215.128 49.7024C214.799 49.6537 214.463 49.6736 214.142 49.7608C213.821 49.8479 213.521 50.0004 213.262 50.2088C208.278 54.041 204.141 58.8613 201.112 64.3668C200.44 65.5899 199.807 66.9885 200.169 68.3361C200.531 69.6836 202.407 70.6026 203.381 69.6024Z" fill="#DA8661"/>
<path d="M246.247 47.1415C254.213 47.1415 260.67 40.6924 260.67 32.7371C260.67 24.7818 254.213 18.3328 246.247 18.3328C238.282 18.3328 231.824 24.7818 231.824 32.7371C231.824 40.6924 238.282 47.1415 246.247 47.1415Z" fill="#A0616A"/>
<path d="M268.105 46.4409C267.357 44.9284 264.978 45.1052 263.765 46.2837C262.558 47.4623 262.119 49.1908 261.437 50.7295C260.756 52.2746 259.53 53.8395 257.845 53.9049C256.245 53.9639 254.954 52.6675 253.459 52.1044C251.774 51.4693 249.925 51.8032 248.221 52.458C248.181 52.2943 248.142 52.1306 248.09 51.9735C247.841 51.1289 247.487 50.3193 247.034 49.564C247.032 50.4001 246.899 51.2307 246.641 52.0258C246.478 52.5294 246.263 53.0145 245.998 53.4728C244.366 54.2978 242.753 55.1817 240.957 55.4763C238.78 55.843 236.178 55.0311 235.358 52.9752C234.755 51.4562 235.293 49.6884 236.21 48.32C237.128 46.9581 238.387 45.8647 239.416 44.588C240.424 43.3965 241.18 42.0137 241.639 40.5227C242.097 39.0318 242.249 37.4636 242.085 35.9126C241.903 34.5527 241.4 33.2554 240.618 32.1274C239.837 30.9993 238.798 30.0728 237.587 29.4241C236.319 29.881 235.004 30.1972 233.667 30.367C233.419 29.5224 233.064 28.7128 232.611 27.9575C232.609 28.7935 232.477 29.6241 232.218 30.4193C230.97 30.401 229.772 29.9284 228.848 29.0902C226.882 27.2307 227.065 23.9832 228.193 21.5214C229.05 19.6566 230.338 18.0218 231.952 16.7515C233.565 15.4813 235.458 14.6119 237.474 14.2149C239.489 13.8179 241.571 13.9046 243.546 14.468C245.522 15.0314 247.335 16.0553 248.837 17.4554C250.994 14.64 255.321 14.1948 258.533 15.7138C261.739 17.2394 263.968 20.2774 265.548 23.4529C269.072 30.5794 269.977 38.7158 268.105 46.4409Z" fill="#2F2E41"/>
</g>
<defs>
<clipPath id="clip0_3644_19318">
<rect width="373" height="313" fill="white"/>
</clipPath>
</defs>
</svg>
