<svg width="404" height="393" viewBox="0 0 404 393" fill="none" xmlns="http://www.w3.org/2000/svg">
<g clip-path="url(#clip0_3644_18823)">
<path d="M155.985 357.95L145.464 367.635L153.825 353.606C147.238 341.662 136.464 331.339 136.464 331.339C136.464 331.339 114.113 352.751 114.113 369.583C114.113 386.414 124.12 392.291 136.464 392.291C148.809 392.291 158.815 386.414 158.815 369.583C158.815 365.836 157.707 361.863 155.985 357.95Z" fill="#F2F2F2"/>
<path d="M142.758 368.159V368.988C142.709 378.632 141.083 386.157 137.891 391.455C137.846 391.533 137.797 391.607 137.751 391.685L137.394 391.467L137.053 391.254C140.594 385.532 141.847 377.445 141.892 369.034C141.896 368.763 141.9 368.487 141.896 368.212C141.884 364.651 141.666 361.049 141.317 357.55C141.292 357.279 141.263 357.004 141.235 356.728C140.75 352.112 140.052 347.701 139.337 343.869C139.288 343.598 139.234 343.327 139.181 343.06C137.944 336.579 136.683 331.884 136.396 330.845C136.363 330.718 136.342 330.648 136.338 330.631L136.729 330.52L136.733 330.516L137.127 330.405C137.131 330.422 137.201 330.656 137.316 331.091C137.755 332.718 138.897 337.133 140.019 342.957C140.068 343.22 140.121 343.491 140.171 343.762C140.754 346.871 141.325 350.346 141.777 353.993C141.892 354.909 141.994 355.813 142.085 356.704C142.118 356.979 142.146 357.254 142.171 357.525C142.549 361.308 142.745 364.853 142.758 368.159Z" fill="white"/>
<path d="M140.019 342.957C139.744 342.994 139.464 343.031 139.181 343.06C138.411 343.139 137.638 343.179 136.864 343.179C133.567 343.183 130.31 342.448 127.335 341.027C127.162 341.244 126.99 341.462 126.813 341.684C129.943 343.212 133.381 344.004 136.864 344C137.69 344 138.516 343.956 139.337 343.869C139.616 343.84 139.895 343.803 140.171 343.762C142.442 343.436 144.651 342.767 146.722 341.778C146.546 341.552 146.373 341.331 146.205 341.113C144.245 342.029 142.16 342.65 140.019 342.957Z" fill="white"/>
<path d="M142.085 356.704C141.802 356.72 141.518 356.728 141.235 356.728C141.149 356.733 141.058 356.733 140.972 356.733C137.399 356.733 133.879 355.869 130.712 354.215C127.545 352.56 124.825 350.165 122.784 347.233C122.619 347.475 122.455 347.717 122.295 347.964C124.422 350.931 127.226 353.348 130.474 355.016C133.722 356.684 137.321 357.554 140.972 357.554C141.087 357.554 141.202 357.554 141.317 357.55C141.604 357.546 141.888 357.538 142.171 357.525C146.557 357.301 150.785 355.818 154.35 353.254C154.219 353.011 154.087 352.769 153.952 352.527C150.487 355.044 146.363 356.496 142.085 356.704Z" fill="white"/>
<path d="M142.759 368.159C142.471 368.184 142.184 368.2 141.896 368.212C141.588 368.225 141.28 368.233 140.972 368.233C136.171 368.227 131.501 366.667 127.66 363.785C123.82 360.903 121.017 356.856 119.67 352.247C119.485 352.58 119.301 352.909 119.124 353.241C120.642 357.839 123.569 361.841 127.491 364.68C131.413 367.518 136.13 369.049 140.972 369.054C141.28 369.054 141.588 369.05 141.892 369.034C142.184 369.025 142.471 369.009 142.759 368.989C148.566 368.534 153.984 365.89 157.916 361.591C157.829 361.287 157.731 360.988 157.632 360.684C153.835 365.015 148.5 367.696 142.759 368.159Z" fill="white"/>
<path d="M403.415 21.0461H0.584594C0.429882 21.0455 0.2817 20.9837 0.172491 20.8741C0.063281 20.7646 0.00195312 20.6162 0.00195312 20.4615C0.00195312 20.3068 0.063281 20.1584 0.172491 20.0488C0.2817 19.9392 0.429882 19.8774 0.584594 19.8768H403.415C403.57 19.8774 403.718 19.9392 403.827 20.0488C403.937 20.1584 403.998 20.3068 403.998 20.4615C403.998 20.6162 403.937 20.7646 403.827 20.8741C403.718 20.9837 403.57 21.0455 403.415 21.0461Z" fill="#CACACA"/>
<path d="M13.7442 12.8615C17.2961 12.8615 20.1755 9.98235 20.1755 6.43075C20.1755 2.87914 17.2961 0 13.7442 0C10.1924 0 7.31299 2.87914 7.31299 6.43075C7.31299 9.98235 10.1924 12.8615 13.7442 12.8615Z" fill="#3F3D56"/>
<path d="M35.961 12.8615C39.5129 12.8615 42.3923 9.98235 42.3923 6.43075C42.3923 2.87914 39.5129 0 35.961 0C32.4092 0 29.5298 2.87914 29.5298 6.43075C29.5298 9.98235 32.4092 12.8615 35.961 12.8615Z" fill="#3F3D56"/>
<path d="M58.1783 12.8615C61.7302 12.8615 64.6096 9.98235 64.6096 6.43075C64.6096 2.87914 61.7302 0 58.1783 0C54.6264 0 51.7471 2.87914 51.7471 6.43075C51.7471 9.98235 54.6264 12.8615 58.1783 12.8615Z" fill="#3F3D56"/>
<path d="M390.104 3.93348H374.318C374.009 3.93241 373.712 3.80875 373.494 3.5896C373.275 3.37044 373.153 3.07365 373.153 2.76425C373.153 2.45485 373.275 2.15807 373.494 1.93891C373.712 1.71975 374.009 1.5961 374.318 1.59503H390.104C390.258 1.5945 390.41 1.62435 390.553 1.68287C390.695 1.74139 390.824 1.82743 390.933 1.93606C391.042 2.04468 391.129 2.17375 391.188 2.31587C391.247 2.45799 391.277 2.61037 391.277 2.76425C391.277 2.91814 391.247 3.07051 391.188 3.21263C391.129 3.35476 391.042 3.48382 390.933 3.59245C390.824 3.70108 390.695 3.78712 390.553 3.84564C390.41 3.90416 390.258 3.93401 390.104 3.93348Z" fill="#3F3D56"/>
<path d="M390.104 8.31807H374.318C374.009 8.317 373.712 8.19334 373.494 7.97419C373.275 7.75503 373.153 7.45824 373.153 7.14884C373.153 6.83944 373.275 6.54266 373.494 6.3235C373.712 6.10434 374.009 5.98069 374.318 5.97962H390.104C390.258 5.97909 390.41 6.00894 390.553 6.06746C390.695 6.12598 390.824 6.21202 390.933 6.32065C391.042 6.42927 391.129 6.55834 391.188 6.70046C391.247 6.84258 391.277 6.99496 391.277 7.14884C391.277 7.30273 391.247 7.4551 391.188 7.59722C391.129 7.73935 391.042 7.86841 390.933 7.97704C390.824 8.08567 390.695 8.17171 390.553 8.23023C390.41 8.28875 390.258 8.3186 390.104 8.31807Z" fill="#3F3D56"/>
<path d="M390.104 12.7027H374.318C374.009 12.7016 373.712 12.578 373.494 12.3588C373.275 12.1396 373.153 11.8428 373.153 11.5334C373.153 11.224 373.275 10.9273 373.494 10.7081C373.712 10.489 374.009 10.3653 374.318 10.3642H390.104C390.258 10.3637 390.41 10.3936 390.553 10.4521C390.695 10.5106 390.824 10.5966 390.933 10.7053C391.042 10.8139 391.129 10.943 391.188 11.0851C391.247 11.2272 391.277 11.3796 391.277 11.5334C391.277 11.6873 391.247 11.8397 391.188 11.9818C391.129 12.124 391.042 12.253 390.933 12.3617C390.824 12.4703 390.695 12.5563 390.553 12.6148C390.41 12.6734 390.258 12.7032 390.104 12.7027Z" fill="#3F3D56"/>
<path d="M381.295 47.4844H12.1357V243.055H381.295V47.4844Z" fill="#F0F0F0"/>
<path d="M381.295 84.092V82.1741H309.434V47.4844H307.516V82.1741H235.655V47.4844H233.737V82.1741H161.877V47.4844H159.959V82.1741H88.0975V47.4844H86.1794V82.1741H12.1357V84.092H86.1794V122.415H12.1357V124.333H86.1794V162.656H12.1357V164.574H86.1794V202.89H12.1357V204.808H86.1794V243.055H88.0975V204.808H159.959V243.055H161.877V204.808H233.737V243.055H235.655V204.808H307.516V243.055H309.434V204.808H381.295V202.89H309.434V164.574H381.295V162.656H309.434V124.333H381.295V122.415H309.434V84.092L381.295 84.092ZM159.959 202.89H88.0975V164.574H159.959V202.89ZM159.959 162.656H88.0975V124.333H159.959V162.656ZM159.959 122.415H88.0975V84.092H159.959V122.415ZM233.737 202.89H161.877V164.574H233.737V202.89ZM233.737 162.656H161.877V124.333H233.737V162.656ZM233.737 122.415H161.877V84.092H233.737V122.415ZM307.516 202.89H235.655V164.574H307.516V202.89ZM307.516 162.656H235.655V124.333H307.516V162.656ZM307.516 122.415H235.655V84.0921H307.516V122.415Z" fill="white"/>
<path d="M127.09 93.412H102.393V117.32H127.09V93.412Z" fill="#CACACA"/>
<path d="M354.467 170.826H329.77V194.733H354.467V170.826Z" fill="#CACACA"/>
<path d="M134.762 210.578H110.065V234.486H134.762V210.578Z" fill="#CACACA"/>
<path d="M142.061 88.9764H117.364V112.884H142.061V88.9764Z" fill="#DA8661"/>
<path d="M258.156 188.356L287.463 162.247L296.109 166.531L260.959 203.395L258.156 188.356Z" fill="#FFB6B6"/>
<path d="M291.321 171.221C295.173 171.221 298.296 168.098 298.296 164.246C298.296 160.395 295.173 157.272 291.321 157.272C287.469 157.272 284.346 160.395 284.346 164.246C284.346 168.098 287.469 171.221 291.321 171.221Z" fill="#FFB6B6"/>
<path d="M230.724 384.875H223.789L220.49 358.129L230.724 358.13L230.724 384.875Z" fill="#FFB6B6"/>
<path d="M232.493 391.597L210.132 391.596V391.313C210.132 389.005 211.049 386.792 212.682 385.16C214.314 383.528 216.527 382.611 218.836 382.611L232.493 382.611L232.493 391.597Z" fill="#2F2E41"/>
<path d="M205.615 384.875H198.68L195.381 358.129L205.616 358.13L205.615 384.875Z" fill="#FFB6B6"/>
<path d="M207.383 391.597L185.023 391.596V391.313C185.023 389.005 185.94 386.792 187.572 385.16C189.204 383.528 191.418 382.611 193.726 382.611L207.384 382.611L207.383 391.597Z" fill="#2F2E41"/>
<path d="M236.548 231.989C236.548 231.989 253.985 230.594 248.405 261.281C242.825 291.967 231.268 375.909 231.268 375.909L220.789 377.35L214.599 265.372L209.915 377.35L196.588 375.909L183.54 255.701C183.54 255.701 179.35 246.036 183.538 239.361C187.725 232.686 236.548 231.989 236.548 231.989Z" fill="#2F2E41"/>
<path d="M225.389 155.97L230.23 153.377C230.23 153.377 242.157 152.36 247.025 166.37L259.935 185.866L280.859 167.734L289.926 174.01L263.555 205.481L252.59 206.882L228.876 176.195L225.389 155.97Z" fill="#3F3D56"/>
<path d="M207.822 99.3864C187.931 99.3864 182.364 121.234 182.364 133.56C182.364 145.886 193.762 144.021 207.822 144.021C213.856 144.021 219.397 144.362 223.76 143.779L225.859 138.655L227.548 142.901C231.129 141.585 233.279 138.911 233.279 133.56C233.279 121.234 228.397 99.3864 207.822 99.3864Z" fill="#2F2E41"/>
<path d="M207.736 144.001C217.197 144.001 224.867 136.332 224.867 126.871C224.867 117.411 217.197 109.742 207.736 109.742C198.275 109.742 190.605 117.411 190.605 126.871C190.605 136.332 198.275 144.001 207.736 144.001Z" fill="#FFB6B6"/>
<path d="M187.943 125.191H194.719L197.708 116.822L198.306 125.191H201.544L203.288 120.309L203.637 125.191H227.699C227.699 120.382 225.789 115.77 222.388 112.369C218.987 108.968 214.375 107.058 209.565 107.058H206.078C201.268 107.058 196.656 108.968 193.255 112.369C189.854 115.77 187.943 120.382 187.943 125.191Z" fill="#2F2E41"/>
<path d="M302.48 137.796H277.783V161.703H302.48V137.796Z" fill="#DA8661"/>
<path d="M241.968 225.678C239.338 225.712 231.416 178.707 231.416 178.707L230.23 153.377L221.573 153.086V152.517C221.573 151.373 221.119 150.277 220.311 149.468C219.502 148.66 218.406 148.206 217.262 148.206H200.775C199.68 148.206 198.626 148.624 197.828 149.374C197.03 150.124 196.547 151.149 196.478 152.242L189.69 152.014L177.933 189.364C177.933 189.364 188.766 224.068 183.538 239.361C183.538 239.361 234.48 243.735 244.232 234.026C244.232 234.026 244.599 225.644 241.968 225.678Z" fill="#3F3D56"/>
<path d="M192.607 156.668L189.69 152.014C189.69 152.014 180.197 149.667 176.289 155.957C172.381 162.247 160.893 196.328 160.893 196.328L172.75 200.512L186.205 181.65L192.607 156.668Z" fill="#3F3D56"/>
<path d="M222.271 181.036H197.574V204.943H222.271V181.036Z" fill="#DA8661"/>
<path d="M178.625 189.677L170.033 188.768C169.491 189.925 169.218 191.191 169.237 192.469C169.256 193.747 169.565 195.004 170.142 196.145C170.718 197.286 171.546 198.281 172.564 199.054C173.582 199.828 174.762 200.36 176.016 200.61L210.013 207.395L206.467 196.474L178.625 189.677Z" fill="#FFB6B6"/>
<path d="M210.115 207.521C213.967 207.521 217.09 204.398 217.09 200.547C217.09 196.695 213.967 193.572 210.115 193.572C206.263 193.572 203.141 196.695 203.141 200.547C203.141 204.398 206.263 207.521 210.115 207.521Z" fill="#FFB6B6"/>
<path d="M201.408 207.733L175.508 201.815C173.631 201.381 171.898 200.47 170.477 199.17C169.055 197.87 167.994 196.225 167.394 194.394L166.348 191.167L173.07 185.877L203.865 194.484L201.408 207.733Z" fill="#3F3D56"/>
<path d="M346.951 393H81.2131C81.0281 393 80.8507 392.927 80.7199 392.796C80.5891 392.665 80.5156 392.488 80.5156 392.303C80.5156 392.118 80.5891 391.94 80.7199 391.809C80.8507 391.679 81.0281 391.605 81.2131 391.605H346.951C347.136 391.605 347.313 391.679 347.444 391.809C347.575 391.94 347.649 392.118 347.649 392.303C347.649 392.488 347.575 392.665 347.444 392.796C347.313 392.927 347.136 393 346.951 393Z" fill="#CACACA"/>
</g>
<defs>
<clipPath id="clip0_3644_18823">
<rect width="404" height="393" fill="white"/>
</clipPath>
</defs>
</svg>
