<svg width="370" height="358" viewBox="0 0 370 358" fill="none" xmlns="http://www.w3.org/2000/svg">
<g clip-path="url(#clip0_3644_21090)">
<path d="M337.552 342.492C337.156 342.51 336.765 342.406 336.43 342.194C336.096 341.982 335.834 341.673 335.682 341.307C335.529 340.942 335.492 340.538 335.576 340.151C335.661 339.764 335.862 339.412 336.152 339.144L336.285 338.617C336.267 338.575 336.25 338.533 336.232 338.491C335.834 337.549 335.166 336.747 334.313 336.183C333.46 335.62 332.46 335.322 331.438 335.326C330.417 335.329 329.419 335.635 328.57 336.205C327.721 336.774 327.06 337.582 326.668 338.527C325.104 342.296 323.113 346.072 322.622 350.058C322.406 351.82 322.497 353.606 322.892 355.336C319.218 347.317 317.31 338.602 317.298 329.78C317.297 327.566 317.42 325.354 317.666 323.155C317.869 321.351 318.151 319.56 318.512 317.783C320.481 308.136 324.709 299.095 330.848 291.402C333.82 289.779 336.223 287.285 337.733 284.254C338.281 283.164 338.668 282.001 338.882 280.801C338.547 280.845 337.618 275.737 337.871 275.423C337.404 274.714 336.568 274.361 336.057 273.669C333.52 270.227 330.025 270.828 328.2 275.506C324.301 277.475 324.264 280.74 326.656 283.88C328.177 285.878 328.387 288.581 329.722 290.72C329.584 290.896 329.442 291.066 329.304 291.242C326.793 294.473 324.604 297.943 322.769 301.601C323.216 297.503 322.683 293.357 321.216 289.505C319.728 285.914 316.941 282.891 314.486 279.787C311.537 276.059 305.49 277.686 304.971 282.412C304.966 282.458 304.961 282.503 304.956 282.549C305.321 282.755 305.678 282.973 306.027 283.205C306.466 283.498 306.806 283.917 307.002 284.407C307.199 284.897 307.243 285.435 307.129 285.95C307.015 286.466 306.748 286.935 306.363 287.296C305.978 287.657 305.493 287.893 304.971 287.973L304.918 287.982C305.048 289.297 305.277 290.6 305.604 291.88C302.455 304.067 309.254 308.505 318.963 308.705C319.177 308.815 319.386 308.925 319.6 309.029C317.757 314.257 316.6 319.702 316.16 325.227C315.911 328.487 315.926 331.762 316.204 335.02L316.188 334.905C315.484 331.282 313.553 328.014 310.72 325.651C306.513 322.192 300.568 320.919 296.029 318.139C295.547 317.829 294.986 317.663 294.413 317.662C293.839 317.661 293.278 317.823 292.794 318.131C292.31 318.438 291.924 318.878 291.681 319.398C291.439 319.918 291.35 320.496 291.425 321.065C291.432 321.105 291.438 321.146 291.444 321.186C292.121 321.462 292.78 321.78 293.417 322.137C293.781 322.343 294.138 322.562 294.488 322.793C294.926 323.086 295.266 323.505 295.463 323.995C295.659 324.485 295.704 325.023 295.589 325.538C295.475 326.054 295.208 326.523 294.823 326.884C294.438 327.245 293.953 327.481 293.432 327.561L293.378 327.57C293.34 327.575 293.307 327.581 293.268 327.586C294.425 330.348 296.047 332.891 298.065 335.102C300.035 345.741 308.492 346.75 317.54 343.652H317.545C318.538 347.969 319.976 352.17 321.837 356.189H337.167C337.222 356.018 337.272 355.842 337.321 355.672C335.902 355.761 334.478 355.676 333.079 355.419C334.217 354.022 335.354 352.615 336.492 351.218C336.517 351.192 336.541 351.164 336.563 351.136C337.14 350.421 337.722 349.712 338.299 348.997L338.3 348.996C338.33 346.805 338.079 344.619 337.552 342.492Z" fill="#F2F2F2"/>
<path d="M312.007 206.08C316.07 191.318 323.649 178.746 335.886 169.074C336.37 168.325 337.131 167.799 338.002 167.612C338.873 167.424 339.783 167.59 340.532 168.073L368.463 186.118C369.211 186.603 369.737 187.364 369.924 188.236C370.112 189.107 369.946 190.018 369.464 190.767L345.584 227.774C345.1 228.522 344.339 229.048 343.468 229.236C342.597 229.423 341.687 229.258 340.938 228.775L313.007 210.73C312.259 210.245 311.734 209.483 311.546 208.612C311.359 207.74 311.524 206.83 312.007 206.08Z" fill="#F2F2F2"/>
<path d="M321.362 196.287C322.409 188.487 328.857 180.514 336.714 172.496C337.167 171.795 337.88 171.302 338.696 171.127C339.511 170.951 340.363 171.106 341.065 171.558L365.069 187.067C365.77 187.52 366.262 188.234 366.438 189.05C366.613 189.866 366.458 190.719 366.006 191.421L344.757 224.352C344.303 225.053 343.591 225.545 342.775 225.721C341.959 225.897 341.107 225.741 340.405 225.289L325.535 215.682C322.415 213.661 320.223 210.484 319.44 206.848C318.658 203.212 319.349 199.414 321.362 196.287Z" fill="white"/>
<path d="M323.504 228.088C319.959 213.193 320.55 198.522 326.619 184.149C326.684 183.259 327.098 182.432 327.771 181.847C328.444 181.263 329.321 180.97 330.21 181.032L363.373 183.387C364.262 183.451 365.089 183.865 365.673 184.539C366.257 185.212 366.55 186.09 366.488 186.979L363.372 230.919C363.308 231.808 362.894 232.636 362.221 233.22C361.548 233.804 360.671 234.097 359.782 234.035L326.618 231.681C325.729 231.617 324.902 231.202 324.318 230.529C323.735 229.855 323.442 228.978 323.504 228.088Z" fill="#F2F2F2"/>
<path d="M326.989 214.997C324.153 207.657 325.966 197.562 328.992 186.749C329.052 185.916 329.44 185.141 330.07 184.594C330.701 184.047 331.522 183.772 332.355 183.83L360.856 185.854C361.688 185.914 362.463 186.302 363.01 186.932C363.556 187.563 363.831 188.385 363.773 189.218L361 228.319C360.94 229.151 360.552 229.926 359.922 230.474C359.292 231.021 358.47 231.295 357.638 231.237L339.982 229.984C336.274 229.716 332.824 227.988 330.388 225.179C327.953 222.369 326.73 218.708 326.989 214.997Z" fill="white"/>
<path d="M326.363 136.136L312.155 83.5164C311.547 81.2889 310.087 79.3901 308.092 78.2298C306.097 77.0694 303.726 76.7406 301.49 77.3142C300.334 77.611 299.25 78.1403 298.304 78.8699C297.359 79.5995 296.572 80.5141 295.991 81.558C295.411 82.6019 295.049 83.7531 294.927 84.9415C294.806 86.13 294.928 87.3307 295.285 88.4705L311.718 142.676L320.316 176.035C319.064 176.992 318.136 178.311 317.659 179.813C317.182 181.316 317.179 182.929 317.651 184.433C318.122 185.937 319.045 187.26 320.293 188.221C321.542 189.183 323.056 189.736 324.63 189.806C326.204 189.877 327.761 189.461 329.091 188.614C330.42 187.768 331.456 186.533 332.06 185.077C332.663 183.62 332.804 182.013 332.463 180.474C332.121 178.935 331.315 177.539 330.153 176.474L326.363 136.136Z" fill="#FFB6B6"/>
<path d="M223.9 145.239L238.47 92.7186C239.081 90.4917 238.792 88.1138 237.666 86.0981C236.54 84.0824 234.667 82.5904 232.451 81.9442C231.305 81.61 230.103 81.5127 228.918 81.6585C227.733 81.8043 226.59 82.1901 225.559 82.7923C224.528 83.3945 223.63 84.2005 222.92 85.1611C222.211 86.1218 221.704 87.217 221.431 88.3801L207.968 143.4L198.379 176.487C196.814 176.671 195.344 177.334 194.169 178.383C192.994 179.433 192.17 180.819 191.809 182.354C191.449 183.889 191.569 185.497 192.154 186.961C192.739 188.425 193.76 189.673 195.078 190.536C196.397 191.399 197.949 191.835 199.523 191.784C201.098 191.734 202.619 191.2 203.88 190.254C205.14 189.309 206.08 187.998 206.57 186.5C207.06 185.001 207.077 183.388 206.62 181.88L223.9 145.239Z" fill="#FFB6B6"/>
<path d="M307.277 346.982L297.993 346.982L293.576 311.149L307.279 311.149L307.277 346.982Z" fill="#FFB6B6"/>
<path d="M307.604 356.674L279.054 356.673V356.312C279.054 353.363 280.225 350.534 282.309 348.449C284.393 346.364 287.219 345.192 290.166 345.192L295.382 341.233L305.112 345.193L307.605 345.193L307.604 356.674Z" fill="#2F2E41"/>
<path d="M241.941 347.076L232.801 345.444L234.739 309.391L248.229 311.799L241.941 347.076Z" fill="#FFB6B6"/>
<path d="M240.563 356.674L212.456 351.658L212.519 351.303C213.037 348.399 214.686 345.821 217.103 344.134C219.521 342.447 222.509 341.79 225.41 342.308L231.239 339.326L240.124 344.933L242.577 345.371L240.563 356.674Z" fill="#2F2E41"/>
<path d="M242.847 182.227C242.847 182.227 234.194 194.49 234.547 198.605C234.899 202.721 237.955 199.438 234.899 202.721C231.844 206.004 230.063 203.801 231.565 207.857C233.066 211.913 233.677 209.287 233.066 211.913C232.455 214.539 233.677 314.998 233.677 314.998H249.588C249.588 314.998 258.562 256.748 257.426 254.028C256.29 251.309 256.316 252.493 257.525 249.603C258.734 246.712 259.872 243.274 259.872 243.274L272.449 207.857L282.151 257.724L293.57 316.981H308.818C308.818 316.981 311.429 229.843 312.583 228.757C313.738 227.671 312.357 225.231 310.908 223.825C309.46 222.418 309.749 220.991 310.215 218.093C310.682 215.196 312.651 213.58 312.583 211.762C312.516 209.943 316.794 181.053 310.071 176.457C303.348 171.861 242.847 182.227 242.847 182.227Z" fill="#2F2E41"/>
<path d="M296.048 60.0735L278.25 55.4585L269.942 43.9927L250.212 46.4197L246.011 62.0593L231.965 70.2178C257.145 70.3684 243.585 143.362 247.286 148.071C250.297 151.904 232.253 161.021 237.909 166.837C243.564 172.653 241.473 170.326 240.16 176.657C238.848 182.989 229.283 189.69 240.16 189.624C251.038 189.557 316.678 188.619 314.803 181.113C312.927 173.606 312.957 175.513 310.129 170.806C307.301 166.1 305.398 168.73 306.349 161.785C307.301 154.841 304.21 149.469 306.363 146.396C309.668 141.679 306.338 107.629 303.221 108.537L296.048 60.0735Z" fill="#DA8661"/>
<path d="M290.967 60.3169C290.967 60.3169 303.986 54.7824 308.675 65.1036C310.172 68.4001 311.433 76.6802 312.648 74.8441C313.863 73.0079 312.691 77.0333 313.443 77.0382C314.114 77.0427 315.146 75.9562 314.366 79.6992C314.122 80.927 314.192 82.1967 314.571 83.3899C314.949 84.5832 315.623 85.6611 316.531 86.5231L293.903 100.084L290.967 60.3169Z" fill="#DA8661"/>
<path d="M242.05 69.6997C242.05 69.6997 229.031 64.1652 224.342 74.4864C223.024 77.3891 223.352 83.8389 220.784 83.1148C218.216 82.3907 220.039 85.119 219.7 86.0668C219.323 87.1232 220.971 90.1127 218.656 89.0666C216.341 88.0204 216.486 95.9059 216.486 95.9059L239.114 109.466L242.05 69.6997Z" fill="#DA8661"/>
<path d="M248.223 54.2421L244.473 60.8101C244.473 60.8101 234.158 66.4398 234.158 67.3781C234.158 68.3164 236.033 75.9779 234.158 81.9992C232.283 88.0205 237.738 99.3443 238.846 108.663C243.535 148.071 229.592 162.39 226.656 187.479L256.412 196.175C256.412 196.175 261.351 130.243 261.351 115.231C261.351 100.218 248.223 54.2421 248.223 54.2421Z" fill="#2F2E41"/>
<path d="M275.417 51.4272L283.082 55.7899C283.082 55.7899 293.114 58.003 293.233 58.9336C293.353 59.8642 293.389 69.7547 296.017 75.487C298.646 81.2193 297.922 84.2674 305.001 101.213C308.619 109.871 316.923 179.144 316.923 179.144L288.521 191.572C288.521 191.572 275.205 126.812 273.289 111.922C271.372 97.0325 275.417 51.4272 275.417 51.4272Z" fill="#2F2E41"/>
<path d="M256.249 42.4815C266.958 42.4815 275.638 33.7953 275.638 23.0804C275.638 12.3655 266.958 3.67932 256.249 3.67932C245.541 3.67932 236.86 12.3655 236.86 23.0804C236.86 33.7953 245.541 42.4815 256.249 42.4815Z" fill="#FFB6B6"/>
<path d="M269.01 38.1543C264.427 34.5695 270.692 18.8001 263.123 22.166C263.123 22.166 253.873 16.2756 252.014 20.1464C249.862 24.6285 242.208 22.5952 237.507 21.0132C237.877 20.1538 238.14 19.2523 238.289 18.3288C237.422 19.013 236.502 19.6291 235.54 20.1717C234.894 19.8265 234.322 19.3576 233.858 18.7916C233.399 18.2661 233.112 17.6128 233.035 16.9193C232.959 16.2258 233.096 15.5255 233.429 14.9124C234.211 13.7091 235.825 13.3388 236.776 12.2701C236.885 12.1198 236.957 11.9451 236.985 11.761C237.012 11.5769 236.995 11.3888 236.934 11.213C236.82 10.783 236.803 10.3334 236.883 9.89601C236.964 9.45867 237.139 9.04442 237.398 8.68278C237.657 8.32115 237.992 8.02103 238.379 7.80379C238.767 7.58656 239.198 7.45757 239.641 7.426C239.82 7.43145 239.996 7.3929 240.156 7.31375C240.954 6.82515 241.691 6.24323 242.351 5.58028C241.25 5.63077 242.597 -1.11695 253.519 0.161095C256.269 0.0601252 257.705 3.09485 260.413 3.5745C266.977 -0.178654 272.836 5.2353 275.687 10.4104C278.538 15.5856 281.624 32.2639 269.01 38.1543Z" fill="#2F2E41"/>
<path d="M186.278 10.322H12.4749C9.16842 10.3248 5.998 11.6399 3.65929 13.9787C1.32057 16.3176 0.00457569 19.4893 0 22.7978V179.506C0.00429977 182.815 1.31999 185.988 3.65857 188.328C5.99715 190.668 9.1677 191.984 12.4749 191.989H186.278C189.585 191.984 192.755 190.667 195.092 188.327C197.43 185.987 198.744 182.815 198.747 179.506V22.7978C198.744 19.49 197.429 16.3185 195.091 13.9794C192.754 11.6404 189.584 10.325 186.278 10.322Z" fill="white"/>
<path d="M106.865 46.289H88.2969C87.385 46.289 86.5104 45.9265 85.8655 45.2813C85.2207 44.636 84.8584 43.7609 84.8584 42.8484C84.8584 41.9359 85.2207 41.0607 85.8655 40.4155C86.5104 39.7702 87.385 39.4077 88.2969 39.4077H106.865C107.777 39.4077 108.651 39.7702 109.296 40.4155C109.941 41.0607 110.303 41.9359 110.303 42.8484C110.303 43.7609 109.941 44.636 109.296 45.2813C108.651 45.9265 107.777 46.289 106.865 46.289Z" fill="#DA8661"/>
<path d="M353.063 204.375H334.495C333.583 204.375 332.709 204.012 332.064 203.367C331.419 202.722 331.057 201.847 331.057 200.934C331.057 200.022 331.419 199.147 332.064 198.501C332.709 197.856 333.583 197.494 334.495 197.494H353.063C353.975 197.494 354.85 197.856 355.495 198.501C356.139 199.147 356.502 200.022 356.502 200.934C356.502 201.847 356.139 202.722 355.495 203.367C354.85 204.012 353.975 204.375 353.063 204.375Z" fill="#DA8661"/>
<path d="M155.005 118.358H40.1582C39.2463 118.358 38.3717 117.996 37.7268 117.351C37.082 116.705 36.7197 115.83 36.7197 114.918C36.7197 114.005 37.082 113.13 37.7268 112.485C38.3717 111.84 39.2463 111.477 40.1582 111.477H155.005C155.917 111.477 156.791 111.84 157.436 112.485C158.081 113.13 158.443 114.005 158.443 114.918C158.443 115.83 158.081 116.705 157.436 117.351C156.791 117.996 155.917 118.358 155.005 118.358Z" fill="#E6E6E6"/>
<path d="M155.005 141.067H40.1582C39.2463 141.067 38.3717 140.704 37.7268 140.059C37.082 139.414 36.7197 138.539 36.7197 137.626C36.7197 136.714 37.082 135.839 37.7268 135.193C38.3717 134.548 39.2463 134.186 40.1582 134.186H155.005C155.917 134.186 156.791 134.548 157.436 135.193C158.081 135.839 158.443 136.714 158.443 137.626C158.443 138.539 158.081 139.414 157.436 140.059C156.791 140.704 155.917 141.067 155.005 141.067Z" fill="#E6E6E6"/>
<path d="M155.005 163.775H40.1582C39.2463 163.775 38.3717 163.413 37.7268 162.767C37.082 162.122 36.7197 161.247 36.7197 160.334C36.7197 159.422 37.082 158.547 37.7268 157.902C38.3717 157.256 39.2463 156.894 40.1582 156.894H155.005C155.917 156.894 156.791 157.256 157.436 157.902C158.081 158.547 158.443 159.422 158.443 160.334C158.443 161.247 158.081 162.122 157.436 162.767C156.791 163.413 155.917 163.775 155.005 163.775Z" fill="#E6E6E6"/>
<path d="M131.53 56.6124H63.6332C60.3266 56.6152 57.1562 57.9303 54.8175 60.2692C52.4788 62.608 51.1628 65.7797 51.1582 69.0882V89.5464C51.1625 92.8557 52.4782 96.0282 54.8168 98.3682C57.1554 100.708 60.3259 102.025 63.6332 102.029H131.53C134.837 102.024 138.006 100.708 140.344 98.3675C142.681 96.0273 143.996 92.855 143.998 89.5464V69.0882C143.995 65.7804 142.681 62.6089 140.343 60.2698C138.006 57.9308 134.836 56.6154 131.53 56.6124ZM142.623 89.5464C142.623 92.492 141.454 95.3169 139.372 97.3998C137.29 99.4827 134.467 100.653 131.523 100.653H82.7838C74.761 100.653 67.0667 97.4638 61.3937 91.7872C55.7207 86.1107 52.5336 78.4117 52.5336 70.3838V69.0882C52.5383 66.1447 53.7094 63.3232 55.7902 61.2424C57.8709 59.1617 60.6914 57.9915 63.6332 57.9887H131.53C134.471 57.9918 137.291 59.1622 139.37 61.2431C141.45 63.324 142.62 66.1454 142.623 69.0882V89.5464Z" fill="#E6E6E6"/>
<path d="M98.3414 86.7046C104.798 86.7046 110.032 81.4671 110.032 75.0063C110.032 68.5456 104.798 63.3081 98.3414 63.3081C91.8846 63.3081 86.6504 68.5456 86.6504 75.0063C86.6504 81.4671 91.8846 86.7046 98.3414 86.7046Z" fill="#E6E6E6"/>
<path d="M125.238 102.029L72.8965 101.843L89.4014 97.7146L91.4576 90.9227L107.282 90.8333L112.02 97.5494L123.986 100.653L125.073 100.935L125.238 102.029Z" fill="#E6E6E6"/>
<path d="M91.6971 82.4753C94.2058 80.5131 90.7764 71.8813 94.9193 73.7237C94.9193 73.7237 99.9829 70.4995 101 72.6182C102.178 75.0716 106.368 73.9586 108.941 73.0927C108.739 72.6223 108.595 72.1288 108.513 71.6233C108.988 71.9978 109.491 72.3351 110.018 72.6321C110.371 72.4431 110.684 72.1864 110.939 71.8767C111.19 71.589 111.347 71.2314 111.389 70.8518C111.431 70.4722 111.356 70.0889 111.173 69.7532C110.745 69.0946 109.861 68.8919 109.341 68.3069C109.281 68.2247 109.242 68.129 109.227 68.0283C109.212 67.9275 109.221 67.8245 109.255 67.7283C109.317 67.4929 109.326 67.2468 109.282 67.0074C109.238 66.768 109.142 66.5413 109.001 66.3433C108.859 66.1454 108.676 65.9811 108.463 65.8622C108.251 65.7433 108.015 65.6727 107.773 65.6554C107.675 65.6584 107.578 65.6373 107.491 65.5939C107.054 65.3265 106.651 65.008 106.289 64.6451C106.892 64.6727 106.155 60.9792 100.176 61.6788C98.671 61.6235 97.8849 63.2846 96.4027 63.5472C92.8097 61.4928 89.6026 64.4562 88.0421 67.289C86.4816 70.1217 84.7922 79.251 91.6971 82.4753Z" fill="#E6E6E6"/>
<path d="M186.278 10.322H12.4749C9.16842 10.3248 5.998 11.6399 3.65929 13.9787C1.32057 16.3176 0.00457569 19.4893 0 22.7978V179.506C0.00429977 182.815 1.31999 185.988 3.65857 188.328C5.99715 190.668 9.1677 191.984 12.4749 191.989H186.278C189.585 191.984 192.755 190.667 195.092 188.327C197.43 185.987 198.744 182.815 198.747 179.506V22.7978C198.744 19.49 197.429 16.3185 195.091 13.9794C192.754 11.6404 189.584 10.325 186.278 10.322ZM197.371 179.506C197.371 182.452 196.202 185.277 194.12 187.359C192.039 189.442 189.215 190.612 186.272 190.612H90.9151C79.1565 190.612 67.5132 188.295 56.6497 183.792C45.7863 179.29 35.9155 172.69 27.601 164.371C19.2864 156.051 12.691 146.174 8.19119 135.304C3.69141 124.434 1.3754 112.783 1.37541 101.017V22.7978C1.38009 19.8543 2.55122 17.0328 4.63197 14.952C6.71273 12.8713 9.53323 11.7011 12.4749 11.6983H186.278C189.219 11.7014 192.039 12.8718 194.119 14.9527C196.198 17.0336 197.368 19.855 197.371 22.7978V179.506Z" fill="#E6E6E6"/>
<path d="M367.858 357.789L150.986 358C150.769 357.999 150.562 357.912 150.409 357.759C150.257 357.605 150.171 357.397 150.171 357.181C150.171 356.964 150.257 356.756 150.409 356.603C150.562 356.449 150.769 356.362 150.986 356.361L367.858 356.15C368.075 356.151 368.282 356.238 368.435 356.391C368.587 356.545 368.673 356.753 368.673 356.969C368.673 357.186 368.587 357.394 368.435 357.547C368.282 357.701 368.075 357.787 367.858 357.789Z" fill="#CACACA"/>
</g>
<defs>
<clipPath id="clip0_3644_21090">
<rect width="370" height="358" fill="white"/>
</clipPath>
</defs>
</svg>
