<svg width="20" height="20" viewBox="0 0 20 20" fill="none" xmlns="http://www.w3.org/2000/svg">
<g clip-path="url(#clip0_3736_11881)">
<path d="M13.3333 13.3333L10 10M10 10L6.66666 13.3333M10 10V17.5M16.9917 15.325C17.8044 14.8819 18.4465 14.1807 18.8166 13.3322C19.1866 12.4836 19.2635 11.536 19.0352 10.6389C18.8068 9.74179 18.2862 8.94626 17.5556 8.37787C16.8249 7.80949 15.9257 7.50061 15 7.5H13.95C13.6978 6.52437 13.2276 5.61861 12.575 4.85083C11.9223 4.08304 11.104 3.47321 10.1817 3.06717C9.25946 2.66114 8.25712 2.46947 7.25009 2.50657C6.24307 2.54367 5.25755 2.80858 4.36764 3.28139C3.47774 3.75419 2.70659 4.42259 2.11218 5.23632C1.51777 6.05005 1.11557 6.98795 0.935814 7.9795C0.756055 8.97104 0.803418 9.99044 1.07434 10.9611C1.34527 11.9317 1.8327 12.8282 2.5 13.5833" stroke="currentColor" stroke-width="2" stroke-linecap="round" stroke-linejoin="round"/>
</g>
<defs>
<clipPath id="clip0_3736_11881">
<rect width="20" height="20" fill="white"/>
</clipPath>
</defs>
</svg>
