<svg width="20" height="20" viewBox="0 0 20 20" fill="none" xmlns="http://www.w3.org/2000/svg">
<path d="M7.117 0H12.383C13.475 0 14.341 -7.82311e-08 15.038 0.0569999C15.752 0.115 16.355 0.237 16.907 0.517C17.8006 0.972845 18.527 1.69992 18.982 2.594C19.263 3.144 19.385 3.748 19.443 4.462C19.5 5.159 19.5 6.025 19.5 7.117V12.383C19.5 13.475 19.5 14.341 19.443 15.038C19.385 15.752 19.263 16.355 18.983 16.907C18.5274 17.8005 17.8007 18.5268 16.907 18.982C16.355 19.263 15.752 19.385 15.038 19.443C14.341 19.5 13.475 19.5 12.383 19.5H7.117C6.025 19.5 5.159 19.5 4.462 19.443C3.748 19.385 3.145 19.263 2.594 18.983C1.70014 18.5276 0.973414 17.8009 0.518 16.907C0.237 16.355 0.115 15.752 0.0569999 15.038C-7.82311e-08 14.341 0 13.475 0 12.383V7.117C0 6.025 -7.82311e-08 5.159 0.0569999 4.462C0.115 3.748 0.237 3.145 0.517 2.594C0.972675 1.69999 1.69977 0.973244 2.594 0.518C3.144 0.237 3.748 0.115 4.462 0.0569999C5.159 -7.82311e-08 6.025 0 7.117 0ZM4.584 1.552C3.964 1.602 3.579 1.699 3.274 1.854C2.66263 2.16556 2.16556 2.66263 1.854 3.274C1.699 3.579 1.603 3.964 1.552 4.584C1.501 5.214 1.5 6.018 1.5 7.15V12.35C1.5 13.483 1.5 14.287 1.552 14.916C1.602 15.536 1.699 15.921 1.854 16.226C2.16556 16.8374 2.66263 17.3344 3.274 17.646C3.579 17.801 3.964 17.897 4.584 17.948C4.976 17.98 5.435 17.992 6 17.998V1.502C5.435 1.507 4.976 1.52 4.584 1.552Z" fill="currentColor"/>
</svg>
