<svg width="28" height="28" viewBox="0 0 28 28" fill="none" xmlns="http://www.w3.org/2000/svg">
<path d="M4.66667 7C4.66667 6.38116 4.9125 5.78767 5.35009 5.35008C5.78767 4.9125 6.38117 4.66666 7.00001 4.66666H18.6667C18.9761 4.66666 19.2728 4.78958 19.4916 5.00837C19.7104 5.22717 19.8333 5.52391 19.8333 5.83333V9.33333L21.4179 9.41072L21.8568 9.6569M4.66667 7C4.66667 7.61884 4.9125 8.21233 5.35009 8.64991C5.78767 9.0875 6.38117 9.33333 7.00001 9.33333H21C21.3094 9.33333 21.638 9.43811 21.8568 9.6569M4.66667 7V21C4.66667 21.6188 4.9125 22.2123 5.35009 22.6499C5.78767 23.0875 6.38117 23.3333 7.00001 23.3333H21C21.3094 23.3333 21.6062 23.2104 21.825 22.9916C22.0438 22.7728 22.1667 22.4761 22.1667 22.1667V18.6667M21.8568 9.6569C22.0756 9.87569 22.1667 10.1906 22.1667 10.5V14L22.0945 10.096L21.8568 9.6569ZM23.3333 14V18.6667H18.6667C18.0478 18.6667 17.4543 18.4208 17.0168 17.9832C16.5792 17.5457 16.3333 16.9522 16.3333 16.3333C16.3333 15.7145 16.5792 15.121 17.0168 14.6834C17.4543 14.2458 18.0478 14 18.6667 14H23.3333Z" stroke="currentColor" stroke-width="2" stroke-linecap="round" stroke-linejoin="round"/>
</svg>
