<svg width="15" height="16" viewBox="0 0 15 16" fill="none" xmlns="http://www.w3.org/2000/svg">
<path d="M14.3333 8C14.3333 11.6819 11.3486 14.6667 7.66667 14.6667M14.3333 8C14.3333 4.3181 11.3486 1.33333 7.66667 1.33333M14.3333 8C14.3333 6.89543 11.3486 6 7.66667 6C3.98477 6 1 6.89543 1 8M14.3333 8C14.3333 9.10457 11.3486 10 7.66667 10C3.98477 10 1 9.10457 1 8M7.66667 14.6667C3.98477 14.6667 1 11.6819 1 8M7.66667 14.6667C9.13943 14.6667 10.3333 11.6819 10.3333 8C10.3333 4.3181 9.13943 1.33333 7.66667 1.33333M7.66667 14.6667C6.19391 14.6667 5 11.6819 5 8C5 4.3181 6.19391 1.33333 7.66667 1.33333M1 8C1 4.3181 3.98477 1.33333 7.66667 1.33333" stroke="currentColor"/>
</svg>
